<?xml version="1.0" standalone="no"?>
<!DOCTYPE svg PUBLIC "-//W3C//DTD SVG 20010904//EN"
 "http://www.w3.org/TR/2001/REC-SVG-20010904/DTD/svg10.dtd">
<svg version="1.0" xmlns="http://www.w3.org/2000/svg"
 width="16.000000pt" height="16.000000pt" viewBox="0 0 16.000000 16.000000"
 preserveAspectRatio="xMidYMid meet">
<metadata>
Created by potrace 1.11, written by Peter Selinger 2001-2013
</metadata>
<g transform="translate(0.000000,16.000000) scale(0.006250,-0.006250)"
fill="#000000" stroke="none">
<path d="M1237 2513 c-1 -1 -29 -2 -62 -4 -33 -1 -70 -6 -82 -10 -14 -5 -25
-4 -29 2 -4 7 -9 8 -13 1 -3 -5 -19 -11 -36 -13 -16 -2 -36 -7 -43 -13 -7 -5
-15 -6 -19 -3 -3 4 -12 2 -19 -4 -8 -6 -21 -9 -29 -5 -8 3 -15 2 -15 -3 0 -8
-41 -24 -65 -25 -5 -1 -16 -7 -23 -14 -8 -7 -18 -10 -23 -7 -5 4 -9 2 -9 -2 0
-10 -70 -38 -85 -34 -5 1 -7 -1 -3 -5 7 -6 -92 -71 -100 -65 -2 1 -12 -9 -23
-23 -11 -15 -26 -26 -34 -26 -7 0 -16 -7 -19 -16 -3 -8 -10 -12 -16 -9 -5 3
-10 -2 -10 -11 0 -10 -3 -15 -6 -12 -6 7 -79 -65 -133 -132 -20 -25 -38 -47
-41 -50 -16 -15 -84 -127 -109 -179 -15 -33 -30 -59 -32 -57 -2 3 -5 -7 -6
-21 0 -14 -5 -28 -10 -32 -4 -3 -8 -10 -9 -16 -2 -37 -28 -104 -38 -98 -6 4
-5 -1 3 -10 8 -11 9 -17 3 -17 -6 0 -9 -7 -6 -15 4 -8 2 -15 -3 -15 -5 0 -9
-10 -8 -22 1 -13 0 -27 -3 -32 -3 -5 -7 -43 -9 -85 -3 -42 -10 -82 -16 -90 -9
-11 -9 -13 -1 -8 8 5 12 -13 14 -61 2 -84 7 -140 15 -172 4 -14 7 -36 8 -50 1
-14 4 -27 7 -30 7 -6 46 -134 42 -138 -2 -1 4 -10 13 -18 8 -9 15 -24 15 -35
0 -10 4 -19 9 -19 5 0 12 -14 16 -30 4 -17 11 -30 16 -30 6 0 7 -5 4 -10 -3
-6 -1 -10 4 -10 6 0 11 -6 11 -13 0 -7 9 -23 20 -35 12 -12 18 -22 15 -22 -2
0 4 -10 15 -22 10 -13 20 -26 20 -30 1 -3 21 -28 45 -54 24 -26 41 -52 38 -57
-3 -6 -2 -7 4 -4 11 7 90 -72 85 -86 -1 -5 2 -5 9 -2 6 4 19 -2 30 -14 11 -12
15 -21 10 -21 -5 0 -13 5 -16 10 -3 6 -11 10 -16 10 -6 0 -7 -4 -4 -10 3 -5
-3 -10 -13 -10 -11 0 -26 -8 -33 -17 -13 -16 -12 -17 3 -4 10 7 18 9 18 3 0
-15 -28 -23 -37 -9 -12 20 -12 38 0 31 7 -3 4 1 -7 10 -10 8 -15 20 -10 27 4
7 3 10 -4 5 -6 -3 -21 4 -33 16 -12 13 -18 16 -14 8 7 -13 6 -13 -11 0 -10 9
-32 14 -49 12 -48 -5 -87 -5 -132 0 -23 2 -40 1 -37 -4 8 -13 -10 -9 -25 5
-11 9 -13 9 -7 0 4 -7 3 -13 -3 -13 -6 0 -8 -6 -5 -14 3 -7 -2 -16 -11 -20
-13 -5 -14 -9 -4 -28 12 -22 11 -22 -6 -8 -17 14 -18 14 -6 -8 7 -12 17 -20
23 -16 7 4 8 2 4 -5 -5 -7 -16 -9 -29 -5 -21 6 -20 5 3 -15 14 -13 20 -20 14
-17 -16 8 -24 -16 -18 -54 4 -24 2 -30 -7 -25 -8 5 -10 4 -5 -4 6 -9 11 -9 22
0 12 9 12 15 2 28 -12 14 -11 14 4 2 17 -12 17 -15 -4 -43 l-21 -30 24 6 c13
3 19 3 12 0 -7 -3 -9 -12 -6 -20 3 -8 0 -14 -7 -14 -6 0 -9 4 -6 8 3 5 -1 9
-9 9 -10 0 -12 -4 -5 -12 5 -7 7 -15 3 -18 -3 -4 -1 -7 6 -7 7 0 9 -4 6 -10
-4 -6 1 -7 12 -4 16 5 16 4 -1 -10 -22 -18 -14 -21 13 -6 14 7 24 4 40 -11 13
-13 21 -15 21 -7 0 9 3 9 10 -2 9 -13 14 -8 11 12 0 3 11 5 24 3 14 -1 25 2
25 7 0 5 6 6 13 2 9 -6 9 -5 0 7 -9 11 -10 18 -2 26 13 13 39 6 39 -9 0 -5 -4
-6 -10 -3 -5 3 -10 1 -10 -4 0 -6 6 -11 14 -11 7 0 19 -7 26 -15 7 -8 17 -12
24 -8 6 4 5 -1 -3 -10 -7 -9 -10 -17 -7 -17 4 0 2 -9 -4 -20 -9 -16 -8 -18 5
-14 8 3 12 10 9 15 -3 5 0 9 5 9 6 0 11 -5 11 -11 0 -7 13 -10 34 -7 19 2 33
1 30 -3 -3 -6 19 -5 36 1 3 1 9 2 13 1 5 -1 6 3 2 9 -5 9 14 15 37 11 4 0 3
12 -3 27 l-10 27 21 -23 c23 -24 45 -20 36 7 -5 12 -2 11 9 -3 9 -12 15 -15
15 -7 0 9 6 11 18 6 9 -4 30 -8 45 -10 15 -1 31 -5 34 -8 9 -9 44 13 38 23 -3
6 1 7 10 3 12 -4 13 -8 5 -13 -8 -5 -7 -9 5 -13 9 -4 14 -3 10 3 -3 6 1 13 10
17 10 3 21 0 26 -8 7 -12 9 -12 9 0 0 11 4 10 14 -4 13 -18 71 -31 60 -13 -3
4 -9 6 -14 3 -5 -3 -11 -1 -14 4 -4 5 -2 12 3 15 5 4 12 2 16 -4 3 -5 11 -10
16 -10 6 0 7 6 3 13 -5 8 -2 8 9 -2 9 -7 17 -9 17 -4 0 5 7 10 15 10 8 0 12
-3 10 -6 -2 -4 8 -12 22 -18 l25 -12 -18 27 c-16 24 -16 26 -1 13 9 -7 17 -10
17 -6 0 4 6 3 13 -4 10 -8 17 -7 27 2 10 10 11 9 5 -2 -6 -11 -4 -13 10 -7 15
5 16 4 5 -9 -11 -13 -15 -13 -21 -3 -6 9 -9 9 -9 1 0 -16 17 -26 25 -13 4 7
12 7 25 0 23 -12 40 -13 21 -1 -8 5 -16 17 -17 25 -1 9 2 14 7 10 5 -3 7 -11
3 -17 -3 -7 2 -3 10 8 15 18 17 18 33 2 11 -11 13 -17 5 -17 -7 0 -12 5 -12
11 0 5 -5 7 -10 4 -6 -4 -8 -10 -5 -14 6 -11 45 -21 43 -12 -3 24 4 33 12 14
6 -14 15 -21 24 -17 8 3 17 1 20 -5 10 -15 45 9 39 26 -4 9 0 11 11 7 10 -4
16 -1 16 7 0 7 3 9 6 6 4 -4 1 -14 -7 -24 -12 -15 -12 -16 3 -10 9 3 19 3 21
-1 2 -4 3 -2 2 3 -2 6 4 16 12 24 13 12 14 11 8 -10 -4 -13 -4 -21 0 -17 4 4
17 3 28 -3 14 -8 18 -8 13 0 -7 10 6 16 28 12 4 -1 14 3 20 8 9 8 13 7 13 -4
0 -8 -5 -11 -11 -8 -6 4 -5 -1 3 -10 10 -13 18 -14 32 -6 11 5 29 7 41 3 15
-4 19 -3 14 7 -4 8 -1 6 7 -4 14 -17 15 -16 20 3 5 18 8 20 26 9 11 -7 17 -17
14 -23 -3 -5 -1 -6 6 -2 9 6 9 11 1 21 -8 9 -8 15 0 20 5 3 13 -1 16 -9 7 -19
22 -21 20 -4 0 7 2 13 5 13 3 0 13 6 23 14 9 8 19 11 23 7 3 -3 1 -6 -6 -6 -7
0 -9 -5 -5 -11 4 -8 9 -8 17 0 6 6 15 11 21 11 5 0 1 -6 -9 -14 -11 -8 -23
-12 -27 -10 -5 3 -8 1 -8 -5 0 -5 9 -9 19 -8 11 0 17 5 15 9 -3 4 2 8 10 8 9
0 16 -5 16 -12 0 -6 3 -8 7 -5 3 4 11 3 18 -1 6 -4 4 0 -5 8 -8 9 -16 22 -18
30 -2 11 1 11 11 -2 8 -10 29 -18 48 -19 19 -2 41 -7 49 -13 13 -9 13 -8 3 5
-7 9 -9 19 -5 24 4 4 -3 3 -15 -4 -12 -6 -24 -7 -27 -3 -3 5 0 9 7 10 77 8 84
8 84 -5 0 -7 -4 -13 -9 -13 -4 0 -8 5 -8 11 0 5 -5 7 -11 3 -8 -4 -6 -10 6
-17 14 -7 21 -6 31 8 7 9 18 14 24 10 9 -6 9 -10 -1 -16 -8 -5 -9 -9 -3 -9 6
0 17 6 23 14 9 11 9 15 -1 19 -7 3 -3 4 9 4 18 -1 20 -4 11 -22 -10 -18 -10
-19 7 -5 10 8 20 14 22 13 11 -9 14 -1 4 11 -10 12 -8 13 10 9 17 -5 20 -3 14
7 -5 9 -4 11 4 6 9 -6 9 -11 0 -22 -10 -12 -9 -13 6 -8 14 6 16 4 10 -6 -6
-10 -4 -11 6 -4 21 13 49 15 49 3 0 -5 5 -7 11 -4 6 5 4 12 -8 22 -17 13 -17
13 3 4 12 -6 24 -7 28 -3 4 3 4 -2 0 -13 -6 -16 -5 -18 7 -9 19 15 51 26 45
16 -3 -5 1 -9 8 -9 8 0 12 7 9 15 -5 12 -2 12 15 3 15 -8 23 -8 28 1 5 7 2 8
-7 3 -10 -6 -11 -5 -3 4 16 17 51 21 51 6 0 -7 -6 -11 -14 -8 -7 3 -13 1 -13
-5 0 -11 25 -10 36 1 18 18 25 5 8 -14 -19 -22 -19 -22 3 -9 18 12 24 12 40 0
15 -12 16 -12 6 0 -7 8 -13 18 -13 22 0 9 41 -12 52 -27 5 -6 8 -6 8 1 0 7 8
14 18 18 9 3 24 9 32 12 13 5 13 4 0 -5 -12 -8 -11 -10 7 -8 12 0 19 5 16 11
-4 5 1 7 10 3 10 -4 16 -2 14 5 -1 7 7 16 18 21 11 6 29 21 39 35 11 14 14 22
8 18 -7 -4 -12 -3 -12 3 0 5 4 12 9 16 6 3 8 14 6 25 -2 11 2 20 8 20 8 0 7 3
-2 9 -8 5 -11 16 -8 25 3 8 1 18 -5 22 -7 5 -8 2 -3 -6 5 -9 4 -11 -3 -6 -7 4
-12 12 -12 18 0 21 -47 53 -72 49 -5 0 -8 5 -8 11 0 9 -4 8 -10 -2 -6 -10 -10
-11 -10 -2 0 6 -5 12 -11 12 -5 0 -7 -6 -4 -13 4 -6 0 -4 -8 6 -14 17 -15 17
-21 0 -4 -10 -10 -13 -14 -8 -11 15 -32 17 -32 3 0 -9 -4 -8 -10 2 -6 9 -10
11 -10 3 0 -7 -7 -10 -15 -7 -9 4 -15 0 -15 -10 0 -16 -9 -19 -40 -17 -10 0
-11 -1 -2 -5 6 -3 10 -10 7 -14 -3 -5 0 -12 6 -16 7 -4 9 -3 5 4 -3 6 -1 14 5
18 8 4 9 3 5 -4 -4 -7 -1 -12 6 -12 8 0 6 -5 -5 -11 -9 -5 -22 -7 -29 -3 -6 4
-8 3 -5 -3 4 -6 0 -13 -8 -17 -17 -6 -30 10 -15 17 7 4 6 5 0 4 -7 -2 -11 -6
-10 -11 1 -5 -4 -13 -12 -18 -10 -7 -8 -8 5 -4 12 4 16 2 11 -6 -5 -7 -3 -8 6
-3 9 6 11 4 5 -5 -5 -9 -4 -11 4 -6 6 4 9 11 6 16 -3 4 2 11 11 14 9 3 12 2 9
-5 -4 -5 -1 -16 5 -24 10 -12 8 -13 -10 -10 -14 3 -20 0 -17 -8 3 -7 10 -11
16 -9 16 3 14 -3 -6 -19 -10 -9 -14 -9 -10 -2 5 7 -1 17 -13 23 -11 6 -18 14
-16 19 3 4 -4 12 -15 19 -28 18 -24 -4 6 -33 23 -23 23 -34 0 -17 -17 12 -46
62 -36 62 16 0 20 38 4 44 -8 3 -11 2 -8 -3 3 -5 1 -12 -4 -15 -11 -7 -9 13 2
32 5 7 13 9 19 6 7 -4 8 -2 4 5 -6 9 -11 9 -21 1 -8 -7 -15 -7 -19 -1 -3 5 -1
11 6 13 24 8 -2 24 -36 23 -20 -1 -36 2 -36 6 0 8 12 12 23 8 5 -2 131 128
171 176 24 30 47 51 51 47 5 -4 5 -1 1 6 -4 7 3 25 18 43 14 17 26 37 26 44 0
8 7 18 16 23 9 5 16 12 15 15 0 4 12 33 27 64 26 58 28 63 31 84 0 5 5 8 10 4
6 -3 8 4 6 15 -2 11 -1 20 3 20 4 0 9 12 10 28 1 15 7 29 12 30 6 2 8 7 6 11
-3 4 1 31 8 59 8 28 11 53 9 56 -3 3 -1 11 4 18 6 7 9 23 7 36 -2 12 -1 22 4
22 4 0 6 55 4 122 -5 186 -6 207 -15 201 -5 -3 -7 1 -6 8 3 15 -13 108 -21
124 -1 3 -3 8 -5 13 -1 4 -5 15 -10 26 -4 10 -8 31 -9 46 -1 16 -3 26 -5 24
-6 -5 -31 45 -31 62 0 8 -4 14 -8 14 -8 0 -36 60 -33 73 0 4 -4 7 -10 7 -5 0
-7 5 -4 10 3 6 2 10 -3 10 -5 0 -17 16 -28 35 -10 19 -22 35 -26 35 -5 0 -8 5
-8 11 0 6 -7 17 -15 26 -8 8 -13 19 -10 24 4 5 1 9 -5 9 -14 0 -56 51 -52 63
1 5 -2 6 -6 3 -12 -7 -44 28 -35 39 5 4 3 5 -4 2 -6 -4 -22 6 -36 22 -14 17
-28 27 -31 24 -3 -4 -6 -2 -6 4 0 6 -18 22 -40 37 -24 16 -38 31 -34 38 4 7 3
8 -5 4 -7 -4 -26 3 -44 16 -18 13 -45 29 -60 36 -17 7 -25 17 -21 24 4 7 3 8
-4 4 -7 -4 -42 7 -79 24 -38 18 -75 34 -83 36 -8 2 -43 11 -77 20 -35 9 -61
20 -58 23 2 4 -12 5 -32 3 -20 -3 -33 -1 -30 4 3 5 -9 9 -26 9 -18 -1 -70 1
-115 5 -46 3 -84 4 -85 3z m713 -2191 c0 -4 -10 -9 -22 -9 -18 -2 -20 0 -8 7
18 12 30 13 30 2z m-1866 -44 c-3 -4 -9 -8 -15 -8 -5 0 -9 4 -9 8 0 5 7 9 15
9 8 0 12 -4 9 -9z m360 4 c3 -5 -1 -9 -9 -9 -8 0 -15 4 -15 9 0 4 4 8 9 8 6 0
12 -4 15 -8z m1926 -27 c-6 -7 -8 -21 -4 -31 3 -12 0 -10 -9 5 -12 20 -15 21
-20 7 -4 -10 -3 -15 3 -11 6 3 10 -1 10 -9 0 -8 -5 -18 -12 -22 -7 -4 -8 -3
-4 4 4 7 1 12 -9 12 -11 0 -15 5 -11 16 3 8 2 13 -2 10 -5 -3 -9 1 -9 9 0 8 4
12 9 9 4 -3 15 -1 24 4 24 13 46 11 34 -3z m-1947 -8 c3 -8 -1 -14 -8 -14 -7
0 -11 6 -8 14 6 16 10 16 16 0z m7 -31 c0 -2 -8 -10 -17 -17 -16 -13 -17 -12
-4 4 13 16 21 21 21 13z m180 -116 c8 -15 6 -18 -8 -15 -9 2 -20 4 -24 4 -5 1
-8 6 -8 12 0 8 5 8 15 -1 18 -15 20 1 3 19 -10 11 -10 12 -1 7 7 -4 17 -15 23
-26z m1377 7 c0 -8 -6 -14 -14 -14 -9 0 -10 4 -2 14 6 7 12 13 14 13 1 0 2 -6
2 -13z m-1332 -27 c3 -6 -1 -7 -9 -4 -18 7 -21 14 -7 14 6 0 13 -4 16 -10z
m139 -6 c3 -8 2 -12 -4 -9 -6 3 -10 10 -10 16 0 14 7 11 14 -7z m377 -9 c5 4
9 2 9 -4 0 -20 -19 -21 -29 -2 -14 25 -14 42 0 18 6 -9 14 -15 20 -12z m149
20 c0 -2 -10 -9 -22 -15 -22 -11 -22 -10 -4 4 21 17 26 19 26 11z"/>
<path d="M230 459 c0 -5 5 -7 10 -4 6 3 10 8 10 11 0 2 -4 4 -10 4 -5 0 -10
-5 -10 -11z"/>
<path d="M96 91 c-4 -5 -2 -12 3 -15 5 -4 12 -2 15 3 4 5 2 12 -3 15 -5 4 -12
2 -15 -3z"/>
<path d="M260 90 c-8 -5 -10 -10 -5 -11 6 0 18 -2 28 -4 15 -3 16 -1 6 11 -14
16 -10 16 -29 4z"/>
<path d="M946 67 c3 -10 9 -15 12 -12 3 3 0 11 -7 18 -10 9 -11 8 -5 -6z"/>
<path d="M1567 63 c6 -16 10 -16 16 0 3 8 -1 14 -8 14 -7 0 -11 -6 -8 -14z"/>
<path d="M870 62 c0 -4 10 -9 22 -9 18 -2 20 0 8 7 -18 12 -30 13 -30 2z"/>
<path d="M1320 56 c0 -2 8 -10 18 -17 15 -13 16 -12 3 4 -13 16 -21 21 -21 13z"/>
</g>
</svg>
