<?xml version="1.0" standalone="no"?>
<!DOCTYPE svg PUBLIC "-//W3C//DTD SVG 20010904//EN"
 "http://www.w3.org/TR/2001/REC-SVG-20010904/DTD/svg10.dtd">
<svg version="1.0" xmlns="http://www.w3.org/2000/svg"
 width="500.000000pt" height="500.000000pt" viewBox="0 0 500.000000 500.000000"
 preserveAspectRatio="xMidYMid meet">
<metadata>
Created by potrace 1.11, written by Peter Selinger 2001-2013
</metadata>
<g transform="translate(0.000000,500.000000) scale(0.100000,-0.100000)"
fill="#000000" stroke="none">
<path d="M23 4685 c15 -208 59 -335 165 -484 43 -62 91 -111 339 -354 81 -79
100 -103 101 -127 0 -17 -2 -30 -5 -30 -3 0 -30 24 -61 54 -109 103 -157 146
-163 146 -4 0 -6 -29 -4 -64 13 -255 86 -383 387 -677 148 -144 159 -158 156
-188 l-3 -32 -95 89 c-52 50 -96 89 -98 87 -10 -9 -7 -154 3 -198 18 -72 23
-83 71 -157 59 -91 58 -89 508 -504 17 -15 58 -54 91 -85 34 -31 107 -99 164
-151 219 -201 239 -222 251 -268 6 -24 13 -93 14 -152 3 -109 10 -133 49 -171
47 -47 323 -307 345 -326 26 -22 41 -19 46 8 1 8 9 30 18 49 9 19 50 116 93
214 70 163 75 181 60 192 -9 7 -53 46 -98 87 -45 40 -152 136 -237 212 -129
115 -289 258 -334 300 -6 6 -31 28 -56 49 -49 43 -207 185 -251 227 -57 53
-60 122 -7 196 l33 45 -46 41 c-238 216 -231 204 -236 411 -3 136 -7 164 -22
181 -66 75 -113 229 -127 420 -7 91 5 75 -193 255 -52 47 -104 94 -115 105
-19 17 -73 67 -276 251 -25 22 -77 69 -115 105 -39 35 -113 102 -164 149 -52
47 -101 92 -110 100 -9 8 -31 29 -50 45 l-33 30 5 -80z"/>
<path d="M4984 4747 c-6 -7 -47 -43 -89 -82 -43 -38 -93 -83 -111 -100 -17
-16 -71 -66 -120 -110 -48 -44 -99 -91 -113 -103 -14 -13 -62 -56 -105 -95
-44 -40 -84 -77 -90 -82 -14 -14 -250 -229 -300 -275 -106 -95 -103 -90 -105
-155 -1 -33 -3 -71 -6 -85 -2 -14 -7 -43 -10 -65 -15 -108 -42 -184 -94 -265
l-35 -55 -2 -130 c-2 -71 -5 -143 -8 -158 -9 -50 -52 -110 -126 -177 -40 -36
-89 -83 -110 -104 l-37 -39 29 -41 c34 -50 45 -105 28 -146 -7 -16 -56 -69
-109 -116 -53 -48 -132 -119 -175 -158 -44 -39 -84 -76 -90 -81 -6 -6 -49 -44
-96 -85 -46 -41 -105 -94 -130 -116 -58 -53 -82 -74 -171 -154 -269 -239 -260
-229 -245 -258 8 -15 48 -108 90 -207 43 -99 82 -192 89 -208 7 -15 15 -26 19
-25 4 2 69 63 146 135 77 73 163 154 192 180 67 61 77 87 79 198 2 105 8 150
27 187 16 32 22 37 180 183 65 61 153 142 194 180 88 82 285 264 379 350 262
240 318 329 329 511 3 62 1 93 -7 98 -6 4 -38 -18 -73 -52 -74 -70 -120 -112
-123 -112 -2 0 -2 14 -1 31 1 26 26 56 159 187 170 168 270 290 316 387 47 99
55 134 67 285 l7 85 -59 -55 c-33 -30 -81 -75 -107 -100 -71 -66 -79 -69 -75
-28 3 27 22 51 103 128 356 340 411 412 471 617 22 76 47 294 33 293 -2 -1 -9
-6 -15 -13z"/>
<path d="M1124 3756 c5 -109 19 -194 45 -268 42 -123 50 -132 304 -371 87 -82
143 -144 156 -171 42 -85 19 -186 -63 -286 -21 -25 -44 -53 -52 -63 -8 -10
-17 -31 -21 -47 -11 -56 34 -108 270 -312 122 -106 236 -205 252 -219 17 -15
89 -77 160 -139 72 -62 159 -138 194 -169 111 -98 116 -101 119 -91 2 5 -6 57
-18 116 -12 59 -24 117 -26 128 -2 12 -17 91 -34 176 -17 85 -33 171 -36 190
-4 30 -84 163 -105 176 -4 2 -60 6 -125 9 -96 5 -125 10 -158 28 -80 43 -103
139 -59 237 17 36 88 129 110 143 8 5 12 34 11 92 l-2 84 -89 82 c-49 46 -101
94 -116 108 -159 148 -259 241 -285 265 -17 15 -63 58 -102 95 -39 36 -120
111 -179 166 -60 55 -116 108 -124 118 -9 9 -19 17 -23 17 -4 0 -6 -42 -4 -94z"/>
<path d="M3854 3812 c-22 -20 -102 -95 -179 -166 -77 -72 -189 -176 -250 -232
-60 -56 -126 -117 -145 -135 -48 -44 -259 -240 -282 -261 -20 -20 -20 -23 -20
-115 0 -59 2 -65 45 -115 78 -91 111 -181 93 -252 -9 -37 -62 -93 -99 -105
-18 -5 -84 -13 -147 -16 -89 -6 -117 -11 -127 -23 -81 -108 -80 -104 -133
-377 -28 -143 -57 -291 -65 -330 -8 -38 -12 -71 -10 -73 2 -2 43 31 92 74 185
163 221 195 339 295 551 475 563 486 564 554 0 33 -10 50 -76 132 -40 49 -84
144 -84 182 0 9 7 41 16 70 17 57 39 82 276 304 105 97 132 130 162 187 19 39
33 70 30 70 -2 0 0 8 5 19 6 10 13 33 16 52 3 19 7 45 10 59 13 68 16 98 17
161 1 38 -1 71 -3 74 -3 2 -23 -12 -45 -33z"/>
<path d="M2589 3269 c0 -13 -3 -33 -5 -44 -5 -22 -10 -112 -14 -242 l-3 -82
-27 19 c-24 17 -29 18 -46 5 -35 -27 -39 -18 -41 88 -3 148 -12 250 -23 261
-5 5 -9 2 -8 -10 0 -20 -10 -150 -17 -199 -2 -16 -7 -73 -11 -125 -3 -52 -7
-106 -9 -120 -2 -18 6 -33 31 -55 19 -17 36 -43 39 -60 2 -16 10 -57 16 -90
11 -59 15 -81 24 -140 3 -16 -14 20 -37 81 -57 145 -66 158 -112 150 -20 -4
-36 -10 -36 -15 0 -4 -11 -14 -25 -21 -34 -18 -24 -24 35 -21 42 2 50 -1 50
-16 0 -32 -14 -40 -86 -52 -58 -10 -77 -18 -100 -42 l-29 -30 113 2 112 3 65
-58 66 -58 45 39 c91 76 80 72 202 74 l114 2 -31 29 c-24 22 -45 30 -105 39
-73 11 -76 12 -76 38 0 25 3 27 47 30 26 1 49 3 50 5 7 7 -62 49 -86 52 -39 6
-53 -14 -102 -144 -23 -62 -43 -111 -44 -110 -3 3 12 85 31 178 2 14 7 43 10
65 4 30 14 47 40 68 l35 29 -6 81 c-3 45 -8 100 -10 122 -2 22 -6 69 -9 105
-12 136 -18 185 -22 189 -2 2 -4 -7 -5 -20z"/>
<path d="M1268 3205 c-3 -14 -4 -68 -2 -121 4 -118 11 -131 141 -250 53 -49
105 -97 115 -107 18 -17 19 -15 48 30 17 26 30 52 31 57 1 6 2 25 4 41 3 33
-14 83 -37 105 -8 8 -61 58 -118 110 -57 52 -113 104 -124 115 -48 46 -53 47
-58 20z"/>
<path d="M3690 3177 c-31 -28 -99 -92 -152 -141 -56 -51 -101 -101 -107 -119
-16 -45 -13 -93 8 -136 38 -74 40 -73 148 25 135 124 133 121 153 168 14 32
18 65 18 149 -1 59 -4 107 -7 107 -3 0 -31 -24 -61 -53z"/>
<path d="M2366 2364 c21 -27 42 -51 45 -54 6 -4 20 -68 45 -205 4 -22 8 -44
10 -50 1 -5 5 -28 9 -50 4 -22 14 -71 22 -110 l16 -70 47 237 c46 234 47 238
88 290 22 29 40 54 38 55 -1 2 -37 -11 -80 -27 -42 -17 -85 -30 -95 -30 -10 0
-44 11 -77 24 -112 45 -112 45 -68 -10z"/>
<path d="M1270 2123 c0 -128 6 -137 176 -293 114 -104 280 -258 317 -292 22
-21 40 -38 42 -38 4 0 -5 175 -10 207 -6 36 -35 66 -220 238 -65 61 -146 135
-179 166 -34 31 -76 69 -93 84 l-33 27 0 -99z"/>
<path d="M3684 2162 c-93 -87 -271 -251 -345 -318 -106 -96 -112 -106 -116
-237 -2 -62 0 -107 4 -102 4 6 35 35 68 65 343 314 414 383 441 424 14 23 19
51 20 128 1 54 -1 98 -4 98 -4 0 -34 -26 -68 -58z"/>
<path d="M2495 1455 c-9 -22 -42 -98 -72 -170 -86 -201 -133 -318 -133 -330 0
-6 25 -35 55 -65 30 -30 55 -52 55 -48 0 3 9 57 19 119 11 63 22 131 25 152 4
21 20 59 37 84 l31 45 32 -49 c31 -47 40 -79 63 -253 3 -19 8 -49 11 -67 l7
-32 58 54 57 54 -21 53 c-11 29 -27 67 -34 83 -8 17 -43 100 -79 185 -35 85
-71 171 -79 190 l-16 35 -16 -40z"/>
<path d="M2503 1168 c-12 -15 -20 -40 -27 -88 -3 -19 -12 -78 -21 -130 -9 -52
-18 -106 -20 -120 -2 -14 -9 -54 -15 -90 -6 -36 -13 -94 -16 -130 -6 -62 -4
-67 29 -116 34 -49 35 -53 18 -68 -25 -22 -22 -138 4 -166 28 -31 88 -27 114
6 26 33 29 123 6 158 -15 23 -14 27 16 70 40 56 41 79 5 291 -15 88 -29 178
-32 199 -2 21 -6 42 -8 45 -2 3 -7 31 -11 61 -8 64 -27 98 -42 78z"/>
</g>
</svg>
