<?xml version="1.0" standalone="no"?>
<!DOCTYPE svg PUBLIC "-//W3C//DTD SVG 20010904//EN"
 "http://www.w3.org/TR/2001/REC-SVG-20010904/DTD/svg10.dtd">
<svg version="1.0" xmlns="http://www.w3.org/2000/svg"
 width="16.000000pt" height="16.000000pt" viewBox="0 0 16.000000 16.000000"
 preserveAspectRatio="xMidYMid meet">
<metadata>
Created by potrace 1.11, written by Peter Selinger 2001-2013
</metadata>
<g transform="translate(0.000000,16.000000) scale(0.005333,-0.005333)"
fill="#000000" stroke="none">
<path d="M1810 2948 c0 -14 9 -37 20 -51 18 -22 20 -35 14 -90 l-6 -64 -57 13
c-88 19 -125 25 -119 18 4 -3 44 -13 90 -22 47 -10 81 -21 78 -27 -3 -5 -8 -9
-12 -8 -4 2 -39 6 -78 9 -64 6 -72 10 -85 34 -19 36 -64 90 -76 90 -5 0 -15
-12 -21 -26 -10 -21 -17 -24 -37 -20 -33 8 -102 16 -79 9 9 -2 20 -12 23 -22
4 -13 15 -17 41 -16 40 1 47 -4 33 -25 -7 -13 -10 -13 -18 -1 -6 9 -11 10 -15
2 -10 -15 -35 -14 -52 4 -8 8 -21 12 -29 9 -11 -5 -12 -10 -2 -25 7 -11 13
-15 15 -9 6 16 22 12 22 -6 0 -13 -7 -15 -30 -11 -16 4 -32 2 -36 -4 -3 -6
-17 -9 -31 -6 -18 3 -23 0 -21 -12 2 -9 11 -16 20 -16 23 0 42 -20 35 -37 -4
-9 -8 -6 -12 9 -6 20 -9 21 -22 7 -17 -17 -18 -16 20 -32 35 -15 40 -15 31 0
-4 6 -3 8 4 4 6 -3 13 2 15 11 3 12 5 9 6 -8 1 -37 -5 -39 -56 -22 -39 14 -44
18 -39 39 7 26 -8 33 -18 9 -4 -12 -21 -15 -78 -13 -68 2 -69 2 -17 5 49 3 58
7 68 29 15 34 14 69 -3 83 -22 19 -141 3 -181 -25 -19 -12 -32 -17 -29 -10 6
17 59 47 92 52 79 12 92 16 92 24 0 6 -10 10 -22 10 -21 1 -21 2 -5 11 9 5 21
8 26 4 5 -3 12 -1 16 5 12 20 -39 10 -63 -12 -19 -17 -24 -19 -19 -6 5 15 2
15 -41 1 -26 -9 -54 -21 -62 -28 -8 -7 -64 -43 -125 -81 -60 -37 -144 -93
-185 -123 -95 -69 -252 -226 -313 -312 -51 -72 -137 -218 -137 -234 0 -5 20
25 44 67 59 104 125 194 181 248 26 25 46 41 43 35 -2 -5 -14 -32 -26 -58 -12
-27 -22 -51 -22 -55 0 -13 84 76 126 134 77 108 205 209 335 267 l54 24 0 -48
c0 -26 -4 -51 -8 -55 -14 -15 -7 -61 13 -79 16 -14 19 -26 14 -47 -8 -38 17
-75 63 -94 43 -18 71 -10 79 22 8 32 17 30 31 -5 9 -24 8 -29 -3 -24 -10 4
-13 -4 -12 -31 1 -20 5 -37 10 -37 4 -1 14 -2 21 -3 6 -1 24 4 39 11 35 17 52
17 45 -1 -3 -7 15 -34 43 -61 27 -26 56 -67 65 -91 9 -24 20 -44 25 -44 5 0
25 16 46 35 33 31 36 39 31 71 -7 43 6 80 41 118 l27 28 -32 -6 c-39 -9 -46 7
-35 79 7 45 10 50 30 47 17 -3 25 2 29 17 3 11 14 23 24 26 32 11 49 35 43 61
-4 16 -1 26 9 30 22 8 -1 67 -25 61 -11 -3 -15 0 -11 9 5 14 12 14 97 -8 l38
-9 -7 -47 c-3 -26 -8 -56 -11 -67 -4 -17 -2 -17 17 5 l22 25 -6 -70 c-4 -38
-7 -92 -7 -118 0 -44 -2 -48 -20 -42 -15 5 -20 2 -21 -14 -3 -95 -1 -111 20
-136 25 -32 29 -20 5 14 -14 19 -14 25 -3 32 8 5 20 7 27 4 8 -3 20 -5 27 -5
8 0 20 -6 27 -13 11 -11 12 12 10 137 -2 83 -8 155 -13 160 -5 6 -9 34 -9 64
0 54 0 54 28 47 49 -12 210 -93 284 -142 96 -65 215 -178 289 -275 118 -157
210 -389 224 -565 l7 -83 -30 6 c-18 4 -32 1 -37 -6 -5 -8 -11 -4 -19 12 -10
20 -19 23 -79 24 -70 2 -87 -7 -66 -32 10 -12 9 -16 -9 -21 -21 -5 -26 -14
-23 -40 2 -16 -31 -17 -46 -2 -7 7 -18 3 -37 -16 -26 -26 -26 -28 -9 -40 15
-11 21 -11 34 1 9 8 19 11 22 7 4 -3 7 1 7 10 0 11 8 17 23 17 25 0 88 -35
100 -56 4 -8 16 -14 26 -14 10 0 26 -9 36 -20 11 -12 31 -20 52 -20 50 0 38
-48 -17 -65 -12 -4 -20 -15 -20 -29 0 -21 -5 -23 -40 -22 -24 0 -40 5 -40 13
0 8 -11 10 -34 6 -48 -8 -56 13 -18 48 35 33 49 36 54 14 3 -13 5 -13 19 3 11
13 13 25 8 40 -9 25 -49 30 -49 7 0 -9 -9 -15 -25 -15 -14 0 -25 5 -25 11 0 6
9 8 23 4 17 -6 19 -5 10 5 -6 7 -26 14 -45 16 -18 2 -40 7 -49 9 -30 10 -30
-23 -1 -34 l27 -9 -29 -1 c-24 -1 -27 -4 -23 -23 4 -12 2 -27 -4 -34 -6 -7 3
-52 27 -134 31 -110 33 -124 19 -132 -8 -5 -12 -14 -9 -20 8 -13 -15 -28 -33
-21 -7 3 -13 10 -13 17 0 6 -10 16 -22 21 -12 6 -23 18 -24 28 -1 9 -16 34
-33 55 -18 20 -36 42 -41 49 -13 16 -13 53 0 53 6 0 10 6 10 14 0 15 53 58 84
68 18 5 18 6 2 7 -10 1 -48 -14 -85 -33 -36 -18 -71 -31 -77 -29 -6 2 -14 -5
-17 -17 -3 -11 -11 -20 -17 -20 -9 0 -9 4 1 17 10 11 10 14 2 9 -7 -4 -13 -3
-13 2 0 6 -8 8 -17 6 -10 -2 -28 5 -41 16 l-24 20 44 51 c24 29 63 65 87 81
25 15 41 28 35 28 -15 0 -87 -52 -108 -78 -14 -17 -21 -21 -30 -12 -8 8 -7 14
5 23 9 7 19 22 23 34 6 18 3 22 -14 20 -12 -1 -20 -8 -20 -20 0 -10 -4 -15
-10 -12 -17 11 -12 65 8 72 9 3 24 11 32 17 8 7 40 20 70 30 67 23 75 29 56
45 -12 10 -21 9 -46 -4 -20 -10 -43 -14 -59 -11 -17 4 -21 3 -13 -2 10 -7 0
-14 -35 -25 -28 -9 -41 -11 -32 -4 25 20 13 90 -19 110 -20 12 -22 17 -10 17
11 0 15 5 12 15 -4 10 0 15 12 16 11 0 6 4 -11 10 l-31 8 -2 113 c-3 140 -19
236 -44 249 -14 8 -16 6 -11 -8 4 -10 10 -20 15 -23 4 -4 3 -35 -4 -70 -8 -47
-8 -80 1 -125 14 -77 15 -148 1 -140 -5 3 -17 2 -26 -3 -11 -6 -13 -11 -5 -16
6 -4 11 -16 11 -27 0 -16 -7 -19 -46 -19 -28 0 -43 -4 -39 -10 4 -6 10 -8 14
-5 12 7 71 -25 71 -38 -1 -16 -21 -39 -45 -53 -10 -6 -21 -17 -23 -25 -4 -10
1 -8 16 4 11 11 26 16 31 12 6 -3 11 0 11 7 0 8 5 6 11 -5 8 -14 7 -21 -5 -30
-18 -14 -38 -227 -24 -265 4 -13 8 -36 8 -52 0 -22 5 -29 22 -32 13 -2 30 -18
41 -38 l20 -35 -29 33 c-20 24 -34 31 -46 27 -10 -4 -15 -11 -12 -16 4 -8 -34
-14 -59 -10 -4 1 -33 -8 -65 -18 -49 -17 -125 -22 -137 -9 -2 2 0 30 4 61 7
55 -9 244 -24 267 -3 5 -10 60 -15 122 -13 151 -37 308 -61 393 -7 25 14 104
31 120 11 10 34 41 52 69 18 28 36 53 39 56 19 14 19 56 1 73 -18 17 -19 16
-31 -25 -15 -49 -83 -153 -106 -162 -9 -3 -25 -1 -35 4 -23 12 -52 69 -43 83
3 6 1 7 -6 3 -11 -7 -20 7 -25 36 -1 8 -17 32 -35 54 -32 38 -33 38 -27 11 4
-16 2 -35 -4 -42 -8 -9 -5 -14 10 -18 11 -3 22 -13 26 -24 10 -35 38 -84 59
-107 12 -13 26 -38 33 -57 10 -31 11 -31 8 -6 -3 27 -2 28 13 13 13 -13 13
-20 3 -36 -18 -30 -26 -203 -14 -315 6 -55 14 -176 17 -269 5 -123 11 -180 22
-205 9 -20 15 -40 14 -44 -1 -5 3 -6 8 -3 8 5 41 -34 41 -48 0 -8 -97 1 -155
14 -27 6 -70 13 -95 16 -25 3 -48 12 -52 18 -4 7 -48 21 -98 31 -49 11 -90 23
-90 28 0 5 9 20 19 33 11 14 22 50 26 85 4 33 16 83 26 111 11 30 15 54 9 58
-16 10 -30 61 -24 87 4 16 3 24 -3 20 -6 -4 -10 8 -11 26 -1 18 -8 54 -16 82
-11 34 -12 51 -5 56 8 5 8 8 -1 11 -6 2 -14 31 -17 66 -4 43 -9 59 -15 50 -6
-8 -8 2 -6 30 2 23 0 42 -4 42 -5 0 -8 -7 -8 -15 0 -18 -11 -19 -30 -2 -7 6
-4 -1 8 -17 27 -35 30 -71 5 -62 -15 6 -15 5 1 -13 10 -10 16 -28 15 -38 -2
-10 1 -24 6 -32 5 -10 4 -16 -3 -19 -6 -2 -8 -10 -5 -18 3 -7 -2 -16 -10 -20
-9 -3 -13 -12 -10 -20 3 -9 12 -13 19 -10 24 9 15 -11 -12 -29 -15 -9 -22 -20
-17 -24 14 -9 -5 -71 -22 -71 -8 0 -15 -9 -15 -19 0 -27 -21 -31 -49 -10 -13
11 -29 19 -35 19 -6 0 0 -9 14 -20 l25 -20 -30 0 c-27 0 -25 -2 24 -27 29 -15
48 -29 41 -31 -8 -3 -8 -8 1 -18 16 -19 8 -18 -49 11 -28 14 -54 25 -58 25 -5
-1 14 -13 41 -27 56 -29 48 -43 -11 -18 -20 8 -39 13 -41 11 -4 -4 88 -42 97
-40 3 1 16 5 28 9 21 6 23 5 13 -14 -16 -29 -10 -44 24 -63 50 -28 9 -20 -60
12 -80 37 -88 38 -47 1 37 -35 41 -51 10 -51 -20 0 -20 -1 -5 -18 20 -21 22
-32 6 -32 -5 0 -7 5 -4 11 4 6 1 9 -6 8 -18 -3 -63 9 -119 33 l-45 19 45 -40
45 -40 -24 -43 c-45 -83 -86 -137 -106 -140 -11 -2 -19 -9 -17 -16 1 -6 -4
-12 -11 -12 -22 0 -16 41 25 168 21 67 36 127 33 133 -4 5 -4 33 0 60 5 35 11
49 20 45 23 -9 85 86 85 131 0 15 6 34 14 42 11 14 24 52 43 127 4 18 -1 23
-26 29 -18 4 -40 15 -50 26 -10 11 -26 19 -37 18 -39 -4 -54 1 -54 19 0 10 5
23 12 30 13 13 -2 20 -99 48 -76 22 -77 23 -57 45 16 18 16 19 -4 19 -13 0
-22 -6 -22 -15 0 -8 -7 -15 -15 -15 -8 0 -15 4 -15 9 0 8 -22 6 -76 -4 -17 -4
-23 -15 -28 -55 l-7 -50 -63 0 -64 0 -20 -42 c-63 -137 -67 -398 -8 -631 30
-118 101 -271 181 -387 32 -46 50 -79 41 -71 -16 14 -22 3 -9 -15 5 -5 -2 2
-15 16 -105 114 -209 333 -258 545 -25 106 -26 404 -2 510 9 38 15 72 12 76
-6 11 64 205 101 278 35 71 109 198 157 271 l30 45 -55 -56 c-87 -91 -199
-276 -236 -391 -7 -21 -17 -38 -21 -38 -5 0 -7 -7 -4 -15 4 -8 1 -15 -5 -15
-6 0 -8 -7 -5 -15 4 -8 1 -15 -6 -15 -7 0 -10 -7 -6 -15 3 -8 2 -15 -3 -15 -9
0 -35 -109 -51 -210 -14 -95 -12 -271 5 -380 33 -203 127 -430 244 -588 88
-119 86 -108 50 -202 -17 -44 -28 -87 -25 -95 3 -10 17 -13 43 -11 35 4 38 6
34 32 -5 35 -5 40 -3 137 l2 77 66 0 66 0 -3 -83 c-2 -45 0 -88 5 -95 4 -7 4
-22 0 -34 -3 -12 -6 -43 -5 -69 0 -27 -4 -51 -10 -55 -20 -12 -103 -13 -112
-1 -6 8 -7 7 -4 -3 5 -19 102 -26 123 -9 9 7 14 31 14 63 0 28 5 58 11 66 7
11 9 -6 7 -60 l-3 -75 27 -3 c22 -3 30 2 40 22 l11 26 11 -23 c12 -24 52 -35
69 -18 6 6 14 5 24 -5 8 -8 29 -14 46 -14 17 0 49 -6 72 -14 339 -118 656
-126 980 -24 55 17 110 30 122 29 12 -1 31 7 42 18 22 22 41 27 41 12 0 -15
30 -21 51 -11 13 7 19 22 20 48 l2 37 6 -40 6 -40 61 -3 c46 -2 66 1 78 13 17
18 22 70 7 79 -5 4 -8 -9 -7 -29 4 -45 -9 -55 -59 -45 -24 5 -31 8 -16 9 20 1
21 3 11 16 -10 12 -10 15 4 15 9 0 16 6 16 13 1 6 7 1 14 -12 l13 -23 6 22 c4
16 1 24 -14 27 -20 6 -21 13 -20 149 1 69 0 72 -24 76 -17 4 -23 2 -17 -6 8
-10 9 -95 4 -208 -1 -21 -7 -38 -13 -38 -5 0 -7 4 -4 10 3 5 1 10 -4 10 -6 0
-11 -4 -11 -10 0 -5 -4 -10 -9 -10 -4 0 -9 68 -10 151 l-2 151 74 -3 c52 -2
80 1 91 10 9 8 19 11 22 9 3 -3 -6 -14 -20 -25 -28 -23 -29 -25 -27 -118 2
-53 4 -65 11 -48 13 32 22 29 58 -21 31 -43 43 -96 22 -96 -5 0 -10 10 -10 22
0 18 -4 16 -20 -15 -21 -39 -25 -51 -12 -43 4 2 16 -2 27 -10 19 -14 19 -14
-1 -14 -31 0 -42 13 -47 55 -3 33 -4 31 -3 -10 l1 -50 58 -3 c78 -4 87 5 86
82 -1 33 -4 49 -6 34 -2 -16 -11 -28 -19 -28 -8 0 -14 -9 -14 -20 0 -25 17
-26 24 -3 2 10 4 2 3 -17 -2 -30 -6 -35 -29 -38 -16 -2 -28 1 -28 7 0 6 7 11
16 11 8 0 12 5 9 11 -4 6 -13 8 -21 5 -8 -3 -14 -1 -14 4 0 6 7 10 15 10 24 0
7 58 -37 123 -36 52 -39 62 -36 115 l3 57 63 3 62 3 0 -46 c0 -41 -2 -45 -25
-45 -18 0 -25 5 -25 20 0 11 -7 20 -15 20 -20 0 -20 -50 1 -76 15 -18 15 -18
5 3 -16 31 -14 34 15 23 37 -14 54 3 54 53 0 31 9 51 39 91 21 28 50 70 65 93
l26 43 -45 -26 c-25 -13 -45 -22 -45 -18 0 4 27 59 59 123 64 126 109 251 137
376 20 92 24 409 6 460 -9 23 -10 11 -4 -55 16 -199 -4 -389 -59 -555 -41
-124 -157 -336 -167 -306 -2 6 11 31 28 56 48 70 116 221 144 320 95 344 37
720 -157 1018 -141 217 -405 423 -624 487 -23 7 -44 19 -47 27 -5 11 0 13 17
7 39 -12 43 -11 9 4 l-33 15 2 83 c1 55 -3 89 -11 99 -7 8 -8 15 -3 15 5 0 10
7 10 15 0 10 -5 12 -16 5 -11 -6 -22 -3 -33 7 -17 15 -18 14 -18 -9z m-240
-202 c0 -3 -4 -8 -10 -11 -5 -3 -10 -1 -10 4 0 6 5 11 10 11 6 0 10 -2 10 -4z
m-130 -71 c0 -8 -2 -15 -4 -15 -2 0 -6 7 -10 15 -3 8 -1 15 4 15 6 0 10 -7 10
-15z m65 -44 c3 -5 2 -12 -3 -15 -5 -3 -9 1 -9 9 0 17 3 19 12 6z m95 -61 c8
-5 11 -10 5 -10 -5 0 -17 5 -25 10 -8 5 -10 10 -5 10 6 0 17 -5 25 -10z m-152
-20 c3 -9 -1 -11 -12 -7 -10 4 -15 3 -11 -3 3 -6 1 -10 -6 -10 -7 0 -21 -8
-32 -17 -11 -10 -17 -12 -13 -5 4 6 2 12 -3 12 -6 0 -11 -4 -11 -10 0 -5 -4
-10 -10 -10 -5 0 -9 5 -7 12 9 44 93 74 105 38z m199 14 c-3 -3 -12 -4 -19 -1
-8 3 -5 6 6 6 11 1 17 -2 13 -5z m-297 -14 c0 -5 -2 -10 -4 -10 -3 0 -8 5 -11
10 -3 6 -1 10 4 10 6 0 11 -4 11 -10z m130 -18 c0 -21 -18 -42 -37 -42 -7 0
-10 7 -6 18 14 41 43 57 43 24z m154 -390 c-9 -16 -36 -50 -59 -77 l-43 -48
-36 29 c-20 16 -36 33 -36 37 0 5 14 -3 31 -17 17 -14 34 -26 39 -26 4 0 20
17 35 38 30 40 76 92 82 92 2 0 -3 -13 -13 -28z m323 -214 c-3 -7 -5 -2 -5 12
0 14 2 19 5 13 2 -7 2 -19 0 -25z m-420 -60 c-2 -13 -4 -3 -4 22 0 25 2 35 4
23 2 -13 2 -33 0 -45z m-23 -33 c-3 -7 2 -15 10 -18 21 -8 21 -33 0 -41 -12
-4 -14 -1 -9 13 3 11 1 22 -5 26 -5 3 -10 18 -10 33 0 20 3 23 9 13 5 -8 7
-20 5 -26z m459 -164 c3 -14 1 -18 -9 -14 -15 6 -18 16 -7 26 9 10 10 9 16
-12z m-857 -28 c-10 -10 -19 5 -10 18 6 11 8 11 12 0 2 -7 1 -15 -2 -18z m854
-90 c-11 -17 -11 -17 -6 0 3 10 6 24 7 30 0 9 2 9 5 0 3 -7 0 -20 -6 -30z m51
-25 c7 -14 5 -18 -11 -18 -17 0 -20 6 -19 43 0 38 1 40 11 17 5 -14 14 -33 19
-42z m-976 -6 c-3 -3 -11 0 -18 7 -9 10 -8 11 6 5 10 -3 15 -9 12 -12z m-17
-23 c17 -27 5 -40 -14 -15 -8 11 -14 23 -14 28 0 15 15 8 28 -13z m8 -206 c-2
-9 -8 -18 -15 -19 -6 -1 -7 0 -2 2 6 3 7 12 4 20 -3 8 -1 14 5 14 6 0 9 -8 8
-17z m572 10 c-15 -2 -42 -2 -60 0 -18 2 -6 4 27 4 33 0 48 -2 33 -4z m22 -29
c0 -2 -7 -4 -15 -4 -8 0 -15 4 -15 10 0 5 7 7 15 4 8 -4 15 -8 15 -10z m1040
-58 c0 -8 -4 -18 -10 -21 -5 -3 -10 3 -10 14 0 12 5 21 10 21 6 0 10 -6 10
-14z m-2242 -236 c11 -25 43 -83 71 -130 27 -46 47 -87 44 -90 -3 -3 -24 16
-48 42 -51 57 -116 186 -144 288 -34 120 -25 135 18 30 21 -52 47 -115 59
-140z m2202 199 c-7 -11 -14 -18 -17 -15 -3 3 0 12 7 21 18 21 23 19 10 -6z
m-990 2 c0 -5 -7 -17 -17 -26 -13 -13 -13 -19 -3 -25 7 -4 10 -14 8 -21 -3 -9
-11 -4 -24 15 -13 21 -15 31 -6 34 6 2 12 10 12 18 0 8 7 14 15 14 8 0 15 -4
15 -9z m-480 -94 c8 -2 18 -5 23 -6 4 0 20 -7 35 -14 15 -8 49 -18 76 -22 27
-4 78 -16 113 -26 55 -17 63 -23 63 -44 0 -30 -7 -30 -110 -11 -100 20 -131
32 -124 50 7 19 -51 32 -71 16 -11 -9 -23 -9 -50 0 -38 13 -40 16 -25 54 8 22
13 24 32 17 13 -5 30 -11 38 -14z m580 -39 c0 -19 -2 -20 -10 -8 -13 19 -13
30 0 30 6 0 10 -10 10 -22z m-540 -38 c0 -5 -2 -10 -4 -10 -3 0 -8 5 -11 10
-3 6 -1 10 4 10 6 0 11 -4 11 -10z m1227 4 c-3 -3 -12 -4 -19 -1 -8 3 -5 6 6
6 11 1 17 -2 13 -5z m-19 -81 c-2 -46 -6 -50 -27 -30 -11 10 -13 9 -8 -5 5
-13 1 -18 -14 -18 -18 0 -19 2 -4 30 20 38 19 57 -2 63 -14 4 -13 5 4 6 17 1
21 5 16 19 -6 15 -4 15 16 -2 17 -16 21 -29 19 -63z m-1703 57 c3 -5 -1 -10
-9 -10 -9 0 -16 5 -16 10 0 6 4 10 9 10 6 0 13 -4 16 -10z m-15 -30 c0 -5 -2
-10 -4 -10 -3 0 -8 5 -11 10 -3 6 -1 10 4 10 6 0 11 -4 11 -10z m30 -100 c0
-5 -9 -14 -20 -20 -22 -12 -23 -10 -14 14 7 17 34 22 34 6z m1754 -5 c-4 -8
-11 -15 -16 -15 -6 0 -5 6 2 15 7 8 14 15 16 15 2 0 1 -7 -2 -15z m-406 -102
l-3 -88 -420 -1 c-251 -1 -425 2 -432 8 -7 5 -13 5 -17 -1 -4 -5 -61 -9 -131
-9 l-125 0 0 89 0 89 565 0 566 0 -3 -87z m410 63 c-7 -8 -17 -12 -22 -9 -4 3
-2 9 5 14 22 13 31 11 17 -5z m-133 -17 c-3 -4 -12 -6 -20 -3 -8 4 -13 10 -10
15 3 4 12 6 20 3 8 -4 13 -10 10 -15z m-1622 -24 c8 -18 -11 -31 -25 -17 -11
11 -3 32 12 32 4 0 10 -7 13 -15z m1593 -54 c-10 -16 -36 -13 -36 3 0 17 21
27 34 16 4 -5 5 -13 2 -19z m-1516 -13 c0 -6 -6 -5 -15 2 -8 7 -15 14 -15 16
0 2 7 1 15 -2 8 -4 15 -11 15 -16z m1698 -61 c2 -12 -3 -17 -17 -17 -12 0 -21
6 -21 13 0 31 32 34 38 4z m-1937 -10 c-10 -9 -11 -8 -5 6 3 10 9 15 12 12 3
-3 0 -11 -7 -18z m192 -40 c3 -12 9 -46 13 -74 3 -29 10 -53 13 -53 4 0 16 -7
27 -16 18 -14 18 -15 -5 -4 -23 12 -23 11 -20 -34 3 -37 1 -47 -13 -52 -10 -3
-18 -10 -18 -15 0 -6 -9 -7 -20 -4 -11 4 -21 2 -21 -4 -1 -6 -3 -15 -4 -21 -1
-5 -3 -19 -4 -30 -1 -15 -7 -19 -26 -18 -19 2 -24 7 -23 25 2 17 7 22 20 17
10 -3 18 -2 17 3 -1 4 0 10 1 13 7 13 5 60 -2 60 -4 0 -8 -11 -8 -25 0 -14 -4
-25 -9 -25 -10 0 -7 40 10 168 10 74 10 95 0 101 -7 4 5 8 28 9 33 2 40 -2 44
-21z m277 -8 c0 -24 -4 -30 -15 -25 -13 4 -15 -9 -17 -87 0 -51 -1 -98 -1
-104 1 -7 -4 -13 -11 -13 -8 0 -8 -2 1 -8 20 -12 1 -77 -22 -77 -19 0 -20 8
-22 135 -1 74 -2 140 -2 145 -1 6 -13 11 -28 10 -26 0 -26 -1 -28 -80 -4 -226
-2 -215 -30 -215 l-25 0 0 149 c0 136 -2 149 -17 147 -13 -1 -19 7 -21 27 l-3
27 120 0 121 0 0 -31z m90 -113 c0 -140 -1 -144 -22 -150 -22 -6 -22 -7 -4
-18 15 -8 21 -8 24 0 2 7 8 12 13 12 6 0 7 -6 3 -12 -6 -10 -5 -10 8 0 13 10
15 9 14 -10 -1 -20 -6 -23 -46 -23 l-45 0 -1 165 c-1 91 0 168 3 173 2 4 15 7
29 7 l24 0 0 -144z m190 119 c0 -22 -4 -25 -35 -25 l-35 0 2 -45 c2 -41 4 -44
33 -47 22 -2 31 -9 33 -25 3 -20 -1 -23 -27 -23 -18 0 -31 -5 -32 -12 -1 -7
-2 -24 -2 -38 -2 -17 -7 -25 -19 -24 -23 2 -22 -4 3 -41 12 -16 19 -22 15 -13
-4 15 1 18 29 18 30 0 35 -3 35 -24 0 -23 -3 -24 -57 -22 l-58 1 -5 85 c-3 47
-4 124 -1 173 l4 87 58 0 c56 0 59 -1 59 -25z m167 -17 c3 -35 2 -38 -22 -38
-19 0 -25 5 -25 21 0 14 -5 19 -17 17 -16 -3 -18 -14 -15 -93 2 -50 -1 -105
-7 -122 -7 -26 -6 -36 5 -48 9 -8 11 -15 5 -15 -5 0 -14 6 -18 13 -4 6 -15 12
-23 12 -12 0 -16 23 -18 134 -2 73 -1 140 2 148 4 10 21 13 67 11 l62 -3 4
-37z m169 -28 c0 -36 -3 -73 -8 -82 -5 -10 -4 -19 2 -23 7 -4 10 -39 8 -88 -3
-75 -4 -80 -25 -82 -22 -2 -23 2 -23 71 0 64 -11 97 -26 81 -3 -3 -7 -38 -9
-78 -3 -72 -9 -86 -31 -71 -12 7 -19 133 -16 270 l2 73 63 -3 62 -3 1 -65z
m176 58 c3 -7 4 -82 2 -167 -3 -171 -3 -171 -69 -171 -57 0 -68 11 -72 72 -5
81 -4 259 3 269 8 14 131 11 136 -3z m87 -130 c-1 -79 -4 -133 -6 -120 -5 23
-25 26 -29 4 -2 -8 -1 -9 3 -1 3 6 10 1 17 -13 6 -12 22 -24 34 -26 22 -3 22
-3 22 148 0 151 0 151 23 148 21 -3 22 -7 25 -132 2 -97 -1 -132 -10 -138 -8
-5 -9 -11 -3 -15 11 -9 13 -33 3 -49 -4 -5 -33 -10 -65 -10 l-58 1 -3 173 -2
172 25 0 25 0 -1 -142z m196 75 c28 -87 37 -89 33 -8 -3 69 -3 70 22 70 l25 0
1 -120 c1 -66 -3 -125 -8 -132 -6 -7 -5 -14 2 -18 8 -5 8 -11 -1 -21 -7 -9 -8
-14 -1 -14 6 0 10 -9 9 -20 -1 -14 -8 -20 -23 -20 -19 0 -25 10 -39 58 -10 31
-18 67 -19 79 -2 37 -16 26 -16 -13 0 -21 -4 -33 -10 -29 -5 3 -10 1 -10 -4 0
-6 5 -11 10 -11 6 0 10 -5 10 -11 0 -5 -4 -8 -9 -4 -5 3 -12 1 -16 -5 -3 -5 0
-10 9 -10 8 0 13 -7 11 -17 -2 -10 -4 -21 -4 -25 -1 -5 -10 -8 -21 -8 -18 0
-20 7 -20 71 0 53 3 68 13 63 9 -6 9 -5 0 7 -7 9 -13 51 -14 105 -2 112 -3
106 24 102 17 -2 26 -16 42 -65z m-1435 -17 c-7 -7 -16 -5 -28 7 -16 17 -16
18 3 11 18 -7 19 -6 5 12 -14 19 -14 19 8 0 15 -13 19 -23 12 -30z m809 -151
c-2 -102 -8 -115 -58 -115 -26 0 -26 5 -1 37 15 20 18 34 13 71 -3 26 -10 53
-16 59 -16 21 0 43 33 43 l30 0 -1 -95z m-554 -3 c-3 -3 -11 0 -18 7 -9 10 -8
11 6 5 10 -3 15 -9 12 -12z m1371 -50 c-11 -10 -15 4 -8 28 l7 25 3 -23 c2
-13 1 -26 -2 -30z m-1371 28 c3 -6 -1 -7 -9 -4 -18 7 -21 14 -7 14 6 0 13 -4
16 -10z m-129 -76 c-9 -22 -43 -17 -49 8 -4 15 1 30 16 46 l22 23 8 -32 c4
-17 6 -38 3 -45z m244 56 c8 -5 12 -11 9 -14 -3 -3 -14 1 -25 9 -21 16 -8 20
16 5z m1 -38 c-7 -2 -18 1 -23 6 -8 8 -4 9 13 5 13 -4 18 -8 10 -11z m324 -1
c-3 -5 2 -12 10 -14 12 -4 12 -5 -1 -3 -19 1 -32 26 -14 26 6 0 9 -4 5 -9z
m876 -14 c-1 -12 -15 -9 -19 4 -3 6 1 10 8 8 6 -3 11 -8 11 -12z m-741 -27 c0
-5 -5 -10 -11 -10 -5 0 -7 5 -4 10 3 6 8 10 11 10 2 0 4 -4 4 -10z m366 -19
c-22 -35 -467 -49 -576 -17 -41 11 -45 14 -17 10 167 -23 433 -20 522 6 40 11
77 12 71 1z"/>
<path d="M997 814 c-11 -11 -8 -124 3 -124 6 0 10 11 10 25 0 16 6 25 16 25
21 0 16 74 -6 78 -9 1 -19 0 -23 -4z m26 -34 c3 -11 1 -20 -4 -20 -5 0 -9 9
-9 20 0 11 2 20 4 20 2 0 6 -9 9 -20z"/>
<path d="M1068 814 c-5 -4 -8 -34 -8 -66 0 -51 2 -58 20 -58 11 0 20 5 20 10
0 6 -4 10 -10 10 -5 0 -10 25 -12 56 -2 31 -6 52 -10 48z"/>
<path d="M1135 809 c-9 -26 -23 -114 -19 -119 3 -2 9 2 15 10 8 13 10 13 18 0
17 -26 21 -5 10 56 -12 65 -16 74 -24 53z"/>
<path d="M1174 798 c4 -13 10 -42 13 -65 3 -24 10 -43 14 -43 5 0 9 19 9 43 0
23 4 49 9 57 14 22 1 34 -15 13 -12 -17 -13 -17 -14 0 0 9 -5 17 -11 17 -7 0
-9 -9 -5 -22z"/>
<path d="M1247 813 c-4 -3 -7 -33 -7 -65 0 -57 1 -58 28 -58 24 1 25 2 10 14
-22 17 -23 35 -2 43 15 5 15 7 0 15 -20 12 -21 38 0 38 8 0 12 5 9 10 -7 11
-28 13 -38 3z"/>
<path d="M1309 788 c-6 -49 1 -98 13 -98 6 0 8 11 6 25 -3 14 -1 28 3 31 5 3
9 -9 9 -25 0 -17 4 -31 10 -31 5 0 9 27 7 63 -2 55 -4 62 -23 65 -18 3 -22 -3
-25 -30z m31 -10 c0 -16 -3 -19 -11 -11 -6 6 -8 16 -5 22 11 17 16 13 16 -11z"/>
<path d="M1489 793 c0 -27 -1 -27 -11 -5 -19 38 -28 25 -28 -38 0 -33 4 -60
10 -60 6 0 10 10 11 23 l0 22 11 -22 c18 -38 28 -26 28 36 0 59 -19 100 -21
44z"/>
<path d="M1530 756 c0 -68 16 -91 23 -33 l4 32 1 -32 c3 -63 22 -33 20 31 -1
36 -6 62 -10 60 -4 -3 -8 -12 -8 -20 0 -8 -4 -14 -10 -14 -5 0 -7 6 -4 14 3 8
1 17 -5 21 -7 4 -11 -15 -11 -59z"/>
<path d="M1607 814 c-11 -11 -8 -124 3 -124 6 0 10 10 11 23 l0 22 11 -22 c18
-38 28 -26 28 36 0 59 -19 99 -21 44 l-1 -28 -12 28 c-7 15 -15 24 -19 21z"/>
<path d="M1678 792 c-2 -17 -2 -46 0 -66 4 -30 8 -36 29 -36 23 0 24 2 21 63
-3 55 -6 62 -24 65 -17 2 -22 -3 -26 -26z m32 -37 c0 -25 -4 -45 -10 -45 -11
0 -14 73 -3 83 11 12 13 8 13 -38z"/>
<path d="M1749 816 c-3 -3 -2 -27 2 -54 4 -26 8 -53 8 -59 1 -23 21 -14 22 10
l0 22 9 -22 c15 -37 26 -26 36 37 7 41 7 59 0 57 -6 -2 -13 -14 -17 -28 -7
-24 -7 -24 -8 3 -1 39 -21 46 -21 7 0 -37 -16 -29 -22 9 -1 13 -6 21 -9 18z"/>
<path d="M1857 814 c-11 -11 -8 -124 3 -124 6 0 10 10 11 23 l0 22 11 -22 c19
-39 28 -26 28 37 0 33 -4 60 -10 60 -5 0 -10 -10 -10 -22 -1 -21 -2 -20 -13 5
-7 16 -15 25 -20 21z"/>
<path d="M1970 795 c0 -14 7 -37 16 -51 9 -13 14 -28 10 -32 -4 -3 -11 0 -15
7 -7 10 -10 10 -16 1 -10 -16 9 -33 31 -28 27 5 28 33 3 67 -12 17 -19 34 -15
38 4 4 11 1 15 -6 6 -9 11 -10 15 -2 10 16 -2 31 -25 31 -14 0 -19 -7 -19 -25z"/>
<path d="M1380 750 c0 -57 1 -60 25 -60 24 0 25 3 25 60 0 74 -18 80 -23 8
l-3 -53 -2 53 c-3 72 -22 66 -22 -8z"/>
<path d="M1930 794 c0 -8 5 -12 10 -9 6 3 10 10 10 16 0 5 -4 9 -10 9 -5 0
-10 -7 -10 -16z"/>
<path d="M719 438 c-3 -34 -1 -48 8 -48 7 0 13 -5 13 -11 0 -6 -7 -9 -15 -5
-8 3 -15 1 -15 -4 0 -15 26 -12 39 4 9 11 9 15 0 18 -7 2 -15 24 -19 49 l-6
44 -5 -47z"/>
<path d="M1085 361 c-3 -5 -2 -12 3 -15 5 -3 9 1 9 9 0 17 -3 19 -12 6z"/>
<path d="M1360 349 c0 -5 5 -7 10 -4 6 3 10 8 10 11 0 2 -4 4 -10 4 -5 0 -10
-5 -10 -11z"/>
<path d="M1570 525 c0 -30 4 -45 13 -45 8 0 13 16 15 45 1 34 -2 45 -13 45
-11 0 -15 -12 -15 -45z"/>
<path d="M1732 493 c1 -140 -2 -169 -11 -153 -6 8 -7 18 -4 24 3 5 1 6 -5 2
-7 -4 -8 -15 -3 -29 4 -12 6 -27 4 -34 -5 -14 65 2 82 19 6 6 3 7 -10 2 -16
-6 -18 -5 -7 7 6 7 12 18 12 24 0 5 -5 3 -10 -5 -7 -10 -10 23 -10 103 0 109
-1 117 -19 117 -18 0 -20 -7 -19 -77z"/>
<path d="M2155 370 c3 -5 8 -10 11 -10 2 0 4 5 4 10 0 6 -5 10 -11 10 -5 0 -7
-4 -4 -10z"/>
<path d="M2143 339 c-1 -12 3 -16 13 -12 18 6 18 19 1 26 -7 3 -13 -3 -14 -14z"/>
<path d="M1440 315 c-7 -8 -8 -15 -2 -15 5 0 15 7 22 15 7 8 8 15 2 15 -5 0
-15 -7 -22 -15z"/>
<path d="M1295 2800 c-3 -5 -1 -10 4 -10 6 0 11 5 11 10 0 6 -2 10 -4 10 -3 0
-8 -4 -11 -10z"/>
<path d="M1942 2769 c3 -8 58 -44 123 -81 153 -87 250 -161 356 -268 189 -192
320 -440 365 -690 21 -123 29 -315 16 -402 -18 -118 -19 -163 -2 -163 31 0 66
252 56 408 -5 74 -12 112 -31 153 -14 30 -25 59 -25 64 0 6 -24 70 -54 144
-89 223 -185 366 -367 551 -60 61 -109 115 -109 122 0 16 -98 79 -193 123
-100 47 -142 59 -135 39z"/>
<path d="M1357 2724 c3 -8 11 -14 19 -14 21 0 17 17 -5 23 -14 3 -18 1 -14 -9z"/>
<path d="M1970 2690 c8 -5 20 -10 25 -10 6 0 3 5 -5 10 -8 5 -19 10 -25 10 -5
0 -3 -5 5 -10z"/>
<path d="M2011 2676 c10 -9 109 -56 109 -51 0 5 -95 55 -106 55 -4 0 -5 -2 -3
-4z"/>
<path d="M2150 2606 c0 -3 9 -10 20 -16 11 -6 20 -8 20 -6 0 3 -9 10 -20 16
-11 6 -20 8 -20 6z"/>
<path d="M2230 2556 c0 -2 8 -10 18 -17 15 -13 16 -12 3 4 -13 16 -21 21 -21
13z"/>
<path d="M1793 2475 c0 -33 2 -45 4 -27 2 18 2 45 0 60 -2 15 -4 0 -4 -33z"/>
<path d="M2270 2526 c0 -2 8 -10 18 -17 15 -13 16 -12 3 4 -13 16 -21 21 -21
13z"/>
<path d="M2310 2497 c0 -2 15 -16 33 -33 l32 -29 -29 33 c-28 30 -36 37 -36
29z"/>
<path d="M2460 2345 c13 -14 26 -25 28 -25 3 0 -5 11 -18 25 -13 14 -26 25
-28 25 -3 0 5 -11 18 -25z"/>
<path d="M2500 2296 c0 -2 8 -10 18 -17 15 -13 16 -12 3 4 -13 16 -21 21 -21
13z"/>
<path d="M1218 2203 c-49 -28 -78 -52 -78 -65 0 -5 9 -6 20 -3 24 8 28 -16 5
-35 -9 -7 -13 -15 -10 -18 2 -3 16 6 29 19 14 13 47 42 75 64 27 22 50 43 50
46 2 19 -53 14 -91 -8z"/>
<path d="M1830 2160 c0 -5 9 -10 21 -10 11 0 18 -4 14 -9 -3 -6 2 -14 11 -19
9 -5 16 -12 15 -15 0 -4 6 -22 14 -41 8 -20 15 -41 15 -47 0 -7 3 -10 6 -6 8
7 -24 104 -44 135 -14 22 -52 31 -52 12z"/>
<path d="M2647 2065 c9 -19 18 -33 21 -31 4 5 -26 66 -33 66 -3 0 3 -16 12
-35z"/>
<path d="M1100 2030 c0 -5 5 -10 10 -10 6 0 10 5 10 10 0 6 -4 10 -10 10 -5 0
-10 -4 -10 -10z"/>
<path d="M322 1995 c-17 -37 -14 -45 4 -12 9 16 14 31 11 33 -2 2 -9 -7 -15
-21z"/>
<path d="M2033 1948 c-18 -13 -33 -27 -33 -32 0 -5 12 1 28 15 15 13 31 27 37
31 20 17 -2 7 -32 -14z"/>
<path d="M1894 1915 c22 -17 40 -20 32 -6 -3 5 -16 11 -28 14 -22 6 -22 5 -4
-8z"/>
<path d="M2020 1888 c-16 -7 -20 -12 -12 -15 8 -3 21 2 30 11 19 18 17 19 -18
4z"/>
<path d="M2149 1898 c-10 -33 1 -52 16 -28 3 6 1 10 -5 10 -6 0 -8 5 -5 10 3
6 4 10 1 10 -3 0 -6 -1 -7 -2z"/>
<path d="M261 1824 c-69 -252 -45 -566 64 -818 37 -85 113 -217 152 -263 31
-35 21 -17 -41 75 -89 135 -153 301 -182 471 -20 115 -14 368 11 479 17 79 15
123 -4 56z"/>
<path d="M2170 1839 c0 -11 4 -18 10 -14 5 3 7 12 3 20 -7 21 -13 19 -13 -6z"/>
<path d="M2741 1814 c0 -11 3 -14 6 -6 3 7 2 16 -1 19 -3 4 -6 -2 -5 -13z"/>
<path d="M2752 1770 c0 -14 2 -19 5 -12 2 6 2 18 0 25 -3 6 -5 1 -5 -13z"/>
<path d="M1833 1508 c3 -9 1 -18 -6 -21 -7 -2 -7 -6 -1 -10 5 -3 16 -2 24 3
13 8 12 12 -4 27 -17 16 -18 16 -13 1z"/>
<path d="M2100 1490 c-8 -5 -10 -10 -5 -10 6 0 17 5 25 10 8 5 11 10 5 10 -5
0 -17 -5 -25 -10z"/>
<path d="M2134 1458 l-19 -23 23 19 c21 18 27 26 19 26 -2 0 -12 -10 -23 -22z"/>
<path d="M2281 1436 c-19 -7 -37 -18 -39 -25 -2 -7 13 -3 37 10 23 11 41 23
41 25 0 2 -1 4 -2 3 -2 0 -18 -6 -37 -13z"/>
<path d="M2490 1440 c0 -5 7 -10 15 -10 8 0 15 5 15 10 0 6 -7 10 -15 10 -8 0
-15 -4 -15 -10z"/>
<path d="M805 1402 c17 -11 32 -18 34 -15 8 6 -13 20 -39 28 -23 6 -22 5 5
-13z"/>
<path d="M2156 1405 c-11 -8 -16 -15 -10 -15 5 0 18 7 28 15 11 8 16 15 10 15
-5 0 -18 -7 -28 -15z"/>
<path d="M894 1401 c3 -5 1 -11 -5 -13 -6 -2 8 -3 30 -3 44 0 43 8 -2 19 -17
4 -26 3 -23 -3z"/>
<path d="M2575 1390 c3 -5 10 -10 16 -10 5 0 9 5 9 10 0 6 -7 10 -16 10 -8 0
-12 -4 -9 -10z"/>
<path d="M2138 1370 c-41 -22 -53 -36 -38 -45 5 -3 26 10 47 29 44 41 42 43
-9 16z"/>
<path d="M985 1370 c3 -5 11 -10 16 -10 6 0 7 5 4 10 -3 6 -11 10 -16 10 -6 0
-7 -4 -4 -10z"/>
<path d="M552 571 c-17 -10 -12 -83 6 -89 8 -2 12 11 12 47 0 28 -1 51 -2 51
-2 0 -9 -4 -16 -9z"/>
<path d="M540 375 c0 -37 -4 -55 -12 -55 -14 -1 20 -30 34 -30 15 0 8 19 -9
24 -12 3 -9 5 7 4 44 -1 51 2 44 13 -4 8 -9 7 -15 -2 -6 -10 -9 -10 -9 -2 0 6
5 15 10 18 16 10 12 28 -5 21 -12 -4 -15 3 -15 29 0 24 -5 35 -15 35 -12 0
-15 -13 -15 -55z m17 -32 c-3 -10 -5 -4 -5 12 0 17 2 24 5 18 2 -7 2 -21 0
-30z"/>
</g>
</svg>
