<?xml version="1.0" standalone="no"?>
<!DOCTYPE svg PUBLIC "-//W3C//DTD SVG 20010904//EN"
 "http://www.w3.org/TR/2001/REC-SVG-20010904/DTD/svg10.dtd">
<svg version="1.0" xmlns="http://www.w3.org/2000/svg"
 width="300.000000pt" height="300.000000pt" viewBox="0 0 300.000000 300.000000"
 preserveAspectRatio="xMidYMid meet">
<metadata>
Created by potrace 1.11, written by Peter Selinger 2001-2013
</metadata>
<g transform="translate(0.000000,300.000000) scale(0.100000,-0.100000)"
fill="#000000" stroke="none">
<path d="M1375 2853 c-156 -14 -291 -55 -367 -111 -81 -59 -186 -132 -192
-132 -2 0 -7 8 -9 18 -3 9 -5 -9 -6 -40 0 -33 3 -58 9 -58 6 0 10 7 10 15 0 8
4 15 10 15 5 0 35 16 66 36 68 44 167 90 212 99 l32 7 0 -45 c0 -52 20 -78 45
-57 13 11 18 11 28 0 9 -10 9 -13 0 -17 -20 -7 -15 -30 10 -49 16 -12 17 -15
4 -10 -27 9 -41 -3 -26 -21 9 -10 10 -16 2 -21 -8 -5 -6 -23 8 -61 10 -30 17
-56 15 -59 -3 -2 -14 -1 -25 3 -20 6 -58 86 -48 102 3 5 2 15 -3 22 -11 19
-33 3 -27 -20 3 -11 1 -19 -4 -19 -12 0 -11 -82 1 -115 9 -24 8 -26 -11 -20
-40 13 -9 -14 40 -36 27 -11 64 -37 82 -56 l34 -37 -40 30 c-22 17 -60 38 -84
48 -55 22 -137 31 -146 17 -3 -6 -16 -11 -28 -11 -21 1 -21 1 3 14 l25 14 -25
5 c-14 2 0 2 30 0 l55 -4 -35 20 c-41 23 -102 26 -145 6 -19 -8 -24 -14 -13
-14 11 -1 15 -6 12 -16 -5 -11 1 -15 19 -15 28 0 87 -44 87 -65 0 -7 -15 2
-34 21 -19 19 -42 34 -52 34 -15 0 -12 -6 13 -32 36 -39 46 -71 31 -104 -15
-32 -33 -30 -55 7 -10 17 -32 39 -50 50 -34 21 -54 60 -34 67 13 4 15 22 2 22
-5 0 -13 -9 -16 -20 -9 -28 -20 -25 -21 5 -1 18 3 25 16 25 32 0 51 34 54 99
3 57 1 61 -18 61 -13 0 -28 11 -39 29 -14 23 -14 29 -3 27 8 -1 21 -7 29 -14
10 -8 22 -9 38 -3 33 12 13 20 -79 30 -64 6 -72 5 -72 -10 0 -9 -7 -22 -15
-29 -10 -8 -12 -17 -6 -24 11 -13 23 -66 15 -66 -3 0 -22 10 -43 22 l-38 21
14 61 c8 34 21 71 28 83 13 19 12 24 -5 46 -15 18 -36 28 -85 37 -65 12 -97
30 -53 30 13 0 61 -9 108 -20 78 -17 86 -18 103 -3 25 24 5 41 -27 23 -34 -18
-206 5 -206 27 0 12 -2 12 -15 -1 -30 -29 -18 -44 46 -57 33 -6 70 -20 82 -29
20 -17 20 -20 7 -89 -14 -76 -38 -115 -27 -45 l6 39 -19 -35 c-10 -19 -49 -71
-86 -115 -374 -445 -449 -1028 -196 -1520 l49 -94 -56 -3 -56 -3 -8 -47 c-4
-27 -6 -132 -5 -235 l3 -188 69 -3 c80 -3 124 11 137 45 10 28 11 139 1 165
-4 10 -7 -23 -7 -72 0 -115 -7 -123 -110 -128 l-75 -4 0 232 0 232 74 -4 c101
-5 106 -11 106 -117 0 -56 -5 -92 -12 -101 -11 -12 -10 -12 5 -1 10 8 17 27
17 47 0 43 16 51 33 17 25 -49 28 -86 12 -173 -8 -47 -15 -98 -15 -113 0 -26
2 -28 38 -25 35 3 38 5 49 52 7 26 14 51 17 54 11 10 36 -21 42 -54 8 -43 25
-56 66 -52 33 3 33 3 30 53 -3 55 2 52 39 -18 20 -37 21 -38 72 -36 42 2 64
-3 112 -28 80 -41 238 -89 355 -108 218 -35 499 -6 713 73 55 20 67 28 62 43
-5 14 0 18 27 21 28 3 34 7 36 31 5 39 38 33 35 -6 l-2 -28 97 3 97 3 3 38 3
37 -45 0 c-42 0 -46 2 -46 23 0 22 33 47 61 47 25 0 42 -33 41 -78 0 -26 4
-53 10 -59 7 -8 37 -13 83 -13 57 0 78 4 96 19 23 18 24 26 29 188 5 156 7
171 28 197 24 32 22 47 -4 26 -13 -12 -17 -11 -25 1 -13 21 -11 31 14 69 13
19 41 67 62 105 36 64 40 68 46 45 l6 -25 11 26 c17 43 71 55 73 17 1 -19 3
-17 11 9 8 24 18 34 41 39 21 4 26 9 16 14 -11 7 -10 12 4 28 18 20 14 32 -12
32 -9 0 -22 9 -29 21 -11 18 -19 20 -55 14 -23 -4 -48 -13 -55 -19 -14 -14
-62 -10 -62 5 0 5 10 9 23 9 24 1 64 26 55 36 -4 3 2 36 13 72 67 233 39 557
-70 803 -41 94 -151 267 -195 308 -14 14 -26 29 -26 35 0 5 17 -6 38 -25 l37
-34 -34 37 c-19 20 -37 36 -41 35 -4 -1 -36 23 -71 54 -238 208 -475 304 -781
316 -89 4 -148 10 -148 16 0 6 50 8 143 4 255 -11 456 -78 667 -224 35 -25 59
-38 51 -30 -7 9 -47 38 -89 65 -218 140 -423 205 -681 218 -64 3 -127 8 -141
11 -23 5 -22 6 20 28 25 13 38 24 30 23 -8 -1 -33 -3 -55 -5z m111 -198 c3
-25 10 -42 15 -39 5 3 29 7 53 9 27 2 60 14 83 29 21 15 39 22 41 16 2 -5 19
-10 37 -10 19 0 37 -5 40 -11 5 -7 13 -5 24 5 15 14 22 14 66 1 75 -23 184
-69 189 -80 2 -5 0 -20 -5 -33 -7 -19 -14 -22 -45 -19 -24 3 -37 0 -41 -9 -3
-8 -18 -14 -33 -14 -29 0 -41 -14 -32 -37 6 -19 44 -16 106 7 33 13 64 18 80
14 23 -5 25 -3 23 23 -3 45 29 40 112 -17 142 -100 287 -263 366 -413 91 -171
132 -321 141 -517 9 -179 -34 -438 -70 -424 -9 4 -18 -6 -25 -28 -11 -32 -12
-33 -58 -29 -43 3 -46 2 -34 -13 16 -19 8 -21 -18 -4 -15 9 -25 6 -54 -16 -41
-32 -103 -50 -114 -33 -3 6 -1 7 5 3 7 -4 12 -1 12 7 0 8 -12 17 -27 20 -16 3
-37 9 -47 13 -14 6 -17 4 -11 -6 6 -10 1 -11 -21 -6 -27 6 -26 3 21 -40 28
-25 41 -41 29 -36 -11 6 -26 18 -34 26 -7 9 -19 16 -26 16 -8 0 -31 11 -52 23
-20 13 -50 32 -65 41 -16 10 -26 20 -23 23 3 3 18 -2 33 -12 15 -10 23 -12 17
-6 -24 26 -258 151 -264 141 -4 -6 -21 3 -41 21 l-34 30 -3 -88 c-3 -92 3
-153 17 -153 15 0 21 13 10 26 -6 8 -13 37 -15 66 -2 37 -1 48 6 38 8 -12 10
-12 10 5 1 15 6 11 24 -18 13 -21 33 -45 45 -53 12 -9 21 -26 21 -40 0 -15 6
-24 15 -24 8 0 57 -42 108 -94 74 -73 101 -95 131 -100 27 -5 40 -14 46 -32
14 -35 14 -34 -22 -34 -22 0 -41 -9 -58 -26 l-24 -26 -9 26 c-8 24 -13 26 -67
26 -32 0 -61 4 -65 9 -7 12 6 153 13 146 4 -3 6 -36 7 -72 0 -45 4 -67 13 -69
7 -1 9 -1 5 2 -5 2 -7 38 -5 79 l4 75 -31 0 c-24 0 -31 -4 -31 -19 0 -33 -18
-33 -25 -1 -4 17 -18 42 -32 56 l-25 25 2 -23 c1 -13 1 -32 0 -43 l-1 -20 -9
20 -9 20 0 -20 c-1 -17 -3 -17 -11 -5 -8 12 -10 11 -10 -7 0 -12 5 -25 12 -29
7 -4 8 -3 4 4 -4 7 -1 12 9 12 9 0 14 -4 11 -8 -8 -14 43 -62 59 -56 8 4 15 1
15 -5 0 -7 -18 -10 -45 -9 -34 1 -46 6 -51 20 -3 10 -10 18 -17 18 -8 0 -8 -3
1 -12 12 -12 16 -50 7 -60 -3 -3 -23 11 -44 32 -21 21 -47 40 -57 42 -11 2
-19 12 -19 24 0 11 -6 28 -13 37 -11 12 -11 19 -1 35 12 19 13 19 28 3 9 -9
13 -12 8 -5 -9 13 1 44 14 44 5 0 9 -6 9 -12 0 -7 5 -5 11 5 8 13 6 21 -6 33
-14 14 -15 32 -10 118 4 74 3 107 -7 125 -29 53 -50 7 -27 -61 17 -51 4 -60
-16 -12 -19 45 -24 102 -8 112 11 7 -27 181 -47 214 -5 10 -10 26 -10 37 0 26
-10 51 -21 51 -5 0 -6 -13 -2 -30 7 -37 -4 -39 -17 -4 -9 22 -7 29 11 45 12
10 19 25 16 32 -3 9 5 20 19 27 13 8 24 22 24 32 0 11 5 16 10 13 12 -8 13 5
1 24 -7 11 -12 7 -18 -19 -5 -18 -15 -36 -23 -38 -9 -3 -11 1 -7 12 4 10 3 15
-3 11 -6 -3 -10 1 -10 9 0 11 -8 13 -35 9 l-36 -6 7 40 c4 26 2 43 -5 47 -17
11 -13 29 4 22 12 -4 15 5 15 49 0 57 13 73 24 30 4 -14 11 -25 16 -25 18 0
62 -78 56 -98 -5 -15 -2 -20 11 -18 10 0 18 -6 18 -14 1 -8 5 -24 10 -35 9
-19 9 -19 15 4 l6 25 19 -20 c11 -12 28 -24 38 -27 14 -5 17 0 17 29 0 51 -15
74 -50 74 -17 0 -30 -4 -30 -9 0 -6 -9 -9 -19 -8 -10 0 -17 7 -14 13 2 7 -1
22 -7 34 -9 18 -9 28 0 46 7 13 18 20 24 17 6 -3 7 -2 3 2 -12 13 -37 15 -37
2 0 -17 -14 2 -17 24 -2 11 -10 33 -18 49 -8 16 -15 33 -14 37 1 4 1 17 0 28
-1 13 -7 7 -16 -19 -16 -46 -37 -71 -29 -35 5 20 4 21 -6 9 -9 -12 -10 -7 -5
20 4 19 11 39 15 44 11 12 -52 76 -75 76 -26 0 -115 42 -109 51 6 10 64 -10
64 -22 0 -5 9 -9 20 -9 33 0 23 33 -16 53 -26 13 -40 15 -55 7 -22 -12 -21
-13 -24 20 -2 14 4 31 13 38 14 11 14 12 -2 12 -15 0 -16 3 -6 15 7 9 10 25 5
42 -5 23 -4 25 9 14 14 -12 16 -10 16 12 0 14 4 28 9 32 6 3 6 18 1 35 -5 17
-7 39 -5 50 3 14 -2 20 -15 20 -13 0 -17 5 -14 15 4 8 1 15 -5 15 -17 0 -2 50
24 82 13 15 25 25 28 22 3 -3 8 8 12 25 9 41 22 31 31 -24z m-252 -200 c-4 -8
-11 -12 -16 -9 -6 4 -5 10 3 15 19 12 19 11 13 -6z m147 -7 c22 -28 25 -58 4
-58 -9 0 -15 -9 -15 -22 0 -38 -7 -15 -14 45 -3 31 -3 57 0 57 3 0 14 -10 25
-22z m-611 -13 c0 -8 -8 -11 -20 -8 -20 5 -25 15 -14 26 9 9 34 -4 34 -18z
m-122 -61 c23 -20 41 -39 38 -41 -7 -7 -76 28 -76 39 0 6 -6 8 -14 5 -15 -6
-26 12 -26 44 0 17 2 18 18 4 9 -8 36 -31 60 -51z m663 23 c-16 -16 -26 0 -10
19 9 11 15 12 17 4 2 -6 -1 -17 -7 -23z m-513 -11 c4 -16 -29 -16 -35 0 -3 9
-13 12 -24 9 -18 -6 -26 5 -14 17 8 8 70 -15 73 -26z m-248 0 c0 -7 -24 -46
-53 -87 -144 -203 -208 -341 -254 -551 -24 -112 -24 -380 1 -487 9 -41 14 -76
12 -78 -2 -3 -10 21 -16 52 -44 210 -40 406 11 610 26 101 107 299 161 390 75
128 138 197 138 151z m94 -130 c24 -27 34 -45 30 -55 -6 -13 -8 -13 -12 4 -2
11 -24 42 -48 68 -24 27 -44 57 -44 66 0 10 7 5 18 -14 10 -17 35 -48 56 -69z
m165 78 c10 -9 -12 -21 -34 -16 -25 4 -31 13 -18 25 6 6 42 0 52 -9z m581 6
c0 -5 -5 -10 -11 -10 -5 0 -7 5 -4 10 3 6 8 10 11 10 2 0 4 -4 4 -10z m-743
-46 c-12 -13 -37 6 -37 28 l0 22 22 -21 c12 -13 19 -25 15 -29z m-107 -28 c0
-17 6 -22 22 -22 14 1 29 -10 43 -31 17 -28 26 -32 62 -33 56 0 78 -26 97
-112 4 -17 18 -34 36 -43 16 -8 32 -20 35 -26 4 -6 -11 -1 -33 10 -32 16 -43
30 -57 68 -36 102 -29 98 -120 79 -12 -2 -48 -7 -80 -11 -33 -4 -68 -14 -77
-22 -10 -9 -34 -48 -54 -87 -20 -39 -51 -96 -70 -126 -107 -179 -124 -519 -39
-787 13 -42 22 -79 20 -81 -2 -2 -15 33 -29 78 -72 227 -74 509 -6 745 46 161
209 449 241 429 5 -3 9 -15 9 -28z m180 -67 c0 -14 -17 -10 -23 5 -4 10 -1 13
9 9 7 -3 14 -9 14 -14z m310 -15 c0 -2 -9 0 -20 6 -11 6 -20 13 -20 16 0 2 9
0 20 -6 11 -6 20 -13 20 -16z m-49 -105 c-14 -47 -111 -137 -111 -102 0 3 19
22 41 41 46 40 68 83 71 139 l1 38 4 -40 c3 -22 0 -56 -6 -76z m109 35 c7 -19
9 -40 7 -47 -3 -7 -6 -4 -6 6 -1 10 -11 37 -22 60 -16 31 -18 38 -6 29 9 -8
21 -29 27 -48z m160 15 c0 -5 33 -43 73 -84 39 -41 80 -89 89 -107 31 -62 68
-140 68 -144 0 -2 -11 -4 -25 -4 -18 0 -28 8 -39 33 -17 40 -45 76 -46 60 0
-23 -30 -14 -30 8 0 15 5 19 15 15 16 -6 21 9 6 19 -5 3 -15 22 -22 43 -6 20
-22 46 -34 57 -28 24 -98 147 -72 126 9 -7 17 -17 17 -22z m-220 -72 c0 -12
-14 -38 -31 -57 l-30 -35 25 40 c14 22 26 48 26 57 0 10 2 18 5 18 3 0 5 -10
5 -23z m50 -84 c-10 -16 -11 -15 -6 7 3 14 6 32 7 40 1 8 4 5 6 -7 2 -12 -1
-30 -7 -40z m210 -69 c0 -10 -32 11 -40 27 -17 30 -11 31 15 3 14 -15 25 -28
25 -30z m240 -146 c0 -16 -3 -19 -11 -11 -6 6 -8 16 -5 22 11 17 16 13 16 -11z
m-53 -30 c-3 -7 -5 -2 -5 12 0 14 2 19 5 13 2 -7 2 -19 0 -25z m133 -43 c0 -8
-4 -15 -10 -15 -5 0 -10 7 -10 15 0 8 5 15 10 15 6 0 10 -7 10 -15z m-301
-327 c1 -60 -2 -108 -6 -108 -5 0 -8 60 -9 133 0 72 3 121 7 107 4 -14 7 -73
8 -132z m-269 116 c0 -8 -4 -12 -10 -9 -5 3 -10 10 -10 16 0 5 5 9 10 9 6 0
10 -7 10 -16z m-150 -164 c0 -13 -1 -13 -10 0 -5 8 -10 22 -10 30 0 13 1 13
10 0 5 -8 10 -22 10 -30z m-560 15 c0 -8 -4 -15 -10 -15 -5 0 -7 7 -4 15 4 8
8 15 10 15 2 0 4 -7 4 -15z m505 -5 c3 -5 2 -10 -4 -10 -5 0 -13 5 -16 10 -3
6 -2 10 4 10 5 0 13 -4 16 -10z m845 -60 c0 -5 -4 -10 -10 -10 -5 0 -10 5 -10
10 0 6 5 10 10 10 6 0 10 -4 10 -10z m-430 -50 c0 -5 -5 -10 -11 -10 -5 0 -7
5 -4 10 3 6 8 10 11 10 2 0 4 -4 4 -10z m37 -22 c-3 -8 -6 -5 -6 6 -1 11 2 17
5 13 3 -3 4 -12 1 -19z m-577 9 c0 -2 -11 -14 -25 -27 -14 -13 -25 -21 -25
-17 0 3 10 15 22 27 21 19 28 24 28 17z m537 -74 c-2 -16 -4 -5 -4 22 0 28 2
40 4 28 2 -13 2 -35 0 -50z m-427 48 c0 -6 -4 -13 -10 -16 -5 -3 -10 1 -10 9
0 9 5 16 10 16 6 0 10 -4 10 -9z m689 -48 c5 -32 13 -68 17 -80 4 -15 2 -23
-5 -23 -7 0 -9 5 -6 10 3 6 3 16 -2 23 -9 13 -32 95 -33 115 0 6 4 12 9 12 5
0 14 -26 20 -57z m-1194 -111 c-4 -4 -43 99 -50 135 -3 15 8 -8 24 -52 16 -44
28 -81 26 -83z m1342 96 c-3 -8 -6 -5 -6 6 -1 11 2 17 5 13 3 -3 4 -12 1 -19z
m-827 -15 c0 -16 3 -39 7 -52 4 -17 3 -22 -5 -17 -7 4 -12 16 -12 27 0 10 -5
19 -11 19 -8 0 -8 5 1 15 7 9 8 15 2 15 -14 0 -23 -28 -12 -35 16 -10 12 -30
-11 -53 -25 -27 -39 -21 -39 18 0 28 47 90 69 90 6 0 11 -12 11 -27z m200 -8
c0 -14 -4 -25 -10 -25 -5 0 -10 11 -10 25 0 14 5 25 10 25 6 0 10 -11 10 -25z
m648 -28 c-2 -17 3 -23 25 -25 35 -4 34 -18 -2 -36 -21 -11 -32 -28 -42 -66
l-14 -51 -12 31 c-6 16 -8 28 -3 25 11 -7 23 31 15 45 -3 5 -1 10 4 10 6 0 11
22 11 51 0 32 4 48 10 44 6 -4 10 -16 8 -28z m-1004 -13 c-4 -14 -1 -49 6 -78
10 -43 10 -56 -4 -86 -11 -25 -14 -28 -10 -10 3 14 -2 39 -10 55 -23 43 -21
132 2 138 9 3 18 5 20 6 1 0 -1 -11 -4 -25z m-324 -49 c0 -5 -5 -3 -10 5 -5 8
-10 20 -10 25 0 6 5 3 10 -5 5 -8 10 -19 10 -25z m670 -5 c0 -13 -5 -18 -15
-14 -8 4 -15 12 -15 20 0 8 7 14 15 14 8 0 15 -9 15 -20z m-614 -137 c3 3 0
16 -6 29 -19 37 4 7 29 -37 21 -36 21 -38 2 -15 -25 30 -28 15 -4 -20 13 -19
13 -22 2 -13 -16 13 -109 184 -109 199 1 5 19 -26 41 -70 22 -43 43 -76 45
-73z m440 90 c-2 -41 -26 -41 -26 0 0 18 3 37 7 40 10 11 20 -11 19 -40z m244
14 c-14 -8 -27 -12 -30 -10 -7 6 23 23 40 23 8 0 4 -6 -10 -13z m1520 -75
c-37 -70 -85 -130 -95 -120 -4 4 14 38 40 75 26 38 55 80 64 95 30 51 23 9 -9
-50z m-1593 -32 c-35 -67 -46 -80 -66 -80 -23 0 -23 1 -7 13 9 7 27 28 39 48
51 83 62 99 69 99 4 0 -12 -36 -35 -80z m1438 54 c36 -24 39 -24 48 -8 10 17
11 17 17 -1 5 -14 -3 -35 -29 -72 -29 -42 -42 -53 -63 -53 -17 0 -28 5 -28 14
0 8 -21 35 -47 61 -27 26 -43 46 -38 44 14 -3 62 18 70 30 10 17 29 13 70 -15z
m-852 -21 c5 -25 3 -33 -8 -33 -8 0 -15 -8 -15 -17 0 -16 2 -16 10 -3 8 11 9
7 4 -15 -10 -47 -24 -54 -24 -12 0 30 21 121 26 114 1 -1 4 -17 7 -34z m-740
-40 c5 -52 3 -73 -7 -62 -8 9 -14 119 -7 119 5 0 11 -26 14 -57z m1454 11 c18
-14 40 -36 49 -49 14 -22 14 -25 -6 -45 -28 -28 -43 -16 -70 56 -28 77 -27 79
27 38z m-681 -26 c-3 -13 -6 -32 -6 -43 -1 -19 -2 -19 -10 2 -10 24 -2 63 12
63 6 0 8 -10 4 -22z m29 -38 c-3 -5 7 -11 22 -13 26 -4 26 -4 -4 -6 -27 -1
-33 3 -33 20 0 11 5 17 10 14 6 -4 8 -10 5 -15z m-1193 -25 c3 3 11 -3 19 -12
13 -16 12 -17 -3 -4 -20 15 -25 2 -6 -17 7 -7 9 -12 6 -12 -4 0 -17 15 -29 33
-13 17 -16 26 -8 20 9 -7 18 -11 21 -8z m1416 -3 c2 -7 -2 -10 -12 -6 -9 3
-16 11 -16 16 0 13 23 5 28 -10z m-1251 -202 c17 -107 34 -210 38 -227 6 -31
4 -33 -24 -33 -28 0 -30 3 -36 48 -10 69 -11 72 -49 72 -38 0 -37 1 -51 -82
-5 -34 -9 -38 -36 -38 -25 0 -29 3 -24 23 3 12 18 105 35 207 41 253 34 232
78 228 l36 -3 33 -195z m233 170 c0 -27 -3 -30 -30 -30 l-30 0 0 -200 0 -200
-25 0 -25 0 0 200 0 200 -35 0 c-30 0 -35 3 -35 23 0 13 3 27 7 30 3 4 44 7
90 7 l83 0 0 -30z m225 0 c0 -20 -6 -26 -27 -28 l-28 -3 -2 -197 -3 -197 -27
-3 -28 -3 0 200 0 201 -29 0 c-23 0 -30 5 -33 25 -3 13 -3 27 0 30 4 3 45 4
92 3 83 -3 85 -4 85 -28z m105 -170 l0 -200 43 0 c52 0 56 -3 49 -35 -4 -24
-8 -25 -73 -25 l-69 0 0 230 0 230 25 0 25 0 0 -200z m290 170 c0 -29 -2 -30
-45 -30 l-45 0 0 -70 0 -70 45 0 c41 0 45 -2 45 -24 0 -22 -5 -25 -42 -28
l-43 -3 -3 -72 -3 -73 46 0 c43 0 45 -1 45 -30 l0 -30 -75 0 -75 0 0 230 0
230 75 0 75 0 0 -30z m230 0 c0 -29 -2 -30 -45 -30 l-45 0 0 -70 0 -70 45 0
c41 0 45 -2 45 -24 0 -22 -5 -25 -42 -28 l-43 -3 -3 -102 -3 -103 -29 0 -30 0
0 230 0 230 75 0 75 0 0 -30z m130 -200 l0 -230 -30 0 -30 0 0 230 0 230 30 0
30 0 0 -230z m240 200 c0 -29 -2 -30 -45 -30 l-45 0 0 -70 0 -70 45 0 c41 0
45 -2 45 -24 0 -22 -5 -25 -42 -28 l-43 -3 -3 -72 -3 -73 46 0 c43 0 45 -1 45
-30 l0 -30 -75 0 -75 0 0 230 0 230 75 0 75 0 0 -30z m140 -170 l0 -200 45 0
c43 0 45 -1 45 -30 l0 -30 -75 0 -75 0 0 230 0 230 30 0 30 0 0 -200z m306
175 c20 -27 20 -383 0 -410 -11 -16 -30 -20 -90 -23 l-76 -4 0 232 0 232 76
-4 c60 -3 79 -7 90 -23z m-252 -46 c28 -33 32 -50 16 -80 -9 -16 -7 -19 9 -19
36 0 33 -21 -8 -61 -23 -21 -46 -39 -51 -39 -6 0 -10 48 -10 115 0 63 4 115 9
115 5 0 21 -14 35 -31z m-174 -60 c0 -52 -3 -68 -12 -63 -7 4 -29 7 -50 5
l-38 -2 0 46 c0 38 3 45 19 45 11 0 23 5 26 11 6 8 34 24 53 28 1 1 2 -31 2
-70z m-220 31 c9 -16 8 -20 -5 -20 -8 0 -15 9 -15 20 0 11 2 20 5 20 2 0 9 -9
15 -20z m-1214 -38 c-8 -7 -25 8 -37 31 -11 21 -10 21 15 -2 14 -14 24 -26 22
-29z m211 -24 c-3 -8 -6 -5 -6 6 -1 11 2 17 5 13 3 -3 4 -12 1 -19z m-191 -60
c16 -18 22 -27 14 -20 -24 20 -34 13 -14 -10 19 -22 18 -22 -11 1 -16 12 -31
31 -31 42 -2 27 8 24 42 -13z m1408 -53 c-4 -10 0 -15 15 -15 50 0 3 -58 -65
-80 -20 -7 -38 -10 -41 -6 -11 11 8 74 25 80 9 4 28 13 42 21 31 18 31 18 24
0z m-1191 -106 c-15 -5 -15 -7 2 -17 11 -6 16 -12 12 -12 -17 0 -100 54 -88
58 9 3 9 8 -1 20 -7 9 10 3 39 -14 39 -21 48 -30 36 -35z m167 -59 c8 -5 11
-10 5 -10 -5 0 -17 5 -25 10 -8 5 -10 10 -5 10 6 0 17 -5 25 -10z m30 -42 c10
-6 7 -7 -10 -2 -14 3 -32 11 -40 16 -10 6 -7 7 10 2 14 -3 32 -11 40 -16z
m205 -8 c17 -7 16 -9 -10 -9 -16 0 -37 4 -45 9 -12 8 -10 10 10 9 14 0 34 -4
45 -9z m199 4 c38 -15 9 -24 -75 -24 -59 0 -88 4 -84 10 4 6 21 8 38 5 18 -4
43 -2 57 4 30 12 43 13 64 5z m-287 -26 c77 -20 114 -23 298 -23 184 0 221 3
298 23 49 12 103 22 120 22 52 -1 13 -16 -104 -41 -86 -19 -136 -23 -289 -23
-186 -1 -256 8 -380 48 -68 21 -42 19 57 -6z"/>
<path d="M1491 2494 c0 -11 3 -14 6 -6 3 7 2 16 -1 19 -3 4 -6 -2 -5 -13z"/>
<path d="M1502 2437 c-6 -6 -13 -30 -17 -52 -4 -22 -14 -52 -21 -67 -40 -78 7
-91 92 -26 81 61 83 70 26 110 -67 48 -69 49 -80 35z"/>
<path d="M1609 1818 c4 -28 6 -29 9 -9 2 13 0 27 -5 32 -6 6 -7 -3 -4 -23z"/>
<path d="M1642 1785 c0 -16 2 -22 5 -12 2 9 2 23 0 30 -3 6 -5 -1 -5 -18z"/>
<path d="M2540 1105 c0 -9 5 -15 11 -13 6 2 11 8 11 13 0 5 -5 11 -11 13 -6 2
-11 -4 -11 -13z"/>
<path d="M1782 920 c0 -14 2 -19 5 -12 2 6 2 18 0 25 -3 6 -5 1 -5 -13z"/>
<path d="M552 587 c-17 -112 -17 -117 14 -117 l26 0 -7 71 c-13 124 -20 134
-33 46z"/>
<path d="M2430 530 l0 -170 30 0 30 0 0 170 0 170 -30 0 -30 0 0 -170z m40
-80 c0 -64 -3 -80 -15 -80 -12 0 -15 15 -15 73 0 41 3 77 7 80 17 18 23 0 23
-73z"/>
<path d="M864 395 c11 -8 25 -15 30 -15 6 0 2 7 -8 15 -11 8 -25 15 -30 15 -6
0 -2 -7 8 -15z"/>
<path d="M1842 2798 c5 -15 9 -17 168 -92 369 -176 621 -459 739 -829 51 -161
64 -265 58 -479 -7 -245 14 -261 44 -34 14 112 8 222 -19 306 -11 36 -36 115
-55 176 -67 213 -180 406 -345 591 -48 54 -98 113 -111 132 -43 60 -218 161
-370 212 -94 32 -115 35 -109 17z"/>
<path d="M757 2674 c3 -7 9 -14 14 -14 5 0 11 0 14 0 14 0 4 15 -14 21 -15 6
-19 4 -14 -7z"/>
<path d="M1086 2651 c-26 -27 -29 -38 -31 -103 -1 -40 -7 -83 -13 -94 -18 -34
-31 -104 -20 -104 16 0 37 32 38 55 0 21 43 92 67 110 10 8 10 25 0 88 l-12
78 -29 -30z m44 -121 c0 -5 -5 -10 -11 -10 -5 0 -7 5 -4 10 3 6 8 10 11 10 2
0 4 -4 4 -10z"/>
<path d="M581 2604 c0 -11 3 -14 6 -6 3 7 2 16 -1 19 -3 4 -6 -2 -5 -13z"/>
<path d="M2340 2465 c19 -19 36 -35 39 -35 3 0 -10 16 -29 35 -19 19 -36 35
-39 35 -3 0 10 -16 29 -35z"/>
<path d="M870 2383 c0 -16 -6 -35 -12 -42 -11 -10 -8 -10 15 0 15 7 27 16 27
21 0 5 -5 6 -12 2 -8 -5 -9 0 -6 14 4 12 2 25 -3 28 -5 3 -9 -8 -9 -23z"/>
<path d="M1080 2388 c-12 -22 -12 -22 6 -6 10 10 15 20 12 24 -4 3 -12 -5 -18
-18z"/>
<path d="M2500 2296 c0 -2 8 -10 18 -17 15 -13 16 -12 3 4 -13 16 -21 21 -21
13z"/>
<path d="M2530 2256 c0 -2 8 -10 18 -17 15 -13 16 -12 3 4 -13 16 -21 21 -21
13z"/>
<path d="M2647 2065 c9 -19 18 -33 21 -31 4 5 -26 66 -33 66 -3 0 3 -16 12
-35z"/>
<path d="M2741 1814 c0 -11 3 -14 6 -6 3 7 2 16 -1 19 -3 4 -6 -2 -5 -13z"/>
<path d="M2751 1764 c0 -11 3 -14 6 -6 3 7 2 16 -1 19 -3 4 -6 -2 -5 -13z"/>
<path d="M2762 1715 c0 -16 2 -22 5 -12 2 9 2 23 0 30 -3 6 -5 -1 -5 -18z"/>
<path d="M2773 1635 c0 -22 2 -30 4 -17 2 12 2 30 0 40 -3 9 -5 -1 -4 -23z"/>
<path d="M2783 1495 c0 -38 2 -53 4 -32 2 20 2 52 0 70 -2 17 -4 1 -4 -38z"/>
<path d="M2770 1383 c0 -34 -27 -175 -46 -243 -4 -14 -4 -22 0 -18 22 20 71
298 52 298 -3 0 -6 -17 -6 -37z"/>
<path d="M2790 1159 c0 -5 5 -7 10 -4 6 3 10 8 10 11 0 2 -4 4 -10 4 -5 0 -10
-5 -10 -11z"/>
<path d="M2895 1080 c3 -5 12 -7 20 -3 21 7 19 13 -6 13 -11 0 -18 -4 -14 -10z"/>
<path d="M2779 746 c-13 -14 -28 -26 -35 -26 -12 0 -24 -22 -24 -45 0 -8 10
-24 23 -35 21 -20 22 -31 27 -183 l5 -162 31 -3 c53 -5 55 4 52 249 l-3 224
-27 3 c-19 2 -34 -4 -49 -22z m69 -213 l-3 -228 -27 -3 -28 -3 0 180 0 181
-25 0 c-20 0 -25 5 -25 24 0 16 7 27 20 31 11 3 25 15 30 26 6 11 21 19 36 19
l24 0 -2 -227z"/>
<path d="M280 630 l0 -70 30 0 30 0 0 70 0 70 -30 0 -30 0 0 -70z m48 -34 c-2
-11 -11 -22 -20 -24 -15 -3 -18 4 -18 46 0 27 3 52 7 56 11 10 35 -51 31 -78z"/>
<path d="M287 503 c-4 -3 -7 -37 -7 -75 l0 -69 33 3 c32 3 32 4 35 61 2 35 -2
64 -9 73 -12 15 -41 19 -52 7z m39 -86 c6 -43 5 -47 -15 -47 -19 0 -21 6 -21
48 0 81 25 80 36 -1z"/>
</g>
</svg>
