<?xml version="1.0" standalone="no"?>
<!DOCTYPE svg PUBLIC "-//W3C//DTD SVG 20010904//EN"
 "http://www.w3.org/TR/2001/REC-SVG-20010904/DTD/svg10.dtd">
<svg version="1.0" xmlns="http://www.w3.org/2000/svg"
 width="512.000000pt" height="512.000000pt" viewBox="0 0 512.000000 512.000000"
 preserveAspectRatio="xMidYMid meet">
<metadata>
Created by potrace 1.11, written by Peter Selinger 2001-2013
</metadata>
<g transform="translate(0.000000,512.000000) scale(0.100000,-0.100000)"
fill="#000000" stroke="none">
<path d="M2710 4921 c0 -6 4 -13 10 -16 6 -3 7 1 4 9 -7 18 -14 21 -14 7z"/>
<path d="M2790 4926 c0 -2 7 -7 16 -10 8 -3 12 -2 9 4 -6 10 -25 14 -25 6z"/>
<path d="M2773 4895 c0 -8 4 -12 9 -9 5 3 6 10 3 15 -9 13 -12 11 -12 -6z"/>
<path d="M2407 4886 c-12 -9 -14 -16 -8 -21 6 -3 11 -1 11 5 0 6 4 9 8 6 5 -3
9 1 9 9 0 8 -1 15 -1 15 -1 0 -9 -7 -19 -14z"/>
<path d="M2543 4880 c16 -25 16 -26 -8 -28 -22 -2 -29 6 -27 29 1 3 -5 6 -13
6 -10 0 -11 -5 -4 -19 13 -24 -6 -24 -21 0 -10 14 -11 14 -6 0 3 -10 -2 -18
-15 -21 -17 -5 -18 -3 -7 10 12 15 11 15 -10 4 -21 -11 -65 -18 -169 -24 -23
-2 -46 -6 -49 -10 -11 -11 -36 -8 -29 3 3 6 -1 7 -9 4 -9 -3 -16 -11 -16 -18
-1 -6 -8 0 -16 14 -14 24 -15 24 -11 3 5 -24 -8 -32 -16 -10 -3 7 -6 5 -6 -6
-1 -16 -3 -16 -25 -2 -21 14 -24 14 -37 -2 -13 -16 -12 -17 4 -4 12 9 17 10
17 2 0 -7 5 -9 12 -5 6 4 8 3 5 -3 -7 -11 -36 -11 -56 2 -9 5 -12 4 -8 -2 4
-6 0 -13 -8 -17 -8 -3 -17 0 -21 6 -4 7 -3 8 4 4 7 -4 12 -2 12 4 0 7 -6 10
-12 7 -7 -2 -12 -11 -10 -21 2 -9 -2 -16 -8 -16 -5 0 -10 5 -10 10 0 6 -5 10
-11 10 -5 0 -7 -4 -4 -10 4 -6 -1 -7 -11 -3 -13 5 -15 3 -9 -8 5 -8 0 -6 -12
4 -16 14 -23 15 -29 6 -4 -7 -3 -10 3 -6 6 4 13 1 16 -6 3 -7 -5 -13 -19 -13
-15 -1 -21 3 -18 11 3 7 0 16 -7 21 -8 4 -10 3 -5 -4 11 -17 -11 -51 -31 -48
-10 2 -21 -2 -25 -8 -4 -6 -10 -7 -14 -3 -4 4 1 17 12 29 l19 23 -22 -19 c-13
-11 -23 -16 -23 -11 0 4 -7 2 -15 -5 -8 -6 -20 -9 -27 -5 -7 4 -5 0 5 -8 21
-17 22 -28 2 -21 -9 4 -18 -1 -21 -11 -5 -13 -9 -14 -15 -3 -7 10 -9 10 -9 1
0 -7 -6 -13 -13 -13 -7 0 -18 -5 -25 -12 -15 -15 -42 -19 -42 -7 0 5 -4 9 -10
9 -5 0 -6 -7 -3 -17 4 -11 3 -14 -5 -9 -7 4 -12 2 -12 -4 0 -7 -7 -9 -16 -6
-10 4 -13 2 -8 -6 5 -8 2 -9 -9 -5 -10 3 -17 2 -17 -4 0 -8 -42 -31 -63 -33
-4 -1 -12 -8 -17 -16 -9 -13 -13 -11 -31 10 -17 21 -19 22 -10 3 14 -29 14
-33 -5 -33 -8 0 -13 4 -10 8 3 5 -1 9 -9 9 -10 0 -12 -4 -5 -12 9 -10 -1 -38
-14 -36 -20 3 -26 0 -21 -9 4 -6 3 -9 -2 -8 -4 1 -34 -15 -65 -36 -31 -21 -61
-35 -67 -31 -7 4 -8 -1 -4 -12 6 -16 5 -16 -11 -4 -9 8 -16 10 -15 5 3 -19 -1
-34 -11 -34 -6 0 -32 -20 -58 -45 -26 -25 -55 -48 -65 -51 -9 -3 -14 -10 -11
-16 4 -5 -4 -4 -17 3 -20 10 -22 10 -13 -2 9 -11 6 -19 -10 -35 -12 -11 -30
-20 -39 -18 -9 1 -17 -2 -17 -7 0 -6 -5 -7 -12 -3 -7 4 -8 3 -4 -4 4 -6 14 -8
23 -5 15 6 16 5 3 -9 -8 -9 -17 -15 -20 -13 -3 2 -16 -2 -29 -9 -15 -9 -20
-16 -12 -20 6 -4 11 -2 11 3 0 6 5 11 11 11 8 0 8 -4 -1 -14 -6 -8 -17 -13
-25 -10 -7 3 -16 0 -21 -7 -4 -8 -3 -10 4 -5 7 4 12 2 12 -3 0 -6 -8 -11 -17
-11 -9 0 -14 -3 -10 -6 3 -4 1 -12 -6 -20 -7 -7 -18 -20 -25 -29 -9 -10 -21
-14 -35 -9 -21 6 -21 5 -3 -8 18 -14 18 -15 -2 -30 -12 -8 -19 -18 -15 -21 3
-4 1 -7 -4 -7 -6 0 -14 6 -17 13 -4 6 -4 2 -2 -10 3 -15 -1 -23 -9 -23 -8 0
-17 -5 -21 -12 -4 -7 -3 -8 4 -4 7 4 12 3 12 -2 0 -6 -11 -13 -25 -16 -14 -4
-25 -11 -25 -17 0 -8 5 -7 15 1 9 8 15 8 15 2 0 -6 -4 -12 -8 -14 -5 -1 -26
-26 -46 -55 -26 -37 -42 -50 -54 -47 -15 5 -15 4 1 -6 16 -11 16 -12 0 -35
-10 -12 -22 -20 -27 -17 -5 3 -6 -2 -3 -12 5 -11 3 -15 -5 -10 -8 5 -9 2 -5
-10 6 -14 3 -17 -10 -12 -14 6 -15 4 -6 -5 14 -14 -20 -71 -52 -89 -13 -7 -14
-9 -3 -6 21 6 13 -21 -11 -42 -13 -11 -13 -12 -1 -6 8 4 5 -3 -7 -15 -26 -24
-31 -40 -8 -21 13 11 14 10 10 -1 -9 -23 -45 -42 -59 -30 -8 7 -12 5 -12 -8 0
-16 4 -17 23 -10 14 5 23 5 23 -1 0 -6 -8 -10 -17 -10 -15 0 -16 -2 -3 -10 11
-7 11 -10 2 -10 -7 0 -11 -4 -8 -8 3 -5 -1 -20 -9 -35 -8 -15 -11 -27 -8 -27
3 0 0 -6 -6 -13 -6 -8 -8 -17 -4 -20 3 -4 -2 -9 -11 -13 -9 -3 -14 -10 -11
-14 7 -12 -6 -41 -15 -35 -5 3 -12 0 -16 -6 -4 -7 -3 -9 4 -5 6 3 13 2 17 -4
3 -5 1 -10 -5 -10 -6 0 -9 -4 -5 -9 3 -5 -3 -12 -12 -14 -17 -4 -17 -5 0 -6
12 -1 15 -5 10 -13 -4 -7 -9 -22 -10 -32 -2 -11 -6 -22 -9 -25 -3 -3 -4 9 -1
27 3 18 1 32 -5 32 -5 0 -8 -6 -5 -12 2 -7 0 -25 -4 -41 -5 -19 -4 -25 3 -21
8 5 9 -2 3 -22 -4 -16 -8 -34 -8 -41 0 -7 -4 -10 -8 -8 -4 3 -10 -2 -13 -11
-9 -24 -7 -31 4 -14 8 11 9 9 6 -10 -3 -14 -5 -27 -6 -30 -2 -3 -2 -9 -1 -13
1 -5 -3 -6 -9 -2 -5 3 -10 1 -10 -6 0 -9 -3 -9 -14 0 -10 8 -16 9 -21 1 -4 -6
-1 -9 7 -8 8 2 12 -5 11 -17 -1 -19 -1 -19 11 -2 15 19 31 24 19 5 -4 -7 -9
-26 -11 -43 -1 -16 -3 -36 -4 -42 -1 -7 -5 -13 -10 -13 -5 0 -7 10 -4 23 3 12
3 16 0 9 -3 -6 -10 -10 -15 -7 -5 4 -6 -1 -3 -10 5 -11 2 -14 -12 -9 -11 4
-16 4 -13 0 4 -4 17 -9 29 -11 25 -5 40 -15 22 -15 -7 0 -12 -5 -12 -11 0 -5
6 -7 13 -3 9 6 9 4 1 -7 -5 -8 -10 -35 -9 -61 0 -30 -4 -49 -12 -52 -7 -3 -13
-11 -13 -18 0 -9 3 -8 10 2 12 19 7 -40 -5 -60 -5 -9 -4 -11 4 -6 8 5 11 -6 9
-38 -1 -38 -4 -44 -15 -34 -11 9 -11 13 -1 19 9 6 9 9 1 9 -22 0 -25 -21 -5
-38 11 -10 20 -30 20 -46 0 -19 -3 -24 -9 -15 -4 7 -11 11 -14 7 -3 -3 0 -12
8 -19 7 -8 15 -32 16 -54 7 -119 7 -119 -19 -132 -17 -9 -20 -13 -8 -13 9 0
20 4 23 10 9 15 22 12 22 -5 0 -8 -4 -12 -8 -10 -16 10 -17 -26 -1 -41 20 -20
27 -81 8 -64 -9 7 -13 5 -13 -5 0 -7 3 -14 6 -13 21 2 32 -4 28 -14 -2 -7 0
-22 6 -32 5 -11 10 -34 12 -51 1 -17 5 -37 9 -44 5 -7 0 -21 -11 -33 -10 -12
-13 -18 -7 -15 7 4 15 0 18 -9 3 -8 10 -12 16 -9 6 4 7 -1 3 -10 -3 -10 0 -21
8 -26 10 -6 10 -9 2 -9 -7 0 -13 -5 -13 -11 0 -5 5 -7 12 -3 7 4 8 3 4 -5 -4
-6 -1 -14 7 -16 9 -4 13 -20 13 -46 -1 -23 3 -46 7 -52 6 -8 7 -5 3 6 -3 9 -1
17 4 17 13 0 13 -43 0 -58 -7 -9 -7 -9 2 -2 14 12 31 13 24 2 -3 -5 1 -21 9
-36 8 -14 10 -24 5 -21 -19 12 -10 -11 9 -25 11 -7 18 -17 15 -21 -2 -4 0 -10
6 -14 6 -4 8 -11 5 -16 -4 -5 -1 -9 5 -9 7 0 10 -7 6 -15 -3 -9 0 -15 9 -15
18 0 20 -16 3 -26 -6 -4 -8 -3 -5 3 3 5 0 10 -8 10 -8 0 -16 -5 -18 -12 -3 -7
7 -11 26 -10 29 0 32 -3 33 -34 1 -23 9 -40 24 -51 14 -11 21 -23 17 -33 -3
-9 2 -21 11 -29 15 -12 16 -11 3 5 -7 9 -9 17 -3 17 5 0 13 -8 17 -17 7 -19 4
-29 -7 -26 -3 1 -9 -4 -12 -12 -4 -11 0 -12 18 -5 29 11 40 2 23 -18 -10 -13
-9 -15 5 -9 12 4 15 2 12 -8 -3 -7 -17 -12 -32 -10 -15 1 -36 -1 -47 -5 -18
-7 -20 -15 -17 -45 3 -29 1 -36 -8 -30 -9 6 -11 4 -4 -6 14 -24 16 -100 2
-117 -7 -9 -8 -13 -2 -9 7 4 11 -13 11 -53 0 -54 -2 -59 -16 -48 -12 10 -12 8
1 -8 24 -27 23 -44 -2 -39 -11 2 -22 0 -25 -5 -3 -5 3 -7 13 -5 10 2 25 -1 33
-6 8 -5 9 -9 4 -9 -6 0 -10 -18 -8 -42 2 -44 -20 -84 -40 -71 -6 4 -7 1 -2 -6
5 -9 10 -10 18 -2 6 6 15 11 19 11 14 0 8 -22 -10 -36 -15 -13 -15 -13 0 -8
14 5 16 -1 15 -38 -1 -24 -6 -46 -12 -50 -6 -5 -5 -8 3 -8 6 0 12 -8 12 -18 0
-10 -6 -24 -12 -31 -7 -8 -8 -11 -2 -8 7 4 11 -20 11 -73 0 -44 -3 -77 -8 -75
-4 3 -11 0 -15 -6 -4 -7 -3 -9 2 -6 6 3 16 2 24 -4 9 -5 10 -9 3 -9 -6 0 -9
-9 -6 -22 5 -23 5 -23 -12 -3 -17 19 -17 19 -2 -5 18 -32 21 -114 4 -103 -8 4
-7 1 1 -10 8 -9 13 -35 12 -59 -3 -72 -3 -71 33 -63 17 3 46 9 62 11 17 3 41
7 55 10 22 5 58 12 97 18 7 1 16 6 20 11 4 4 2 5 -4 1 -10 -5 -13 7 -13 48 0
38 4 56 13 56 8 0 9 2 1 8 -6 4 -12 28 -12 54 -1 36 3 48 16 51 16 4 16 5 0 6
-20 1 -25 31 -5 31 9 0 8 3 -2 9 -11 7 -11 9 0 14 10 4 10 6 2 6 -7 1 -13 8
-13 16 0 20 10 19 27 -2 13 -16 13 -16 3 5 -6 12 -15 22 -20 22 -6 0 -10 7
-10 15 0 20 10 19 25 -2 10 -13 13 -14 20 -2 5 8 5 11 1 7 -10 -9 -46 28 -46
47 0 18 31 20 49 3 8 -7 11 -8 8 -2 -5 8 8 12 38 12 33 1 43 -2 39 -12 -3 -8
0 -17 7 -22 8 -4 10 -3 5 5 -4 6 -2 18 4 26 7 8 9 15 4 15 -5 0 -3 4 5 9 12 8
12 12 2 25 -11 13 -11 16 3 16 9 0 16 5 16 11 0 5 -5 7 -10 4 -6 -3 -10 1 -10
9 0 18 15 21 25 6 3 -5 8 -44 10 -86 3 -43 7 -79 10 -82 2 -2 0 -13 -6 -23 -7
-15 -6 -17 6 -13 14 6 20 -13 18 -63 -1 -7 3 -10 8 -7 8 4 13 -11 7 -19 -2 -1
7 -13 20 -27 12 -13 22 -30 22 -37 0 -7 7 -13 16 -13 8 0 13 -4 10 -8 -2 -4 9
-14 25 -21 16 -7 27 -16 25 -20 -3 -4 3 -7 12 -8 9 -1 31 -4 47 -8 50 -11 99
-13 123 -4 14 6 21 5 17 -1 -3 -5 7 -3 22 5 15 8 32 15 37 15 5 0 15 8 23 18
8 9 12 12 9 6 -3 -6 1 -11 8 -11 8 0 12 6 9 14 -7 19 7 16 24 -4 13 -16 13
-16 3 5 -9 18 -8 27 1 38 10 12 14 12 21 2 7 -9 8 -6 5 9 -3 12 1 27 9 34 8 6
12 14 10 18 -2 3 2 15 10 26 10 13 14 14 14 5 0 -9 6 -6 16 8 8 12 21 22 27
22 7 0 6 -4 -3 -10 -13 -8 -8 -14 11 -12 3 1 6 -5 6 -13 0 -8 -7 -11 -16 -7
-15 5 -15 4 0 -14 16 -20 20 -44 7 -44 -5 0 -13 0 -20 0 -6 0 -3 7 8 16 18 15
18 15 -3 5 -32 -16 -38 -13 -19 8 11 12 14 21 7 26 -11 6 -15 -1 -12 -18 1 -5
-4 -5 -10 -1 -8 5 -9 3 -4 -6 6 -9 4 -11 -6 -6 -8 4 -3 -2 10 -13 17 -16 19
-21 8 -21 -9 0 -20 7 -25 16 -6 10 -12 12 -16 6 -3 -5 10 -17 29 -26 25 -12
33 -21 29 -34 -5 -14 -4 -14 4 -2 8 10 8 18 0 27 -11 14 0 18 17 5 13 -9 20
-46 7 -38 -5 3 -9 -1 -9 -9 0 -8 2 -13 5 -10 2 2 10 -2 17 -8 8 -9 42 -13 103
-12 63 1 89 -2 85 -9 -4 -6 1 -5 10 3 9 7 17 10 17 5 0 -5 4 -3 9 5 5 8 8 23
7 35 -2 18 3 21 37 22 22 1 34 -2 27 -6 -6 -4 -11 -10 -11 -14 2 -15 0 -16
-19 -6 -11 6 -20 7 -19 3 1 -4 0 -10 -1 -13 -7 -16 -5 -58 2 -54 4 3 6 9 3 14
-3 5 -1 11 4 14 5 4 12 2 16 -4 3 -5 11 -10 17 -10 5 0 0 9 -13 20 -26 21 -19
26 13 9 15 -8 19 -8 14 0 -4 6 -3 11 3 11 6 0 13 -16 17 -36 5 -25 9 -32 15
-22 7 10 9 10 9 -2 0 -9 3 -11 8 -5 11 16 71 12 83 -5 8 -11 9 -9 4 10 -6 19
-5 22 5 13 8 -7 22 -8 42 -2 19 5 38 4 50 -2 12 -6 18 -7 14 -1 -3 5 5 10 19
10 16 0 22 -5 18 -12 -4 -6 1 -5 10 3 18 14 24 26 8 17 -4 -3 -16 1 -26 8 -17
12 -16 13 6 10 13 -1 24 -3 24 -4 0 -3 55 -10 110 -14 22 -2 40 -4 40 -6 0 -1
73 -3 163 -4 106 -1 162 2 162 9 0 5 4 4 9 -3 11 -19 15 -19 35 -3 12 10 20
11 27 4 8 -8 7 -11 -2 -10 -8 1 -15 -2 -16 -7 -1 -5 -7 -13 -15 -18 -10 -8
-10 -9 2 -5 8 2 14 10 12 17 -2 8 3 10 13 6 9 -3 18 1 22 10 5 13 7 13 14 2 5
-7 9 -17 9 -23 0 -5 -4 -5 -8 1 -5 8 -11 7 -22 -4 -13 -14 -12 -15 3 -9 10 4
17 2 17 -6 0 -8 4 -6 10 3 5 8 7 22 4 32 -4 13 1 15 23 12 15 -3 35 -5 43 -5
9 0 17 -10 17 -21 2 -15 -1 -17 -11 -9 -10 9 -15 8 -19 -2 -3 -9 2 -13 16 -12
12 1 22 8 22 16 1 28 15 40 35 29 14 -8 25 -7 40 2 17 11 22 10 31 -2 9 -13
10 -12 5 3 -3 11 -1 17 7 16 24 -3 37 1 37 12 0 8 -4 8 -14 0 -10 -8 -16 -9
-21 -1 -3 5 -5 10 -3 11 30 7 41 5 45 -10 6 -22 41 -44 56 -34 7 4 23 9 35 11
17 2 22 -1 16 -10 -6 -10 -5 -11 8 -1 15 13 28 8 28 -9 0 -5 -4 -6 -10 -3 -5
3 -10 1 -10 -5 0 -7 6 -10 13 -7 6 2 11 13 10 24 -2 16 4 19 30 19 21 -1 31 3
29 12 -1 8 2 11 7 8 5 -3 9 4 8 17 0 12 4 31 8 42 8 19 7 19 -11 5 -18 -14
-18 -14 -5 3 13 17 16 17 26 3 7 -9 11 -38 11 -66 l-2 -50 51 0 c29 0 55 -3
59 -7 11 -11 37 -12 30 -1 -4 6 17 9 58 6 l64 -3 -1 73 c-1 40 2 75 7 78 4 3
8 10 8 15 0 6 -4 8 -8 5 -5 -3 -9 1 -9 9 0 11 4 12 14 4 7 -6 13 -8 13 -4 0 4
6 2 14 -4 10 -9 15 -8 19 4 4 9 13 12 24 9 15 -5 15 -4 3 5 -9 6 -18 7 -24 1
-6 -6 -14 -10 -20 -10 -5 0 4 13 20 29 21 21 32 27 41 19 7 -6 13 -15 13 -20
0 -6 -7 -5 -15 2 -9 7 -15 8 -15 2 0 -14 28 -23 35 -12 4 6 4 14 0 19 -3 5 -1
12 5 16 5 3 10 -1 10 -9 0 -8 8 -17 18 -19 16 -4 16 -5 0 -6 -10 0 -18 -6 -18
-12 0 -5 5 -7 12 -3 6 4 8 3 4 -4 -3 -6 -3 -13 2 -16 4 -2 6 -23 4 -45 -3 -27
-8 -39 -16 -34 -6 4 -5 -1 3 -10 8 -10 12 -33 9 -57 -3 -36 -1 -41 19 -46 13
-4 35 -4 48 -2 14 3 25 1 25 -3 0 -5 6 -6 13 -3 26 10 86 10 80 0 -4 -6 1 -6
13 -1 10 4 26 7 35 7 14 0 17 11 17 61 0 34 1 65 2 70 6 19 6 34 -1 52 -3 11
-3 29 1 41 5 11 4 27 0 35 -6 9 -3 20 7 32 16 17 16 17 -2 11 -14 -6 -16 -4
-10 7 13 19 13 49 2 49 -6 0 -2 10 9 22 10 12 13 18 5 13 -11 -6 -13 -4 -8 7
3 9 0 21 -6 27 -9 9 -8 11 5 6 18 -7 43 26 30 40 -4 4 3 4 16 1 14 -5 22 -3
22 4 0 6 -5 8 -10 5 -5 -3 -10 1 -10 9 0 19 11 21 28 4 9 -9 15 -9 23 -1 8 8
8 13 0 17 -6 4 -11 12 -11 18 0 6 10 3 22 -8 12 -10 18 -13 14 -6 -5 8 -1 12
11 12 15 0 16 2 3 10 -8 5 -10 10 -4 10 6 0 11 7 11 15 0 8 -4 12 -9 9 -4 -3
-8 0 -8 5 0 6 6 11 13 11 10 0 13 -25 13 -107 -1 -60 -5 -114 -9 -120 -6 -9
-3 -11 10 -6 15 6 16 4 6 -9 -7 -8 -9 -18 -5 -23 4 -4 -3 -5 -16 -2 -12 3 -20
1 -16 -4 3 -5 12 -9 20 -9 17 0 19 -31 2 -49 -11 -11 -10 -12 1 -6 10 6 13 4
8 -7 -3 -9 -1 -20 5 -26 8 -8 5 -14 -13 -21 -18 -7 -20 -10 -6 -10 10 -1 15
-5 12 -11 -3 -5 -1 -10 5 -10 6 0 9 -4 6 -9 -12 -18 -14 -91 -3 -91 8 0 8 -3
1 -10 -18 -18 -4 -70 17 -70 11 0 19 -4 19 -9 0 -12 33 -9 42 4 5 6 8 5 8 -2
0 -7 7 -10 15 -7 9 4 15 0 15 -7 0 -11 3 -11 10 1 8 12 12 12 18 2 12 -17 52
-25 46 -8 -3 9 4 11 25 8 17 -2 28 -9 25 -14 -6 -9 6 -5 37 14 3 1 14 -4 24
-12 11 -9 16 -10 11 -2 -4 6 -2 12 3 12 6 0 11 -5 11 -11 0 -8 4 -8 14 0 10 9
16 9 21 1 7 -12 46 -3 56 12 3 5 5 27 3 49 -1 26 1 37 8 33 7 -5 8 -2 2 7 -5
8 -9 43 -10 79 l-1 65 -36 3 c-21 2 -37 8 -37 14 0 6 -6 6 -15 -2 -17 -14 -17
-14 -34 15 -11 19 -12 19 -6 -2 4 -14 2 -23 -4 -23 -6 0 -11 5 -11 10 0 6 -5
10 -11 10 -5 0 -7 -4 -4 -10 3 -5 1 -10 -5 -10 -7 0 -10 25 -9 73 1 39 0 77
-1 82 -5 20 0 35 11 35 8 0 7 -6 -2 -17 -11 -15 -10 -14 9 1 18 16 22 17 22 4
0 -9 8 -19 18 -23 14 -5 15 -4 5 6 -17 17 -16 26 2 26 8 0 11 -5 8 -10 -4 -6
-1 -7 8 -1 8 5 25 9 39 9 18 0 25 5 25 20 -1 11 4 23 10 27 6 5 5 8 -4 8 -11
0 -11 3 -1 15 9 11 10 19 1 28 -8 10 -7 17 1 25 9 9 9 12 -1 12 -10 0 -11 3
-2 13 6 8 8 17 4 21 -4 4 -9 19 -11 34 -4 34 -11 40 -22 22 -7 -11 -10 -11
-10 -2 0 10 -5 10 -22 1 -18 -10 -20 -9 -14 7 4 10 4 15 0 11 -12 -12 -64 32
-58 51 5 14 4 15 -5 2 -9 -12 -4 -21 21 -44 18 -16 25 -26 16 -23 -9 3 -19 1
-22 -6 -2 -7 -5 -5 -5 5 -1 9 -5 20 -11 23 -5 3 -7 0 -4 -8 3 -8 2 -17 -3 -20
-4 -3 -8 28 -9 69 0 55 3 74 11 70 7 -2 18 1 24 7 8 8 11 8 11 -2 0 -9 4 -10
13 -4 6 6 37 10 67 9 l55 -1 -3 50 c-2 37 0 46 7 35 7 -9 11 -10 11 -3 0 6 -4
14 -8 17 -5 3 -9 25 -9 50 -1 28 3 43 9 40 6 -4 6 1 -1 13 -7 14 -7 24 2 33 9
10 9 11 -2 5 -11 -6 -13 -3 -9 13 6 23 6 24 -53 25 -26 1 -35 5 -32 14 3 7 9
13 14 13 5 0 8 6 6 13 -1 6 4 11 12 9 8 -2 11 3 8 13 -4 9 -1 15 8 15 8 0 14
-5 12 -12 -1 -6 7 -13 18 -15 l20 -3 -20 9 c-11 5 -16 10 -11 10 5 1 3 7 -3
15 -11 13 -5 50 8 42 3 -2 15 3 26 11 19 15 19 15 -4 8 -16 -5 -21 -4 -17 4 4
6 13 11 21 11 20 0 28 19 15 35 -7 8 -7 15 -1 19 12 8 33 -28 23 -39 -4 -5 -1
-5 5 -1 10 6 10 14 -2 37 -14 26 -14 30 0 35 8 3 12 10 9 15 -3 5 3 9 13 9 15
0 15 2 4 9 -12 8 -12 13 2 35 9 14 17 32 17 40 0 10 6 13 18 9 15 -6 15 -5 3
10 -15 18 -3 23 17 7 9 -7 9 -7 2 2 -14 17 -13 51 2 42 8 -5 9 -2 5 9 -9 23
13 72 25 55 5 -8 6 2 4 24 -5 39 10 61 25 37 5 -8 9 -9 9 -3 0 5 -5 15 -12 22
-8 8 -8 15 2 27 7 8 10 15 6 15 -3 0 -1 12 5 28 6 15 12 38 14 52 1 13 8 26
14 28 6 2 11 8 11 13 0 6 -6 7 -12 3 -10 -6 -10 -5 -1 8 7 8 10 17 7 21 -3 3
3 14 14 25 11 11 23 17 27 14 3 -4 3 2 -1 13 -7 18 -8 18 -17 -3 -6 -12 -14
-22 -19 -22 -5 0 -6 6 -1 13 4 6 8 15 9 20 1 4 2 8 4 10 1 1 4 15 6 32 3 16
11 36 17 44 9 12 9 13 0 7 -8 -4 -13 -2 -13 5 0 6 8 9 18 7 13 -4 18 1 19 16
1 12 -1 15 -4 9 -3 -7 -12 -13 -21 -13 -11 0 -13 3 -5 8 6 4 10 22 8 40 -1 17
2 32 7 32 6 0 8 -6 5 -14 -3 -8 4 -22 16 -33 22 -18 22 -18 5 2 -12 15 -14 25
-7 38 8 13 7 17 -3 15 -16 -4 -20 51 -6 70 7 8 7 12 -1 12 -7 0 -10 4 -7 9 3
5 14 8 24 6 9 -1 11 0 5 2 -7 3 -13 8 -13 13 0 5 6 11 13 14 6 3 1 3 -13 0
l-25 -6 23 24 c24 27 28 38 11 38 -5 0 -7 -4 -4 -10 3 -5 2 -10 -4 -10 -6 0
-9 29 -8 75 2 58 8 81 25 104 13 18 17 28 8 25 -7 -3 -18 -15 -24 -27 -8 -18
-10 -11 -8 33 1 30 -2 61 -7 68 -7 8 -3 18 12 31 21 18 21 20 3 25 -20 7 -21
10 -24 76 -2 25 -7 48 -12 52 -6 4 -7 11 -2 15 4 4 14 0 21 -11 13 -18 14 -18
12 2 0 11 -5 18 -9 16 -4 -3 -8 0 -8 6 0 6 -4 8 -10 5 -9 -6 -14 14 -11 42 1
7 -3 22 -9 34 -9 15 -8 24 2 37 11 13 11 15 -4 10 -17 -7 -20 14 -3 29 4 4 5
2 0 -6 -5 -10 -4 -12 4 -7 15 9 4 27 -12 20 -8 -3 -13 5 -14 18 -2 18 0 20 7
8 7 -11 10 -11 10 -2 0 7 -7 15 -15 18 -8 4 -15 10 -15 15 0 6 8 5 19 -1 25
-13 31 -13 31 0 0 6 -3 9 -7 9 -20 -3 -34 2 -28 11 4 6 -1 7 -12 3 -10 -3 -15
-3 -11 2 4 4 1 23 -7 41 -8 19 -11 34 -8 34 3 0 0 7 -7 15 -13 15 -5 39 11 30
5 -3 6 1 2 10 -4 13 -8 14 -14 4 -4 -8 -11 -10 -15 -6 -4 3 -1 13 6 21 6 9 10
21 7 28 -3 8 -6 6 -6 -5 -1 -10 -6 -15 -11 -12 -6 4 -8 11 -5 16 4 5 2 9 -4 9
-11 0 -36 69 -32 89 1 7 -2 10 -8 6 -6 -3 -11 0 -11 9 0 8 -3 23 -6 33 -6 15
-4 16 7 6 7 -7 18 -13 23 -13 6 0 0 7 -12 16 -12 8 -26 13 -31 10 -5 -4 -7 4
-3 16 3 14 1 19 -6 14 -7 -4 -10 1 -7 13 3 15 -1 18 -13 14 -14 -5 -15 -3 -4
8 10 11 8 16 -10 26 -13 7 -17 12 -10 13 6 0 12 5 12 11 0 5 -4 8 -10 4 -5 -3
-8 7 -7 22 1 15 -2 28 -8 29 -5 0 -19 4 -29 9 -18 8 -18 8 0 23 18 13 17 14
-6 7 -23 -7 -24 -7 -10 10 11 14 11 17 1 11 -10 -7 -12 -3 -7 15 3 13 3 18 0
12 -9 -20 -27 -15 -20 4 4 10 4 14 0 10 -4 -4 -14 3 -23 16 -9 12 -13 23 -11
24 3 2 -5 10 -18 18 -12 9 -20 21 -17 26 4 5 2 9 -3 9 -5 0 -15 14 -22 30 -7
17 -19 30 -27 30 -8 0 -11 5 -8 10 3 6 1 10 -4 10 -6 0 -11 10 -12 23 0 12 -3
16 -6 9 -3 -9 -12 -3 -24 17 -10 17 -24 31 -31 31 -9 0 -8 3 2 10 21 14 33 12
24 -2 -4 -7 -3 -9 1 -5 5 4 10 14 11 22 2 11 -3 11 -21 3 -20 -9 -27 -6 -49
15 -13 14 -22 28 -18 33 4 4 -1 4 -11 1 -10 -4 -16 -3 -12 2 3 5 1 13 -5 16
-6 4 -8 16 -4 28 6 20 5 21 -8 4 -12 -17 -14 -17 -30 3 -10 11 -14 20 -8 20 5
0 13 -8 19 -17 9 -16 10 -16 8 4 0 12 -4 21 -7 21 -3 0 -16 0 -30 2 -23 1 -23
2 -5 9 19 8 18 9 -5 12 -25 5 -26 8 -15 44 4 16 3 15 -6 -2 -13 -24 -35 -32
-26 -10 3 8 1 20 -5 28 -8 11 -9 10 -4 -3 6 -20 -2 -22 -24 -8 -10 6 -11 10
-2 10 6 0 12 4 12 9 0 5 -9 7 -20 4 -12 -3 -22 1 -26 11 -3 9 -12 16 -20 16
-8 0 -14 6 -14 14 0 7 -13 19 -30 26 -16 7 -30 17 -30 22 0 5 -4 7 -8 4 -4 -2
-14 5 -22 17 -11 18 -7 17 26 -8 21 -16 33 -22 27 -14 -7 9 -9 20 -5 24 4 5 2
5 -4 2 -6 -4 -20 0 -30 7 -13 10 -23 11 -31 4 -10 -8 -13 -6 -13 5 0 8 6 17
13 20 6 3 2 4 -10 4 -12 -1 -19 -6 -16 -12 3 -5 0 -5 -7 2 -13 12 -4 37 11 28
5 -4 9 -1 9 4 0 14 -13 14 -27 0 -8 -8 -19 -8 -42 2 -24 11 -29 18 -25 35 3
12 1 25 -4 28 -6 4 -8 -2 -5 -14 3 -12 0 -20 -6 -20 -7 0 -9 4 -6 10 3 6 -1 7
-9 4 -9 -3 -16 -1 -16 5 0 6 5 11 11 11 5 0 7 5 4 11 -5 6 -11 4 -19 -6 -11
-15 -13 -15 -32 2 -11 10 -14 14 -7 9 8 -5 13 -4 13 2 0 14 -28 23 -35 11 -4
-5 -11 -7 -16 -3 -6 4 -6 11 2 20 6 8 9 17 5 21 -3 3 -6 2 -6 -4 0 -16 -28
-24 -36 -11 -5 7 -2 8 6 3 9 -6 11 -4 5 4 -5 9 -11 9 -17 3 -7 -7 -15 -6 -24
3 -18 18 -18 31 0 16 11 -9 16 -9 22 0 4 7 3 9 -4 5 -6 -3 -18 4 -27 16 -14
20 -16 20 -13 4 5 -29 -20 -31 -33 -2 -7 14 -17 26 -22 26 -5 0 -4 -7 3 -15 7
-9 10 -18 6 -22 -3 -3 -6 -1 -6 5 0 7 -7 12 -16 12 -9 0 -12 5 -8 12 5 8 2 9
-9 5 -9 -3 -29 0 -44 8 -15 8 -34 15 -40 15 -7 0 -13 5 -13 10 0 7 6 7 20 0
11 -6 20 -8 20 -4 0 4 9 -1 20 -11 18 -17 20 -17 14 -2 -3 9 -10 17 -15 17
-17 0 -24 2 -41 11 -11 6 -19 5 -23 -1 -5 -8 -11 -8 -19 -1 -7 6 -17 7 -21 3
-5 -4 -5 1 -2 11 6 15 3 16 -13 7 -25 -13 -39 -13 -20 1 12 9 11 10 -8 6 -12
-3 -29 1 -36 9 -17 17 -30 19 -20 2 4 -7 3 -8 -5 -4 -6 4 -8 13 -4 19 5 9 3 9
-8 0 -11 -9 -18 -8 -31 1 -10 7 -15 16 -11 20 10 10 12 35 3 41 -4 2 -7 -5 -6
-17 1 -27 -31 -49 -44 -28 -5 8 -7 17 -4 21 2 4 0 10 -5 14 -6 3 -8 -3 -6 -14
3 -17 0 -19 -18 -12 -12 5 -28 6 -34 4 -7 -3 -13 0 -13 5 0 6 6 12 13 15 6 2
9 8 4 12 -4 5 -13 0 -21 -10 -8 -11 -18 -15 -26 -10 -7 5 -27 9 -44 9 -17 1
-36 5 -43 9 -6 4 -18 4 -27 1 -9 -3 -16 -1 -16 6 0 6 4 9 8 6 5 -3 9 1 9 9 0
8 -5 13 -11 12 -6 -1 -10 4 -8 11 1 8 -2 11 -8 7 -8 -5 -8 -11 -1 -19 11 -13
5 -26 -11 -26 -5 0 -6 6 -2 13 6 9 5 9 -7 0 -18 -15 -41 -12 -65 7 -12 10 -15
11 -10 2 10 -17 -35 -12 -57 6 -10 9 -17 10 -22 2 -3 -5 -11 -10 -16 -10 -6 0
-7 6 -3 13 6 9 4 9 -7 1 -19 -14 -69 -16 -69 -3 0 8 -4 8 -12 2 -23 -19 -49
-12 -43 11 3 12 2 15 -1 8 -5 -10 -11 -9 -27 5 -20 18 -20 18 -4 -7z m-763
-156 c0 -8 -5 -12 -10 -9 -6 4 -8 11 -5 16 9 14 15 11 15 -7z m2807 -1049 c0
-8 -4 -15 -9 -15 -10 0 -11 14 -1 23 9 10 10 9 10 -8z m283 -899 c0 -3 -4 -8
-10 -11 -5 -3 -10 -1 -10 4 0 6 5 11 10 11 6 0 10 -2 10 -4z m-4580 -536 c0
-5 -2 -10 -4 -10 -3 0 -8 5 -11 10 -3 6 -1 10 4 10 6 0 11 -4 11 -10z m60
-280 c0 -5 -2 -10 -4 -10 -3 0 -8 5 -11 10 -3 6 -1 10 4 10 6 0 11 -4 11 -10z
m198 -515 c-3 -3 -9 2 -12 12 -6 14 -5 15 5 6 7 -7 10 -15 7 -18z m4042 -5 c0
-5 -5 -10 -11 -10 -5 0 -7 5 -4 10 3 6 8 10 11 10 2 0 4 -4 4 -10z m-3758
-430 c-6 -15 -22 -30 -33 -30 -4 0 -6 11 -6 24 0 18 5 23 22 22 15 -1 21 -6
17 -16z m52 -29 c-2 -2 -10 2 -19 9 -18 15 -21 0 -3 -18 9 -9 6 -11 -10 -7
-13 2 -22 -1 -22 -8 0 -8 -3 -8 -9 1 -7 11 -9 10 -14 -3 -4 -9 -3 -13 2 -10 5
3 12 1 15 -4 3 -5 -1 -11 -8 -14 -10 -4 -13 -15 -10 -31 2 -15 0 -26 -6 -26
-13 0 -9 100 5 101 5 1 13 1 18 0 4 -1 12 10 18 23 10 22 12 23 28 7 10 -9 16
-18 15 -20z m18 -25 c6 4 8 2 4 -4 -3 -6 -2 -13 4 -17 6 -4 8 -11 5 -16 -4 -5
-2 -9 4 -9 5 0 11 3 14 8 2 4 2 1 0 -7 -2 -8 2 -11 11 -8 8 3 22 -4 33 -15 11
-14 13 -18 3 -13 -23 14 -38 14 -50 0 -8 -9 -4 -12 14 -10 14 2 30 -3 36 -11
10 -11 7 -12 -12 -8 -12 3 -31 6 -40 6 -10 -1 -18 4 -18 10 0 7 -4 7 -12 1
-15 -11 -48 -13 -48 -3 0 15 14 19 28 7 13 -10 14 -9 7 2 -5 9 -4 12 3 7 6 -3
14 -1 18 5 5 8 3 9 -6 4 -9 -6 -11 -4 -5 5 5 8 4 11 -3 6 -7 -4 -10 1 -7 14 3
13 0 18 -7 14 -6 -4 -8 -3 -4 4 7 12 -12 11 -33 -2 -11 -7 -11 -10 0 -17 8 -5
10 -9 4 -9 -5 0 -16 4 -23 9 -11 7 -10 9 3 15 9 3 13 10 10 16 -4 6 5 10 19
10 14 0 26 6 27 13 0 9 2 9 6 -1 2 -6 10 -9 15 -6z m-25 -63 c0 -6 -4 -10 -8
-7 -4 2 -10 0 -14 -6 -4 -6 -11 -7 -17 -4 -7 5 -9 2 -6 -7 4 -10 -2 -15 -20
-17 -24 -2 -25 -1 -7 11 10 8 15 19 11 25 -5 8 1 11 16 9 18 -1 22 2 20 17 -3
15 -1 16 11 5 7 -7 14 -19 14 -26z m3260 -59 c0 -7 -4 -11 -8 -9 -4 3 -14 2
-23 -1 -12 -4 -13 -11 -6 -24 13 -25 2 -54 -15 -40 -9 7 -16 6 -24 -4 -9 -11
-8 -15 5 -20 9 -4 14 -9 11 -13 -4 -3 -13 0 -21 6 -15 13 -46 3 -49 -15 -1 -5
-5 -8 -9 -6 -5 1 -8 -2 -8 -8 0 -5 6 -10 13 -11 9 0 9 -2 -1 -6 -6 -2 -9 -10
-5 -16 3 -7 4 -10 0 -7 -3 3 -6 10 -7 15 -1 6 -6 16 -12 23 -8 8 -7 12 3 12
11 0 11 3 -1 11 -13 9 -12 10 2 5 10 -3 20 -1 23 4 4 6 1 10 -6 10 -6 0 3 13
22 29 18 16 37 27 41 25 4 -3 8 2 8 10 0 9 5 16 11 16 5 0 7 4 4 10 -3 6 1 7
9 4 9 -3 16 -2 16 3 0 5 6 10 13 10 8 0 14 -6 14 -13z m-3159 -16 c-2 -5 -8
-9 -13 -9 -5 0 -11 4 -13 9 -1 5 4 9 13 9 9 0 14 -4 13 -9z m-1 -45 c-2 -13
-1 -26 4 -29 14 -8 -2 -33 -17 -27 -20 8 -17 26 4 19 16 -6 16 -5 0 8 -19 14
-25 32 -8 21 6 -3 10 -1 10 4 0 6 -4 11 -10 11 -5 0 -10 4 -10 8 0 5 7 9 16 9
11 0 14 -7 11 -24z m279 -139 c-4 -10 -2 -14 6 -11 7 2 12 10 10 16 -1 7 2 10
7 7 6 -4 4 -17 -4 -33 -12 -22 -11 -29 2 -49 8 -13 19 -24 25 -24 5 0 4 -8 -1
-19 -6 -10 -8 -21 -5 -24 3 -3 0 -15 -6 -27 -8 -16 -15 -19 -22 -12 -8 8 -6
19 6 37 15 22 15 28 2 46 -9 13 -16 16 -21 10 -3 -6 -1 -11 5 -11 6 0 8 -5 4
-12 -4 -7 -3 -8 4 -4 18 11 14 -10 -5 -25 -14 -12 -16 -12 -11 2 3 9 2 22 -2
29 -5 8 -6 19 -2 24 9 15 12 57 3 52 -4 -3 -7 6 -7 20 0 13 4 24 9 24 5 0 6
-7 3 -16z m47 -21 c-7 -3 -13 -9 -13 -14 0 -6 4 -8 9 -4 6 3 8 -4 6 -16 -6
-30 -9 -31 -22 -10 -9 14 -8 23 4 40 8 12 18 19 22 15 3 -4 0 -9 -6 -11z
m2427 -74 c0 -5 -4 -9 -10 -9 -5 0 -10 5 -10 11 0 5 -5 7 -12 3 -7 -4 -8 -3
-4 4 7 12 36 5 36 -9z m-29 -14 c12 -3 24 -7 28 -11 3 -4 -2 -4 -12 -1 -10 4
-16 3 -13 -2 3 -5 -1 -14 -8 -20 -11 -9 -16 -9 -21 -1 -5 8 -20 0 -44 -23 -31
-30 -38 -33 -49 -21 -8 9 -9 14 -2 14 6 0 8 4 5 10 -3 6 1 7 9 4 9 -3 16 -1
16 5 0 6 -4 11 -10 11 -5 0 -10 4 -10 8 0 5 7 9 15 9 8 0 11 -5 8 -10 -3 -5 0
-8 8 -5 8 3 15 10 15 16 3 23 4 24 21 11 15 -12 16 -12 10 4 -4 11 -3 16 3 12
5 -3 20 -8 31 -10z m29 -40 c0 -8 -2 -15 -4 -15 -2 0 -6 7 -10 15 -3 8 -1 15
4 15 6 0 10 -7 10 -15z m-2165 -14 c-3 -6 -11 -11 -16 -11 -5 0 -4 6 3 14 14
16 24 13 13 -3z m300 -111 c3 -5 1 -10 -4 -10 -6 0 -11 5 -11 10 0 6 2 10 4
10 3 0 8 -4 11 -10z m1145 -69 c0 -5 -8 -11 -17 -15 -10 -3 -24 -9 -30 -12 -8
-3 -13 1 -13 11 0 10 5 15 13 12 8 -3 20 -1 28 4 18 11 19 11 19 0z m-74 -13
c4 -7 4 -10 -1 -6 -4 4 -14 3 -22 -4 -11 -8 -12 -7 -7 6 7 19 20 21 30 4z
m-46 -4 c0 -8 -19 -13 -24 -6 -3 5 1 9 9 9 8 0 15 -2 15 -3z"/>
<path d="M803 1005 c0 -8 4 -12 9 -9 5 3 6 10 3 15 -9 13 -12 11 -12 -6z"/>
<path d="M889 938 c7 -10 10 -18 6 -18 -5 0 -1 -8 8 -18 10 -10 15 -22 12 -25
-3 -4 1 -2 8 4 9 8 8 12 -6 20 -9 6 -15 14 -12 18 2 5 -3 15 -13 22 -15 13
-16 12 -3 -3z"/>
<path d="M4077 796 c-4 -9 -11 -15 -15 -12 -5 3 -19 -6 -30 -19 -26 -29 -15
-33 19 -6 13 10 27 19 32 20 8 1 10 7 5 23 -3 7 -7 5 -11 -6z"/>
<path d="M3643 512 c4 -5 -7 -22 -24 -36 -17 -14 -27 -26 -22 -26 5 0 22 13
37 29 20 21 24 31 15 36 -7 5 -10 4 -6 -3z"/>
<path d="M3675 511 c-3 -5 -1 -12 5 -16 5 -3 10 1 10 9 0 18 -6 21 -15 7z"/>
<path d="M2253 4875 c0 -8 4 -12 9 -9 5 3 6 10 3 15 -9 13 -12 11 -12 -6z"/>
<path d="M2281 4874 c0 -11 3 -14 6 -6 3 7 2 16 -1 19 -3 4 -6 -2 -5 -13z"/>
<path d="M2593 4873 c0 -9 4 -10 14 -2 7 6 13 12 13 14 0 1 -6 2 -13 2 -8 0
-14 -6 -14 -14z"/>
<path d="M2650 4880 c-9 -6 -10 -10 -3 -10 6 0 15 5 18 10 8 12 4 12 -15 0z"/>
<path d="M2676 4873 c-6 -14 -5 -15 5 -6 7 7 10 15 7 18 -3 3 -9 -2 -12 -12z"/>
<path d="M2750 4885 c0 -5 5 -17 10 -25 5 -8 10 -10 10 -5 0 6 -5 17 -10 25
-5 8 -10 11 -10 5z"/>
<path d="M2800 4882 c0 -4 10 -13 23 -21 22 -14 22 -14 3 8 -20 22 -26 25 -26
13z"/>
<path d="M2930 4881 c0 -6 4 -13 10 -16 6 -3 7 1 4 9 -7 18 -14 21 -14 7z"/>
<path d="M2159 4878 c-5 -18 -6 -38 -1 -34 7 8 12 36 6 36 -2 0 -4 -1 -5 -2z"/>
<path d="M2213 4865 c0 -8 4 -12 9 -9 5 3 6 10 3 15 -9 13 -12 11 -12 -6z"/>
<path d="M2095 4860 c-3 -5 -3 -10 2 -10 4 0 1 -5 -7 -11 -12 -8 -12 -10 -1
-7 8 2 15 12 17 21 3 19 -2 22 -11 7z"/>
<path d="M2304 4854 c-18 -14 -18 -14 6 -3 31 14 36 19 24 19 -6 0 -19 -7 -30
-16z"/>
<path d="M2350 4866 c0 -2 9 -6 20 -9 11 -3 18 -1 14 4 -5 9 -34 13 -34 5z"/>
<path d="M2860 4860 c-8 -5 -12 -12 -9 -15 4 -3 12 1 19 10 14 17 11 19 -10 5z"/>
<path d="M2954 4849 c-3 -6 -2 -15 3 -20 5 -5 9 -1 9 11 0 23 -2 24 -12 9z"/>
<path d="M2980 4838 c0 -4 7 -8 15 -8 8 0 15 4 15 8 0 5 -7 9 -15 9 -8 0 -15
-4 -15 -9z"/>
<path d="M3032 4831 c-11 -7 -10 -9 3 -14 9 -4 14 -3 10 2 -3 5 1 12 7 14 7 3
9 6 3 6 -5 0 -16 -3 -23 -8z"/>
<path d="M1773 4775 c0 -8 4 -12 9 -9 5 3 6 10 3 15 -9 13 -12 11 -12 -6z"/>
<path d="M3220 4780 c-9 -6 -10 -10 -3 -10 6 0 15 5 18 10 8 12 4 12 -15 0z"/>
<path d="M3257 4779 c7 -7 15 -10 18 -7 3 3 -2 9 -12 12 -14 6 -15 5 -6 -5z"/>
<path d="M1833 4773 c4 -3 2 -11 -3 -18 -7 -8 -6 -12 3 -12 7 0 14 9 14 19 1
10 -3 18 -9 18 -6 0 -8 -3 -5 -7z"/>
<path d="M3286 4761 c-4 -5 -2 -12 3 -15 5 -4 12 -2 15 3 4 5 2 12 -3 15 -5 4
-12 2 -15 -3z"/>
<path d="M3360 4760 c-12 -7 -10 -9 7 -7 12 0 19 5 17 9 -6 10 -6 10 -24 -2z"/>
<path d="M3466 4742 c-3 -5 1 -9 9 -9 8 0 12 4 9 9 -3 4 -7 8 -9 8 -2 0 -6 -4
-9 -8z"/>
<path d="M1586 4698 c3 -5 10 -6 15 -3 13 9 11 12 -6 12 -8 0 -12 -4 -9 -9z"/>
<path d="M1670 4700 c0 -5 5 -10 10 -10 6 0 10 5 10 10 0 6 -4 10 -10 10 -5 0
-10 -4 -10 -10z"/>
<path d="M3500 4686 c7 -7 13 -7 20 0 6 6 3 10 -10 10 -13 0 -16 -4 -10 -10z"/>
<path d="M1632 4679 c2 -6 8 -10 13 -10 5 0 11 4 13 10 2 6 -4 11 -13 11 -9 0
-15 -5 -13 -11z"/>
<path d="M1574 4672 c3 -5 0 -13 -6 -15 -9 -4 -10 -6 -1 -6 17 -1 25 16 12 25
-7 4 -9 3 -5 -4z"/>
<path d="M1504 4638 c-3 -4 5 -5 17 -3 30 6 36 14 9 12 -12 -1 -24 -5 -26 -9z"/>
<path d="M1420 4620 c-9 -6 -10 -10 -3 -10 6 0 15 5 18 10 8 12 4 12 -15 0z"/>
<path d="M1470 4611 c0 -6 4 -13 10 -16 6 -3 7 1 4 9 -7 18 -14 21 -14 7z"/>
<path d="M1445 4589 c-4 -6 -5 -12 -2 -15 2 -3 7 2 10 11 7 17 1 20 -8 4z"/>
<path d="M1355 4540 c-16 -7 -17 -9 -3 -9 9 -1 20 4 23 9 7 11 7 11 -20 0z"/>
<path d="M3810 4540 c0 -5 5 -10 11 -10 5 0 7 5 4 10 -3 6 -8 10 -11 10 -2 0
-4 -4 -4 -10z"/>
<path d="M1273 4525 c0 -8 4 -15 9 -15 4 0 8 4 8 9 0 6 -4 12 -8 15 -5 3 -9
-1 -9 -9z"/>
<path d="M1316 4527 c3 -10 9 -15 12 -12 3 3 0 11 -7 18 -10 9 -11 8 -5 -6z"/>
<path d="M3814 4509 c1 -7 13 -13 27 -15 13 -1 18 0 11 2 -6 3 -9 11 -5 17 4
8 1 7 -9 -1 -11 -9 -18 -9 -21 -2 -3 6 -5 6 -3 -1z"/>
<path d="M1290 4488 c-10 -21 -10 -21 3 -6 8 10 18 14 22 10 5 -4 5 -1 1 6
-10 17 -14 15 -26 -10z"/>
<path d="M1256 4476 c6 -15 4 -17 -6 -11 -9 6 -11 4 -5 -4 5 -9 10 -10 18 -2
8 8 7 14 -2 24 -10 10 -11 8 -5 -7z"/>
<path d="M3947 4479 c7 -7 15 -10 18 -7 3 3 -2 9 -12 12 -14 6 -15 5 -6 -5z"/>
<path d="M3934 4442 c4 -3 14 -7 22 -8 9 -1 13 0 10 4 -4 3 -14 7 -22 8 -9 1
-13 0 -10 -4z"/>
<path d="M1146 4422 c-3 -4 4 -9 15 -9 23 -2 25 3 4 10 -8 4 -16 3 -19 -1z"/>
<path d="M1079 4393 c-13 -16 -12 -17 4 -4 9 7 17 15 17 17 0 8 -8 3 -21 -13z"/>
<path d="M1114 4389 c-3 -6 -2 -15 4 -21 6 -6 12 -6 17 3 6 8 4 10 -5 4 -10
-6 -12 -4 -7 8 7 19 2 23 -9 6z"/>
<path d="M3998 4373 c7 -3 16 -2 19 1 4 3 -2 6 -13 5 -11 0 -14 -3 -6 -6z"/>
<path d="M1077 4356 c-5 -11 -3 -15 5 -10 8 5 9 2 5 -9 -9 -24 0 -21 14 4 6
13 7 19 1 15 -6 -3 -12 -1 -14 6 -3 7 -7 5 -11 -6z"/>
<path d="M4037 4356 c-15 -12 -15 -14 -2 -19 8 -4 14 -1 12 6 -1 7 4 11 11 9
8 -1 11 2 7 8 -8 12 -6 12 -28 -4z"/>
<path d="M4056 4325 c-3 -8 -1 -15 4 -15 6 0 10 7 10 15 0 8 -2 15 -4 15 -2 0
-6 -7 -10 -15z"/>
<path d="M1045 4308 l-20 -21 23 12 c12 6 22 16 22 21 0 13 -2 12 -25 -12z"/>
<path d="M973 4289 c-2 -23 3 -25 10 -4 4 8 3 16 -1 19 -4 3 -9 -4 -9 -15z"/>
<path d="M933 4249 c-2 -23 3 -25 10 -4 4 8 3 16 -1 19 -4 3 -9 -4 -9 -15z"/>
<path d="M990 4259 c0 -5 5 -7 10 -4 6 3 10 8 10 11 0 2 -4 4 -10 4 -5 0 -10
-5 -10 -11z"/>
<path d="M4240 4159 c0 -4 6 -9 13 -12 8 -3 14 0 14 7 0 7 -6 13 -14 13 -7 0
-13 -4 -13 -8z"/>
<path d="M815 4141 c-3 -5 -2 -12 3 -15 5 -3 9 1 9 9 0 17 -3 19 -12 6z"/>
<path d="M4270 4121 c0 -6 4 -13 10 -16 6 -3 7 1 4 9 -7 18 -14 21 -14 7z"/>
<path d="M825 4090 c-9 -16 -13 -30 -11 -30 3 0 12 14 21 30 9 17 13 30 11 30
-3 0 -12 -13 -21 -30z"/>
<path d="M4308 4093 c7 -3 16 -2 19 1 4 3 -2 6 -13 5 -11 0 -14 -3 -6 -6z"/>
<path d="M786 4078 c3 -5 10 -6 15 -3 13 9 11 12 -6 12 -8 0 -12 -4 -9 -9z"/>
<path d="M4375 4060 c-3 -5 -1 -10 4 -10 6 0 11 5 11 10 0 6 -2 10 -4 10 -3 0
-8 -4 -11 -10z"/>
<path d="M4350 4035 c0 -8 4 -15 10 -15 5 0 7 7 4 15 -4 8 -8 15 -10 15 -2 0
-4 -7 -4 -15z"/>
<path d="M720 3990 c-6 -11 -8 -20 -6 -20 3 0 10 9 16 20 6 11 8 20 6 20 -3 0
-10 -9 -16 -20z"/>
<path d="M4388 3983 c7 -3 16 -2 19 1 4 3 -2 6 -13 5 -11 0 -14 -3 -6 -6z"/>
<path d="M4417 3977 c-3 -8 -2 -20 3 -26 5 -9 8 -4 8 13 0 29 -3 32 -11 13z"/>
<path d="M4436 3915 c4 -8 8 -15 10 -15 2 0 4 7 4 15 0 8 -4 15 -10 15 -5 0
-7 -7 -4 -15z"/>
<path d="M616 3907 c3 -10 9 -15 12 -12 3 3 0 11 -7 18 -10 9 -11 8 -5 -6z"/>
<path d="M670 3889 c0 -5 -5 -7 -10 -4 -6 4 -9 1 -8 -7 2 -7 -3 -12 -10 -10
-8 1 -11 -2 -7 -9 5 -7 15 -3 31 12 27 25 29 29 14 29 -5 0 -10 -5 -10 -11z"/>
<path d="M4454 3879 c-8 -14 14 -19 25 -6 8 10 7 14 -5 14 -8 0 -17 -4 -20 -8z"/>
<path d="M4485 3860 c-3 -6 1 -7 9 -4 18 7 21 14 7 14 -6 0 -13 -4 -16 -10z"/>
<path d="M616 3835 c4 -8 8 -15 10 -15 2 0 4 7 4 15 0 8 -4 15 -10 15 -5 0 -7
-7 -4 -15z"/>
<path d="M4490 3840 c-9 -6 -10 -10 -3 -10 6 0 15 5 18 10 8 12 4 12 -15 0z"/>
<path d="M4530 3816 c0 -2 8 -10 18 -17 15 -13 16 -12 3 4 -13 16 -21 21 -21
13z"/>
<path d="M596 3778 c3 -5 10 -6 15 -3 13 9 11 12 -6 12 -8 0 -12 -4 -9 -9z"/>
<path d="M4573 3771 c0 -11 5 -18 9 -15 4 3 5 11 1 19 -7 21 -12 19 -10 -4z"/>
<path d="M540 3766 c0 -2 7 -9 15 -16 9 -7 15 -8 15 -2 0 5 -7 12 -15 16 -8 3
-15 4 -15 2z"/>
<path d="M526 3718 c3 -5 10 -6 15 -3 13 9 11 12 -6 12 -8 0 -12 -4 -9 -9z"/>
<path d="M537 3685 c3 -8 9 -12 14 -9 12 7 11 11 -5 17 -10 4 -13 1 -9 -8z"/>
<path d="M511 3647 c-13 -21 -12 -21 5 -5 10 10 16 20 13 22 -3 3 -11 -5 -18
-17z"/>
<path d="M4616 3658 c3 -5 10 -6 15 -3 13 9 11 12 -6 12 -8 0 -12 -4 -9 -9z"/>
<path d="M4628 3623 c7 -3 16 -2 19 1 4 3 -2 6 -13 5 -11 0 -14 -3 -6 -6z"/>
<path d="M478 3583 c7 -3 16 -2 19 1 4 3 -2 6 -13 5 -11 0 -14 -3 -6 -6z"/>
<path d="M436 3555 c-9 -26 -7 -32 5 -12 6 10 9 21 6 23 -2 3 -7 -2 -11 -11z"/>
<path d="M4674 3555 c3 -23 12 -26 13 -5 1 11 -2 20 -7 20 -4 0 -7 -7 -6 -15z"/>
<path d="M366 3458 c3 -5 10 -6 15 -3 13 9 11 12 -6 12 -8 0 -12 -4 -9 -9z"/>
<path d="M4696 3452 c-2 -4 -1 -14 4 -22 7 -11 9 -9 7 8 -1 24 -3 26 -11 14z"/>
<path d="M4755 3440 c3 -5 8 -10 11 -10 2 0 4 5 4 10 0 6 -5 10 -11 10 -5 0
-7 -4 -4 -10z"/>
<path d="M410 3419 c0 -5 5 -7 10 -4 6 3 10 8 10 11 0 2 -4 4 -10 4 -5 0 -10
-5 -10 -11z"/>
<path d="M4732 3400 c0 -14 2 -19 5 -12 2 6 2 18 0 25 -3 6 -5 1 -5 -13z"/>
<path d="M396 3397 c3 -10 9 -15 12 -12 3 3 0 11 -7 18 -10 9 -11 8 -5 -6z"/>
<path d="M390 3359 c0 -5 5 -7 10 -4 6 3 10 8 10 11 0 2 -4 4 -10 4 -5 0 -10
-5 -10 -11z"/>
<path d="M365 3342 c-13 -9 -15 -52 -3 -52 5 0 8 6 7 13 -3 26 1 38 13 31 7
-4 8 -3 4 4 -8 14 -8 14 -21 4z"/>
<path d="M4770 3278 c0 -4 4 -8 9 -8 6 0 12 4 15 8 3 5 -1 9 -9 9 -8 0 -15 -4
-15 -9z"/>
<path d="M4813 3269 c-2 -23 3 -25 10 -4 4 8 3 16 -1 19 -4 3 -9 -4 -9 -15z"/>
<path d="M4767 3243 c3 -7 6 -13 8 -13 2 0 5 6 8 13 3 8 -1 14 -8 14 -7 0 -11
-6 -8 -14z"/>
<path d="M320 3235 c-7 -8 -17 -12 -23 -8 -6 4 -7 1 -3 -6 6 -9 13 -8 29 6 12
10 24 19 26 20 2 2 0 3 -6 3 -6 0 -16 -7 -23 -15z"/>
<path d="M4835 3220 c3 -5 8 -10 11 -10 2 0 4 5 4 10 0 6 -5 10 -11 10 -5 0
-7 -4 -4 -10z"/>
<path d="M300 3129 c0 -5 -4 -8 -9 -4 -5 3 -12 1 -15 -4 -4 -5 2 -8 11 -7 15
3 33 26 19 26 -3 0 -6 -5 -6 -11z"/>
<path d="M315 3109 c-4 -6 -5 -12 -2 -15 2 -3 7 2 10 11 7 17 1 20 -8 4z"/>
<path d="M285 3080 c-3 -5 -1 -10 4 -10 6 0 11 5 11 10 0 6 -2 10 -4 10 -3 0
-8 -4 -11 -10z"/>
<path d="M4825 3040 c-3 -6 2 -13 12 -17 10 -3 22 -8 27 -11 5 -3 6 0 2 6 -4
7 -15 12 -24 12 -15 0 -15 2 -2 10 9 6 10 10 3 10 -6 0 -15 -5 -18 -10z"/>
<path d="M285 3010 c-16 -7 -17 -9 -3 -9 9 -1 20 4 23 9 7 11 7 11 -20 0z"/>
<path d="M4831 2977 c2 -1 11 -8 21 -15 12 -10 18 -10 24 -1 4 7 3 9 -4 5 -6
-3 -13 -2 -17 4 -3 5 -11 10 -17 10 -6 0 -9 -1 -7 -3z"/>
<path d="M246 2922 c-3 -5 1 -9 9 -9 8 0 15 4 15 9 0 4 -4 8 -9 8 -6 0 -12 -4
-15 -8z"/>
<path d="M4859 2878 c0 -7 -2 -21 -4 -31 -2 -11 -1 -16 3 -13 8 9 14 56 7 56
-3 0 -5 -6 -6 -12z"/>
<path d="M4876 2834 c-8 -20 -8 -24 2 -24 4 0 8 9 9 20 2 24 -3 26 -11 4z"/>
<path d="M235 2810 c-3 -6 1 -7 9 -4 18 7 21 14 7 14 -6 0 -13 -4 -16 -10z"/>
<path d="M4900 2760 c-9 -6 -10 -10 -3 -10 6 0 15 5 18 10 8 12 4 12 -15 0z"/>
<path d="M240 2756 c0 -2 7 -7 16 -10 8 -3 12 -2 9 4 -6 10 -25 14 -25 6z"/>
<path d="M4875 2728 c26 -16 55 -20 55 -9 0 6 -9 8 -20 6 -11 -2 -22 0 -25 6
-4 5 -12 9 -18 9 -7 0 -3 -6 8 -12z"/>
<path d="M229 2677 c6 -8 9 -16 6 -19 -3 -2 2 -5 10 -5 13 0 13 3 -2 19 -19
21 -31 25 -14 5z"/>
<path d="M4884 2674 c-18 -14 -18 -15 4 -4 12 6 22 13 22 15 0 8 -5 6 -26 -11z"/>
<path d="M190 2676 c0 -2 8 -10 18 -17 15 -13 16 -12 3 4 -13 16 -21 21 -21
13z"/>
<path d="M230 2616 c0 -2 7 -9 15 -16 9 -7 15 -8 15 -2 0 5 -7 12 -15 16 -8 3
-15 4 -15 2z"/>
<path d="M4892 2600 c0 -14 2 -19 5 -12 2 6 2 18 0 25 -3 6 -5 1 -5 -13z"/>
<path d="M4875 2561 c-3 -5 -2 -12 3 -15 5 -3 9 1 9 9 0 17 -3 19 -12 6z"/>
<path d="M4874 2506 c0 -13 4 -22 8 -20 9 6 6 44 -3 44 -4 0 -6 -11 -5 -24z"/>
<path d="M4913 2455 c0 -8 4 -12 9 -9 5 3 6 10 3 15 -9 13 -12 11 -12 -6z"/>
<path d="M226 2442 c-3 -5 1 -9 9 -9 8 0 15 4 15 9 0 4 -4 8 -9 8 -6 0 -12 -4
-15 -8z"/>
<path d="M4896 2427 c3 -10 9 -15 12 -12 3 3 0 11 -7 18 -10 9 -11 8 -5 -6z"/>
<path d="M243 2400 c-11 -16 -10 -18 2 -14 8 4 15 12 15 20 0 19 -3 18 -17 -6z"/>
<path d="M237 2339 c7 -7 15 -10 18 -7 3 3 -2 9 -12 12 -14 6 -15 5 -6 -5z"/>
<path d="M4885 2320 c3 -5 8 -10 11 -10 2 0 4 5 4 10 0 6 -5 10 -11 10 -5 0
-7 -4 -4 -10z"/>
<path d="M274 2202 c3 -5 0 -13 -6 -15 -9 -4 -10 -6 -1 -6 17 -1 25 16 12 25
-7 4 -9 3 -5 -4z"/>
<path d="M4895 2180 c3 -5 8 -10 11 -10 2 0 4 5 4 10 0 6 -5 10 -11 10 -5 0
-7 -4 -4 -10z"/>
<path d="M303 2065 c0 -14 3 -27 7 -30 4 -2 6 7 4 21 -3 35 -11 41 -11 9z"/>
<path d="M255 2060 c3 -5 8 -10 11 -10 2 0 4 5 4 10 0 6 -5 10 -11 10 -5 0 -7
-4 -4 -10z"/>
<path d="M300 2010 c6 -11 15 -20 20 -20 6 0 2 9 -7 20 -10 11 -19 20 -21 20
-1 0 2 -9 8 -20z"/>
<path d="M4817 2009 c4 -13 8 -18 11 -10 2 7 -1 18 -6 23 -8 8 -9 4 -5 -13z"/>
<path d="M4853 2005 c0 -8 4 -12 9 -9 5 3 6 10 3 15 -9 13 -12 11 -12 -6z"/>
<path d="M293 1975 c0 -8 4 -12 9 -9 5 3 6 10 3 15 -9 13 -12 11 -12 -6z"/>
<path d="M4810 1958 c0 -4 4 -8 9 -8 6 0 12 4 15 8 3 5 -1 9 -9 9 -8 0 -15 -4
-15 -9z"/>
<path d="M4794 1930 c0 -13 4 -16 10 -10 7 7 7 13 0 20 -6 6 -10 3 -10 -10z"/>
<path d="M317 1920 c3 -11 9 -22 13 -25 5 -3 6 4 3 15 -3 11 -9 22 -13 25 -5
3 -6 -4 -3 -15z"/>
<path d="M330 1860 c0 -5 5 -10 11 -10 5 0 7 5 4 10 -3 6 -8 10 -11 10 -2 0
-4 -4 -4 -10z"/>
<path d="M355 1840 c-3 -5 -1 -10 4 -10 6 0 11 5 11 10 0 6 -2 10 -4 10 -3 0
-8 -4 -11 -10z"/>
<path d="M4766 1838 c3 -5 9 -7 12 -4 3 3 12 0 21 -6 13 -10 14 -10 4 2 -15
16 -46 23 -37 8z"/>
<path d="M316 1822 c-3 -5 1 -9 9 -9 8 0 12 4 9 9 -3 4 -7 8 -9 8 -2 0 -6 -4
-9 -8z"/>
<path d="M371 1804 c0 -11 3 -14 6 -6 3 7 2 16 -1 19 -3 4 -6 -2 -5 -13z"/>
<path d="M4776 1793 c-6 -14 -5 -15 5 -6 7 7 10 15 7 18 -3 3 -9 -2 -12 -12z"/>
<path d="M4816 1793 c-6 -14 -5 -15 5 -6 7 7 10 15 7 18 -3 3 -9 -2 -12 -12z"/>
<path d="M4750 1781 c0 -6 4 -13 10 -16 6 -3 7 1 4 9 -7 18 -14 21 -14 7z"/>
<path d="M366 1742 c-3 -5 1 -9 9 -9 8 0 12 4 9 9 -3 4 -7 8 -9 8 -2 0 -6 -4
-9 -8z"/>
<path d="M4714 1718 c-4 -6 -3 -8 4 -4 5 3 13 0 15 -6 4 -10 6 -10 6 -1 1 7 8
10 19 6 9 -3 14 -3 11 1 -11 12 -48 15 -55 4z"/>
<path d="M4706 1658 c3 -5 10 -6 15 -3 13 9 11 12 -6 12 -8 0 -12 -4 -9 -9z"/>
<path d="M390 1656 c0 -2 8 -10 18 -17 15 -13 16 -12 3 4 -13 16 -21 21 -21
13z"/>
<path d="M444 1603 c2 -10 6 -17 10 -16 15 3 16 11 2 22 -12 10 -14 9 -12 -6z"/>
<path d="M4676 1598 c3 -4 0 -8 -7 -8 -7 0 -9 -3 -6 -6 4 -4 12 -2 19 3 7 6
21 9 30 8 10 -2 20 0 22 4 3 4 -11 7 -29 7 -18 0 -31 -4 -29 -8z"/>
<path d="M455 1560 c3 -5 8 -10 11 -10 2 0 4 5 4 10 0 6 -5 10 -11 10 -5 0 -7
-4 -4 -10z"/>
<path d="M4646 1561 c-3 -5 0 -11 7 -14 8 -3 14 1 14 9 0 16 -13 19 -21 5z"/>
<path d="M500 1500 c-9 -6 -10 -10 -3 -10 6 0 15 5 18 10 8 12 4 12 -15 0z"/>
<path d="M4630 1493 c5 -2 8 -9 5 -13 -3 -5 -1 -11 4 -14 5 -4 8 2 7 11 -2 9
-8 18 -15 19 -6 1 -7 0 -1 -3z"/>
<path d="M507 1439 c7 -9 10 -19 6 -22 -3 -4 -1 -7 5 -7 17 0 15 16 -5 31 -16
12 -17 12 -6 -2z"/>
<path d="M530 1379 c0 -5 5 -7 10 -4 6 3 10 8 10 11 0 2 -4 4 -10 4 -5 0 -10
-5 -10 -11z"/>
<path d="M4575 1380 c-3 -6 1 -7 9 -4 18 7 21 14 7 14 -6 0 -13 -4 -16 -10z"/>
<path d="M550 1361 c0 -5 5 -13 10 -16 6 -3 10 -2 10 4 0 5 -4 13 -10 16 -5 3
-10 2 -10 -4z"/>
<path d="M4554 1351 c16 -18 36 -20 36 -5 0 3 -4 2 -10 -1 -5 -3 -10 -2 -10 3
0 6 -8 13 -17 16 -15 6 -15 5 1 -13z"/>
<path d="M600 1320 c-9 -6 -10 -10 -3 -10 6 0 15 5 18 10 8 12 4 12 -15 0z"/>
<path d="M550 1300 c0 -5 7 -7 15 -4 8 4 15 8 15 10 0 2 -7 4 -15 4 -8 0 -15
-4 -15 -10z"/>
<path d="M4504 1303 c3 -4 1 -11 -4 -18 -7 -8 -5 -12 8 -12 17 0 51 26 35 28
-4 0 -16 2 -26 4 -11 2 -16 1 -13 -2z"/>
<path d="M4576 1127 c3 -10 9 -15 12 -12 3 3 0 11 -7 18 -10 9 -11 8 -5 -6z"/>
<path d="M495 1099 c-3 -4 2 -6 10 -5 21 3 28 13 10 13 -9 0 -18 -4 -20 -8z"/>
<path d="M496 1042 c-3 -5 1 -9 9 -9 8 0 12 4 9 9 -3 4 -7 8 -9 8 -2 0 -6 -4
-9 -8z"/>
<path d="M4396 958 c3 -4 9 -8 15 -8 5 0 9 4 9 8 0 5 -7 9 -15 9 -8 0 -12 -4
-9 -9z"/>
<path d="M4440 960 c-9 -6 -10 -10 -3 -10 6 0 15 5 18 10 8 12 4 12 -15 0z"/>
<path d="M4448 926 c-6 -12 -16 -24 -22 -28 -8 -5 -7 -8 2 -8 7 0 15 7 18 15
4 8 10 12 15 9 5 -3 6 3 2 13 -6 15 -4 16 8 6 13 -10 16 -10 16 0 0 21 -27 16
-39 -7z"/>
<path d="M4416 925 c4 -8 8 -15 10 -15 2 0 4 7 4 15 0 8 -4 15 -10 15 -5 0 -7
-7 -4 -15z"/>
<path d="M4475 890 c-4 -6 -11 -8 -16 -5 -5 4 -9 1 -9 -4 0 -16 16 -13 30 4 7
8 10 15 7 15 -3 0 -9 -5 -12 -10z"/>
<path d="M505 879 c-6 -8 -4 -10 5 -4 10 6 12 4 6 -11 -6 -15 -5 -17 5 -6 9 9
10 15 2 23 -8 8 -13 7 -18 -2z"/>
<path d="M495 820 c3 -5 8 -10 11 -10 2 0 4 5 4 10 0 6 -5 10 -11 10 -5 0 -7
-4 -4 -10z"/>
<path d="M4090 703 c-36 -26 -34 -27 13 -4 15 8 27 18 27 23 0 11 0 11 -40
-19z"/>
<path d="M4095 679 c-6 -8 -4 -10 5 -4 10 6 12 4 6 -11 -6 -15 -5 -17 5 -6 9
9 10 15 2 23 -8 8 -13 7 -18 -2z"/>
<path d="M4005 640 c-3 -6 1 -7 9 -4 18 7 21 14 7 14 -6 0 -13 -4 -16 -10z"/>
<path d="M4045 641 c3 -3 17 -6 31 -7 13 0 22 2 19 5 -3 3 -17 6 -31 7 -13 0
-22 -2 -19 -5z"/>
<path d="M4115 641 c-3 -5 -2 -12 3 -15 5 -3 9 1 9 9 0 17 -3 19 -12 6z"/>
<path d="M495 619 c-3 -4 2 -6 10 -5 21 3 28 13 10 13 -9 0 -18 -4 -20 -8z"/>
<path d="M965 620 c-3 -5 -1 -10 4 -10 6 0 11 5 11 10 0 6 -2 10 -4 10 -3 0
-8 -4 -11 -10z"/>
<path d="M4016 622 c-2 -4 0 -14 6 -22 8 -12 9 -12 5 2 -3 9 -1 19 6 22 9 3 9
5 0 5 -6 1 -14 -3 -17 -7z"/>
<path d="M800 596 c0 -2 7 -9 15 -16 9 -7 15 -8 15 -2 0 5 -7 12 -15 16 -8 3
-15 4 -15 2z"/>
<path d="M872 591 c-10 -6 -9 -10 7 -14 12 -3 24 0 28 5 3 6 1 8 -5 4 -5 -3
-12 -2 -14 4 -2 5 -9 6 -16 1z"/>
<path d="M950 589 c0 -5 5 -7 10 -4 6 3 10 8 10 11 0 2 -4 4 -10 4 -5 0 -10
-5 -10 -11z"/>
<path d="M4413 565 c0 -14 3 -27 7 -30 4 -3 8 7 8 20 0 14 -4 27 -8 30 -4 3
-7 -7 -7 -20z"/>
<path d="M4470 581 c0 -6 4 -13 10 -16 6 -3 7 1 4 9 -7 18 -14 21 -14 7z"/>
<path d="M844 568 c3 -15 26 -23 26 -8 0 6 -4 9 -9 6 -5 -4 -12 -1 -14 4 -3 6
-4 5 -3 -2z"/>
<path d="M956 567 c-16 -12 -16 -13 2 -13 10 0 19 6 19 13 0 7 -1 13 -2 13 -1
0 -9 -6 -19 -13z"/>
<path d="M4006 571 c-19 -7 -19 -8 0 -13 13 -3 21 0 21 8 0 8 -1 14 -1 13 -1
0 -10 -4 -20 -8z"/>
<path d="M4095 570 c-4 -6 -11 -7 -17 -4 -7 4 -8 2 -4 -5 6 -9 11 -9 22 0 14
11 18 19 10 19 -3 0 -8 -5 -11 -10z"/>
<path d="M496 562 c-3 -5 1 -9 9 -9 8 0 12 4 9 9 -3 4 -7 8 -9 8 -2 0 -6 -4
-9 -8z"/>
<path d="M4050 561 c0 -6 4 -13 10 -16 6 -3 7 1 4 9 -7 18 -14 21 -14 7z"/>
<path d="M4450 565 c0 -5 5 -17 10 -25 5 -8 10 -10 10 -5 0 6 -5 17 -10 25 -5
8 -10 11 -10 5z"/>
<path d="M835 519 c-3 -4 2 -6 10 -5 21 3 28 13 10 13 -9 0 -18 -4 -20 -8z"/>
<path d="M961 516 c-9 -11 -9 -16 1 -22 7 -4 10 -4 6 1 -4 4 -3 14 3 22 6 7 9
13 6 13 -2 0 -10 -6 -16 -14z"/>
<path d="M4030 520 c0 -5 5 -10 11 -10 5 0 7 5 4 10 -3 6 -8 10 -11 10 -2 0
-4 -4 -4 -10z"/>
<path d="M4428 513 c6 -2 10 -9 7 -14 -4 -5 1 -6 10 -2 13 5 14 7 3 14 -7 5
-17 8 -23 8 -5 0 -4 -3 3 -6z"/>
<path d="M500 506 c0 -2 8 -10 18 -17 15 -13 16 -12 3 4 -13 16 -21 21 -21 13z"/>
<path d="M4106 502 c-3 -5 1 -9 9 -9 8 0 12 4 9 9 -3 4 -7 8 -9 8 -2 0 -6 -4
-9 -8z"/>
<path d="M4405 485 c0 -13 3 -21 8 -18 4 2 7 10 7 18 0 8 -3 16 -7 18 -5 3 -8
-5 -8 -18z"/>
<path d="M4475 499 c-3 -4 2 -6 10 -5 21 3 28 13 10 13 -9 0 -18 -4 -20 -8z"/>
<path d="M3990 491 c0 -6 4 -13 10 -16 6 -3 7 1 4 9 -7 18 -14 21 -14 7z"/>
<path d="M4453 475 c0 -7 6 -11 14 -8 7 3 13 6 13 8 0 2 -6 5 -13 8 -8 3 -14
-1 -14 -8z"/>
<path d="M3999 458 c-5 -19 -8 -50 -4 -46 7 7 15 48 9 48 -2 0 -4 -1 -5 -2z"/>
<path d="M4020 446 c0 -2 8 -10 18 -17 15 -13 16 -12 3 4 -13 16 -21 21 -21
13z"/>
<path d="M965 420 c-3 -6 1 -7 9 -4 18 7 21 14 7 14 -6 0 -13 -4 -16 -10z"/>
<path d="M3675 419 c-4 -6 -4 -13 -1 -16 3 -4 6 -1 6 5 0 7 5 12 11 12 5 0 7
-5 3 -12 -4 -7 -3 -8 5 -4 12 8 6 26 -9 26 -5 0 -12 -5 -15 -11z"/>
<path d="M4013 399 c-2 -23 3 -25 10 -4 4 8 3 16 -1 19 -4 3 -9 -4 -9 -15z"/>
<path d="M4595 400 c-3 -5 -1 -10 4 -10 6 0 11 5 11 10 0 6 -2 10 -4 10 -3 0
-8 -4 -11 -10z"/>
<path d="M495 380 c-3 -5 -1 -10 4 -10 6 0 11 5 11 10 0 6 -2 10 -4 10 -3 0
-8 -4 -11 -10z"/>
<path d="M3594 381 c4 -5 1 -12 -4 -14 -6 -3 -5 -4 2 -3 15 3 23 26 8 26 -6 0
-9 -4 -6 -9z"/>
<path d="M3660 385 c0 -2 6 -8 13 -14 10 -8 14 -7 14 2 0 8 -6 14 -14 14 -7 0
-13 -1 -13 -2z"/>
<path d="M4111 373 c7 -10 15 -20 16 -22 2 -2 3 3 3 11 0 9 -7 19 -16 22 -15
6 -15 4 -3 -11z"/>
<path d="M3701 364 c0 -11 3 -14 6 -6 3 7 2 16 -1 19 -3 4 -6 -2 -5 -13z"/>
<path d="M804 359 c-3 -6 -2 -15 4 -21 6 -6 12 -6 17 3 6 8 4 10 -5 4 -10 -6
-12 -4 -7 8 7 19 2 23 -9 6z"/>
<path d="M3626 358 c3 -5 10 -6 15 -3 13 9 11 12 -6 12 -8 0 -12 -4 -9 -9z"/>
<path d="M4055 360 c-3 -5 3 -7 12 -5 10 1 25 -2 33 -8 12 -9 13 -9 3 3 -15
16 -41 22 -48 10z"/>
<path d="M3296 333 c-4 -9 -3 -20 1 -24 4 -4 9 3 9 17 2 28 -1 31 -10 7z"/>
<path d="M4016 327 c3 -10 9 -15 12 -12 3 3 0 11 -7 18 -10 9 -11 8 -5 -6z"/>
<path d="M1870 326 c0 -2 7 -7 16 -10 8 -3 12 -2 9 4 -6 10 -25 14 -25 6z"/>
<path d="M3991 314 c0 -11 3 -14 6 -6 3 7 2 16 -1 19 -3 4 -6 -2 -5 -13z"/>
<path d="M4096 322 c-3 -5 1 -9 9 -9 8 0 12 4 9 9 -3 4 -7 8 -9 8 -2 0 -6 -4
-9 -8z"/>
<path d="M3593 295 c0 -8 4 -12 9 -9 5 3 6 10 3 15 -9 13 -12 11 -12 -6z"/>
<path d="M3280 269 c-7 -11 -9 -23 -6 -27 3 -3 6 0 6 7 0 7 4 9 10 6 6 -4 7 1
3 11 -5 13 -3 15 7 9 9 -5 11 -4 6 3 -10 16 -14 15 -26 -9z"/>
<path d="M1410 259 c0 -5 5 -7 10 -4 6 3 10 8 10 11 0 2 -4 4 -10 4 -5 0 -10
-5 -10 -11z"/>
<path d="M1770 260 c0 -5 5 -10 11 -10 5 0 7 5 4 10 -3 6 -8 10 -11 10 -2 0
-4 -4 -4 -10z"/>
<path d="M2248 251 c3 -9 1 -12 -6 -7 -7 4 -12 2 -12 -3 0 -16 15 -13 33 7 15
16 15 18 -2 18 -12 0 -17 -5 -13 -15z"/>
<path d="M3062 256 c10 -7 15 -16 11 -19 -3 -4 -1 -7 5 -7 7 0 12 4 12 8 0 12
-22 32 -34 32 -6 0 -3 -7 6 -14z"/>
<path d="M3676 262 c-3 -5 1 -9 9 -9 8 0 12 4 9 9 -3 4 -7 8 -9 8 -2 0 -6 -4
-9 -8z"/>
<path d="M502 244 c10 -10 20 -16 22 -13 3 3 -5 11 -17 18 -21 13 -21 12 -5
-5z"/>
<path d="M1915 250 c-3 -5 -1 -10 4 -10 6 0 11 5 11 10 0 6 -2 10 -4 10 -3 0
-8 -4 -11 -10z"/>
<path d="M2273 234 c-19 -21 -19 -22 -2 -21 10 1 17 4 17 7 0 3 0 12 1 20 1
13 3 13 10 0 6 -8 7 -18 5 -22 -3 -5 6 -3 20 4 14 6 26 15 26 20 0 17 19 7 25
-13 6 -17 9 -19 17 -8 8 11 11 11 15 1 4 -10 8 -10 19 -1 11 9 18 8 31 -2 14
-12 16 -12 8 0 -6 11 -4 13 8 8 8 -3 20 0 26 7 9 11 6 13 -11 12 -13 0 -26 -5
-30 -11 -5 -7 -8 -6 -8 1 0 14 -60 14 -60 0 0 -6 -5 -4 -10 4 -15 24 -84 20
-107 -6z m61 4 c-3 -4 -9 -8 -15 -8 -5 0 -9 4 -9 8 0 5 7 9 15 9 8 0 12 -4 9
-9z"/>
<path d="M2834 249 c-4 -7 -3 -9 4 -5 5 3 13 0 15 -6 4 -9 6 -10 6 -1 1 17
-16 25 -25 12z"/>
<path d="M3023 240 c-8 -12 -9 -21 -3 -25 6 -4 9 -1 8 7 -2 7 5 12 15 12 14
-2 15 1 6 12 -14 17 -12 18 -26 -6z"/>
<path d="M2120 240 c-9 -6 -10 -10 -3 -10 6 0 15 5 18 10 8 12 4 12 -15 0z"/>
<path d="M2519 245 c-6 -29 -4 -63 3 -58 5 2 6 14 2 25 -7 22 3 20 41 -11 19
-16 20 -15 3 5 -12 14 -14 24 -8 30 7 7 6 11 -4 11 -8 0 -13 -4 -10 -9 3 -4 1
-8 -5 -8 -5 0 -12 6 -14 13 -3 6 -6 8 -8 2z"/>
<path d="M2588 232 c4 -11 1 -13 -9 -7 -8 5 -11 4 -6 0 14 -16 36 -13 34 4 0
10 -6 18 -13 18 -7 0 -10 -7 -6 -15z"/>
<path d="M2625 239 c-4 -6 -5 -12 -2 -15 2 -3 7 2 10 11 7 17 1 20 -8 4z"/>
<path d="M2657 237 c2 -4 15 -5 28 -3 13 3 26 -1 28 -7 2 -7 6 -5 9 4 4 11 -3
15 -32 14 -21 0 -36 -3 -33 -8z"/>
<path d="M2925 240 c3 -5 8 -10 11 -10 2 0 4 5 4 10 0 6 -5 10 -11 10 -5 0 -7
-4 -4 -10z"/>
<path d="M1230 226 c0 -2 7 -7 16 -10 8 -3 12 -2 9 4 -6 10 -25 14 -25 6z"/>
<path d="M2070 226 c0 -2 9 -6 20 -9 11 -3 18 -1 14 4 -5 9 -34 13 -34 5z"/>
<path d="M2210 220 c0 -5 5 -10 11 -10 5 0 7 5 4 10 -3 6 -8 10 -11 10 -2 0
-4 -4 -4 -10z"/>
<path d="M2826 222 c-3 -5 1 -9 9 -9 8 0 12 4 9 9 -3 4 -7 8 -9 8 -2 0 -6 -4
-9 -8z"/>
<path d="M2940 220 c-9 -6 -10 -10 -3 -10 6 0 15 5 18 10 8 12 4 12 -15 0z"/>
<path d="M3135 220 c3 -5 8 -10 11 -10 2 0 4 5 4 10 0 6 -5 10 -11 10 -5 0 -7
-4 -4 -10z"/>
<path d="M3370 219 c0 -5 5 -7 10 -4 6 3 10 8 10 11 0 2 -4 4 -10 4 -5 0 -10
-5 -10 -11z"/>
<path d="M2350 205 c0 -8 4 -15 8 -15 5 0 9 7 9 15 0 8 -4 15 -9 15 -4 0 -8
-7 -8 -15z"/>
<path d="M2119 193 c-13 -16 -12 -17 4 -4 16 13 21 21 13 21 -2 0 -10 -8 -17
-17z"/>
<path d="M2420 200 c-8 -5 -10 -10 -5 -10 6 0 17 5 25 10 8 5 11 10 5 10 -5 0
-17 -5 -25 -10z"/>
<path d="M2675 199 c-3 -4 2 -6 10 -5 21 3 28 13 10 13 -9 0 -18 -4 -20 -8z"/>
<path d="M2719 193 c-13 -16 -12 -17 4 -4 9 7 17 15 17 17 0 8 -8 3 -21 -13z"/>
<path d="M2750 199 c0 -5 5 -7 10 -4 6 3 10 8 10 11 0 2 -4 4 -10 4 -5 0 -10
-5 -10 -11z"/>
<path d="M2476 158 c3 -5 10 -6 15 -3 13 9 11 12 -6 12 -8 0 -12 -4 -9 -9z"/>
<path d="M4266 158 c3 -5 10 -6 15 -3 13 9 11 12 -6 12 -8 0 -12 -4 -9 -9z"/>
<path d="M4455 141 c-3 -5 -2 -12 3 -15 5 -3 9 1 9 9 0 17 -3 19 -12 6z"/>
</g>
</svg>
