<?xml version="1.0" standalone="no"?>
<!DOCTYPE svg PUBLIC "-//W3C//DTD SVG 20010904//EN"
 "http://www.w3.org/TR/2001/REC-SVG-20010904/DTD/svg10.dtd">
<svg version="1.0" xmlns="http://www.w3.org/2000/svg"
 width="16.000000pt" height="16.000000pt" viewBox="0 0 16.000000 16.000000"
 preserveAspectRatio="xMidYMid meet">
<metadata>
Created by potrace 1.11, written by Peter Selinger 2001-2013
</metadata>
<g transform="translate(0.000000,16.000000) scale(0.003125,-0.003125)"
fill="#000000" stroke="none">
<path d="M2270 4966 c-526 -67 -1004 -300 -1373 -669 -340 -340 -572 -788
-653 -1256 -12 -72 -13 -96 -4 -101 9 -6 9 -9 0 -12 -27 -9 -38 -293 -19 -498
18 -201 92 -511 144 -600 19 -33 19 -26 -6 77 -46 198 -83 473 -63 473 22 -1
31 -19 38 -70 10 -87 47 -264 57 -276 5 -6 7 -13 4 -15 -2 -3 2 -27 10 -54 20
-63 13 -69 -9 -8 -41 111 -45 120 -45 93 -1 -39 73 -285 130 -432 28 -73 52
-140 52 -148 1 -8 4 -17 7 -20 3 -3 14 -23 25 -45 31 -61 151 -223 245 -330
102 -117 241 -240 403 -358 185 -135 186 -136 105 -156 -73 -18 -198 -68 -225
-89 -13 -9 -25 -31 -29 -49 -8 -42 25 -73 114 -107 462 -173 1836 -206 2557
-60 308 62 434 142 348 221 -35 33 -97 60 -213 93 -60 17 -95 32 -95 41 0 8
63 61 140 119 542 407 863 938 961 1590 24 159 24 482 0 645 -101 675 -477
1266 -1039 1632 -54 36 -107 66 -118 68 -10 2 -72 24 -136 48 -128 49 -254 89
-260 84 -1 -2 44 -25 102 -52 58 -26 108 -52 111 -57 3 -5 -11 -2 -33 7 -158
68 -357 125 -538 156 -153 26 -450 36 -607 20 -869 -90 -1598 -652 -1903
-1466 -19 -52 -35 -99 -35 -105 0 -12 40 -13 128 -4 l61 7 18 50 c10 27 23 52
30 54 6 3 10 10 7 17 -6 16 81 191 150 303 117 189 314 405 496 543 512 390
1167 515 1800 344 258 -70 534 -214 756 -395 98 -80 288 -281 355 -375 31 -43
90 -127 131 -187 85 -119 168 -276 218 -409 19 -49 35 -87 36 -85 2 2 -9 57
-30 152 l-7 30 15 -33 c8 -18 29 -81 45 -140 127 -451 93 -949 -95 -1388 -200
-469 -568 -856 -1029 -1079 -203 -99 -378 -154 -610 -191 -136 -23 -455 -25
-595 -5 -208 29 -445 102 -600 183 -80 42 -78 42 43 -3 112 -42 115 -36 10 20
-50 27 -127 73 -170 102 -43 29 -112 75 -153 102 -144 96 -327 257 -315 277 4
7 1 10 -7 8 -20 -5 -168 160 -246 275 -89 131 -156 253 -148 272 3 9 0 15 -9
15 -7 0 -19 16 -25 35 -6 19 -17 38 -23 42 -7 5 -13 17 -14 28 -1 11 -18 66
-37 123 -33 96 -76 275 -76 313 0 15 6 17 37 12 23 -4 34 -2 30 4 -12 19 18
46 43 38 l23 -7 -28 -24 -28 -24 49 -1 c27 -1 66 -1 86 0 20 2 47 -1 59 -4 22
-7 22 -8 4 -21 -10 -8 -29 -14 -41 -14 -13 0 -25 -4 -28 -9 -3 -4 7 -6 22 -4
62 9 181 8 171 -2 -5 -5 -43 -9 -84 -10 -41 0 -75 -3 -75 -7 0 -5 15 -8 33 -8
18 0 38 -5 44 -11 7 -7 30 -13 53 -14 23 -1 47 -8 53 -15 9 -9 3 -11 -28 -8
-22 3 -32 3 -22 1 9 -2 17 -9 17 -14 0 -6 8 -9 18 -8 9 1 26 0 37 -1 l20 -1
-20 -9 c-17 -7 -16 -9 10 -9 23 -1 26 -4 17 -13 -7 -7 -25 -13 -40 -14 -15 -1
-31 -3 -37 -3 -5 -1 -3 -6 5 -11 13 -9 13 -11 0 -20 -8 -5 -10 -10 -5 -11 6
-1 -3 -5 -20 -9 -19 -5 8 -7 73 -6 97 1 102 1 73 -13 -17 -8 -31 -19 -31 -23
0 -5 -5 -6 -11 -2 -6 3 -14 1 -18 -5 -4 -6 -21 -14 -37 -16 -16 -3 -44 -8 -62
-11 -23 -3 -32 -2 -27 5 9 15 -7 13 -29 -4 -18 -14 -17 -15 25 -15 24 0 55 -3
69 -5 22 -5 22 -4 5 4 -19 9 -19 10 2 10 24 1 98 30 154 61 20 11 43 20 50 19
8 0 5 -4 -6 -9 -11 -5 -14 -9 -7 -9 18 -1 -4 -41 -23 -41 -8 0 -15 -4 -15 -9
0 -17 39 1 55 25 8 13 22 24 31 24 8 0 13 4 10 8 -2 4 6 9 20 10 13 1 24 -3
24 -8 0 -6 -4 -10 -10 -10 -5 0 -10 -6 -10 -12 -1 -21 -57 -69 -84 -72 -14 -2
-24 0 -21 3 2 4 -31 7 -73 7 -42 0 -65 -2 -49 -4 28 -3 36 -17 15 -25 -7 -3
21 -3 62 0 l75 4 -54 -32 c-29 -18 -67 -35 -84 -38 -17 -4 -32 -12 -35 -19 -2
-8 2 -10 14 -5 16 6 17 5 4 -9 -10 -11 -20 -13 -32 -7 -22 12 -37 11 -18 -1 8
-5 12 -12 9 -15 -9 -9 -140 -35 -178 -35 -19 0 -31 -3 -28 -7 8 -8 107 -10
107 -3 0 3 12 7 28 8 32 2 132 32 148 43 5 5 19 6 31 3 19 -5 104 7 148 21 11
3 4 -2 -15 -12 -19 -10 -51 -20 -69 -21 -54 -4 -50 -12 6 -12 36 0 54 -5 64
-18 13 -15 12 -16 -3 -4 -14 11 -16 11 -11 -7 3 -12 9 -18 14 -16 11 7 31 -31
27 -51 -2 -12 12 -22 51 -35 29 -10 57 -16 61 -14 4 3 10 -2 14 -10 5 -14 -5
-20 -27 -16 -5 1 -6 -3 -2 -9 3 -6 10 -8 15 -5 4 3 13 -1 19 -9 9 -11 9 -15
-1 -19 -7 -2 0 -8 15 -12 18 -5 26 -12 23 -21 -5 -13 6 -18 27 -15 4 0 7 -4 7
-10 0 -5 5 -7 12 -3 7 4 8 3 4 -4 -5 -9 -13 -9 -28 -1 -19 10 -20 9 -15 -10 3
-14 0 -21 -10 -21 -8 0 -11 -5 -8 -10 4 -6 16 -8 28 -5 17 5 19 4 7 -4 -12 -8
-12 -11 4 -17 13 -5 14 -9 5 -14 -6 -5 -9 -15 -6 -25 4 -9 12 -13 18 -9 8 4 7
9 -2 15 -8 5 -9 9 -3 9 5 0 16 -6 22 -12 7 -7 18 -13 25 -13 7 -1 11 -7 9 -14
-1 -7 2 -10 8 -6 6 3 8 11 4 16 -8 13 16 40 28 33 6 -4 5 3 -2 15 -6 12 -15
19 -20 16 -6 -3 -7 1 -3 10 3 9 9 13 12 8 3 -5 13 -8 21 -8 8 1 20 -2 25 -6 6
-3 17 -6 25 -6 18 0 86 -11 120 -19 43 -10 120 -12 114 -3 -3 5 0 9 5 9 6 0
11 -5 11 -11 0 -5 8 -9 18 -8 9 1 25 -1 34 -5 24 -11 49 -4 62 16 13 22 6 29
-33 30 -17 1 -28 5 -25 10 3 4 -2 8 -10 8 -9 0 -16 5 -16 10 0 6 5 10 10 10 6
0 10 6 10 14 0 18 47 56 69 56 9 -1 3 -7 -14 -15 -23 -10 -26 -14 -10 -14 11
0 38 4 60 9 23 5 42 5 45 0 3 -5 16 -4 30 3 32 16 34 61 3 63 -12 1 -28 4 -37
7 -10 4 -13 1 -9 -9 3 -7 1 -14 -5 -14 -6 0 -13 6 -15 13 -5 11 -11 -18 -8
-36 1 -5 -3 -6 -8 -3 -5 3 -6 18 -2 34 7 25 11 27 57 27 41 0 51 -4 59 -22 5
-13 16 -25 23 -28 7 -2 10 0 7 5 -4 6 8 10 29 10 33 0 48 -11 52 -37 3 -18
-13 -26 -22 -12 -5 8 -3 9 6 4 9 -6 11 -4 5 4 -5 9 -11 9 -17 3 -6 -6 -17 -8
-26 -5 -10 5 -13 2 -8 -6 5 -7 14 -10 22 -7 12 4 14 -3 11 -37 -2 -26 -8 -41
-15 -40 -7 2 -12 -2 -12 -8 0 -5 -4 -8 -9 -4 -5 3 -13 1 -16 -5 -4 -6 -16 -8
-28 -5 -15 4 -18 3 -9 -3 11 -7 8 -11 -13 -16 -14 -4 -30 -4 -35 -1 -5 3 -11
1 -15 -5 -11 -17 -22 -11 -27 14 -3 14 0 31 6 38 6 7 1 4 -11 -6 -23 -19 -31
-32 -14 -21 6 3 9 -4 8 -15 -1 -17 -6 -20 -24 -15 -14 3 -23 1 -23 -6 0 -8 21
-10 65 -7 36 2 65 0 65 -4 0 -4 5 -8 11 -8 5 0 8 4 5 8 -3 5 24 23 60 40 71
35 79 37 68 21 -5 -9 1 -10 20 -5 34 8 34 -6 -1 -22 -79 -34 -153 -94 -153
-124 0 -10 -4 -18 -10 -18 -5 0 -10 -13 -10 -30 0 -37 19 -39 55 -6 16 15 33
22 42 19 11 -4 14 -2 9 5 -5 8 0 12 13 12 12 0 21 5 21 11 0 6 12 10 28 9 49
-4 63 0 56 12 -4 7 -3 8 4 4 6 -4 23 1 37 10 14 9 28 15 30 12 5 -5 -75 -52
-89 -53 -5 0 -13 -13 -17 -29 -5 -17 -15 -34 -24 -38 -20 -12 -19 -19 9 -78
26 -53 17 -71 -9 -20 -21 41 -25 38 -12 -11 20 -80 127 -130 284 -134 73 -1
90 1 86 12 -3 8 2 22 11 32 9 10 13 21 9 24 -3 4 2 7 13 8 10 0 13 3 7 6 -7 2
-13 12 -12 21 0 11 2 12 6 5 2 -7 9 -13 14 -13 6 0 8 4 5 8 -3 5 1 9 9 9 8 0
15 -9 15 -19 0 -10 6 -18 13 -18 8 0 22 -9 32 -20 15 -17 16 -22 4 -37 -12
-15 -12 -16 4 -10 12 5 17 1 17 -13 0 -11 -4 -20 -10 -20 -5 0 -7 -7 -3 -16 5
-14 1 -16 -20 -12 -31 6 -32 -11 -2 -29 18 -10 16 -11 -14 -10 -21 1 -36 -3
-39 -12 -3 -10 0 -12 13 -7 13 5 16 2 11 -10 -3 -8 -6 -18 -6 -20 0 -2 -12 3
-26 12 -17 11 -24 24 -21 36 3 10 0 21 -6 25 -7 3 -9 3 -5 -2 4 -4 2 -17 -4
-28 -8 -16 -7 -23 7 -33 10 -8 21 -11 25 -9 5 3 10 -1 13 -8 4 -10 -2 -13 -17
-10 -16 3 -25 -1 -30 -13 -5 -14 -4 -15 9 -4 12 10 16 9 21 -4 4 -12 11 -13
24 -6 13 7 21 5 30 -5 6 -7 18 -11 25 -9 11 5 12 0 2 -25 -6 -16 -15 -28 -19
-25 -4 3 -11 -2 -14 -11 -5 -12 -9 -13 -20 -4 -10 8 -14 8 -14 0 0 -16 -27
-13 -34 4 -3 8 -13 15 -22 15 -10 0 -14 -3 -11 -7 4 -3 2 -12 -4 -20 -8 -9 -8
-13 -1 -13 6 0 15 7 20 16 8 14 10 14 14 -4 5 -19 2 -20 -51 -15 -31 3 -64 5
-73 6 -9 1 -14 6 -11 11 3 5 1 6 -5 3 -5 -4 -9 -18 -8 -30 2 -18 -4 -26 -26
-35 -16 -6 -28 -6 -28 -1 0 5 6 9 14 9 8 0 18 6 22 13 4 6 4 9 0 5 -5 -4 -19
-3 -32 2 -15 6 -24 6 -24 0 0 -6 -11 -8 -24 -4 -17 4 -27 1 -34 -12 -5 -10
-14 -14 -21 -9 -9 5 -8 13 6 28 11 13 12 17 3 11 -8 -6 -27 -9 -43 -7 -15 2
-34 0 -41 -4 -12 -7 -11 -10 2 -23 14 -13 15 -12 9 3 -3 9 -2 17 3 17 6 0 10
-4 10 -10 0 -5 6 -10 14 -10 8 0 21 -6 28 -13 7 -8 20 -16 28 -20 11 -4 9 -6
-5 -6 -16 -1 -17 -3 -5 -11 11 -7 7 -8 -15 -6 -24 3 -30 8 -27 26 2 17 -2 21
-14 16 -8 -3 -17 -6 -20 -6 -2 0 -1 -7 2 -15 4 -8 2 -15 -2 -15 -29 0 -232 44
-280 60 -118 41 -96 17 31 -33 188 -74 376 -107 620 -107 329 0 608 62 894
200 744 360 1208 1120 1178 1930 -10 254 -63 484 -153 662 -32 63 -40 58 -14
-9 60 -157 100 -384 107 -604 12 -373 -66 -713 -237 -1035 -196 -369 -504
-675 -861 -856 -118 -59 -140 -68 -152 -61 -6 3 -7 1 -4 -4 4 -6 -2 -13 -13
-16 -11 -3 -23 -1 -26 4 -10 16 -42 10 -40 -8 0 -10 -7 -19 -19 -21 -15 -2
-17 -1 -6 6 26 18 8 33 -21 17 -25 -12 -28 -12 -28 1 0 8 5 12 10 9 6 -3 10
-2 10 4 0 14 -30 19 -62 10 -15 -4 -27 -4 -27 -1 5 30 -3 42 -27 42 -14 0 -35
-5 -46 -11 -18 -10 -20 -9 -15 5 4 9 1 16 -6 16 -7 0 -6 4 3 10 8 5 15 15 15
22 0 7 10 12 23 11 12 -2 22 1 22 6 0 5 -14 8 -31 7 -26 -2 -29 0 -15 10 15
10 15 12 1 18 -9 3 -14 2 -11 -3 6 -10 -24 -25 -32 -16 -3 3 0 5 6 5 17 0 15
30 -3 36 -8 4 -12 11 -8 17 3 6 1 7 -6 3 -9 -6 -9 -11 1 -23 12 -15 11 -15 -9
-2 -23 14 -32 59 -13 59 5 0 9 3 8 7 -1 5 5 22 12 38 7 17 13 33 12 37 -1 5 5
8 14 8 8 0 13 3 11 8 -3 4 1 13 9 20 11 10 17 7 31 -15 9 -16 19 -30 21 -33 4
-6 22 22 22 35 0 6 -5 3 -10 -5 -7 -10 -10 9 -10 63 0 42 -3 77 -7 77 -5 0 -9
12 -9 28 -1 15 -5 37 -9 50 -5 16 -3 22 7 22 17 0 34 -33 43 -83 6 -28 12 -36
36 -41 31 -6 109 19 109 36 0 5 5 6 12 2 7 -4 8 -3 4 4 -10 16 -26 15 -46 -3
-10 -9 -27 -18 -40 -20 -21 -4 -22 -3 -6 14 10 11 20 33 22 51 5 27 0 36 -32
64 l-37 32 31 13 c18 8 32 18 32 24 0 22 58 -65 64 -97 4 -19 13 -39 21 -46 8
-7 12 -16 9 -21 -3 -5 2 -10 10 -10 25 -2 76 -20 107 -38 37 -22 108 -24 154
-5 40 17 45 22 45 51 0 31 -2 32 -29 27 -52 -11 -175 23 -238 66 -61 40 -82
66 -89 107 -5 29 15 61 26 42 5 -7 10 -8 14 -1 13 22 -26 20 -50 -3 -17 -16
-22 -25 -13 -25 8 -1 1 -12 -16 -25 -31 -25 -51 -33 -40 -15 10 16 -11 12 -25
-5 -15 -18 -36 -20 -46 -4 -11 19 47 57 79 52 19 -3 27 -1 22 6 -3 6 0 11 8
11 7 0 20 11 27 25 12 23 17 24 79 19 104 -8 123 -12 132 -26 8 -12 9 -10 13
20 0 7 6 16 12 20 7 4 13 16 15 26 5 25 23 31 42 12 8 -8 17 -13 19 -10 3 2
22 -14 42 -36 25 -28 36 -49 36 -72 0 -39 9 -32 14 11 2 18 -3 46 -11 62 -8
16 -13 35 -11 41 3 7 -6 24 -19 38 -13 14 -23 29 -23 34 0 10 -39 46 -50 46
-12 0 -18 37 -9 51 7 12 9 12 9 0 0 -8 3 -12 6 -8 8 8 -6 88 -14 83 -4 -2 -7
49 -8 114 0 66 3 117 7 115 4 -3 9 4 12 15 3 11 1 20 -4 20 -4 0 -6 33 -3 73
3 39 5 82 5 94 -1 12 4 25 9 28 10 6 7 -64 -5 -140 -4 -25 -2 -23 10 9 11 28
15 74 14 158 0 64 2 121 5 127 4 5 8 39 10 74 2 36 7 70 11 77 4 7 7 31 7 54
-1 38 20 136 46 222 5 17 8 49 6 72 -2 23 0 42 5 42 5 0 13 26 17 58 3 31 10
64 14 72 5 8 10 29 13 45 3 17 13 55 22 85 17 59 19 207 3 227 -5 6 -10 34
-10 62 -1 28 -5 51 -8 51 -4 0 -6 14 -5 30 1 17 -1 30 -5 30 -4 0 -5 59 -2
130 4 99 2 130 -8 130 -7 0 -10 -7 -6 -16 3 -9 3 -59 0 -111 -9 -127 -24 -98
-28 56 -2 65 -7 125 -11 132 -5 8 1 6 13 -5 12 -10 19 -22 17 -27 -3 -4 -1
-10 5 -14 20 -12 9 23 -15 49 -14 15 -25 32 -25 37 0 6 -5 7 -12 3 -6 -4 -8
-3 -5 3 4 6 0 24 -8 39 -8 16 -15 35 -15 43 0 11 -3 11 -17 0 -15 -13 -15 -12
-4 8 17 34 -6 71 -77 121 -47 33 -69 42 -104 43 -31 0 -37 3 -23 8 19 8 19 8
-4 20 -12 7 -25 10 -28 7 -4 -3 -12 -1 -20 5 -9 9 -13 8 -13 0 0 -6 -5 -11
-12 -11 -8 0 -7 6 4 16 13 13 14 23 6 44 -7 23 -15 28 -39 26 -26 -2 -34 5
-30 27 1 4 -10 13 -24 19 -14 6 -25 16 -25 21 0 5 -7 4 -15 -3 -13 -11 -14
-10 -9 4 7 18 -36 41 -47 24 -3 -5 -9 -2 -13 7 -5 14 -9 15 -22 4 -12 -10 -15
-10 -12 1 2 8 -6 15 -17 17 -11 1 -29 4 -40 6 -11 3 -26 -1 -34 -7 -11 -8 -13
-8 -7 2 7 12 2 14 -39 16 -13 1 -21 9 -23 24 -3 20 -22 32 -22 13 0 -4 -10 -7
-22 -7 -27 3 -81 -21 -74 -32 8 -13 -47 -7 -76 7 -16 8 -28 18 -28 24 0 5 -7
7 -15 3 -8 -3 -15 -2 -15 3 0 9 -65 23 -110 24 -14 0 -64 -9 -111 -20 -69 -16
-98 -29 -144 -64 -32 -24 -65 -48 -74 -54 -9 -5 -20 -16 -24 -23 -5 -7 -12
-10 -17 -7 -5 3 -18 -3 -30 -15 -11 -11 -27 -20 -35 -20 -8 0 -15 -4 -15 -9 0
-5 -9 -11 -21 -14 -12 -3 -18 -10 -14 -16 3 -6 0 -11 -7 -12 -75 -5 -107 -21
-86 -46 7 -9 7 -13 0 -13 -6 0 -15 7 -20 15 -7 14 -11 13 -32 -5 -13 -11 -30
-18 -37 -15 -7 3 -20 8 -30 12 -9 4 -14 2 -10 -3 11 -18 -10 -36 -44 -38 -32
-2 -88 -25 -61 -26 13 0 17 -29 5 -31 -59 -10 -96 8 -73 36 10 12 8 12 -13 2
-14 -7 -23 -17 -19 -25 4 -11 -7 -13 -49 -12 -78 2 -79 1 -24 -24 l50 -23 -47
-8 c-44 -7 -69 -4 -123 12 -18 5 -18 4 -6 -11 13 -16 6 -17 -109 -14 -92 2
-124 0 -128 -10 -2 -6 -8 -10 -13 -6 -5 3 -9 0 -9 -5 0 -6 21 -11 48 -11 35 0
43 -3 32 -11 -12 -8 -12 -10 5 -8 11 1 25 0 30 -1 6 -1 30 -1 55 -1 54 2 84
-13 60 -29 -11 -7 0 -10 38 -10 28 0 52 -4 52 -10 0 -5 -12 -10 -27 -10 -16 0
-35 -5 -43 -10 -12 -8 -9 -10 12 -10 39 0 44 -17 7 -25 -21 -5 -27 -10 -19
-15 7 -4 10 -13 6 -19 -5 -7 -1 -9 9 -4 15 5 15 3 4 -14 -13 -21 -43 -24 -70
-8 -11 7 -12 6 -2 -6 11 -13 8 -15 -16 -11 -38 5 -51 -16 -22 -39 l22 -18 -40
-21 c-38 -19 -46 -18 -42 3 1 5 -3 5 -9 2 -6 -4 -9 -13 -6 -20 3 -9 -3 -11
-17 -9 -12 2 -16 1 -9 -2 21 -10 -22 -35 -50 -30 -13 2 -41 -5 -63 -15 -21
-10 -51 -19 -67 -19 -18 0 -28 -5 -28 -15 0 -9 9 -15 23 -15 55 -1 51 -17 -14
-65 -35 -26 -85 -58 -111 -71 -27 -13 -48 -27 -48 -29 0 -14 212 114 225 135
4 6 11 8 16 5 5 -4 9 -1 9 4 0 6 17 11 38 11 20 0 58 7 85 15 47 14 63 5 28
-17 -10 -6 -17 -17 -14 -23 2 -7 -3 -15 -12 -19 -9 -3 -14 -10 -11 -15 3 -4
-6 -7 -19 -5 -14 1 -25 -2 -25 -7 0 -6 -4 -8 -9 -5 -4 3 -17 -2 -27 -10 -10
-9 -13 -13 -6 -9 6 3 12 0 12 -7 0 -8 3 -9 8 -3 4 6 14 11 22 12 8 2 4 -5 -9
-14 -30 -22 -49 -25 -82 -14 -20 7 -26 5 -26 -6 0 -9 7 -13 19 -10 16 4 17 3
7 -9 -6 -7 -15 -11 -20 -8 -5 3 -9 0 -9 -5 0 -6 -12 -11 -26 -11 -15 0 -45 -6
-68 -12 l-41 -13 35 -6 35 -5 -45 -13 c-24 -7 -62 -11 -82 -8 -24 3 -36 1 -32
-5 7 -12 157 -6 188 7 14 6 17 5 12 -4 -4 -6 -37 -25 -72 -42 -35 -17 -64 -33
-64 -36 0 -4 3 -3 7 0 3 4 13 1 21 -6 13 -9 14 -9 8 1 -5 8 0 12 14 12 12 0
18 5 15 10 -3 6 -3 10 2 11 35 3 58 12 68 26 8 11 14 12 19 5 4 -6 14 -8 24
-5 10 4 14 2 9 -3 -5 -5 -19 -9 -30 -9 -13 0 -21 -5 -19 -13 1 -8 -3 -11 -10
-7 -7 3 -6 1 3 -6 13 -10 14 -18 4 -56 -10 -39 -17 -47 -56 -65 -61 -27 -192
-51 -276 -48 -23 0 -57 -5 -75 -13 -30 -13 -64 -15 -74 -5 -2 2 3 28 11 58 8
30 15 58 15 62 0 7 -180 0 -188 -7 -1 -1 -11 -32 -21 -69 -12 -44 -15 -66 -7
-66 6 0 6 -4 -2 -9 -8 -4 -16 -26 -19 -48 -5 -37 -3 -41 23 -52 l29 -11 -32 6
c-27 5 -33 2 -35 -13 -4 -53 -7 -73 -17 -132 -12 -74 -34 -100 -39 -46 -2 19
2 43 8 55 8 14 8 20 0 20 -6 0 -9 4 -5 9 3 6 -3 15 -12 21 -16 10 -16 10 3 5
13 -3 21 0 21 7 2 33 11 94 16 108 18 52 17 69 -5 73 -21 4 -21 4 2 6 17 1 26
7 27 19 3 33 53 192 89 284 279 708 872 1228 1608 1409 202 49 328 63 566 63
229 0 358 -13 589 -60 68 -13 129 -23 135 -21 33 11 -232 88 -409 118 -154 27
-500 35 -655 15z m635 -505 c-2 -9 -4 -20 -4 -26 -1 -5 -5 -3 -10 5 -6 8 -7
18 -5 22 3 4 0 8 -7 8 -8 0 -8 4 1 15 15 18 30 3 25 -24z m-54 -8 c3 1 1 -2
-3 -7 -8 -11 -38 0 -38 14 0 7 6 8 19 1 10 -6 20 -9 22 -8z m108 -10 c-6 -7
-15 -10 -20 -7 -13 8 -3 21 15 21 12 0 13 -4 5 -14z m128 -27 c-3 -7 -1 -18 4
-23 6 -6 4 -10 -5 -10 -8 0 -13 4 -10 9 3 4 0 8 -6 8 -7 0 -6 5 2 15 16 18 22
19 15 1z m-46 -33 c3 1 1 -2 -3 -7 -8 -11 -38 0 -38 14 0 7 6 8 19 1 10 -6 20
-9 22 -8z m189 -27 c0 -2 -9 -6 -20 -9 -11 -3 -20 -1 -20 4 0 5 9 9 20 9 11 0
20 -2 20 -4z m-78 -29 c-7 -8 -8 -18 -4 -22 4 -5 2 -5 -5 -1 -6 3 -16 -1 -21
-10 -5 -9 -15 -15 -21 -13 -11 4 -6 12 42 55 16 16 23 8 9 -9z m-74 -42 c-3
-3 -9 2 -12 12 -6 14 -5 15 5 6 7 -7 10 -15 7 -18z m207 5 c-9 -15 -45 -32
-45 -22 0 5 10 14 23 20 29 14 29 14 22 2z m278 -160 c18 -29 15 -56 -4 -44
-5 3 -7 10 -3 15 3 6 -4 21 -17 35 -16 17 -18 24 -8 24 8 0 23 -14 32 -30z
m30 -95 c-3 -9 -8 -14 -10 -11 -3 3 -2 9 2 15 9 16 15 13 8 -4z m-279 -157
c64 -34 107 -117 111 -218 4 -112 6 -131 14 -126 5 4 10 -54 10 -136 1 -79 2
-183 3 -233 2 -76 -4 -116 -40 -260 -43 -171 -74 -259 -102 -283 -8 -8 -9 -11
-2 -7 15 8 16 -7 2 -21 -6 -6 -19 -45 -30 -87 -29 -121 -49 -167 -74 -168 -17
-1 -18 -2 -3 -6 32 -8 7 -21 -36 -18 -26 2 -33 1 -19 -3 13 -4 23 -10 23 -14
-1 -5 -1 -15 -1 -24 0 -11 -6 -15 -20 -11 -11 3 -23 0 -27 -5 -3 -6 -1 -8 5
-4 5 3 12 0 14 -6 6 -18 -49 -71 -67 -64 -8 3 -17 0 -21 -6 -4 -6 -3 -8 4 -4
16 10 22 -7 6 -22 -11 -10 -15 -9 -22 5 -5 10 -7 24 -4 32 2 7 0 16 -5 20 -5
3 -17 23 -26 43 -10 20 -22 40 -27 43 -19 12 -10 25 14 21 18 -3 23 -1 19 10
-3 8 0 14 6 14 6 0 11 4 11 10 0 5 -3 10 -7 9 -25 -4 -51 17 -61 47 -5 19 -6
34 -2 34 5 0 11 8 14 18 5 15 17 19 66 19 50 0 63 -3 75 -20 8 -11 12 -24 9
-29 -3 -4 2 -8 10 -8 9 0 16 4 16 10 0 5 8 6 17 3 14 -5 13 -1 -6 25 -16 23
-30 32 -51 32 -15 0 -37 8 -49 18 -19 15 -20 21 -10 62 6 25 12 51 12 58 0 6
4 12 9 12 4 0 8 4 8 10 0 14 -43 6 -48 -8 -2 -7 1 -12 7 -12 6 0 11 -7 11 -16
0 -14 -2 -15 -17 -3 -16 12 -16 12 -6 -1 11 -15 12 -74 2 -85 -3 -3 -23 1 -45
9 -21 8 -31 15 -22 15 9 1 22 9 27 19 10 16 10 15 11 -3 1 -20 1 -20 9 0 9 24
2 57 -10 49 -5 -3 -6 -11 -2 -17 4 -7 -1 -5 -12 3 -17 14 -17 15 8 24 28 10
36 31 15 39 -8 3 -6 8 7 13 11 4 23 12 27 18 5 7 8 3 8 -9 0 -16 2 -17 9 -6 5
8 7 29 4 48 -5 32 -4 34 21 29 14 -3 33 -12 42 -21 23 -23 34 -7 25 35 -4 20
-3 45 3 58 7 17 6 29 -2 43 -14 22 0 25 21 4 8 -8 17 -12 20 -9 2 3 14 -7 26
-22 14 -18 21 -22 21 -11 0 9 -4 19 -10 22 -5 3 -10 17 -10 31 0 14 4 23 9 20
5 -3 11 1 15 9 3 8 0 17 -6 21 -7 5 -8 2 -3 -6 5 -9 4 -11 -4 -6 -16 10 -4 26
20 26 10 0 19 5 19 10 0 6 -4 10 -8 10 -4 0 -8 37 -7 83 0 60 3 81 13 79 6 -1
11 1 11 5 -4 25 3 35 21 30 11 -3 20 -1 20 5 0 5 5 6 10 3 6 -3 10 -2 10 4 0
6 -9 15 -20 21 -17 9 -18 14 -8 30 7 10 14 17 16 15 2 -2 13 4 23 14 24 22 32
58 18 80 -9 14 -10 13 -5 -3 5 -15 4 -16 -7 -8 -10 8 -20 8 -38 -2 -16 -8 -33
-10 -47 -5 -12 5 -22 6 -22 2 0 -3 -7 0 -15 7 -10 9 -15 9 -15 1 0 -6 -5 -11
-11 -11 -6 0 -17 -7 -26 -15 -20 -21 -38 -14 -39 15 -1 13 -10 29 -20 37 -10
7 -19 20 -20 29 -2 11 1 13 11 4 11 -9 12 -7 8 10 -3 12 -11 19 -19 16 -7 -3
-16 0 -20 6 -4 7 -10 4 -17 -7 -6 -12 -6 -20 3 -25 7 -4 9 -13 5 -19 -4 -7 -1
-20 7 -29 11 -15 11 -15 -3 -5 -9 7 -19 10 -22 7 -3 -4 -4 5 -2 19 4 22 1 25
-28 30 -41 6 -51 0 -35 -21 8 -11 4 -10 -11 3 -18 16 -20 21 -8 23 10 2 17 16
19 35 2 22 9 33 22 35 13 3 16 0 11 -10 -5 -7 -4 -10 1 -5 5 5 10 13 10 18 1
5 2 12 3 15 0 4 9 0 18 -7 12 -10 15 -10 9 -1 -12 20 19 42 61 43 33 0 35 2
16 9 -13 5 -23 17 -23 26 0 10 -7 26 -17 36 -9 10 -11 18 -5 18 6 0 13 -6 15
-12 4 -10 6 -10 6 0 1 7 -6 15 -14 18 -8 4 -15 11 -15 17 0 6 3 7 6 4 4 -4 15
9 25 28 23 42 25 58 3 27 l-15 -22 -22 21 c-12 11 -22 27 -22 36 0 11 -9 17
-27 17 -14 1 -24 -2 -21 -7 2 -4 -18 -6 -46 -3 -29 3 -51 1 -51 -5 0 -5 8 -9
18 -10 12 0 13 -2 3 -6 -8 -3 -20 2 -28 13 -9 13 -13 14 -13 4 0 -16 -33 28
-36 47 -4 22 26 14 35 -9 9 -24 15 -17 25 26 5 21 11 27 26 23 11 -3 25 1 31
9 7 9 16 11 23 5 15 -11 46 -10 46 2 0 5 11 7 25 5 17 -4 29 0 35 11 5 9 11
15 14 14 10 -4 66 9 70 16 7 11 98 11 120 -1z m-1949 -108 c-3 -5 -14 -10 -23
-10 -15 0 -15 2 -2 10 20 13 33 13 25 0z m-49 -29 c-6 -9 -46 -22 -46 -15 0 3
10 9 23 14 29 11 29 11 23 1z m1130 -218 c-3 -7 -1 -13 4 -13 5 0 7 -6 4 -14
-6 -16 45 -68 59 -59 6 3 7 1 3 -5 -4 -7 -13 -12 -19 -12 -7 0 -21 -13 -32
-29 -23 -36 -53 -46 -76 -25 -9 8 -21 14 -27 12 -23 -7 -7 58 25 95 12 16 23
37 23 47 0 13 7 18 20 17 12 -1 18 -7 16 -14z m-1786 3 c0 -3 -4 -8 -10 -11
-5 -3 -10 -1 -10 4 0 6 5 11 10 11 6 0 10 -2 10 -4z m1992 -44 c22 -9 9 -31
-21 -37 -23 -4 -23 -4 -6 15 17 19 17 19 -4 15 -12 -2 -19 0 -16 6 7 10 22 11
47 1z m158 -57 c0 -2 -7 -5 -15 -9 -9 -3 -15 0 -15 9 0 9 6 12 15 9 8 -4 15
-7 15 -9z m880 -100 c-6 -16 -9 -10 -15 27 -4 26 -3 53 1 60 12 18 24 -60 14
-87z m-3065 75 c6 -11 -42 -26 -52 -16 -4 3 5 6 18 6 19 0 21 2 9 10 -13 8
-13 10 2 10 9 0 20 -4 23 -10z m-70 -20 c3 -5 1 -10 -4 -10 -6 0 -11 5 -11 10
0 6 2 10 4 10 3 0 8 -4 11 -10z m-25 -8 c0 -5 -16 -13 -35 -19 -44 -14 -45 -7
-2 12 39 17 37 17 37 7z m1964 -187 c36 -33 7 -34 -31 0 -20 18 -24 24 -12 25
9 0 28 -11 43 -25z m766 -4 c0 -14 -22 -28 -52 -33 -32 -6 -34 -2 -11 24 16
18 63 25 63 9z m-809 -23 c3 -5 4 -20 1 -33 -3 -18 -10 -24 -27 -23 -13 1 -21
6 -19 10 3 4 -2 8 -11 8 -9 0 -14 -4 -11 -9 3 -5 -1 -14 -8 -20 -12 -10 -14
-9 -11 6 2 10 4 24 4 31 1 7 6 10 11 7 6 -3 10 -1 10 5 0 6 5 8 12 4 8 -5 9 0
5 15 -5 19 -2 21 16 15 12 -4 25 -11 28 -16z m374 12 c3 -5 1 -10 -6 -10 -8 0
-6 -5 5 -13 16 -11 16 -22 7 -110 -8 -84 -8 -101 6 -116 12 -15 19 -16 39 -7
13 6 24 15 24 19 0 5 6 5 13 1 8 -6 8 -3 -1 9 -12 14 -11 19 3 33 12 13 15 25
10 48 -9 38 -11 143 -3 152 11 10 48 -6 48 -21 0 -19 57 -104 91 -136 20 -20
25 -29 16 -38 -6 -6 -7 -11 -3 -11 5 0 1 -11 -8 -25 -15 -23 -15 -25 1 -25 10
0 25 -5 33 -11 12 -8 10 -9 -9 -4 -22 7 -23 5 -17 -21 4 -18 3 -24 -2 -16 -15
22 -35 -13 -29 -51 6 -37 -5 -63 -21 -53 -16 9 -64 -12 -59 -27 2 -6 13 -11
23 -9 14 2 16 1 5 -6 -11 -8 -10 -11 4 -19 12 -7 14 -13 6 -17 -6 -4 -11 -2
-11 4 0 7 -7 7 -22 -2 -13 -7 -27 -11 -31 -10 -4 1 -2 -8 5 -20 19 -35 20 -58
3 -52 -8 4 -12 10 -9 15 3 5 1 9 -4 9 -17 0 -23 64 -11 112 12 44 11 48 -14
81 -14 19 -23 38 -19 41 3 4 -2 4 -12 0 -15 -6 -17 -4 -11 7 8 12 6 12 -8 0
-18 -14 -22 -22 -9 -20 47 8 34 -17 -14 -26 -33 -6 -36 -9 -32 -36 3 -16 1
-29 -4 -29 -4 0 -6 -19 -2 -42 3 -28 2 -38 -4 -30 -5 7 -18 14 -30 15 -11 0
-18 5 -15 11 3 5 -3 16 -13 24 -16 12 -16 14 -2 9 10 -3 20 -2 23 4 4 5 11 7
16 4 5 -4 9 -4 9 -1 0 11 -60 36 -84 36 -20 0 -24 4 -19 17 4 11 3 14 -5 9 -7
-4 -12 -1 -12 8 0 9 3 15 8 15 22 -4 42 2 37 11 -3 6 -2 10 4 10 5 0 12 -4 16
-10 3 -5 13 -6 23 -3 21 8 46 33 35 34 -20 3 -29 6 -47 14 -11 5 -25 4 -36 -2
-15 -10 -16 -5 -15 58 2 39 5 72 7 75 3 2 16 0 29 -5 20 -7 27 -4 44 18 18 25
18 25 0 11 -11 -9 -16 -10 -11 -2 4 7 0 19 -8 28 -21 21 -20 34 3 34 12 0 25
13 35 35 17 35 30 43 41 25z m-2295 -20 c0 -5 -8 -10 -17 -10 -15 0 -16 2 -3
10 19 12 20 12 20 0z m-43 -6 c-3 -3 -12 -4 -19 -1 -8 3 -5 6 6 6 11 1 17 -2
13 -5z m263 -14 c0 -6 9 -6 26 1 15 5 29 8 31 6 5 -6 -49 -40 -64 -40 -6 0
-11 -5 -10 -11 1 -6 -8 -12 -20 -14 -12 -2 -29 -14 -37 -28 -9 -13 -24 -24
-34 -24 -9 0 -36 -9 -59 -20 -24 -10 -45 -15 -48 -10 -3 4 -1 10 4 12 4 1 12
14 16 27 5 17 4 21 -5 16 -9 -5 -10 -1 -5 15 8 26 13 49 14 68 1 15 191 18
191 2z m1554 -2 c-3 -4 3 -8 13 -9 16 0 16 -1 -2 -9 -18 -8 -18 -9 -2 -9 10
-1 16 -5 12 -10 -3 -5 -1 -12 5 -16 5 -3 10 -22 10 -41 0 -19 3 -33 8 -32 13
5 50 -35 45 -48 -3 -8 0 -14 7 -14 6 0 9 -4 5 -9 -3 -5 -1 -13 5 -16 12 -8 10
-47 -4 -56 -12 -9 3 -31 16 -23 6 4 14 0 19 -7 4 -8 14 -14 21 -14 17 0 23
-45 6 -46 -7 -1 -17 -1 -23 1 -5 1 -1 -7 8 -18 14 -15 17 -29 12 -56 -4 -20
-10 -34 -14 -31 -4 2 -8 -3 -8 -12 0 -13 4 -12 18 5 9 12 21 22 26 22 4 0 14
9 21 20 7 12 17 18 22 15 5 -3 11 -1 15 5 9 14 53 8 51 -7 -1 -7 -5 -15 -8
-19 -4 -3 -4 -13 -1 -21 8 -20 -23 -44 -45 -37 -14 5 -14 4 1 -6 10 -6 14 -16
10 -23 -4 -7 2 -5 12 3 13 10 16 11 11 2 -5 -9 -1 -15 14 -19 14 -4 19 -11 15
-21 -5 -13 -3 -13 12 -1 15 12 16 12 11 -2 -5 -13 0 -16 23 -13 16 2 29 -1 29
-7 0 -6 -4 -8 -9 -5 -5 4 -11 2 -13 -4 -2 -6 -12 -12 -23 -14 -11 -2 -28 -7
-37 -11 -13 -5 -18 -2 -18 9 0 9 6 16 13 17 9 0 9 2 0 5 -7 3 -9 12 -6 20 3 8
2 14 -3 13 -5 -1 -11 0 -14 1 -23 9 -38 6 -33 -6 3 -8 -1 -14 -8 -14 -8 0 -6
-5 6 -13 12 -10 14 -16 7 -21 -7 -4 -12 -2 -12 4 0 8 -6 8 -21 0 -11 -7 -18
-18 -15 -25 3 -8 1 -17 -5 -20 -5 -4 -7 -9 -5 -13 2 -4 -3 -14 -12 -22 -14
-13 -15 -12 -10 2 7 18 -17 34 -27 18 -4 -6 -1 -10 4 -10 6 0 11 -4 11 -9 0
-5 -11 -8 -25 -7 -22 3 -24 0 -19 -23 4 -14 10 -30 14 -35 12 -13 30 2 31 27
1 17 2 18 6 5 2 -10 9 -18 14 -18 5 0 9 -5 9 -11 0 -5 -4 -8 -9 -5 -5 3 -21 0
-36 -8 -14 -8 -22 -15 -16 -17 6 -3 4 -14 -4 -29 -12 -21 -14 -22 -15 -6 0 15
-3 16 -14 7 -12 -10 -15 -7 -18 16 -2 15 -8 27 -15 26 -6 -1 -17 4 -23 12 -9
11 -9 15 -1 15 6 0 11 -5 11 -12 0 -21 18 6 22 32 2 20 -1 24 -16 22 -15 -3
-17 1 -12 21 6 25 -17 57 -31 43 -3 -3 -2 -6 4 -6 5 0 10 -7 10 -15 0 -14 -2
-14 -15 -1 -18 18 -6 39 19 33 11 -3 17 -1 13 4 -3 5 -14 9 -25 9 -27 0 -63
39 -63 69 0 20 5 26 25 26 13 0 30 -7 37 -15 11 -13 12 -13 10 0 -4 20 -18 30
-45 30 -12 0 -25 5 -29 11 -5 9 1 10 22 5 16 -4 26 -4 22 0 -4 4 -3 13 3 20 8
10 5 12 -15 8 -14 -2 -26 0 -26 6 0 5 -7 10 -15 10 -17 0 -18 2 -9 24 3 9 12
16 20 16 8 0 14 10 15 23 0 21 1 21 11 -3 6 -15 12 -20 15 -13 3 7 -5 25 -16
39 -26 32 -27 64 -4 64 13 0 14 3 6 11 -9 9 -8 16 4 27 14 15 14 17 -6 26 -12
5 -20 15 -17 22 3 8 1 16 -4 19 -6 4 -8 20 -5 36 4 20 2 28 -5 24 -5 -3 -13 0
-16 9 -7 19 17 71 34 72 6 1 17 2 23 3 6 0 9 9 7 19 -3 11 0 19 8 19 7 0 11
-4 8 -9z m-1454 -2 c0 -3 -4 -8 -10 -11 -5 -3 -10 -1 -10 4 0 6 5 11 10 11 6
0 10 -2 10 -4z m1410 0 c0 -2 -8 -10 -17 -17 -16 -13 -17 -12 -4 4 13 16 21
21 21 13z m-1737 -23 c-7 -2 -21 -2 -30 0 -10 3 -4 5 12 5 17 0 24 -2 18 -5z
m360 -97 c4 -9 1 -13 -7 -10 -7 3 -20 -4 -30 -15 -11 -12 -37 -23 -65 -26 -25
-4 -59 -12 -76 -20 -41 -17 -97 -27 -90 -15 3 5 -9 3 -26 -4 -18 -7 -40 -11
-50 -9 -24 7 -25 33 -1 33 13 0 14 2 3 9 -10 7 -10 10 -1 16 7 4 15 2 19 -4 5
-8 27 -4 77 13 90 31 127 39 120 27 -3 -5 13 -3 37 4 56 18 84 18 90 1z m2242
-53 c-1 -16 3 -34 8 -40 5 -7 7 -13 3 -13 -3 0 -13 11 -22 25 -13 20 -14 28
-4 40 16 20 16 20 15 -12z m-2360 -42 c-3 -6 -15 -11 -26 -11 -10 0 -19 -4
-19 -8 0 -11 -69 -32 -106 -32 -16 0 -36 -5 -44 -11 -11 -8 -6 -9 22 -7 20 2
34 0 32 -4 -3 -4 -14 -8 -25 -8 -10 0 -19 -3 -19 -7 0 -5 -15 -8 -33 -9 -31 0
-34 2 -35 32 -1 28 3 34 31 43 30 9 114 21 180 26 15 1 30 5 34 8 9 10 16 0 8
-12z m2425 6 c0 -8 -7 -14 -15 -14 -11 0 -12 4 -4 14 6 7 13 13 15 13 2 0 4
-6 4 -13z m-695 -95 c-3 -3 -11 0 -18 7 -9 10 -8 11 6 5 10 -3 15 -9 12 -12z
m-1910 -31 c3 -5 1 -12 -4 -15 -5 -4 -13 -2 -16 4 -5 8 -11 8 -20 0 -8 -7 -20
-8 -27 -4 -9 6 -5 10 12 15 36 10 48 10 55 0z m-263 -61 c2 -28 -1 -52 -7 -54
-7 -2 -8 -31 -4 -82 4 -44 8 -110 8 -147 1 -65 0 -67 -19 -57 -19 10 -20 21
-20 200 1 178 2 190 20 190 15 0 19 -9 22 -50z m298 20 c0 -5 -8 -10 -17 -10
-15 0 -16 2 -3 10 19 12 20 12 20 0z m70 -6 c0 -2 -11 -4 -25 -4 -14 0 -25 4
-25 9 0 4 11 6 25 3 14 -2 25 -6 25 -8z m-105 -41 c-19 -13 -31 -11 -21 5 3 5
13 9 22 9 15 0 15 -2 -1 -14z m78 10 c-7 -2 -19 -2 -25 0 -7 3 -2 5 12 5 14 0
19 -2 13 -5z m-136 -39 c-3 -3 -12 -4 -19 -1 -8 3 -5 6 6 6 11 1 17 -2 13 -5z
m216 -11 c-7 -2 -19 -2 -25 0 -7 3 -2 5 12 5 14 0 19 -2 13 -5z m-155 -10
c-10 -2 -28 -2 -40 0 -13 2 -5 4 17 4 22 1 32 -1 23 -4z m2979 -60 c-3 -10 -5
-2 -5 17 0 19 2 27 5 18 2 -10 2 -26 0 -35z m-2961 12 c3 -6 21 -10 42 -8 20
1 29 0 20 -3 -22 -7 -24 -24 -4 -24 30 0 24 -17 -5 -18 -54 -1 -45 -12 11 -12
45 0 51 -2 40 -15 -7 -8 -28 -15 -47 -15 -21 0 -32 -4 -28 -10 4 -6 10 -8 15
-5 5 3 11 1 14 -4 4 -5 18 -8 31 -5 14 2 25 0 25 -6 0 -5 -16 -10 -35 -10 -26
0 -35 -4 -35 -16 0 -14 3 -14 16 -3 13 10 17 10 25 -2 5 -8 9 -9 9 -4 0 16 20
-18 20 -35 -1 -23 -42 -48 -65 -40 -20 8 -20 8 -1 16 19 7 61 44 51 44 -11 0
-100 -50 -90 -50 6 0 3 -6 -6 -13 -8 -7 -18 -19 -21 -28 -9 -24 -68 -13 -68
12 0 11 -6 19 -12 20 -8 0 -9 2 -2 5 6 3 8 24 3 62 -13 106 -12 115 15 108 13
-3 32 -9 42 -13 16 -6 17 -5 4 9 -8 9 -17 15 -20 13 -14 -8 -50 17 -50 34 0
12 8 21 23 24 37 7 79 3 83 -8z m-123 -122 c-7 -2 -21 -2 -30 0 -10 3 -4 5 12
5 17 0 24 -2 18 -5z m2147 -26 c0 -5 -9 -11 -19 -14 -13 -3 -18 -12 -16 -29 1
-13 -1 -21 -5 -19 -4 3 -10 -9 -12 -25 -3 -19 0 -30 8 -30 13 0 26 -35 16 -45
-10 -10 -11 -35 -1 -41 5 -3 9 -19 9 -35 0 -18 -4 -28 -10 -24 -5 3 -10 1 -10
-4 0 -6 -11 -11 -24 -11 -14 0 -28 -5 -32 -11 -5 -8 -10 -6 -16 5 -5 9 -15 16
-23 16 -7 0 -23 14 -35 30 -12 17 -18 30 -14 30 4 0 -1 7 -12 16 -10 8 -14 13
-7 9 20 -9 37 33 21 52 -11 15 -11 15 7 6 12 -7 26 -8 36 -3 19 11 61 2 53
-11 -3 -5 2 -6 10 -3 21 8 8 34 -16 31 -11 -1 -26 8 -35 20 -13 20 -13 21 4
19 10 -2 17 -10 15 -20 -2 -9 2 -16 8 -16 6 0 8 4 5 10 -3 6 1 7 9 4 9 -3 16
-1 16 5 0 6 -7 11 -15 11 -26 0 -29 29 -6 49 11 10 21 23 21 28 0 5 5 14 11
20 13 13 59 -3 59 -20z m-334 7 c-3 -9 -6 -18 -6 -20 0 -3 -6 1 -14 8 -10 9
-11 15 -2 20 19 13 28 9 22 -8z m1265 -31 c-4 -28 -6 -32 -9 -15 -3 22 3 52
11 52 1 0 1 -17 -2 -37z m-1221 -15 c0 -6 -6 -5 -15 2 -8 7 -15 14 -15 16 0 2
7 1 15 -2 8 -4 15 -11 15 -16z m96 -3 c-1 -8 -5 -17 -8 -21 -5 -4 -4 16 1 34
3 9 9 -1 7 -13z m224 -20 c-7 -9 -15 -13 -19 -10 -3 3 1 10 9 15 21 14 24 12
10 -5z m-1830 -5 c-20 -13 -33 -13 -25 0 3 6 14 10 23 10 15 0 15 -2 2 -10z
m-355 -10 c3 -5 1 -10 -4 -10 -6 0 -11 5 -11 10 0 6 2 10 4 10 3 0 8 -4 11
-10z m1655 -40 c0 -21 -5 -42 -10 -45 -11 -7 -17 5 -24 50 -5 29 -5 29 11 10
15 -19 15 -19 9 8 -5 19 -3 26 4 22 5 -3 10 -24 10 -45z m1427 -47 c-3 -10 -5
-4 -5 12 0 17 2 24 5 18 2 -7 2 -21 0 -30z m-1143 -8 c-4 -8 -8 -15 -10 -15
-2 0 -4 7 -4 15 0 8 4 15 10 15 5 0 7 -7 4 -15z m-1506 -4 c10 -6 8 -10 -10
-14 -12 -4 -31 -7 -42 -7 -15 0 -16 3 -6 15 14 17 38 19 58 6z m1222 -26 c0
-14 4 -25 10 -25 5 0 7 8 4 18 -5 13 -4 14 4 3 12 -17 4 -43 -11 -34 -6 3 -7
1 -3 -6 6 -9 11 -9 24 1 13 11 14 11 7 -1 -5 -9 -2 -18 9 -27 20 -14 27 -63
12 -83 -8 -11 -8 -13 2 -7 6 4 12 2 12 -3 0 -6 -8 -11 -17 -12 -11 0 -13 -3
-5 -6 6 -2 12 -14 12 -24 0 -13 4 -18 12 -13 6 4 8 3 4 -4 -3 -6 -15 -9 -26
-7 -14 3 -18 0 -13 -8 14 -22 11 -37 -7 -37 -10 0 -20 9 -23 21 -3 12 -10 19
-14 16 -5 -3 -9 18 -10 46 0 29 -3 85 -6 126 -4 41 -4 78 -1 83 11 17 24 7 24
-17z m-1633 -30 c0 -8 -6 -15 -14 -15 -17 0 -17 17 0 23 6 3 12 6 13 6 0 1 1
-6 1 -14z m563 0 c-22 -21 -88 -46 -95 -36 -7 12 7 21 59 37 53 16 53 16 36
-1z m2435 -32 c-3 -21 -11 -42 -16 -48 -9 -8 -4 37 7 73 8 28 16 9 9 -25z
m-28 -15 c-3 -8 -6 -5 -6 6 -1 11 2 17 5 13 3 -3 4 -12 1 -19z m-441 -33 c10
-8 14 -15 7 -15 -6 0 -15 5 -18 10 -4 6 -11 8 -16 5 -5 -4 -9 -1 -9 4 0 15 13
14 36 -4z m488 4 c-4 -7 -6 -43 -5 -81 1 -47 -1 -68 -8 -63 -6 3 -11 15 -11
26 0 10 -4 19 -10 19 -17 0 -11 51 11 81 19 28 38 42 23 18z m-2477 -45 c-16
-9 -31 -13 -34 -10 -3 3 5 10 18 15 37 15 47 12 16 -5z m206 -15 c18 -1 16 -2
-7 -9 -36 -11 -51 -3 -34 17 8 10 14 11 16 4 2 -6 13 -11 25 -12z m-63 -4 c0
-2 -10 -9 -22 -15 -22 -11 -22 -10 -4 4 21 17 26 19 26 11z m-640 -15 c0 -5
-12 -10 -27 -9 -25 0 -26 1 -8 9 27 12 35 12 35 0z m10 -30 c0 -5 -6 -10 -14
-10 -8 0 -18 5 -21 10 -3 6 3 10 14 10 12 0 21 -4 21 -10z m2387 -27 c-12 -12
-19 -13 -36 -3 -25 13 -18 34 9 25 10 -3 22 0 26 7 6 9 9 9 12 -1 2 -7 -2 -20
-11 -28z m-730 -18 c0 -20 -4 -19 -17 5 -8 15 -8 18 3 14 8 -3 14 -11 14 -19z
m-886 -8 c-6 -8 -8 -16 -6 -19 3 -3 -3 -8 -15 -11 -26 -7 -25 0 3 24 26 22 34
24 18 6z m859 -25 c0 -4 3 -18 6 -32 6 -21 4 -23 -7 -12 -19 17 -32 15 -25 -4
5 -13 4 -14 -7 -5 -11 8 -17 54 -8 56 13 4 41 2 41 -3z m-916 -50 c2 -4 -4 -8
-14 -8 -10 0 -16 4 -14 8 3 4 9 8 14 8 5 0 11 -4 14 -8z m26 -17 c0 -7 -59
-36 -82 -40 -11 -2 -29 -7 -41 -10 -12 -3 -7 2 11 12 17 9 32 20 32 25 0 4 6
5 13 2 7 -2 24 0 38 5 30 12 29 12 29 6z m-665 -74 c-3 -6 -16 -16 -28 -22
-21 -11 -21 -10 2 15 23 25 40 29 26 7z m435 9 c0 -5 -5 -10 -11 -10 -5 0 -7
5 -4 10 3 6 8 10 11 10 2 0 4 -4 4 -10z m-415 -70 c3 -6 -4 -10 -17 -10 -18 0
-20 2 -8 10 19 12 18 12 25 0z m-92 -27 c-7 -2 -19 -2 -25 0 -7 3 -2 5 12 5
14 0 19 -2 13 -5z m817 -51 c0 -5 -7 -9 -15 -9 -8 0 -12 4 -9 9 3 4 9 8 15 8
5 0 9 -4 9 -8z m780 -64 c0 -13 -23 -5 -28 10 -2 7 2 10 12 6 9 -3 16 -11 16
-16z m-204 -22 c1 -7 -4 -13 -12 -13 -7 0 -11 5 -8 11 3 6 0 4 -8 -4 -7 -8
-20 -16 -28 -18 -8 -1 -2 9 14 23 28 26 38 26 42 1z m99 -26 c-3 -5 -10 -10
-16 -10 -5 0 -9 5 -9 10 0 6 7 10 16 10 8 0 12 -4 9 -10z m155 -60 c0 -5 -5
-10 -11 -10 -5 0 -7 5 -4 10 3 6 8 10 11 10 2 0 4 -4 4 -10z m-763 -30 c1 -16
-1 -17 -12 -7 -11 10 -8 19 10 27 1 0 1 -9 2 -20z m888 1 c3 -5 -4 -13 -16
-16 -23 -8 -34 -1 -24 14 8 13 32 14 40 2z m-410 -39 c-3 -3 -11 0 -18 7 -9
10 -8 11 6 5 10 -3 15 -9 12 -12z m-415 -6 c0 -2 -11 -11 -25 -20 -14 -9 -25
-12 -25 -6 0 6 10 15 23 20 27 11 27 11 27 6z m1567 -37 c-1 -14 -4 -15 -14
-7 -10 8 -20 8 -38 0 -16 -7 -26 -8 -30 -1 -4 5 -1 8 7 7 7 -2 12 2 11 8 -1 5
13 10 32 10 26 0 33 -4 32 -17z m-602 -66 c94 -1 88 0 80 -13 -4 -7 -14 -6
-28 1 -22 10 -22 10 -2 -6 11 -9 21 -20 21 -25 1 -6 2 -14 3 -19 2 -14 30 -21
37 -9 5 7 2 8 -6 3 -9 -6 -11 -4 -5 5 5 8 4 11 -1 7 -5 -3 -10 3 -10 14 0 10
4 19 7 19 8 0 24 -40 21 -52 -1 -5 2 -8 6 -8 5 0 7 -15 6 -32 -3 -30 -3 -31 5
-8 10 28 10 29 17 -22 4 -28 0 -47 -16 -74 -12 -19 -25 -33 -27 -30 -3 3 -13
-4 -22 -15 -9 -11 -23 -21 -31 -23 -8 -1 -25 -8 -38 -15 -22 -11 -103 -13
-145 -3 -10 3 -16 11 -13 18 5 12 -7 20 -17 12 -10 -9 -69 77 -74 106 -6 41 4
89 17 81 6 -3 7 1 3 11 -5 13 -2 15 15 10 11 -4 23 -2 27 3 3 7 0 8 -9 5 -9
-3 -16 -1 -16 5 0 7 22 22 50 35 27 13 46 27 42 31 -4 5 0 4 8 -1 8 -5 51 -10
95 -11z m625 2 c14 -16 10 -18 -14 -9 -9 3 -16 10 -16 15 0 14 16 11 30 -6z
m-340 -12 c0 -5 26 -7 58 -5 75 5 125 -16 147 -58 9 -18 12 -29 6 -25 -6 3
-15 -5 -21 -19 -9 -25 -1 -68 21 -109 6 -11 5 -33 -2 -62 -6 -25 -9 -66 -7
-90 3 -25 2 -42 -3 -39 -5 3 -9 -14 -9 -38 -1 -34 -3 -39 -11 -25 -6 9 -14 15
-20 12 -5 -4 -6 2 -2 11 4 11 3 15 -5 10 -7 -4 -15 9 -23 36 -6 23 -19 60 -29
83 -10 22 -21 49 -24 61 -4 11 -18 27 -33 35 l-26 14 43 7 c24 4 48 13 54 19
8 9 6 10 -9 5 -16 -6 -18 -5 -7 5 6 7 12 28 12 46 0 37 -35 68 -64 57 -10 -4
-25 1 -36 11 -20 18 -29 8 -10 -11 8 -8 6 -15 -4 -24 -13 -10 -17 -9 -22 3 -3
9 -1 24 5 35 5 10 7 28 4 40 -3 13 -1 22 6 22 6 0 11 -3 11 -7z m-53 -89 c-3
-3 -12 -4 -19 -1 -8 3 -5 6 6 6 11 1 17 -2 13 -5z m53 -116 c0 -5 -9 -4 -20 2
-11 6 -20 12 -20 14 0 2 9 2 20 -1 11 -3 20 -9 20 -15z m-449 -60 c5 1 9 -2 9
-8 0 -15 -7 -12 -40 12 -16 11 -26 26 -23 31 3 6 15 0 26 -14 11 -13 24 -23
28 -21z m449 -293 c-6 -7 -5 -17 3 -25 10 -12 9 -12 -4 -2 -13 10 -16 29 -10
62 1 3 5 -2 11 -10 5 -9 5 -19 0 -25z m423 -34 c-9 -11 -20 -18 -25 -15 -4 3
-8 0 -8 -6 0 -7 -5 -6 -14 2 -15 14 -2 30 20 21 6 -2 15 0 19 6 3 6 10 11 15
11 6 0 2 -9 -7 -19z m-128 -11 c16 -7 14 -8 -12 -7 -17 1 -29 5 -26 10 5 9 12
8 38 -3z m-567 -44 c-13 -14 -28 -12 -28 5 0 5 9 9 20 9 17 0 19 -2 8 -14z
m90 -20 c-24 -17 -23 -24 4 -28 22 -3 39 -28 18 -28 -6 0 -8 5 -4 13 5 8 2 8
-9 -2 -9 -7 -17 -10 -17 -6 0 4 -7 2 -15 -5 -8 -7 -15 -9 -15 -4 0 5 -4 2 -10
-6 -5 -8 -12 -11 -16 -7 -4 3 -1 13 6 22 11 13 8 14 -21 10 l-34 -5 33 11 c22
6 32 15 28 24 -4 13 7 17 59 23 6 1 2 -5 -7 -12z m-202 -18 c-6 -10 -18 -18
-26 -18 -12 1 -11 3 3 14 13 10 15 15 5 19 -7 3 -3 5 8 4 18 -1 20 -4 10 -19z
m73 -12 c9 -10 8 -15 -2 -19 -8 -3 -13 3 -13 14 0 23 0 23 15 5z m218 -21 c12
1 20 -2 17 -7 -8 -13 -61 -5 -61 9 0 8 5 9 11 4 6 -4 21 -7 33 -6z"/>
<path d="M3397 3283 c-10 -9 -9 -23 1 -23 5 0 9 7 9 15 0 17 -1 18 -10 8z"/>
<path d="M3311 3000 c0 -8 4 -22 9 -30 12 -18 12 -2 0 25 -6 13 -9 15 -9 5z"/>
<path d="M3176 2842 c-3 -5 1 -9 9 -9 8 0 12 4 9 9 -3 4 -7 8 -9 8 -2 0 -6 -4
-9 -8z"/>
<path d="M3255 2810 c-3 -5 -1 -10 4 -10 6 0 11 5 11 10 0 6 -2 10 -4 10 -3 0
-8 -4 -11 -10z"/>
<path d="M3138 2393 c6 -2 10 -8 8 -12 -3 -4 1 -8 9 -8 11 0 12 4 4 14 -6 7
-17 13 -23 12 -7 0 -6 -2 2 -6z"/>
<path d="M3128 2353 c6 -2 18 -2 25 0 6 3 1 5 -13 5 -14 0 -19 -2 -12 -5z"/>
<path d="M3088 2328 c5 -5 16 -8 23 -6 8 3 3 7 -10 11 -17 4 -21 3 -13 -5z"/>
<path d="M3080 2247 c0 -10 8 -17 18 -17 9 0 13 4 7 8 -5 4 -13 11 -17 16 -5
5 -8 2 -8 -7z"/>
<path d="M2875 2901 c-3 -5 -2 -12 3 -15 5 -3 9 1 9 9 0 17 -3 19 -12 6z"/>
<path d="M2385 2890 c-3 -5 1 -10 10 -10 9 0 13 5 10 10 -3 6 -8 10 -10 10 -2
0 -7 -4 -10 -10z"/>
<path d="M2269 2713 c-13 -16 -12 -17 4 -4 16 13 21 21 13 21 -2 0 -10 -8 -17
-17z"/>
<path d="M2431 2614 c0 -11 3 -14 6 -6 3 7 2 16 -1 19 -3 4 -6 -2 -5 -13z"/>
<path d="M2270 2599 c0 -5 5 -7 10 -4 6 3 10 8 10 11 0 2 -4 4 -10 4 -5 0 -10
-5 -10 -11z"/>
<path d="M2293 2570 c-9 -14 -9 -19 0 -23 17 -6 52 19 38 28 -6 3 -11 3 -11
-2 0 -4 -4 -3 -8 4 -6 9 -11 7 -19 -7z"/>
<path d="M680 2960 c-9 -6 -10 -10 -3 -10 6 0 15 5 18 10 8 12 4 12 -15 0z"/>
<path d="M2566 2298 c5 -7 0 -9 -14 -6 -19 5 -19 3 -9 -19 6 -14 16 -22 25
-18 8 3 12 0 9 -7 -2 -7 -10 -12 -16 -10 -7 1 -10 -2 -6 -8 3 -6 11 -8 16 -5
5 4 9 1 9 -5 0 -6 5 -8 11 -4 6 3 7 9 2 13 -5 3 -9 21 -8 38 0 18 -6 35 -13
38 -8 3 -10 0 -6 -7z"/>
<path d="M2463 2288 c-17 -21 -11 -44 11 -46 11 0 16 2 11 6 -16 12 -15 44 2
38 8 -3 11 -1 8 4 -8 14 -21 13 -32 -2z"/>
<path d="M2470 2219 c0 -5 5 -7 10 -4 6 3 10 8 10 11 0 2 -4 4 -10 4 -5 0 -10
-5 -10 -11z"/>
<path d="M2120 2040 c0 -5 5 -10 11 -10 5 0 7 5 4 10 -3 6 -8 10 -11 10 -2 0
-4 -4 -4 -10z"/>
<path d="M2150 1950 c-13 -8 -12 -10 3 -10 9 0 17 5 17 10 0 12 -1 12 -20 0z"/>
<path d="M2385 1310 c-4 -6 -11 -8 -16 -5 -16 10 -10 -2 9 -16 9 -7 14 -9 10
-5 -4 5 0 15 10 22 9 8 12 14 5 14 -6 0 -15 -5 -18 -10z"/>
<path d="M2450 1290 c0 -5 13 -8 30 -7 39 3 39 17 0 17 -16 0 -30 -4 -30 -10z"/>
<path d="M2335 1280 c28 -12 37 -12 30 0 -3 6 -16 10 -28 9 -21 0 -21 -1 -2
-9z"/>
<path d="M2571 1116 c-7 -8 -8 -17 -3 -20 6 -3 12 3 15 14 6 24 4 25 -12 6z"/>
<path d="M2485 1100 c10 -11 20 -20 23 -20 3 0 -3 9 -13 20 -10 11 -20 20 -23
20 -3 0 3 -9 13 -20z"/>
<path d="M2426 1093 c-6 -14 -5 -15 5 -6 7 7 10 15 7 18 -3 3 -9 -2 -12 -12z"/>
<path d="M2345 1080 c-3 -5 1 -10 10 -10 9 0 13 5 10 10 -3 6 -8 10 -10 10 -2
0 -7 -4 -10 -10z"/>
<path d="M2425 1040 l-40 -7 35 -1 c19 -1 42 3 50 8 16 11 14 11 -45 0z"/>
<path d="M2863 1114 c-10 -26 10 -87 30 -90 13 -2 17 5 17 26 0 60 -32 103
-47 64z"/>
<path d="M2932 1080 c0 -19 2 -27 5 -17 2 9 2 25 0 35 -3 9 -5 1 -5 -18z"/>
<path d="M2975 4511 c-3 -5 -1 -12 5 -16 5 -3 10 1 10 9 0 18 -6 21 -15 7z"/>
<path d="M1898 4273 c7 -3 16 -2 19 1 4 3 -2 6 -13 5 -11 0 -14 -3 -6 -6z"/>
<path d="M1790 4236 c0 -2 7 -7 16 -10 8 -3 12 -2 9 4 -6 10 -25 14 -25 6z"/>
<path d="M1340 3940 c-11 -8 -7 -9 15 -4 37 8 45 14 19 14 -10 0 -26 -5 -34
-10z"/>
<path d="M1368 3923 c7 -3 16 -2 19 1 4 3 -2 6 -13 5 -11 0 -14 -3 -6 -6z"/>
<path d="M744 3438 c-3 -4 5 -5 17 -3 30 6 36 14 9 12 -12 -1 -24 -5 -26 -9z"/>
<path d="M875 3320 c-13 -6 -15 -9 -5 -9 8 0 22 4 30 9 18 12 2 12 -25 0z"/>
<path d="M3703 3030 c0 -36 2 -50 4 -32 2 17 2 47 0 65 -2 17 -4 3 -4 -33z"/>
<path d="M3681 2884 c0 -11 3 -14 6 -6 3 7 2 16 -1 19 -3 4 -6 -2 -5 -13z"/>
<path d="M3671 2824 c0 -11 3 -14 6 -6 3 7 2 16 -1 19 -3 4 -6 -2 -5 -13z"/>
<path d="M3672 2670 c0 -14 2 -19 5 -12 2 6 2 18 0 25 -3 6 -5 1 -5 -13z"/>
<path d="M608 2203 c7 -3 16 -2 19 1 4 3 -2 6 -13 5 -11 0 -14 -3 -6 -6z"/>
<path d="M693 2193 c15 -2 39 -2 55 0 15 2 2 4 -28 4 -30 0 -43 -2 -27 -4z"/>
<path d="M843 2190 c1 -5 -7 -16 -18 -25 -18 -15 -18 -15 13 0 36 18 38 21 17
29 -8 3 -14 1 -12 -4z"/>
<path d="M846 2145 c-25 -19 -8 -19 35 0 31 13 32 14 9 14 -14 0 -34 -6 -44
-14z"/>
<path d="M903 2133 c9 -2 23 -2 30 0 6 3 -1 5 -18 5 -16 0 -22 -2 -12 -5z"/>
<path d="M1145 1970 c-3 -6 1 -7 9 -4 18 7 21 14 7 14 -6 0 -13 -4 -16 -10z"/>
<path d="M1010 1790 c-11 -7 -7 -10 18 -10 17 0 32 5 32 10 0 13 -30 13 -50 0z"/>
<path d="M1165 1720 c-19 -8 -19 -9 3 -9 12 -1 22 4 22 9 0 6 -1 10 -2 9 -2 0
-12 -4 -23 -9z"/>
<path d="M2082 1585 c4 -4 4 -13 -1 -19 -12 -16 -21 -57 -10 -50 5 3 9 0 9 -7
0 -7 8 -5 20 6 24 21 26 35 5 35 -8 0 -12 6 -9 14 3 8 -1 17 -8 22 -7 4 -10 4
-6 -1z"/>
<path d="M1342 1544 c6 -10 -17 -36 -25 -28 -9 9 -47 13 -42 3 4 -5 13 -9 21
-9 8 0 14 -7 14 -15 0 -12 -4 -13 -19 -5 -11 5 -26 10 -33 9 -7 0 -3 -4 10 -9
12 -5 21 -17 21 -27 -1 -17 -2 -17 -6 0 -2 9 -10 17 -18 17 -14 0 -29 -29 -20
-38 3 -3 5 1 5 8 0 7 2 11 5 8 8 -7 -5 -38 -16 -38 -5 0 -18 -9 -29 -20 -11
-11 -15 -20 -9 -20 5 0 8 -4 5 -9 -4 -5 0 -12 6 -15 7 -3 1 -4 -14 -2 -15 1
-25 -1 -22 -5 3 -5 0 -17 -5 -26 -9 -15 -10 -13 -11 12 -1 26 -2 27 -11 12 -7
-12 -7 -22 -1 -30 16 -20 18 -63 3 -81 -11 -13 -11 -16 0 -16 11 0 11 -2 -1
-10 -11 -8 -8 -9 13 -4 16 4 27 2 27 -5 0 -6 7 -8 15 -5 10 4 13 13 9 27 -5
17 -3 19 15 14 19 -4 20 -3 10 9 -10 13 -8 13 15 4 37 -14 45 -12 22 5 -11 8
-15 15 -8 15 6 0 9 9 7 20 -2 11 0 20 6 20 5 0 9 7 9 15 0 8 9 15 20 15 12 0
17 -5 14 -14 -3 -8 -1 -16 3 -19 5 -3 8 6 8 21 -1 15 3 33 8 40 6 8 5 12 -3
12 -14 0 -50 38 -50 52 0 4 8 8 18 8 14 0 15 -2 2 -10 -12 -8 -12 -10 -1 -10
23 0 40 33 34 65 -6 27 -5 29 10 16 15 -12 17 -11 17 3 0 9 -5 16 -11 16 -5 0
-8 4 -4 9 3 5 0 13 -6 17 -7 4 -10 3 -7 -2z m-2 -84 c0 -5 -4 -10 -10 -10 -5
0 -10 5 -10 10 0 6 5 10 10 10 6 0 10 -4 10 -10z m-145 -178 c-3 -3 -11 0 -18
7 -9 10 -8 11 6 5 10 -3 15 -9 12 -12z m5 -32 c0 -5 -5 -10 -11 -10 -5 0 -7 5
-4 10 3 6 8 10 11 10 2 0 4 -4 4 -10z"/>
<path d="M2035 1520 c3 -5 8 -10 11 -10 2 0 4 5 4 10 0 6 -5 10 -11 10 -5 0
-7 -4 -4 -10z"/>
<path d="M2142 1505 c-6 -8 -18 -12 -25 -9 -8 3 -20 -3 -27 -13 -12 -15 -12
-16 0 -5 17 14 34 16 25 2 -3 -5 1 -10 9 -10 9 0 16 6 16 13 0 9 3 8 9 -2 6
-9 9 -5 9 13 0 14 -1 26 -2 26 0 -1 -7 -7 -14 -15z"/>
<path d="M2050 1460 c-9 -6 -10 -10 -3 -10 6 0 15 5 18 10 8 12 4 12 -15 0z"/>
<path d="M1374 1437 c-2 -7 -1 -24 4 -38 9 -22 10 -20 10 14 0 38 -5 47 -14
24z"/>
<path d="M1828 1403 c7 -3 16 -2 19 1 4 3 -2 6 -13 5 -11 0 -14 -3 -6 -6z"/>
<path d="M1998 1383 c7 -3 16 -2 19 1 4 3 -2 6 -13 5 -11 0 -14 -3 -6 -6z"/>
<path d="M1296 1315 c-9 -26 -7 -32 5 -12 6 10 9 21 6 23 -2 3 -7 -2 -11 -11z"/>
<path d="M1106 1242 c-3 -5 1 -9 9 -9 8 0 12 4 9 9 -3 4 -7 8 -9 8 -2 0 -6 -4
-9 -8z"/>
<path d="M2176 1185 c4 -8 11 -15 16 -15 6 0 5 6 -2 15 -7 8 -14 15 -16 15 -2
0 -1 -7 2 -15z"/>
<path d="M3133 1148 c0 -13 1 -17 4 -10 3 6 11 12 19 12 8 0 14 5 14 10 0 6
-8 10 -18 10 -11 0 -18 -8 -19 -22z"/>
<path d="M3195 902 c-13 -14 -3 -21 16 -11 17 9 24 8 31 -2 8 -11 9 -11 5 1
-3 14 -41 23 -52 12z"/>
<path d="M3170 892 c0 -6 -8 -13 -17 -15 -16 -4 -16 -5 -1 -6 18 -1 34 16 24
26 -3 4 -6 1 -6 -5z"/>
<path d="M3275 890 c3 -5 8 -10 11 -10 2 0 4 5 4 10 0 6 -5 10 -11 10 -5 0 -7
-4 -4 -10z"/>
<path d="M3110 860 c0 -5 5 -10 10 -10 6 0 10 5 10 10 0 6 -4 10 -10 10 -5 0
-10 -4 -10 -10z"/>
<path d="M2341 816 c-10 -11 -9 -14 1 -12 14 2 23 15 15 22 -2 2 -10 -2 -16
-10z"/>
<path d="M2445 809 c-3 -4 2 -6 10 -5 21 3 28 13 10 13 -9 0 -18 -4 -20 -8z"/>
<path d="M2505 810 c-3 -5 3 -10 15 -10 12 0 18 5 15 10 -3 6 -10 10 -15 10
-5 0 -12 -4 -15 -10z"/>
<path d="M3190 780 c0 -5 5 -10 10 -10 6 0 10 5 10 10 0 6 -4 10 -10 10 -5 0
-10 -4 -10 -10z"/>
<path d="M2361 771 c-11 -7 -9 -10 9 -16 12 -4 25 -3 29 3 3 5 15 12 26 15 12
3 7 5 -15 6 -19 0 -41 -3 -49 -8z"/>
<path d="M2636 772 c-2 -4 -1 -14 3 -21 6 -9 11 -10 15 -2 4 6 2 11 -4 11 -6
0 -8 5 -5 10 3 6 4 10 1 10 -3 0 -7 -4 -10 -8z"/>
<path d="M2306 755 c-3 -9 0 -15 9 -15 9 0 12 6 9 15 -4 8 -7 15 -9 15 -2 0
-5 -7 -9 -15z"/>
<path d="M2467 756 c4 -5 -5 -6 -20 -2 -41 10 -39 -8 4 -26 21 -9 39 -13 39
-9 0 10 44 9 51 -2 4 -5 9 -4 13 2 4 6 2 11 -4 11 -6 0 -9 3 -7 8 3 4 0 12 -7
17 -14 12 -76 13 -69 1z"/>
<path d="M2088 673 c7 -3 16 -2 19 1 4 3 -2 6 -13 5 -11 0 -14 -3 -6 -6z"/>
</g>
</svg>
