<?xml version="1.0" standalone="no"?>
<!DOCTYPE svg PUBLIC "-//W3C//DTD SVG 20010904//EN"
 "http://www.w3.org/TR/2001/REC-SVG-20010904/DTD/svg10.dtd">
<svg version="1.0" xmlns="http://www.w3.org/2000/svg"
 width="512.000000pt" height="512.000000pt" viewBox="0 0 512.000000 512.000000"
 preserveAspectRatio="xMidYMid meet">
<metadata>
Created by potrace 1.11, written by Peter Selinger 2001-2013
</metadata>
<g transform="translate(0.000000,512.000000) scale(0.100000,-0.100000)"
fill="#000000" stroke="none">
<path d="M2245 4965 c-984 -139 -1766 -856 -1980 -1815 -138 -617 -14 -1287
332 -1803 153 -227 305 -391 534 -573 64 -51 119 -100 123 -109 5 -13 -8 -22
-54 -42 -37 -16 -60 -32 -60 -42 0 -11 -25 -25 -78 -44 -104 -36 -162 -79
-162 -118 0 -51 52 -86 195 -133 203 -66 522 -110 980 -137 226 -13 999 -6
1185 10 568 51 892 124 985 221 45 47 21 94 -78 148 -35 19 -43 20 -45 7 -2
-8 -10 -15 -17 -15 -8 0 -12 -6 -9 -13 10 -28 -108 -36 -352 -25 -126 6 -231
12 -233 14 -2 2 2 10 9 19 18 21 8 28 -24 15 -15 -5 -44 -9 -64 -9 -33 1 -31
2 18 12 50 10 52 11 25 17 -28 5 -29 6 -10 18 18 10 17 11 -13 12 -19 0 -35 6
-38 15 -4 8 -10 12 -15 9 -14 -8 -11 5 12 46 19 34 20 42 9 69 -7 17 -16 31
-20 31 -8 0 -90 -95 -90 -105 0 -3 9 -1 21 5 11 7 23 9 27 6 9 -10 -5 -18 -32
-20 -14 0 -26 -3 -26 -5 0 -2 17 -27 38 -55 71 -95 92 -125 92 -130 0 -3 -20
-6 -44 -6 -37 0 -47 4 -62 28 -9 15 -35 50 -56 79 l-38 52 -66 -19 c-74 -21
-242 -55 -321 -65 l-53 -7 15 -28 c20 -40 20 -40 -25 -40 -33 0 -43 5 -62 33
-28 40 -56 38 -65 -4 -5 -25 -10 -29 -38 -29 -28 0 -33 4 -38 29 l-6 28 -103
8 c-172 12 -202 22 -50 17 115 -4 146 -2 152 8 5 8 7 17 5 21 -3 3 -51 10
-107 14 -57 5 -114 9 -128 11 -14 1 -38 3 -53 3 -36 1 -27 17 15 25 48 9 50
10 91 34 21 12 35 26 32 32 -3 5 0 7 8 5 28 -11 154 142 223 270 l23 45 -22 1
c-21 0 -21 1 -2 9 30 13 159 12 172 -1 15 -15 47 -3 40 15 -3 8 2 16 14 19 15
4 19 2 15 -9 -6 -16 5 -19 20 -5 14 13 64 23 64 12 0 -5 -16 -15 -35 -21 -50
-16 -43 -30 14 -30 44 0 61 -10 61 -36 0 -2 -21 -13 -47 -24 -154 -66 -165
-79 -167 -204 l-1 -80 34 -23 c19 -13 27 -23 19 -23 -8 0 -26 9 -40 19 -24 19
-24 19 -48 -6 -22 -23 -23 -26 -8 -51 14 -23 22 -26 55 -23 64 5 233 37 321
61 l82 22 -30 41 c-24 32 -30 51 -30 89 0 31 4 49 13 50 68 8 67 9 67 -50 l0
-54 46 56 c39 47 51 56 80 56 18 0 35 4 38 9 3 4 -5 6 -17 4 -18 -3 -29 6 -56
48 -27 41 -31 53 -20 61 11 8 11 9 -2 5 -17 -5 -119 138 -122 172 0 11 -4 18
-7 16 -6 -4 -70 88 -70 99 0 3 5 6 10 6 13 0 51 -61 44 -71 -2 -4 1 -11 7 -15
9 -5 10 3 6 30 -4 27 -3 35 6 30 8 -5 8 -3 0 7 -19 19 -16 40 4 32 11 -4 14
-3 9 6 -5 7 -14 10 -22 7 -7 -3 -18 3 -23 12 -10 16 -10 16 -11 0 0 -9 5 -20
10 -23 6 -3 10 -12 10 -18 0 -7 -7 -3 -15 7 -8 11 -24 20 -35 21 -11 1 -23 5
-27 10 -5 4 2 5 15 2 12 -3 22 -2 21 1 0 4 -35 59 -77 122 -49 72 -87 120
-105 128 -29 14 -36 24 -199 282 -92 146 -96 156 -83 177 21 31 19 39 -5 18
-11 -10 -20 -26 -20 -35 0 -10 -6 -23 -14 -29 -12 -10 -17 -8 -28 11 -7 13
-18 32 -25 43 -6 11 -19 35 -28 53 -10 17 -22 32 -28 32 -6 0 -7 3 -4 6 4 4
-9 28 -27 53 -18 25 -41 62 -51 81 -10 18 -24 40 -31 48 -8 7 -14 29 -14 48 0
19 -5 34 -11 34 -8 0 -8 5 1 15 10 12 48 15 219 15 113 0 200 4 193 8 -7 5
-10 16 -6 25 5 14 8 15 21 2 8 -8 11 -19 8 -25 -5 -9 6 -14 26 -12 3 1 4 -22
1 -51 -4 -42 -14 -65 -51 -117 -57 -79 -104 -160 -98 -166 6 -6 70 83 97 135
11 23 27 41 34 41 9 0 12 7 9 19 -10 38 15 29 45 -17 17 -26 74 -105 127 -177
54 -71 99 -135 102 -142 3 -6 11 -9 19 -6 22 8 17 23 -8 24 -18 0 -16 3 12 14
25 10 29 14 14 14 -11 1 -29 7 -40 15 -18 14 -17 15 14 14 39 -1 49 7 32 27
-10 12 -10 15 5 15 9 0 19 9 22 19 4 16 13 19 46 18 27 -1 41 2 40 9 -1 7 7
20 17 29 11 10 20 23 20 29 1 6 14 27 30 46 34 39 37 50 13 50 -11 1 -4 7 15
15 30 13 47 30 20 20 -7 -3 -26 -1 -43 4 l-30 9 34 1 c19 1 42 8 52 17 16 15
16 18 3 31 -13 14 -13 18 8 41 13 14 17 22 11 18 -21 -12 -15 29 7 49 27 25
26 30 -17 47 l-38 15 39 0 c43 1 56 14 50 50 -3 16 0 23 11 23 13 0 14 4 5 20
-6 11 -8 20 -4 20 3 0 1 7 -6 15 -11 13 -8 15 13 15 39 0 41 17 4 24 -24 5
-28 9 -17 16 8 5 18 6 22 4 14 -9 30 47 17 62 -8 10 -8 14 0 14 16 0 14 36 -4
54 -18 17 -20 30 -3 20 8 -5 9 -2 5 10 -5 12 0 19 16 26 19 7 16 9 -18 11 -22
1 -32 3 -22 6 10 3 16 11 14 18 -3 7 0 18 6 24 9 9 8 11 -4 6 -17 -6 -20 19
-5 43 5 9 -3 12 -28 12 -20 0 -36 4 -36 9 0 4 10 6 23 4 14 -3 29 2 36 11 11
13 11 16 -3 16 -9 0 -16 5 -16 10 0 6 7 10 15 10 8 0 15 7 15 15 0 9 -6 15
-13 13 -7 -2 -13 1 -14 6 -1 5 -7 13 -15 18 -10 7 -10 9 2 7 34 -3 42 1 37 21
-3 13 0 20 10 20 12 0 12 2 -1 16 -13 12 -13 18 -3 29 6 7 16 10 21 7 5 -3 6
0 2 6 -4 7 -14 12 -22 12 -17 0 -17 0 1 41 8 19 14 28 15 21 0 -9 4 -10 18 -1
15 9 36 2 118 -38 122 -62 153 -71 230 -75 60 -3 94 12 94 41 0 6 3 10 8 10
22 -4 41 3 46 16 4 12 0 14 -19 9 -19 -5 -25 -2 -25 10 0 9 5 16 12 16 6 0 9
3 5 6 -3 3 -20 -1 -38 -10 -30 -15 -31 -15 -17 1 19 23 12 53 -12 53 -11 0
-24 -8 -30 -17 -10 -15 -10 -14 -6 8 5 21 1 28 -20 38 -14 6 -22 16 -19 21 3
6 -1 7 -9 4 -9 -3 -16 -1 -16 5 0 6 -6 11 -14 11 -8 0 -24 13 -37 30 -13 16
-30 30 -36 30 -7 0 -13 6 -13 13 0 7 -9 18 -19 24 -10 7 -27 36 -36 65 -9 29
-24 73 -33 98 l-16 45 -8 -30 c-4 -19 -6 -5 -4 40 2 39 11 89 21 113 17 41 18
42 66 42 28 0 49 5 49 11 0 6 9 8 20 4 19 -6 73 -7 117 -2 12 1 29 11 38 22
12 14 15 15 12 4 -4 -13 2 -16 31 -14 21 1 45 5 54 9 9 4 22 5 27 2 6 -4 17 4
26 18 l16 25 21 -21 c16 -16 22 -18 29 -7 12 20 51 20 66 0 47 -60 149 -221
191 -301 147 -275 232 -623 232 -944 0 -136 -9 -142 -50 -31 -21 58 -25 102
-16 175 l4 35 -13 -30 c-24 -52 -18 -113 22 -205 19 -47 38 -100 41 -119 4
-31 -21 -212 -36 -251 -3 -8 -4 -18 -4 -22 3 -13 -15 -9 -27 5 -6 8 -28 14
-48 15 -21 0 -98 7 -171 13 -142 14 -151 18 -157 74 -1 11 -3 24 -4 28 0 4
-11 -4 -24 -18 -15 -18 -28 -24 -40 -20 -17 7 -19 16 -22 105 -3 89 -4 96 -15
80 -5 -8 -10 -40 -10 -70 -1 -42 -6 -62 -24 -84 -19 -23 -27 -26 -37 -17 -8 6
-22 18 -33 25 -16 11 -17 16 -6 37 12 22 12 23 -3 10 -15 -12 -17 -11 -17 12
0 19 -4 25 -14 21 -11 -4 -13 0 -9 18 6 21 5 22 -13 8 -10 -7 -24 -20 -31 -28
-9 -11 -15 -11 -33 0 -18 11 -20 19 -15 58 3 25 8 52 11 61 3 10 -5 20 -20 27
-16 7 -24 19 -23 32 1 21 12 26 22 10 6 -10 35 -3 33 8 0 4 0 21 2 37 1 26 3
27 9 10 8 -19 8 -19 15 3 8 24 -12 122 -25 122 -4 0 -11 -20 -15 -45 -3 -25
-11 -44 -17 -42 -5 1 -18 28 -28 58 l-18 54 -2 -40 c-1 -40 -15 -109 -18 -90
-1 6 -10 21 -21 35 l-21 25 7 -30 c3 -16 12 -48 19 -70 19 -55 16 -70 -12 -71
-28 -2 -44 -15 -25 -21 28 -10 9 -21 -30 -16 -42 4 -43 4 -18 -11 14 -8 19
-15 13 -16 -7 0 -13 -7 -13 -16 0 -8 -5 -12 -10 -9 -6 4 -8 10 -5 15 3 5 0 12
-6 16 -7 4 -9 3 -6 -3 8 -12 -14 -23 -46 -23 -13 -1 -4 -7 23 -17 25 -8 52
-22 61 -29 15 -13 17 -11 24 23 7 40 27 68 59 85 16 9 18 8 12 -8 -5 -14 -4
-16 4 -8 19 19 56 -22 39 -42 -7 -8 -18 -13 -25 -10 -7 3 -16 0 -20 -6 -4 -7
-9 -6 -14 2 -5 9 -9 9 -14 1 -4 -6 -2 -11 5 -11 8 0 10 -12 5 -40 -5 -31 -3
-42 9 -46 20 -8 20 -54 0 -54 -9 0 -18 12 -21 30 -6 29 -24 43 -24 18 0 -6 -8
-20 -17 -31 -13 -14 -18 -37 -19 -82 0 -37 -6 -71 -14 -80 -11 -14 -11 -19 4
-33 16 -16 17 -16 10 2 -5 13 -4 17 4 12 7 -4 10 -2 7 6 -2 7 12 23 32 36 30
19 34 20 28 5 -4 -10 -10 -26 -12 -36 -3 -9 -10 -17 -17 -17 -6 0 -17 -9 -23
-20 -16 -24 -6 -31 50 -35 l42 -3 0 -48 c0 -43 -2 -48 -27 -55 -16 -4 -30 -3
-34 2 -9 15 -24 10 -18 -6 4 -9 -19 -1 -63 21 -62 32 -72 34 -96 23 -19 -9
-30 -24 -38 -53 -14 -50 -5 -157 16 -199 l15 -31 -26 25 c-18 16 -28 20 -31
11 -3 -6 -9 -10 -14 -6 -5 3 -9 0 -9 -5 0 -6 4 -11 10 -11 8 0 -5 -40 -31 -92
-5 -10 -4 -18 3 -20 6 -2 9 -12 5 -21 -4 -10 -6 -20 -6 -24 1 -9 -42 -25 -49
-18 -13 12 -3 73 18 112 30 58 15 82 -27 44 -12 -11 -23 -18 -25 -15 -7 6 -32
-26 -46 -58 -6 -15 -7 -30 -2 -33 4 -3 10 0 12 7 3 8 7 6 11 -5 3 -9 2 -17 -4
-17 -6 0 -7 -5 -4 -10 3 -6 -2 -10 -11 -10 -16 0 -15 -2 2 -22 10 -12 14 -18
7 -15 -12 8 -61 -78 -51 -89 4 -3 20 2 36 10 17 9 45 17 63 18 31 3 37 -3 138
-139 58 -78 129 -172 156 -209 28 -36 57 -76 65 -88 8 -11 25 -32 37 -46 28
-31 29 -44 2 -71 -29 -29 -18 -34 28 -11 21 11 44 17 50 15 17 -6 119 73 222
172 269 257 479 622 571 994 31 122 59 295 62 377 l1 49 4 -42 c6 -66 -24
-270 -61 -415 -75 -289 -203 -543 -397 -789 -67 -84 -305 -323 -354 -355 -14
-9 -25 -20 -25 -26 0 -5 15 -31 33 -58 27 -40 35 -47 51 -38 16 9 17 8 6 -11
-6 -12 -7 -28 -3 -35 17 -31 293 217 433 389 272 337 435 706 506 1150 25 152
25 504 0 665 -61 398 -213 765 -450 1080 -86 115 -282 319 -391 407 -314 254
-681 420 -1085 494 -151 27 -553 35 -705 14z m585 -73 c25 -4 -72 -7 -215 -7
-289 0 -375 -10 -610 -70 -439 -112 -845 -365 -1142 -710 -306 -355 -490 -776
-548 -1252 -7 -60 -13 -90 -14 -68 0 22 6 87 14 145 100 744 556 1384 1229
1726 275 141 577 225 886 248 68 5 339 -3 400 -12z m-84 -223 c304 -29 617
-130 873 -281 72 -43 89 -57 75 -62 -11 -3 -33 -2 -49 2 -26 7 -91 8 -120 2
-22 -5 -34 1 -29 13 2 7 -2 21 -11 32 -12 16 -14 17 -9 3 3 -10 1 -18 -4 -18
-6 0 -14 9 -17 21 -4 11 -9 18 -12 15 -4 -3 -13 0 -21 7 -13 9 -14 9 -8 0 10
-18 -4 -16 -28 4 -18 15 -18 14 2 -8 35 -40 26 -42 -24 -4 -27 21 -57 35 -74
35 -15 0 -42 3 -60 7 -25 5 -31 3 -25 -7 6 -9 0 -11 -23 -5 -47 10 -192 13
-192 3 0 -4 -21 -8 -47 -8 -41 -1 -45 -2 -28 -12 11 -6 44 -13 73 -15 94 -7
96 -18 3 -19 -57 0 -94 -4 -104 -13 -22 -17 -122 -40 -180 -41 -63 0 -143 -20
-126 -31 10 -6 9 -13 -6 -30 -11 -12 -15 -19 -8 -16 6 4 15 2 19 -5 4 -7 4
-10 -1 -6 -4 4 -13 4 -19 -1 -6 -5 -29 -14 -51 -21 -47 -15 -122 -52 -150 -74
-11 -9 18 0 65 19 46 19 87 35 90 35 3 0 -13 -16 -35 -35 l-40 -34 65 24 c36
13 89 35 118 50 30 15 55 25 58 23 2 -3 -78 -46 -179 -97 -100 -51 -173 -89
-162 -86 11 4 38 9 60 12 22 3 53 12 69 20 18 10 26 11 21 3 -5 -9 -2 -10 12
-6 13 4 20 2 20 -8 0 -9 -3 -13 -7 -11 -4 2 -7 -2 -7 -9 0 -8 9 -11 24 -8 47
9 21 -19 -67 -69 -93 -55 -110 -72 -44 -44 21 8 44 13 51 10 8 -2 12 -1 9 3
-3 5 1 9 9 9 19 0 19 -6 -2 -31 -10 -11 1 -5 25 13 24 18 46 31 49 28 12 -13
-7 -35 -48 -57 -41 -21 -97 -70 -81 -70 5 0 13 5 20 12 16 16 16 -4 0 -22 -7
-7 2 -3 19 9 54 37 58 14 8 -44 -57 -68 -58 -79 0 -26 46 43 72 56 40 21 -18
-20 -18 -21 0 -14 17 7 17 5 -3 -24 -13 -17 -27 -34 -32 -37 -6 -4 -10 -11
-10 -17 0 -7 4 -7 13 1 8 6 18 7 23 3 5 -4 6 -3 2 2 -4 5 -3 15 3 23 17 19 31
16 19 -4 -16 -28 -32 -76 -36 -103 -3 -25 -3 -25 22 5 l26 30 -25 -50 c-13
-27 -27 -61 -31 -75 -7 -24 -6 -24 9 3 9 15 17 27 19 27 8 0 -1 -45 -12 -67
-18 -33 -14 -38 10 -17 21 19 21 19 14 -1 -9 -22 -18 -117 -10 -97 10 22 24
13 24 -15 0 -26 3 -24 31 22 30 49 30 49 24 15 -19 -101 -12 -150 15 -99 7 11
14 18 18 15 3 -3 -5 -17 -18 -31 -23 -25 -18 -33 10 -15 9 6 17 5 21 -2 6 -9
12 -8 23 2 14 11 16 10 10 -4 -4 -10 0 -18 10 -22 9 -3 16 -12 16 -20 0 -20
17 -17 29 4 6 9 11 14 11 9 1 -24 -188 -357 -207 -364 -8 -3 -23 -23 -33 -44
-22 -43 -25 -53 -10 -44 6 3 7 -1 4 -9 -3 -9 -10 -14 -15 -11 -4 3 -13 -4 -19
-15 -6 -11 -18 -19 -28 -19 -13 1 -14 2 -2 6 8 2 25 26 36 52 l21 48 -48 12
c-26 7 -49 17 -51 23 -2 6 -21 3 -48 -7 -94 -35 -96 -34 -164 39 -53 57 -67
66 -97 66 -19 0 -43 -6 -54 -14 -11 -7 -31 -17 -43 -21 -22 -6 -23 -5 -12 14
6 12 8 25 5 30 -3 5 4 12 15 16 11 3 20 10 20 15 0 5 8 11 18 14 9 2 -4 3 -30
1 -44 -3 -85 -25 -71 -39 4 -3 1 -6 -5 -6 -7 0 -12 7 -12 16 0 10 -6 14 -15
10 -8 -3 -15 -1 -15 5 0 6 -6 9 -12 6 -7 -2 -26 2 -41 10 -33 16 -51 8 -25
-11 23 -17 15 -24 -19 -18 -27 4 -76 52 -53 52 5 0 10 -4 10 -10 0 -16 36 -12
51 6 17 21 16 52 -4 91 -23 43 -21 51 3 23 11 -13 20 -27 20 -32 0 -5 3 -7 8
-4 4 2 15 -2 25 -9 17 -12 17 -14 -5 -29 -18 -13 -19 -16 -5 -16 9 0 17 -5 17
-11 0 -6 -7 -9 -15 -6 -8 4 -17 2 -20 -3 -6 -10 0 -12 46 -14 17 -1 25 3 22
10 -2 7 3 11 14 11 10 -1 17 3 16 10 -2 8 4 10 15 6 14 -5 15 -3 5 7 -15 16
-46 23 -37 8 6 -10 -12 -28 -30 -28 -4 0 -5 15 -2 34 5 24 2 37 -9 46 -22 18
-18 33 8 27 22 -6 22 -6 2 9 -12 9 -31 13 -47 10 -16 -3 -31 0 -38 9 -7 8 -9
15 -6 15 4 0 -1 14 -11 30 -9 17 -20 30 -23 30 -3 0 -11 -19 -17 -43 -12 -42
-87 -147 -106 -147 -10 0 -57 47 -57 56 0 14 28 29 52 29 26 0 26 -1 12 -23
-25 -39 -5 -40 30 -2 26 29 39 60 66 160 58 218 58 225 -14 288 -32 28 -35 33
-25 61 12 35 59 72 59 46 0 -9 -7 -18 -15 -21 -26 -10 -16 -40 27 -78 l41 -37
24 25 c13 14 27 26 30 26 4 0 -5 -13 -20 -28 -28 -29 -33 -42 -18 -42 6 0 22
16 37 36 22 29 25 37 14 44 -9 5 -20 4 -29 -3 -11 -10 -13 -8 -7 11 6 17 4 21
-8 16 -9 -3 -16 -1 -16 5 0 6 -7 11 -15 11 -11 0 -15 11 -15 36 0 25 -7 41
-22 53 -12 10 -18 23 -14 29 11 19 26 14 36 -10 5 -14 9 -17 9 -8 1 9 -5 22
-11 28 -18 18 6 32 55 32 26 0 37 5 38 15 5 86 4 88 -30 90 -19 2 -42 12 -53
23 -19 19 -20 24 -8 73 8 30 24 64 38 78 21 21 23 27 10 29 -20 4 -31 44 -15
54 9 6 9 8 -2 8 -9 0 -11 8 -7 24 4 15 1 27 -7 30 -6 3 -1 3 13 0 20 -5 22 -4
13 6 -7 8 -8 19 -3 29 5 9 11 24 14 34 4 11 11 15 17 11 8 -5 9 -3 4 6 -18 30
-21 150 -5 210 10 36 15 40 73 59 255 83 556 116 823 90z m-906 -136 c-1 -21
-38 -104 -39 -86 -1 6 -9 9 -18 6 -13 -3 -18 -15 -20 -46 -1 -22 -7 -46 -15
-51 -7 -6 -14 -26 -15 -43 -1 -18 -8 -43 -15 -55 -6 -13 -11 -34 -9 -47 5 -41
-32 -191 -47 -191 -9 0 -11 9 -6 35 8 43 -15 49 -36 9 -11 -20 -12 -27 -1 -33
10 -6 9 -11 -3 -23 -9 -10 -13 -24 -9 -38 4 -15 2 -21 -4 -17 -7 5 -9 0 -6
-12 3 -10 0 -22 -5 -25 -6 -3 -8 -15 -5 -26 3 -13 -1 -22 -12 -26 -12 -5 -13
-9 -4 -14 7 -5 9 -15 4 -26 -8 -19 -11 -29 -13 -52 -1 -7 -7 -10 -14 -6 -7 4
-8 3 -4 -4 9 -15 43 -15 48 -1 2 7 4 -37 3 -97 0 -90 -4 -117 -22 -156 -20
-45 -23 -47 -47 -38 -14 5 -26 7 -26 4 0 -3 -12 8 -26 25 -29 35 -47 32 -38
-4 8 -34 -2 -48 -27 -34 -16 8 -25 7 -39 -6 -12 -11 -20 -13 -25 -5 -3 5 -10
8 -14 5 -5 -2 -17 2 -27 10 -10 8 -25 15 -32 15 -20 0 -44 28 -36 42 5 8 2 9
-11 4 -17 -6 -34 7 -35 27 0 12 45 8 59 -5 10 -11 11 -9 5 5 -6 17 -2 18 57
11 51 -5 69 -12 87 -33 13 -14 21 -21 18 -14 -4 6 0 13 6 16 15 5 -136 153
-166 163 -35 12 -50 -48 -17 -66 26 -13 34 -13 25 3 -5 7 0 6 11 -3 17 -14 15
-16 -26 -25 -24 -5 -49 -14 -56 -18 -8 -5 -18 2 -29 18 -10 15 -35 33 -56 42
-21 9 -37 17 -35 20 2 2 16 -1 31 -6 21 -9 26 -8 26 4 0 8 5 15 11 15 6 0 8 8
4 19 -4 14 1 21 25 29 35 13 39 29 8 34 -30 4 -72 66 -57 84 8 10 8 23 0 47
-14 40 -5 71 17 62 8 -3 19 0 24 7 6 10 10 10 17 -2 9 -12 11 -12 17 3 3 9 10
14 15 11 5 -3 9 0 9 5 0 6 -16 17 -35 25 -20 9 -33 20 -31 28 3 7 7 26 11 41
8 39 62 63 88 40 22 -20 23 -83 1 -125 -15 -30 -15 -32 2 -45 10 -7 24 -11 31
-9 19 8 17 -48 -3 -85 -20 -41 -12 -47 15 -12 11 15 25 33 31 40 5 7 10 17 10
22 0 6 8 14 18 20 16 9 16 10 0 16 -10 4 -18 11 -18 17 0 5 5 6 10 3 6 -3 10
-1 10 4 0 6 -4 11 -9 11 -5 0 -7 17 -4 38 6 43 -33 151 -68 188 l-20 22 87 65
c101 76 267 172 391 227 103 45 103 45 103 23z m-53 -135 c-3 -8 -6 -5 -6 6
-1 11 2 17 5 13 3 -3 4 -12 1 -19z m18 -38 c-3 -5 -11 -10 -16 -10 -6 0 -7 5
-4 10 3 6 11 10 16 10 6 0 7 -4 4 -10z m822 -116 c-3 -3 -12 -4 -19 -1 -8 3
-5 6 6 6 11 1 17 -2 13 -5z m1163 -38 c0 -3 -4 -8 -10 -11 -5 -3 -10 -1 -10 4
0 6 5 11 10 11 6 0 10 -2 10 -4z m-495 -36 c-5 -8 -11 -8 -17 -2 -6 6 -7 16
-3 22 5 8 11 8 17 2 6 -6 7 -16 3 -22z m-35 5 c0 -8 -4 -15 -10 -15 -5 0 -10
7 -10 15 0 8 5 15 10 15 6 0 10 -7 10 -15z m640 11 c0 -3 -4 -8 -10 -11 -5 -3
-10 -1 -10 4 0 6 5 11 10 11 6 0 10 -2 10 -4z m-1010 -46 c0 -11 -4 -20 -10
-20 -5 0 -10 9 -10 20 0 11 5 20 10 20 6 0 10 -9 10 -20z m560 -12 c0 -4 -5
-10 -10 -13 -6 -4 -8 -10 -5 -15 9 -15 -23 -19 -42 -4 -16 12 -16 13 0 8 12
-4 17 -1 17 13 0 12 7 19 20 19 11 0 20 -4 20 -8z m220 -2 c0 -3 -4 -8 -10
-11 -5 -3 -10 -1 -10 4 0 6 5 11 10 11 6 0 10 -2 10 -4z m233 -16 c-3 -12 -8
-19 -11 -16 -5 6 5 36 12 36 2 0 2 -9 -1 -20z m-335 -19 c-7 -12 -16 -21 -21
-21 -4 0 0 11 9 25 20 30 31 26 12 -4z m383 2 c-12 -20 -14 -14 -5 12 4 9 9
14 11 11 3 -2 0 -13 -6 -23z m-571 -29 c0 -15 -23 -44 -34 -44 -12 0 -6 28 9
40 8 7 12 17 8 23 -3 6 -1 7 5 3 7 -4 12 -14 12 -22z m360 -4 c0 -5 -7 -10
-16 -10 -8 0 -12 5 -9 10 3 6 10 10 16 10 5 0 9 -4 9 -10z m161 -33 c-8 -8
-11 -5 -11 9 0 27 14 41 18 19 2 -9 -1 -22 -7 -28z m-1071 13 c0 -5 -5 -10
-11 -10 -5 0 -7 5 -4 10 3 6 8 10 11 10 2 0 4 -4 4 -10z m129 -40 c11 0 12 -3
4 -11 -17 -17 -52 9 -45 35 5 20 6 20 15 -2 6 -12 17 -22 26 -22z m51 20 c0
-5 -4 -10 -10 -10 -5 0 -10 5 -10 10 0 6 5 10 10 10 6 0 10 -4 10 -10z m313
-7 c-5 -12 -3 -14 8 -8 8 4 -2 -8 -20 -28 -19 -21 -41 -37 -48 -37 -15 0 -17
16 -3 25 6 4 9 14 8 22 -2 9 3 18 11 21 9 3 11 0 6 -9 -4 -8 3 -4 16 9 28 26
30 27 22 5z m-2042 -16 c-10 -9 -11 -8 -5 6 3 10 9 15 12 12 3 -3 0 -11 -7
-18z m1516 1 c-3 -8 -6 -5 -6 6 -1 11 2 17 5 13 3 -3 4 -12 1 -19z m-1134 -15
c8 -14 -28 -136 -42 -141 -11 -4 -12 4 -7 34 18 97 34 133 49 107z m1374 -8
c0 -8 -4 -12 -9 -9 -4 3 -8 9 -8 15 0 5 4 9 8 9 5 0 9 -7 9 -15z m103 5 c0 -5
-7 -10 -15 -10 -8 0 -15 5 -15 10 0 6 7 10 15 10 8 0 15 -4 15 -10z m110 6 c0
-2 -7 -7 -16 -10 -8 -3 -12 -2 -9 4 6 10 25 14 25 6z m-52 -18 c-2 -6 -10 -14
-16 -16 -7 -2 -10 2 -6 12 7 18 28 22 22 4z m-118 -8 c0 -5 -5 -10 -11 -10 -5
0 -7 5 -4 10 3 6 8 10 11 10 2 0 4 -4 4 -10z m159 -33 c0 -9 -2 -8 -6 1 -2 6
-10 9 -15 6 -7 -4 -8 -2 -4 5 9 13 26 5 25 -12z m-1539 -13 c0 -8 -5 -12 -10
-9 -6 4 -8 11 -5 16 9 14 15 11 15 -7z m2434 1 c-4 -8 -8 -15 -10 -15 -2 0 -4
7 -4 15 0 8 4 15 10 15 5 0 7 -7 4 -15z m-84 -20 c0 -8 -4 -15 -10 -15 -5 0
-7 7 -4 15 4 8 8 15 10 15 2 0 4 -7 4 -15z m-3071 -24 c13 -16 30 -27 37 -24
6 2 18 -4 25 -15 8 -11 19 -19 24 -18 6 0 11 -28 13 -63 3 -57 1 -63 -12 -51
-9 7 -16 19 -16 27 0 10 -9 13 -27 11 -24 -3 -27 -8 -29 -40 0 -29 5 -41 22
-53 20 -13 51 -55 41 -55 -14 0 -187 182 -187 197 0 17 41 63 55 63 3 0 3 -11
-1 -24 -5 -22 -3 -25 20 -22 35 4 42 12 18 25 -23 12 -34 35 -26 56 9 21 16
19 43 -14z m821 14 c0 -8 -4 -15 -10 -15 -5 0 -7 7 -4 15 4 8 8 15 10 15 2 0
4 -7 4 -15z m2202 -7 c-7 -7 -12 -8 -12 -2 0 6 3 14 7 17 3 4 9 5 12 2 2 -3
-1 -11 -7 -17z m-40 -10 c-7 -7 -12 -8 -12 -2 0 6 3 14 7 17 3 4 9 5 12 2 2
-3 -1 -11 -7 -17z m-230 -10 c-7 -7 -12 -8 -12 -2 0 6 3 14 7 17 3 4 9 5 12 2
2 -3 -1 -11 -7 -17z m49 -1 c-10 -9 -11 -8 -5 6 3 10 9 15 12 12 3 -3 0 -11
-7 -18z m50 0 c-10 -9 -11 -8 -5 6 3 10 9 15 12 12 3 -3 0 -11 -7 -18z m-425
-98 c-9 -29 -16 -69 -17 -88 -1 -36 -1 -36 -9 -8 -6 21 -3 48 11 94 11 36 23
63 25 60 3 -3 -2 -29 -10 -58z m-1786 31 c0 -5 -7 -7 -15 -4 -8 4 -15 8 -15
10 0 2 7 4 15 4 8 0 15 -4 15 -10z m1594 -29 c-6 -6 -24 19 -24 34 1 6 7 1 15
-9 8 -11 12 -22 9 -25z m-1531 2 c-7 -2 -19 -2 -25 0 -7 3 -2 5 12 5 14 0 19
-2 13 -5z m1527 -48 c0 -30 -15 -33 -23 -5 -4 16 1 23 21 29 1 1 2 -10 2 -24z
m-2347 -17 l20 -27 -32 -31 c-44 -44 -39 -56 10 -21 33 24 47 29 77 24 45 -7
72 -29 72 -58 0 -40 -21 -56 -69 -52 -67 5 -85 -8 -104 -77 -23 -85 -32 -150
-19 -142 5 3 13 18 17 33 12 49 65 88 65 48 0 -8 -4 -15 -10 -15 -5 0 -10 -8
-10 -18 0 -9 -16 -35 -35 -57 -25 -29 -35 -35 -35 -22 0 9 -2 17 -4 17 -2 0
-11 3 -20 6 -13 5 -16 -1 -16 -25 0 -17 -8 -39 -18 -49 -20 -20 -62 -86 -62
-97 0 -4 19 -5 42 -2 29 4 51 1 69 -10 25 -15 28 -14 48 6 22 22 46 27 56 11
3 -5 0 -7 -8 -4 -8 3 -20 -2 -27 -11 -7 -9 -9 -15 -4 -14 5 1 16 -1 24 -4 8
-4 33 -13 55 -20 36 -13 62 -47 36 -47 -6 0 -11 6 -11 14 0 21 -79 45 -110 34
-24 -9 -24 -10 -6 -24 19 -14 19 -14 1 -28 -16 -12 -17 -16 -6 -30 12 -14 11
-16 -7 -16 -16 0 -24 9 -31 33 l-9 32 -7 -34 c-7 -27 -10 -30 -17 -16 -11 19
-2 65 12 65 18 0 11 29 -9 40 -38 20 -91 10 -72 -14 10 -14 2 -98 -10 -90 -5
3 -9 16 -9 29 0 13 -5 27 -12 31 -8 5 -9 -5 -5 -36 l5 -43 -21 21 c-22 23 -29
80 -12 117 7 17 6 18 -6 8 -8 -7 -20 -8 -28 -4 -10 7 -9 11 5 22 11 8 20 19
21 26 1 6 14 24 28 39 14 15 25 32 25 37 0 6 3 8 6 5 3 -3 -6 -29 -20 -57 -15
-28 -24 -51 -22 -51 10 0 45 72 66 136 13 38 31 87 40 109 10 22 21 64 24 93
6 45 4 52 -11 52 -13 0 -14 -3 -5 -12 17 -17 15 -28 -4 -21 -14 5 -14 3 -3
-15 9 -14 10 -27 3 -42 l-9 -21 -29 24 c-21 18 -26 30 -22 45 5 15 12 19 24
15 15 -6 15 -5 3 10 -12 15 -9 21 10 19 4 -1 5 7 2 17 -6 22 22 80 43 88 7 3
14 13 14 23 0 29 17 33 34 8 9 -12 16 -18 16 -13 0 6 -7 19 -15 29 -8 11 -15
24 -15 29 0 15 23 2 43 -25z m887 12 c0 -5 -4 -10 -10 -10 -5 0 -10 5 -10 10
0 6 5 10 10 10 6 0 10 -4 10 -10z m1427 -32 c-3 -8 -6 -5 -6 6 -1 11 2 17 5
13 3 -3 4 -12 1 -19z m-1414 -33 c-3 -9 -8 -14 -10 -11 -3 3 -2 9 2 15 9 16
15 13 8 -4z m-112 -118 c-13 -13 -15 31 -3 60 5 14 8 10 10 -16 2 -18 -1 -38
-7 -44z m1050 50 c-10 -9 -11 -8 -5 6 3 10 9 15 12 12 3 -3 0 -11 -7 -18z
m939 -41 c0 -12 -14 5 -31 39 -8 16 -6 15 10 -4 12 -13 21 -28 21 -35z m-230
22 c0 -6 -6 -5 -15 2 -8 7 -15 14 -15 16 0 2 7 1 15 -2 8 -4 15 -11 15 -16z
m151 -29 c10 -11 14 -28 12 -44 -6 -30 -23 -33 -23 -4 0 19 -2 20 -16 8 -15
-12 -16 -11 -9 10 6 19 2 28 -16 43 l-24 19 30 -7 c17 -3 37 -14 46 -25z
m-788 1 c-5 -19 -23 -29 -23 -12 0 7 20 32 26 32 1 0 0 -9 -3 -20z m57 16 c0
-2 -7 -7 -16 -10 -8 -3 -12 -2 -9 4 6 10 25 14 25 6z m604 -12 c3 -8 2 -12 -4
-9 -6 3 -10 10 -10 16 0 14 7 11 14 -7z m-1714 -4 c0 -5 -5 -10 -11 -10 -5 0
-7 5 -4 10 3 6 8 10 11 10 2 0 4 -4 4 -10z m1130 -4 c0 -2 -8 -10 -17 -17 -16
-13 -17 -12 -4 4 13 16 21 21 21 13z m-1110 -45 c-5 -11 -10 -28 -10 -38 0
-15 2 -16 10 -3 5 8 10 11 10 5 0 -5 -5 -17 -10 -25 -7 -11 -10 -11 -10 -2 0
7 -5 10 -11 6 -8 -4 -9 1 -4 17 3 13 9 32 11 42 3 9 10 17 15 17 6 0 6 -7 -1
-19z m1110 -1 c0 -5 -5 -10 -11 -10 -5 0 -7 5 -4 10 3 6 8 10 11 10 2 0 4 -4
4 -10z m750 -14 c0 -3 -4 -8 -10 -11 -5 -3 -10 -1 -10 4 0 6 5 11 10 11 6 0
10 -2 10 -4z m-710 -20 c0 -3 -4 -8 -10 -11 -5 -3 -10 -1 -10 4 0 6 5 11 10
11 6 0 10 -2 10 -4z m808 -76 c-7 -10 -14 -18 -15 -16 -6 6 9 36 18 36 5 0 4
-9 -3 -20z m38 -16 c-4 -9 -9 -15 -11 -12 -3 3 -3 13 1 22 4 9 9 15 11 12 3
-3 3 -13 -1 -22z m-2782 0 c3 -8 2 -12 -4 -9 -6 3 -10 10 -10 16 0 14 7 11 14
-7z m763 -6 c-3 -8 -6 -5 -6 6 -1 11 2 17 5 13 3 -3 4 -12 1 -19z m1243 13 c0
-5 -7 -11 -15 -15 -9 -3 -15 0 -15 9 0 8 7 15 15 15 8 0 15 -4 15 -9z m-1874
-61 c4 -26 3 -31 -5 -20 -6 8 -11 24 -11 36 0 11 -4 25 -10 32 -6 8 -4 7 5 -1
8 -7 17 -28 21 -47z m2682 40 c-7 -10 -14 -18 -15 -16 -6 6 9 36 18 36 5 0 4
-9 -3 -20z m102 -33 c0 -2 -10 -12 -21 -23 -22 -19 -22 -19 -8 4 12 19 29 30
29 19z m-2846 -32 c3 -8 2 -15 -3 -15 -5 0 -14 7 -21 15 -10 12 -10 15 3 15 8
0 17 -7 21 -15z m2086 -5 c0 -5 -5 -10 -11 -10 -5 0 -7 5 -4 10 3 6 8 10 11
10 2 0 4 -4 4 -10z m140 -10 c0 -5 -8 -10 -17 -10 -15 0 -16 2 -3 10 19 12 20
12 20 0z m680 6 c0 -3 -4 -8 -10 -11 -5 -3 -10 -1 -10 4 0 6 5 11 10 11 6 0
10 -2 10 -4z m-960 -26 c0 -5 -4 -10 -9 -10 -6 0 -13 5 -16 10 -3 6 1 10 9 10
9 0 16 -4 16 -10z m234 4 c9 -3 16 -14 16 -23 0 -14 -2 -14 -10 -1 -9 13 -11
13 -19 1 -8 -13 -12 -13 -26 -1 -16 13 -16 15 2 21 10 4 19 8 20 8 1 1 8 -2
17 -5z m646 -10 c0 -2 -7 -4 -15 -4 -8 0 -15 4 -15 10 0 5 7 7 15 4 8 -4 15
-8 15 -10z m-2705 -126 c-3 -8 1 -21 9 -28 9 -7 13 -17 10 -22 -7 -11 -34 36
-35 61 0 13 -2 12 -10 -4 -8 -17 -8 -15 -4 8 5 24 -7 38 -18 20 -2 -5 -3 -3
-1 2 1 6 -4 19 -12 30 -28 38 -13 33 26 -9 24 -26 38 -50 35 -58z m1725 82 c0
-5 -5 -10 -11 -10 -5 0 -7 5 -4 10 3 6 8 10 11 10 2 0 4 -4 4 -10z m336 -12
c4 -6 -2 -7 -17 -3 -35 10 -45 23 -15 18 15 -3 29 -10 32 -15z m-66 2 c0 -5
-2 -10 -4 -10 -3 0 -8 5 -11 10 -3 6 -1 10 4 10 6 0 11 -4 11 -10z m125 0 c8
-13 -5 -13 -25 0 -13 8 -13 10 2 10 9 0 20 -4 23 -10z m-351 -31 c-8 -13 -24
-1 -24 18 0 13 3 13 15 3 8 -7 12 -16 9 -21z m-1916 -37 c10 -13 12 -13 13 -1
0 8 4 4 10 -9 10 -26 2 -72 -12 -72 -5 0 -6 14 -2 30 4 23 2 30 -10 30 -8 0
-17 6 -19 12 -3 7 -13 13 -23 13 -10 0 -20 6 -23 13 -6 18 49 5 66 -16z m501
14 c7 -8 20 -12 30 -9 21 5 32 -8 54 -65 13 -36 13 -42 2 -32 -22 18 -18 6 10
-36 14 -20 25 -45 25 -56 0 -11 5 -16 10 -13 10 6 70 -43 70 -57 0 -9 -84 3
-88 13 -2 5 -10 9 -18 9 -8 0 -14 4 -14 9 0 5 -18 7 -40 5 -40 -4 -116 29
-105 46 3 4 -2 21 -10 36 -18 36 -5 54 41 54 18 0 36 5 39 10 5 8 -7 9 -37 4
-84 -12 -93 -11 -92 13 0 12 -3 20 -8 17 -4 -3 -8 4 -8 15 0 11 5 23 10 26 6
3 10 2 10 -4 0 -14 73 -1 85 15 12 18 20 18 34 0z m274 0 c4 -10 1 -13 -9 -9
-15 6 -19 23 -5 23 5 0 11 -7 14 -14z m1487 4 c13 -8 13 -10 -2 -10 -9 0 -20
5 -23 10 -8 13 5 13 25 0z m-442 -31 c-3 -8 -7 -3 -11 10 -4 17 -3 21 5 13 5
-5 8 -16 6 -23z m-2048 7 c0 -3 -4 -8 -10 -11 -5 -3 -10 -1 -10 4 0 6 5 11 10
11 6 0 10 -2 10 -4z m428 -36 c12 -19 30 -59 39 -89 l17 -56 6 35 c5 30 6 32
14 15 5 -11 11 -33 13 -48 4 -26 2 -28 -24 -25 -21 2 -29 9 -31 28 -7 53 -23
100 -34 97 -7 -1 -13 8 -14 21 -1 12 -10 32 -20 44 -14 15 -15 20 -4 16 8 -2
25 -20 38 -38z m1892 -26 c0 -2 -9 -4 -20 -4 -11 0 -20 7 -20 15 0 15 -10 19
-45 15 -26 -2 -8 16 20 22 17 3 65 -32 65 -48z m-331 16 c35 0 -54 -140 -129
-204 -17 -14 -30 -29 -30 -35 0 -6 -7 -11 -15 -11 -23 0 -19 12 33 91 27 41
66 101 87 134 28 42 40 55 43 43 2 -10 7 -18 11 -18z m186 17 c11 -8 14 -16 8
-20 -6 -4 -18 2 -28 13 -21 23 -8 27 20 7z m-2214 -30 c-8 -8 -11 -7 -11 4 0
20 13 34 18 19 3 -7 -1 -17 -7 -23z m385 -13 c1 -11 2 -27 3 -38 1 -13 7 -17
21 -13 10 3 24 -1 30 -8 8 -9 4 -12 -16 -9 -21 2 -25 -1 -21 -17 4 -14 0 -19
-16 -19 -16 0 -18 3 -8 9 10 6 11 13 2 29 -6 11 -11 33 -11 48 0 15 -8 37 -17
48 -18 20 -18 20 7 4 14 -8 26 -24 26 -34z m-539 14 c-3 -8 -6 -5 -6 6 -1 11
2 17 5 13 3 -3 4 -12 1 -19z m186 2 c-3 -12 -8 -19 -11 -16 -5 6 5 36 12 36 2
0 2 -9 -1 -20z m284 4 c-3 -3 3 -30 13 -60 23 -64 17 -71 -10 -11 -22 48 -25
77 -8 77 6 0 9 -3 5 -6z m1948 -14 c-3 -5 -13 -10 -21 -10 -8 0 -12 5 -9 10 3
6 13 10 21 10 8 0 12 -4 9 -10z m-185 -72 c-28 -55 -96 -125 -139 -144 -39
-16 -41 -17 -41 -6 0 4 10 12 23 17 12 6 56 54 97 109 75 99 103 110 60 24z
m326 56 c16 -13 16 -15 2 -10 -10 3 -20 0 -24 -5 -4 -7 -10 -7 -16 -1 -10 10
-3 32 11 32 4 0 16 -7 27 -16z m-2159 -16 c-3 -8 -6 -5 -6 6 -1 11 2 17 5 13
3 -3 4 -12 1 -19z m2093 -8 c0 -5 -7 -7 -15 -4 -8 4 -15 8 -15 10 0 2 7 4 15
4 8 0 15 -4 15 -10z m165 -10 c3 -5 2 -10 -4 -10 -5 0 -13 5 -16 10 -3 6 -2
10 4 10 5 0 13 -4 16 -10z m-2265 -16 c0 -8 -4 -12 -10 -9 -5 3 -10 10 -10 16
0 5 5 9 10 9 6 0 10 -7 10 -16z m774 1 c3 -8 1 -15 -4 -15 -6 0 -10 7 -10 15
0 8 2 15 4 15 2 0 6 -7 10 -15z m1447 0 c0 -6 -10 -12 -23 -13 -19 -4 -20 -2
-9 12 15 17 33 18 32 1z m-1487 -20 c-4 -8 -11 -12 -17 -8 -8 5 -7 8 1 11 7 2
9 9 6 14 -4 7 -2 8 4 4 6 -4 9 -13 6 -21z m201 -2 c-4 -53 -35 -90 -35 -42 0
11 -5 17 -10 14 -6 -4 -8 -11 -5 -16 4 -5 1 -9 -4 -9 -14 0 -14 6 -1 31 9 16
15 17 33 9 20 -10 20 -10 5 3 -10 8 -18 17 -18 20 0 3 8 8 18 10 9 3 18 5 18
6 1 0 1 -11 -1 -26z m1385 -9 c0 -19 -16 -18 -24 2 -11 27 -7 37 9 24 8 -7 15
-19 15 -26z m-1645 16 c3 -5 1 -10 -4 -10 -6 0 -11 5 -11 10 0 6 2 10 4 10 3
0 8 -4 11 -10z m1675 -11 c0 -6 -4 -7 -10 -4 -5 3 -10 11 -10 16 0 6 5 7 10 4
6 -3 10 -11 10 -16z m-95 2 c7 -12 -12 -24 -25 -16 -11 7 -4 25 10 25 5 0 11
-4 15 -9z m-2432 -67 c-21 -31 -43 -66 -49 -76 -11 -18 -12 -18 -18 -1 -4 10
-2 19 3 21 6 2 11 9 11 16 0 7 11 23 25 36 14 13 25 28 25 33 0 10 33 38 38
32 2 -2 -14 -29 -35 -61z m-111 41 c0 -5 -5 -11 -11 -13 -6 -2 -11 4 -11 13 0
9 5 15 11 13 6 -2 11 -8 11 -13z m2741 8 c-7 -2 -19 -2 -25 0 -7 3 -2 5 12 5
14 0 19 -2 13 -5z m-2467 -40 c-6 -6 -56 20 -56 29 0 5 13 1 30 -8 16 -10 28
-19 26 -21z m2288 26 c-3 -6 0 -15 7 -20 7 -4 11 -10 9 -13 -3 -2 -14 2 -25
10 -17 13 -18 16 -5 24 20 13 23 12 14 -1z m102 -16 c-7 -7 -26 7 -26 19 0 6
6 6 15 -2 9 -7 13 -15 11 -17z m-469 11 c-3 -3 -12 -4 -19 -1 -8 3 -5 6 6 6
11 1 17 -2 13 -5z m-1840 -10 c-3 -3 -12 -4 -19 -1 -8 3 -5 6 6 6 11 1 17 -2
13 -5z m2280 -9 c8 -22 -6 -33 -17 -15 -13 20 -12 30 0 30 6 0 13 -7 17 -15z
m78 -5 c3 -5 1 -10 -4 -10 -6 0 -11 5 -11 10 0 6 2 10 4 10 3 0 8 -4 11 -10z
m-2808 -20 c-3 -11 -2 -22 3 -25 10 -6 0 -54 -13 -62 -6 -4 -8 3 -4 18 3 13 2
31 -3 39 -5 8 -5 21 1 32 13 24 23 23 16 -2z m2308 10 c11 -17 -5 -32 -20 -20
-8 7 -19 9 -25 5 -5 -3 -10 -2 -10 4 0 18 45 27 55 11z m345 -18 c0 -15 -2
-15 -10 -2 -13 20 -13 33 0 25 6 -3 10 -14 10 -23z m-2191 -41 c-2 -5 -15 6
-28 27 l-23 37 27 -26 c15 -15 26 -32 24 -38z m236 49 c4 -6 -7 -10 -24 -10
-17 0 -31 5 -31 10 0 6 11 10 24 10 14 0 28 -4 31 -10z m575 -15 c-16 -19 -30
-19 -30 -1 0 8 8 16 18 18 24 6 27 1 12 -17z m1520 -10 c0 -10 -40 9 -44 21
-4 11 0 11 19 -2 14 -9 25 -18 25 -19z m-2674 -12 c0 -20 9 -43 22 -55 19 -20
20 -23 6 -51 -9 -17 -13 -39 -9 -54 6 -24 4 -25 -22 -19 -15 4 -32 12 -38 17
-7 7 -1 8 16 4 24 -6 25 -4 25 34 -1 23 -4 41 -8 41 -5 0 -8 4 -8 10 0 5 8 7
18 3 16 -6 16 -5 -1 14 -10 12 -19 31 -19 44 -1 13 -6 29 -11 36 -6 8 -3 11
10 10 13 -1 18 -9 19 -34z m2591 1 c0 -21 -11 -16 -23 10 -10 22 -10 23 6 14
9 -6 17 -17 17 -24z m113 26 c0 -5 -2 -10 -4 -10 -3 0 -8 5 -11 10 -3 6 -1 10
4 10 6 0 11 -4 11 -10z m-2000 -27 c-1 -27 -1 -27 -15 -9 -19 25 -19 36 0 36
10 0 15 -10 15 -27z m156 7 c8 0 14 -4 14 -9 0 -12 -71 -2 -85 12 -7 6 1 8 24
3 18 -3 40 -6 47 -6z m1427 -30 c3 -11 2 -22 -3 -25 -9 -5 -40 38 -40 55 0 18
37 -7 43 -30z m-58 10 c0 -8 5 -18 10 -22 6 -5 2 -8 -7 -8 -22 0 -59 30 -52
42 9 15 49 4 49 -12z m-2080 -20 c20 0 93 -66 111 -101 8 -15 16 -38 18 -51 4
-25 4 -25 83 -14 l51 6 -11 -23 c-10 -22 -17 -24 -62 -21 -27 2 -70 -2 -95
-10 -67 -21 -108 -27 -115 -16 -3 6 -14 10 -25 10 -10 0 -21 7 -24 16 -5 12
-3 14 7 8 7 -5 5 -1 -5 8 -18 16 -18 17 3 23 27 9 90 -3 110 -21 12 -11 22
-12 47 -3 l31 11 -21 41 c-11 23 -24 44 -28 47 -4 3 -13 16 -19 28 -9 16 -19
22 -32 19 -10 -3 -22 -1 -25 4 -3 5 -9 7 -14 4 -9 -6 -50 41 -50 57 0 6 11 3
25 -6 13 -9 31 -16 40 -16z m762 8 c-3 -8 -6 -5 -6 6 -1 11 2 17 5 13 3 -3 4
-12 1 -19z m53 12 c12 -8 11 -10 -7 -10 -13 0 -23 5 -23 10 0 13 11 13 30 0z
m1430 -30 c0 -13 -1 -13 -10 0 -5 8 -10 22 -10 30 0 13 1 13 10 0 5 -8 10 -22
10 -30z m-1308 24 c21 -4 35 -10 32 -15 -8 -14 -68 -11 -105 6 l-34 14 35 0
c19 1 52 -2 72 -5z m-67 -34 c3 -5 1 -10 -4 -10 -6 0 -11 5 -11 10 0 6 2 10 4
10 3 0 8 -4 11 -10z m-487 -74 c-2 -42 -6 -62 -13 -55 -17 17 -9 119 10 119 3
0 5 -29 3 -64z m1727 43 c11 -17 -1 -21 -15 -4 -8 9 -8 15 -2 15 6 0 14 -5 17
-11z m-1305 -15 c5 -5 -17 -9 -60 -9 -39 0 -65 2 -59 4 8 2 7 7 -2 13 -9 6 7
8 49 5 34 -2 67 -8 72 -13z m-865 -31 c9 -20 14 -41 12 -47 -4 -11 -37 57 -37
75 0 19 10 7 25 -28z m1615 -3 c-8 -5 -19 -10 -25 -10 -5 0 -3 5 5 10 8 5 20
10 25 10 6 0 3 -5 -5 -10z m340 0 c0 -5 -2 -10 -4 -10 -3 0 -8 5 -11 10 -3 6
-1 10 4 10 6 0 11 -4 11 -10z m-2150 -4 c0 -3 -4 -8 -10 -11 -5 -3 -10 -1 -10
4 0 6 5 11 10 11 6 0 10 -2 10 -4z m2880 -6 c0 -5 -2 -10 -4 -10 -3 0 -8 5
-11 10 -3 6 -1 10 4 10 6 0 11 -4 11 -10z m-1850 -10 c-8 -5 -26 -10 -40 -10
-20 0 -22 2 -10 10 8 5 26 10 40 10 20 0 22 -2 10 -10z m581 -3 c-1 -12 -15
-9 -19 4 -3 6 1 10 8 8 6 -3 11 -8 11 -12z m-1694 -29 c-3 -7 -5 -2 -5 12 0
14 2 19 5 13 2 -7 2 -19 0 -25z m1193 21 c0 -4 -14 -9 -31 -13 -34 -7 -59 2
-39 14 14 8 70 8 70 -1z m2100 -23 c0 -3 -4 -8 -10 -11 -5 -3 -10 -1 -10 4 0
6 5 11 10 11 6 0 10 -2 10 -4z m-1567 -23 c4 -3 2 -12 -4 -20 -9 -10 -15 -10
-25 -2 -8 6 -11 15 -8 20 6 11 28 12 37 2z m307 -3 c0 -5 -5 -10 -11 -10 -5 0
-7 5 -4 10 3 6 8 10 11 10 2 0 4 -4 4 -10z m1220 -5 c-7 -8 -17 -15 -22 -15
-6 0 -5 7 2 15 7 8 17 15 22 15 6 0 5 -7 -2 -15z m-1290 -19 c0 -3 -4 -8 -10
-11 -5 -3 -10 -1 -10 4 0 6 5 11 10 11 6 0 10 -2 10 -4z m-1385 -124 c-3 -8
-8 -12 -11 -9 -4 3 -17 -6 -29 -21 -27 -33 -156 -100 -205 -107 -28 -4 -24 -2
15 11 81 28 205 123 205 157 0 4 -5 5 -12 1 -14 -9 -128 -11 -128 -3 0 4 7 12
15 19 13 11 42 15 138 20 4 0 8 10 9 23 1 12 3 0 5 -27 2 -27 2 -55 -2 -64z
m2675 80 c0 -15 -2 -15 -10 -2 -13 20 -13 33 0 25 6 -3 10 -14 10 -23z m-3224
-19 c15 -21 21 -32 12 -25 -8 7 -23 10 -32 6 -13 -5 -16 0 -16 25 0 17 2 31 4
31 2 0 16 -17 32 -37z m274 27 c0 -5 -5 -10 -11 -10 -5 0 -7 5 -4 10 3 6 8 10
11 10 2 0 4 -4 4 -10z m1465 0 c3 -5 1 -10 -4 -10 -6 0 -11 5 -11 10 0 6 2 10
4 10 3 0 8 -4 11 -10z m102 -14 c0 -11 -8 -11 -36 -4 -50 14 -51 18 -4 18 27
0 40 -4 40 -14z m498 -16 c8 -13 -5 -13 -25 0 -13 8 -13 10 2 10 9 0 20 -4 23
-10z m-1969 -29 c-17 -19 -52 -18 -40 0 3 5 9 7 14 4 4 -3 13 2 20 10 7 9 15
13 18 10 3 -3 -3 -14 -12 -24z m926 13 c-12 -8 -30 -14 -40 -11 -14 3 -12 6 8
15 39 17 58 15 32 -4z m675 -26 c-3 -8 -6 -5 -6 6 -1 11 2 17 5 13 3 -3 4 -12
1 -19z m463 -8 c13 -8 13 -10 -2 -10 -9 0 -20 5 -23 10 -8 13 5 13 25 0z m155
-90 c3 -5 4 -10 1 -10 -7 0 -106 62 -106 67 0 7 99 -47 105 -57z m655 50 c0
-5 -5 -10 -11 -10 -5 0 -7 5 -4 10 3 6 8 10 11 10 2 0 4 -4 4 -10z m-1279 -13
c-6 -8 -7 -18 -3 -22 4 -5 2 -5 -5 -1 -14 8 -6 36 9 36 7 0 6 -5 -1 -13z
m-616 -7 c-3 -5 -13 -10 -21 -10 -8 0 -12 5 -9 10 3 6 13 10 21 10 8 0 12 -4
9 -10z m-965 -10 c-19 -13 -30 -13 -30 0 0 6 10 10 23 10 18 0 19 -2 7 -10z
m1537 -22 c-3 -8 -6 -5 -6 6 -1 11 2 17 5 13 3 -3 4 -12 1 -19z m-1910 -20
c-3 -8 -6 -5 -6 6 -1 11 2 17 5 13 3 -3 4 -12 1 -19z m1353 -23 c-7 -8 -17
-12 -22 -9 -6 4 -14 0 -19 -7 -4 -7 -11 -10 -15 -7 -3 4 9 16 27 27 36 22 49
20 29 -4z m1464 10 c3 -8 1 -15 -4 -15 -6 0 -10 7 -10 15 0 8 2 15 4 15 2 0 6
-7 10 -15z m-1031 -14 c3 -14 1 -18 -9 -14 -15 6 -18 16 -7 26 9 10 10 9 16
-12z m-1803 -6 c0 -8 -4 -15 -10 -15 -5 0 -7 7 -4 15 4 8 8 15 10 15 2 0 4 -7
4 -15z m75 5 c3 -5 -1 -10 -9 -10 -8 0 -20 -8 -25 -17 -9 -16 -10 -16 -11 3 0
11 3 24 7 27 10 10 31 8 38 -3z m75 0 c0 -5 -5 -10 -11 -10 -5 0 -7 5 -4 10 3
6 8 10 11 10 2 0 4 -4 4 -10z m2355 0 c3 -5 1 -10 -4 -10 -6 0 -11 5 -11 10 0
6 2 10 4 10 3 0 8 -4 11 -10z m-2302 -7 c-7 -2 -21 -2 -30 0 -10 3 -4 5 12 5
17 0 24 -2 18 -5z m2156 -7 c10 -12 8 -13 -9 -9 -25 7 -37 23 -17 23 8 0 20
-6 26 -14z m917 -40 c-8 -41 -4 -43 99 -52 69 -6 73 -8 50 -20 -23 -12 -59
-18 -80 -14 -5 1 -29 2 -53 2 -32 0 -47 -6 -62 -24 -23 -28 -27 -12 -4 20 8
12 17 35 20 50 9 55 15 72 25 72 7 0 9 -12 5 -34z m-830 -17 c4 -8 1 -8 -14 0
-12 6 -24 16 -28 22 -4 8 -1 8 14 0 12 -6 24 -16 28 -22z m79 -9 c-9 -16 -20
-30 -25 -30 -5 0 -1 13 8 30 22 39 37 39 17 0z m298 23 c-7 -2 -19 -2 -25 0
-7 3 -2 5 12 5 14 0 19 -2 13 -5z m397 -13 c-12 -22 -48 -45 -57 -36 -3 3 3 9
13 13 10 3 25 15 32 25 18 24 25 23 12 -2z m326 -35 c21 -14 48 -28 61 -31 15
-4 25 -16 28 -33 11 -55 43 -136 53 -134 6 2 23 -2 37 -7 14 -5 25 -6 25 -1 0
5 17 9 38 10 20 0 52 3 70 5 34 5 52 -13 52 -51 0 -22 -62 -84 -100 -100 -88
-38 -110 -42 -91 -19 14 17 0 29 -23 20 -10 -4 -16 -1 -16 9 0 8 -7 20 -16 28
-13 11 -14 9 -9 -14 10 -37 -1 -34 -22 6 -18 33 -19 38 -21 75 -1 12 -6 22
-11 22 -5 0 -7 -9 -4 -20 4 -14 0 -20 -11 -20 -12 0 -16 8 -14 28 2 31 -9 55
-22 47 -4 -2 -7 10 -6 28 2 41 -20 68 -51 61 -22 -6 -22 -5 -9 22 25 53 29 75
12 68 -9 -3 -16 -11 -16 -17 0 -6 -3 -7 -7 -4 -5 6 24 47 33 47 2 0 20 -11 40
-25z m79 15 c-3 -5 -17 -10 -31 -10 -14 0 -22 4 -19 10 3 6 17 10 31 10 14 0
22 -4 19 -10z m-1759 -59 c-13 -20 -33 -12 -31 12 4 33 4 33 21 15 9 -9 13
-21 10 -27z m1989 -15 c95 -1 112 -13 88 -60 -11 -22 -17 -26 -23 -15 -5 7 -6
17 -3 21 5 10 -43 6 -52 -4 -4 -3 -23 -1 -43 5 -20 5 -47 10 -59 9 -11 -1 -24
5 -27 14 -4 11 -14 14 -35 9 -23 -5 -29 -2 -34 14 -6 26 7 30 63 18 25 -6 81
-11 125 -11z m-2015 -41 c14 -19 14 -19 -2 -6 -10 7 -18 18 -18 24 0 6 1 8 3
6 1 -2 9 -13 17 -24z m44 3 c-4 -6 -1 -9 7 -6 9 3 28 -15 49 -46 34 -51 90
-154 90 -167 0 -5 -117 -210 -160 -279 -7 -12 -11 -13 -22 -2 -11 11 -10 13 2
10 8 -2 15 3 14 10 -3 37 -5 41 -19 36 -8 -4 -12 -10 -9 -15 3 -5 -2 -16 -10
-25 -21 -21 -20 -31 4 -37 18 -5 19 -8 7 -34 -26 -59 -48 -93 -56 -88 -5 3 -7
-3 -5 -12 3 -10 -11 -42 -31 -71 -56 -86 -55 -86 115 -83 39 1 51 -1 40 -8
-21 -14 -3 -27 19 -14 14 9 21 9 30 0 9 -9 11 -8 6 4 -5 13 2 18 32 21 21 3
47 9 57 13 14 6 17 5 12 -3 -5 -9 18 -12 89 -12 54 0 94 4 91 9 -7 11 -15 213
-8 206 2 -2 28 -55 57 -117 37 -78 58 -113 69 -112 19 2 22 -12 4 -18 -10 -4
-9 -13 4 -39 32 -63 88 -192 88 -202 0 -5 -6 -4 -14 2 -21 17 -56 22 -56 8 0
-7 -9 -13 -20 -14 -11 -1 -20 4 -20 10 0 7 -4 6 -10 -3 -11 -17 -13 -9 -4 14
5 12 10 14 19 6 11 -9 12 -7 8 9 -6 25 -18 27 -27 6 -4 -11 -22 -15 -63 -16
-48 -1 -53 -3 -28 -9 33 -8 34 -8 -50 -16 -39 -4 -311 -4 -352 0 -18 1 -33 -1
-33 -5 0 -7 -94 -4 -153 6 -16 3 -25 1 -22 -5 3 -5 -5 -8 -17 -8 -61 4 -77 -2
-98 -37 -12 -19 -27 -32 -32 -29 -6 4 -8 2 -5 -3 4 -6 -31 -68 -78 -138 -72
-110 -82 -131 -73 -149 8 -15 8 -21 -1 -24 -6 -2 -11 -8 -11 -14 0 -5 8 -7 19
-3 11 3 21 0 24 -8 6 -16 -32 -20 -51 -5 -11 10 -11 7 -1 -18 7 -16 17 -35 22
-42 6 -7 7 -15 4 -18 -3 -3 -23 27 -46 68 -36 65 -70 121 -56 92 6 -14 -43
-26 -51 -13 -3 5 -6 27 -7 49 -1 40 -22 52 -22 13 0 -35 -11 -36 -25 -3 -10
23 -10 34 -1 43 8 8 11 8 11 -2 0 -11 3 -11 15 -1 8 6 19 9 25 5 5 -3 10 -2
10 4 0 12 -19 24 -43 28 -10 2 -25 10 -34 18 -10 11 -19 13 -27 6 -9 -8 -17 0
-30 29 -10 22 -22 40 -27 40 -5 0 -9 5 -9 11 0 6 7 9 15 5 26 -10 16 1 -21 23
-36 22 -38 36 -6 36 9 0 17 7 17 15 0 8 9 28 19 43 14 21 21 25 27 15 6 -9 9
-5 9 12 0 40 23 75 47 74 17 -1 23 6 28 34 8 44 82 155 97 146 7 -5 8 -2 4 5
-5 7 0 20 10 30 17 16 20 16 32 2 7 -9 12 -11 11 -6 -3 26 3 33 24 28 18 -3
16 -1 -8 13 -24 15 -26 19 -12 22 9 2 15 8 11 13 -3 5 4 23 16 39 19 26 24 29
38 18 13 -11 15 -10 9 5 -6 16 -4 16 20 -2 14 -12 27 -20 29 -19 1 2 -1 22 -5
45 -9 44 1 65 25 56 10 -3 12 0 8 10 -3 9 4 25 16 37 12 12 18 26 13 33 -5 9
-3 9 9 0 8 -7 18 -10 21 -6 17 16 5 -16 -18 -50 -14 -20 -22 -37 -18 -37 7 1
59 78 141 208 20 32 20 34 2 13 -25 -29 -49 -16 -31 17 14 27 14 35 -1 26 -7
-4 -8 -3 -4 5 4 6 11 9 15 6 5 -2 11 9 15 26 4 20 10 28 17 23 8 -4 9 -3 5 5
-9 14 12 43 25 35 5 -3 9 4 9 16 0 11 7 23 15 26 8 4 15 15 15 25 0 10 5 19
10 19 6 0 10 7 10 16 0 10 6 14 14 11 10 -4 12 0 8 16 -5 22 -5 22 17 2 l22
-19 -10 26 c-10 26 -9 26 27 21 20 -3 45 -10 54 -14 21 -11 48 -11 48 -1 0 5
-9 19 -20 32 -19 22 -18 46 1 34 5 -3 6 -10 3 -16z m1799 -13 c-3 -9 -8 -14
-10 -11 -3 3 -2 9 2 15 9 16 15 13 8 -4z m-3615 -54 c-7 -11 -16 -17 -22 -14
-5 3 -1 12 9 20 25 18 27 17 13 -6z m3497 -41 c3 -5 1 -10 -4 -10 -6 0 -11 5
-11 10 0 6 2 10 4 10 3 0 8 -4 11 -10z m-108 -30 c-7 -17 -13 -26 -15 -21 -3
10 15 51 22 51 3 0 -1 -14 -7 -30z m79 -26 c-6 -34 -6 -34 17 -19 22 14 25 13
58 -32 74 -100 71 -92 36 -122 -17 -14 -32 -24 -32 -21 -1 3 -8 0 -16 -6 -22
-17 -51 -26 -43 -12 12 20 16 108 4 108 -8 0 -8 6 0 20 9 17 8 20 -14 20 -20
0 -25 6 -29 33 -2 21 -5 12 -7 -28 l-3 -60 -6 55 c-4 30 -4 60 -2 65 3 6 4 20
2 33 -2 21 0 22 19 12 17 -9 20 -18 16 -46z m-1421 -169 c6 -15 2 -13 -13 7
-14 17 -22 40 -22 65 0 61 14 61 21 1 4 -29 10 -62 14 -73z m-67 69 c1 -33
-24 -102 -33 -92 -3 2 0 20 5 39 5 18 12 46 15 62 7 37 11 34 13 -9z m1851
-38 c-11 -17 -18 -23 -15 -12 5 13 2 17 -8 13 -13 -5 -13 -2 -4 18 6 14 15 25
20 25 4 0 8 8 9 18 0 12 3 11 10 -7 7 -18 5 -31 -12 -55z m-2329 -92 c-12 -35
-14 -36 -26 -19 -18 25 -29 13 -14 -16 11 -19 10 -21 -3 -16 -9 3 -18 1 -21
-6 -2 -7 -4 2 -3 18 2 17 14 47 27 67 21 31 27 35 39 24 11 -12 11 -21 1 -52z
m1434 40 c3 -8 2 -12 -4 -9 -6 3 -10 10 -10 16 0 14 7 11 14 -7z m-806 -127
c3 -12 -3 -17 -22 -17 -25 0 -35 18 -19 34 12 12 38 2 41 -17z m-231 -23 c-3
-3 -12 -4 -19 -1 -8 3 -5 6 6 6 11 1 17 -2 13 -5z m207 -38 c-9 -27 -22 -36
-58 -36 l-30 0 22 20 c12 12 22 24 22 28 0 4 11 8 25 8 22 2 25 -1 19 -20z
m-252 -8 c-7 -7 -12 -8 -12 -2 0 6 3 14 7 17 3 4 9 5 12 2 2 -3 -1 -11 -7 -17z
m1778 0 c0 -13 -23 -5 -28 10 -2 7 2 10 12 6 9 -3 16 -11 16 -16z m-740 -4 c0
-11 -24 -54 -31 -54 -4 0 -9 7 -13 15 -3 9 0 15 9 15 8 0 15 8 15 18 0 14 -2
15 -10 2 -5 -8 -10 -10 -10 -4 0 16 10 23 26 17 8 -3 14 -7 14 -9z m130 -14
c0 -11 -2 -20 -4 -20 -2 0 -6 9 -9 20 -3 11 -1 20 4 20 5 0 9 -9 9 -20z
m-1939 -45 c-11 -11 -21 -29 -23 -40 -4 -17 -6 -16 -13 8 -9 32 5 53 34 53 20
0 20 -1 2 -21z m973 7 c2 -4 1 -14 -5 -22 -7 -13 -9 -13 -9 -1 0 11 -5 10 -20
-4 -20 -18 -20 -17 -20 8 0 22 5 27 24 27 14 0 27 -4 30 -8z m632 -34 c-21
-14 -26 -8 -14 18 11 23 13 24 19 7 3 -10 1 -21 -5 -25z m441 10 c-3 -7 -5 -2
-5 12 0 14 2 19 5 13 2 -7 2 -19 0 -25z m-317 2 c-11 -20 -30 -28 -30 -12 0
11 22 32 32 32 5 0 4 -9 -2 -20z m-424 -75 c24 -33 43 -68 43 -77 1 -10 5 -18
9 -18 4 0 16 -14 26 -31 11 -19 14 -30 7 -28 -7 3 -12 7 -11 9 1 3 -13 21 -32
41 -51 55 -122 171 -101 167 9 -2 36 -30 59 -63z m-376 20 c0 -10 -10 -15 -30
-15 -20 0 -30 5 -30 15 0 10 10 15 30 15 20 0 30 -5 30 -15z m1146 -20 c6 -23
0 -45 -10 -34 -10 12 -15 59 -6 59 5 0 12 -11 16 -25z m-1406 -35 c0 -5 -5
-10 -11 -10 -5 0 -7 5 -4 10 3 6 8 10 11 10 2 0 4 -4 4 -10z m222 -12 c-7 -7
-12 -8 -12 -2 0 14 12 26 19 19 2 -3 -1 -11 -7 -17z m-22 8 c0 -3 -4 -8 -10
-11 -5 -3 -10 -1 -10 4 0 6 5 11 10 11 6 0 10 -2 10 -4z m395 -86 c3 -5 -3
-10 -15 -10 -12 0 -18 5 -15 10 3 6 10 10 15 10 5 0 12 -4 15 -10z m-1274 -73
c-8 -8 -11 2 -10 34 l1 44 10 -34 c6 -23 6 -37 -1 -44z m-34 -4 c-3 -10 -5 -4
-5 12 0 17 2 24 5 18 2 -7 2 -21 0 -30z m1400 -105 c-3 -8 -6 -5 -6 6 -1 11 2
17 5 13 3 -3 4 -12 1 -19z m-200 -64 c-3 -3 -12 -4 -19 -1 -8 3 -5 6 6 6 11 1
17 -2 13 -5z m-220 -40 c-3 -3 -12 -4 -19 -1 -8 3 -5 6 6 6 11 1 17 -2 13 -5z
m181 -1 c-10 -2 -28 -2 -40 0 -13 2 -5 4 17 4 22 1 32 -1 23 -4z m49 -19 c-3
-3 -12 -4 -19 -1 -8 3 -5 6 6 6 11 1 17 -2 13 -5z m-447 -24 c0 -6 9 -6 26 0
14 6 41 10 60 10 42 0 39 -9 -26 -83 -23 -26 -40 -50 -38 -53 3 -2 11 2 18 11
7 8 17 15 23 15 7 0 7 -4 -1 -12 -7 -7 -12 -20 -12 -31 0 -10 -4 -15 -10 -12
-5 3 -10 1 -10 -5 0 -6 -5 -8 -10 -5 -6 4 -7 11 -3 18 3 6 -8 1 -25 -12 -39
-27 -40 -33 -7 -25 20 5 24 3 20 -8 -5 -13 -9 -45 -14 -106 -1 -8 -8 -11 -19
-8 -12 4 -34 -5 -60 -24 -31 -22 -49 -29 -67 -24 -19 5 -25 2 -25 -10 0 -22
-36 -21 -49 2 -20 33 -11 3 24 -84 19 -47 35 -88 35 -90 0 -2 -17 -4 -38 -4
-38 0 -39 1 -69 68 -17 37 -39 87 -49 112 -9 25 -20 48 -23 52 -5 6 -55 -95
-96 -195 -15 -36 -18 -38 -53 -35 -20 2 -36 8 -35 13 7 28 57 151 96 236 44
93 46 97 82 101 40 5 43 2 70 -62 11 -25 23 -48 28 -51 5 -3 8 -9 8 -13 -4
-28 1 -32 32 -28 17 3 36 11 40 18 4 8 18 14 29 14 12 0 18 3 15 7 -7 6 -28
10 -84 16 -24 2 -30 12 -13 22 16 10 12 25 -7 25 -16 1 -16 2 1 15 20 15 20
15 0 15 -13 0 -20 7 -21 20 -1 11 3 20 9 20 5 0 8 7 4 15 -3 10 1 15 12 16 16
1 16 2 0 6 -13 3 -17 14 -16 39 2 48 36 65 78 39 13 -8 13 -6 2 8 -12 14 -10
18 20 30 18 7 53 14 78 16 24 1 46 4 49 7 8 8 21 4 21 -6z m-967 -81 c-7 -23
-12 -47 -10 -53 2 -6 10 8 17 31 7 23 17 40 21 37 5 -3 6 2 3 11 -6 14 -2 14
25 -3 31 -19 79 -90 192 -289 63 -109 73 -138 37 -107 -12 10 -18 14 -15 7 7
-12 -22 -17 -153 -27 -30 -2 -79 -10 -108 -16 -62 -14 -196 -18 -234 -8 l-26
8 42 77 c24 43 75 134 116 203 112 193 119 202 93 129z m1477 -22 c0 -2 -12
-14 -27 -28 -20 -18 -24 -19 -13 -4 18 24 40 42 40 32z m310 -9 c0 -4 -4 -8
-9 -8 -6 0 -12 4 -15 8 -3 5 1 9 9 9 8 0 15 -4 15 -9z m-703 -20 c-3 -8 -6 -5
-6 6 -1 11 2 17 5 13 3 -3 4 -12 1 -19z m-900 -10 c-3 -8 -6 -5 -6 6 -1 11 2
17 5 13 3 -3 4 -12 1 -19z m1223 -18 c0 -5 -5 -10 -11 -10 -5 0 -7 5 -4 10 3
6 8 10 11 10 2 0 4 -4 4 -10z m-1200 -10 c0 -5 -4 -10 -10 -10 -5 0 -10 5 -10
10 0 6 5 10 10 10 6 0 10 -4 10 -10z m141 -159 c1 -9 1 -20 0 -25 -1 -5 3 -12
9 -16 7 -4 5 -11 -7 -21 -10 -7 -15 -9 -11 -5 11 13 -11 36 -28 29 -10 -4 -14
3 -14 23 1 28 1 28 16 9 16 -19 16 -19 12 7 -4 19 -1 25 9 21 7 -3 14 -13 14
-22z m439 19 c0 -5 -11 -10 -25 -10 -14 0 -25 5 -25 10 0 6 11 10 25 10 14 0
25 -4 25 -10z m826 -36 c-30 -21 -45 -16 -16 6 14 10 27 16 30 13 3 -2 -4 -11
-14 -19z m329 -64 c3 -5 1 -10 -4 -10 -6 0 -11 5 -11 10 0 6 2 10 4 10 3 0 8
-4 11 -10z m-1542 -37 c-7 -2 -19 -2 -25 0 -7 3 -2 5 12 5 14 0 19 -2 13 -5z
m420 0 c-7 -2 -19 -2 -25 0 -7 3 -2 5 12 5 14 0 19 -2 13 -5z m-536 -29 c-3
-3 -12 -4 -19 -1 -8 3 -5 6 6 6 11 1 17 -2 13 -5z"/>
<path d="M1950 3911 c-20 -6 -26 -15 -31 -49 -7 -55 -1 -63 44 -55 l38 6 -3
50 c-3 54 -8 59 -48 48z"/>
<path d="M1896 3887 c3 -10 9 -15 12 -12 3 3 0 11 -7 18 -10 9 -11 8 -5 -6z"/>
<path d="M2484 3648 l-19 -23 23 19 c21 18 27 26 19 26 -2 0 -12 -10 -23 -22z"/>
<path d="M1784 3225 c21 -16 32 -13 21 4 -3 6 -14 11 -23 11 -15 -1 -15 -2 2
-15z"/>
<path d="M1830 3211 c0 -5 -9 -13 -21 -16 -16 -5 -18 -10 -9 -18 8 -9 14 -8
21 6 6 9 14 15 20 12 5 -4 9 -2 9 4 0 5 -4 13 -10 16 -5 3 -10 2 -10 -4z"/>
<path d="M1915 3010 c3 -5 8 -10 11 -10 2 0 4 5 4 10 0 6 -5 10 -11 10 -5 0
-7 -4 -4 -10z"/>
<path d="M1205 3870 c3 -5 14 -10 23 -10 15 0 15 2 2 10 -20 13 -33 13 -25 0z"/>
<path d="M1188 3842 c-31 -6 -19 -17 22 -19 22 -2 40 2 40 7 0 6 -3 10 -7 11
-5 0 -15 2 -23 3 -8 1 -23 1 -32 -2z"/>
<path d="M1198 3803 c7 -3 16 -2 19 1 4 3 -2 6 -13 5 -11 0 -14 -3 -6 -6z"/>
<path d="M1350 3520 c-8 -5 -10 -10 -5 -10 6 0 17 5 25 10 8 5 11 10 5 10 -5
0 -17 -5 -25 -10z"/>
<path d="M1540 3029 c0 -5 5 -7 10 -4 6 3 10 8 10 11 0 2 -4 4 -10 4 -5 0 -10
-5 -10 -11z"/>
<path d="M2615 2870 c-3 -5 -1 -10 4 -10 6 0 11 5 11 10 0 6 -2 10 -4 10 -3 0
-8 -4 -11 -10z"/>
<path d="M820 2624 c0 -17 28 -49 36 -41 4 4 -2 17 -14 30 -12 12 -22 17 -22
11z"/>
<path d="M4092 2194 c33 -34 58 -39 58 -11 0 9 -2 9 -8 -1 -6 -9 -17 -4 -42
18 -47 42 -52 38 -8 -6z"/>
<path d="M4060 2170 c0 -11 2 -20 4 -20 2 0 11 -3 20 -6 13 -5 13 -2 3 20 -14
31 -27 34 -27 6z"/>
<path d="M4116 2137 c3 -10 9 -15 12 -12 3 3 0 11 -7 18 -10 9 -11 8 -5 -6z"/>
<path d="M4126 2102 c-3 -6 -1 -14 5 -17 15 -10 25 3 12 16 -7 7 -13 7 -17 1z"/>
<path d="M4220 2013 c0 -17 30 -44 41 -38 5 4 6 0 4 -7 -4 -9 10 -23 35 -37
38 -21 42 -22 65 -7 29 19 33 28 8 19 -11 -4 -14 -3 -9 5 4 8 -7 18 -31 28
-21 9 -46 20 -55 25 -11 5 -20 4 -24 -3 -5 -7 -11 -5 -21 7 -7 11 -13 14 -13
8z m124 -70 c4 -9 4 -18 2 -20 -8 -8 -23 6 -29 26 -6 24 18 18 27 -6z"/>
<path d="M2390 2020 c0 -5 5 -10 11 -10 5 0 7 5 4 10 -3 6 -8 10 -11 10 -2 0
-4 -4 -4 -10z"/>
<path d="M2397 1976 c20 -26 27 -28 17 -3 -3 8 -12 18 -20 21 -11 4 -10 0 3
-18z"/>
<path d="M2254 1963 c-3 -10 -12 -31 -20 -48 -14 -27 -14 -29 0 -15 16 15 40
80 30 80 -3 0 -7 -8 -10 -17z"/>
<path d="M2263 1908 c-15 -20 -25 -38 -20 -38 3 0 12 11 21 25 17 26 16 35 -1
13z"/>
<path d="M2407 1913 c-4 -3 -7 -11 -7 -17 0 -6 5 -5 12 2 6 6 9 14 7 17 -3 3
-9 2 -12 -2z"/>
<path d="M2510 1859 c0 -5 5 -7 10 -4 6 3 10 8 10 11 0 2 -4 4 -10 4 -5 0 -10
-5 -10 -11z"/>
<path d="M2312 1835 c-12 -14 -18 -25 -13 -25 5 0 16 11 25 25 9 14 15 25 13
25 -2 0 -13 -11 -25 -25z"/>
<path d="M2200 1809 c0 -5 5 -7 10 -4 6 3 10 8 10 11 0 2 -4 4 -10 4 -5 0 -10
-5 -10 -11z"/>
<path d="M2258 1803 c7 -3 16 -2 19 1 4 3 -2 6 -13 5 -11 0 -14 -3 -6 -6z"/>
<path d="M2252 1739 c-24 -34 -41 -64 -38 -66 2 -3 20 19 38 49 47 73 50 78
45 78 -2 0 -22 -28 -45 -61z"/>
<path d="M2110 1685 c-39 -58 -68 -105 -65 -105 2 0 17 18 31 40 15 22 31 37
37 33 6 -3 7 -1 3 6 -4 6 7 32 27 59 41 57 50 72 43 72 -3 0 -37 -47 -76 -105z"/>
<path d="M2261 1702 c-105 -159 -111 -170 -95 -176 9 -3 14 -1 12 7 -5 20 61
127 78 127 8 0 12 5 9 11 -4 5 5 28 21 50 15 22 25 41 23 43 -2 3 -24 -26 -48
-62z"/>
<path d="M2368 1720 c-15 -4 -30 -5 -33 -2 -3 4 -3 -1 1 -11 7 -18 24 -23 24
-7 0 6 9 10 20 10 11 0 20 5 20 10 0 6 -1 10 -2 9 -2 0 -15 -4 -30 -9z"/>
<path d="M2425 1709 c-4 -6 -5 -12 -2 -15 2 -3 7 2 10 11 7 17 1 20 -8 4z"/>
<path d="M2310 1694 c0 -8 5 -12 10 -9 6 4 8 11 5 16 -9 14 -15 11 -15 -7z"/>
<path d="M2171 1613 c-17 -27 -31 -42 -31 -35 0 7 -5 10 -11 6 -8 -5 -8 -8 0
-14 8 -4 4 -14 -11 -31 -20 -21 -53 -80 -66 -114 -2 -5 25 33 60 85 89 132
101 150 95 150 -2 0 -19 -21 -36 -47z"/>
<path d="M2290 1609 c0 -5 5 -7 10 -4 6 3 10 1 10 -5 0 -7 6 -10 14 -7 15 6
30 -19 20 -34 -3 -5 -3 -9 0 -9 3 0 10 9 16 21 9 15 8 24 -1 35 -13 16 -69 19
-69 3z"/>
<path d="M1965 1570 c3 -5 14 -10 23 -10 15 0 15 2 2 10 -20 13 -33 13 -25 0z"/>
<path d="M1990 1501 c0 -5 7 -12 16 -15 14 -5 15 -4 4 9 -14 17 -20 19 -20 6z"/>
<path d="M2279 1467 c7 -7 14 -8 21 -1 6 6 2 10 -12 11 -16 2 -18 -1 -9 -10z"/>
<path d="M2076 1425 c-3 -8 -1 -15 4 -15 6 0 10 7 10 15 0 8 -2 15 -4 15 -2 0
-6 -7 -10 -15z"/>
<path d="M2260 1430 c0 -5 5 -10 10 -10 6 0 10 5 10 10 0 6 -4 10 -10 10 -5 0
-10 -4 -10 -10z"/>
<path d="M2785 1366 c21 -32 27 -33 16 -4 -4 12 -14 24 -20 26 -8 3 -7 -5 4
-22z"/>
<path d="M2366 1302 c-2 -4 -1 -14 4 -22 7 -11 9 -9 7 8 -1 24 -3 26 -11 14z"/>
<path d="M2524 1285 c-2 -21 1 -24 12 -14 11 9 11 15 3 25 -15 18 -14 18 -15
-11z"/>
<path d="M2110 1290 c0 -5 4 -10 9 -10 6 0 13 5 16 10 3 6 -1 10 -9 10 -9 0
-16 -4 -16 -10z"/>
<path d="M2560 1286 c0 -8 4 -17 9 -20 5 -4 7 3 4 14 -6 23 -13 26 -13 6z"/>
<path d="M1905 1250 c-3 -5 -1 -10 4 -10 6 0 11 5 11 10 0 6 -2 10 -4 10 -3 0
-8 -4 -11 -10z"/>
<path d="M2516 1234 c-10 -25 1 -29 14 -5 6 12 7 21 1 21 -5 0 -12 -7 -15 -16z"/>
<path d="M2590 1246 c0 -2 8 -10 18 -17 15 -13 16 -12 3 4 -13 16 -21 21 -21
13z"/>
<path d="M2843 1190 c0 -30 2 -43 4 -27 2 15 2 39 0 55 -2 15 -4 2 -4 -28z"/>
<path d="M2880 1210 c-14 -11 -20 -20 -15 -19 13 0 50 28 44 33 -2 3 -15 -4
-29 -14z"/>
<path d="M2915 1150 c0 -53 1 -55 25 -40 12 8 12 14 -5 50 l-20 40 0 -50z"/>
<path d="M1700 1165 c-7 -9 -8 -15 -2 -15 5 0 12 7 16 15 3 8 4 15 2 15 -2 0
-9 -7 -16 -15z"/>
<path d="M1635 1139 c-4 -6 -4 -13 0 -17 4 -4 10 -2 12 4 2 6 16 9 31 7 23 -3
24 -2 7 6 -27 13 -43 13 -50 0z"/>
<path d="M2870 1140 c0 -5 5 -10 10 -10 6 0 10 5 10 10 0 6 -4 10 -10 10 -5 0
-10 -4 -10 -10z"/>
<path d="M2125 1110 c-3 -5 -1 -10 4 -10 6 0 11 5 11 10 0 6 -2 10 -4 10 -3 0
-8 -4 -11 -10z"/>
<path d="M2830 1099 c0 -5 5 -7 10 -4 6 3 10 8 10 11 0 2 -4 4 -10 4 -5 0 -10
-5 -10 -11z"/>
<path d="M2065 1080 c-3 -5 1 -10 10 -10 9 0 13 5 10 10 -3 6 -8 10 -10 10 -2
0 -7 -4 -10 -10z"/>
<path d="M2238 1073 c7 -3 16 -2 19 1 4 3 -2 6 -13 5 -11 0 -14 -3 -6 -6z"/>
<path d="M2363 1073 c9 -2 23 -2 30 0 6 3 -1 5 -18 5 -16 0 -22 -2 -12 -5z"/>
<path d="M2418 1073 c6 -2 18 -2 25 0 6 3 1 5 -13 5 -14 0 -19 -2 -12 -5z"/>
<path d="M2588 1073 c7 -3 16 -2 19 1 4 3 -2 6 -13 5 -11 0 -14 -3 -6 -6z"/>
<path d="M1971 1013 c-29 -35 -34 -52 -13 -39 11 6 54 76 47 76 -2 0 -17 -17
-34 -37z"/>
<path d="M1959 948 c-34 -52 -49 -80 -33 -63 16 16 29 33 29 36 0 4 11 22 25
41 27 36 51 78 45 78 -3 0 -32 -42 -66 -92z"/>
<path d="M1920 935 c-7 -9 -11 -17 -9 -20 3 -2 10 5 17 15 14 24 10 26 -8 5z"/>
<path d="M1837 780 c-26 -33 -47 -65 -47 -71 0 -7 12 6 26 27 15 21 38 54 52
71 13 18 22 33 20 33 -3 0 -26 -27 -51 -60z"/>
<path d="M1789 753 c-13 -16 -12 -17 4 -4 16 13 21 21 13 21 -2 0 -10 -8 -17
-17z"/>
<path d="M1810 671 c0 -6 5 -13 10 -16 6 -3 10 1 10 9 0 9 -4 16 -10 16 -5 0
-10 -4 -10 -9z"/>
<path d="M1957 623 c-37 -87 -67 -162 -67 -166 0 -5 12 -7 27 -5 23 3 33 17
81 126 30 68 59 119 63 115 4 -4 30 -60 56 -123 46 -109 50 -115 80 -118 l31
-3 -67 163 -66 163 -36 3 -35 3 -67 -158z"/>
<path d="M2290 760 c-8 -5 -10 -10 -5 -10 6 0 17 5 25 10 8 5 11 10 5 10 -5 0
-17 -5 -25 -10z"/>
<path d="M1480 846 c11 -29 7 -41 -12 -41 -6 0 -14 -7 -16 -15 -4 -12 0 -11
21 3 19 12 27 13 30 4 3 -6 6 -2 6 9 1 12 -8 32 -19 45 l-20 24 10 -29z"/>
<path d="M1411 754 c0 -11 3 -14 6 -6 3 7 2 16 -1 19 -3 4 -6 -2 -5 -13z"/>
<path d="M1377 741 c-4 -17 -3 -21 5 -13 5 5 8 16 6 23 -3 8 -7 3 -11 -10z"/>
<path d="M1586 747 c3 -10 9 -15 12 -12 3 3 0 11 -7 18 -10 9 -11 8 -5 -6z"/>
<path d="M1370 702 c0 -7 -5 -11 -11 -9 -6 1 -15 -8 -20 -20 -4 -13 -5 -23 0
-23 12 0 44 50 37 58 -3 3 -6 0 -6 -6z"/>
<path d="M1590 576 c0 -2 7 -7 16 -10 8 -3 12 -2 9 4 -6 10 -25 14 -25 6z"/>
<path d="M1370 563 c-8 -3 -27 -16 -42 -29 -23 -19 -25 -23 -11 -28 11 -5 29
5 52 29 34 33 34 40 1 28z"/>
<path d="M1242 529 c-35 -31 -38 -44 -9 -33 12 4 54 65 44 64 -1 0 -17 -14
-35 -31z"/>
<path d="M1630 556 c0 -2 7 -7 16 -10 8 -3 12 -2 9 4 -6 10 -25 14 -25 6z"/>
<path d="M3510 2970 c-12 -8 -10 -10 8 -10 13 0 20 4 17 10 -7 12 -6 12 -25 0z"/>
<path d="M3495 2880 c-3 -5 -1 -10 4 -10 6 0 11 5 11 10 0 6 -2 10 -4 10 -3 0
-8 -4 -11 -10z"/>
<path d="M3973 2798 c7 -24 -31 -77 -51 -70 -7 2 -12 -1 -12 -8 0 -6 4 -9 9
-5 6 3 15 -3 21 -14 6 -12 16 -18 25 -15 11 5 13 2 9 -10 -3 -9 -11 -13 -16
-10 -6 4 -8 -1 -4 -14 4 -11 2 -23 -4 -27 -5 -3 -10 0 -11 7 0 7 -5 2 -11 -12
-6 -14 -10 -28 -10 -32 1 -5 -5 -8 -14 -8 -9 0 -12 -5 -8 -12 5 -8 2 -9 -12
-4 -15 6 -14 3 6 -19 13 -14 30 -23 37 -21 7 3 17 -3 22 -12 9 -14 10 -12 11
13 l0 30 20 -32 c22 -37 35 -43 25 -13 -5 15 0 23 19 31 20 10 23 15 15 26 -9
10 -8 13 1 13 7 0 10 7 6 16 -4 11 -2 15 7 11 9 -3 13 2 12 16 -1 12 -9 23
-18 25 -9 2 -17 10 -17 19 0 11 7 13 29 8 17 -3 32 -2 36 4 4 7 -5 11 -24 11
-29 0 -49 15 -37 27 3 4 19 6 35 6 20 0 28 4 24 14 -3 7 -9 13 -13 13 -4 0 -7
12 -7 26 0 33 -17 44 -67 44 -34 0 -38 -2 -33 -22z"/>
<path d="M3921 2754 c0 -11 3 -14 6 -6 3 7 2 16 -1 19 -3 4 -6 -2 -5 -13z"/>
<path d="M3908 2677 c-18 -14 -41 -87 -28 -87 11 0 27 28 31 55 2 11 8 23 14
27 5 4 7 9 4 12 -3 3 -13 0 -21 -7z"/>
<path d="M3501 2530 c-9 -22 -10 -35 -3 -42 13 -13 45 15 32 28 -4 5 -10 17
-12 27 -2 14 -6 10 -17 -13z"/>
<path d="M3555 2520 c-4 -6 3 -10 14 -10 25 0 27 6 6 13 -8 4 -17 2 -20 -3z"/>
<path d="M4052 2510 c0 -14 2 -19 5 -12 2 6 2 18 0 25 -3 6 -5 1 -5 -13z"/>
<path d="M4025 2470 c-3 -5 -1 -10 4 -10 6 0 11 5 11 10 0 6 -2 10 -4 10 -3 0
-8 -4 -11 -10z"/>
<path d="M3495 2450 c-19 -8 -19 -9 2 -9 12 -1 25 4 28 9 7 12 -2 12 -30 0z"/>
<path d="M3947 2437 c-3 -7 1 -21 9 -32 13 -18 14 -17 14 7 0 29 -15 45 -23
25z"/>
<path d="M3515 2403 c-8 -21 -7 -23 10 -17 21 9 19 -10 -5 -31 -24 -22 -25
-31 -4 -39 12 -4 15 -2 10 9 -3 9 3 24 15 36 11 11 18 27 15 35 -4 11 -1 14
13 9 11 -3 22 -1 26 5 4 6 -9 9 -34 8 -24 -1 -42 -7 -46 -15z"/>
<path d="M3618 2367 c-25 -12 -26 -13 -8 -34 l17 -22 11 35 c5 19 9 34 9 33
-1 0 -14 -6 -29 -12z"/>
<path d="M2786 2144 c-9 -22 -8 -24 9 -24 8 0 15 6 15 14 0 22 -17 28 -24 10z"/>
<path d="M2830 2150 c-13 -8 -12 -10 3 -10 9 0 17 5 17 10 0 12 -1 12 -20 0z"/>
<path d="M3670 2021 c24 -14 87 -25 75 -13 -5 5 -28 12 -50 15 -24 4 -34 3
-25 -2z"/>
<path d="M2985 1770 c-3 -5 1 -10 9 -10 9 0 16 5 16 10 0 6 -4 10 -9 10 -6 0
-13 -4 -16 -10z"/>
<path d="M2935 1710 c-3 -5 -1 -10 4 -10 6 0 11 5 11 10 0 6 -2 10 -4 10 -3 0
-8 -4 -11 -10z"/>
<path d="M2940 1665 c13 -34 13 -38 -2 -29 -7 4 -2 -5 11 -19 25 -27 37 -35
26 -17 -3 6 -1 10 6 10 7 0 3 10 -9 23 -12 13 -22 28 -22 35 0 6 -4 14 -10 17
-7 4 -7 -3 0 -20z"/>
<path d="M3063 1617 c-18 -6 -33 -15 -33 -20 0 -4 9 -5 20 -2 11 4 20 2 20 -4
0 -6 5 -11 12 -11 9 0 9 3 0 12 -9 9 -7 14 6 24 19 15 19 15 -25 1z"/>
<path d="M3100 1551 c5 -11 15 -23 21 -27 6 -3 3 5 -6 20 -20 30 -30 35 -15 7z"/>
<path d="M3140 1494 c0 -13 18 -39 24 -34 2 3 -2 14 -10 24 -8 11 -14 16 -14
10z"/>
<path d="M3076 1357 c3 -10 9 -15 12 -12 3 3 0 11 -7 18 -10 9 -11 8 -5 -6z"/>
<path d="M3225 1340 c-3 -5 -1 -10 4 -10 6 0 11 5 11 10 0 6 -2 10 -4 10 -3 0
-8 -4 -11 -10z"/>
<path d="M3100 1316 c0 -2 8 -10 18 -17 15 -13 16 -12 3 4 -13 16 -21 21 -21
13z"/>
<path d="M3360 1159 c0 -5 5 -7 10 -4 6 3 10 8 10 11 0 2 -4 4 -10 4 -5 0 -10
-5 -10 -11z"/>
<path d="M3400 1166 c0 -2 8 -10 18 -17 15 -13 16 -12 3 4 -13 16 -21 21 -21
13z"/>
<path d="M3625 1020 c3 -5 10 -10 16 -10 5 0 9 5 9 10 0 6 -7 10 -16 10 -8 0
-12 -4 -9 -10z"/>
<path d="M3500 966 c0 -2 8 -10 18 -17 15 -13 16 -12 3 4 -13 16 -21 21 -21
13z"/>
<path d="M2727 823 c-4 -3 -7 -13 -7 -22 1 -13 3 -13 11 2 11 19 8 33 -4 20z"/>
<path d="M3655 789 c-4 -6 -5 -12 -2 -15 2 -3 7 2 10 11 7 17 1 20 -8 4z"/>
<path d="M3365 782 c-22 -2 -45 -19 -82 -60 l-53 -57 0 58 c0 57 0 57 -30 57
-28 0 -30 -2 -30 -40 0 -35 12 -57 91 -165 80 -111 93 -125 120 -125 16 0 29
2 29 5 0 3 -27 42 -60 87 -33 45 -60 86 -60 91 0 5 25 41 56 79 31 38 54 70
52 71 -1 2 -16 1 -33 -1z"/>
<path d="M2590 755 c0 -23 3 -24 66 -27 51 -2 70 -7 78 -20 21 -35 -4 -53 -78
-56 l-66 -3 0 -99 c0 -100 0 -100 25 -100 24 0 25 3 25 58 0 31 4 63 9 71 9
14 21 -1 76 -96 16 -27 26 -33 52 -33 l32 0 -40 69 c-43 75 -45 81 -26 81 51
0 70 109 28 154 -22 24 -32 26 -103 26 -76 0 -78 -1 -78 -25z"/>
<path d="M3588 764 c6 -12 8 -25 4 -30 -4 -5 0 -3 9 4 9 7 21 11 25 10 5 -2
10 2 11 7 1 6 -5 9 -13 7 -9 -2 -23 3 -31 10 -14 11 -15 11 -5 -8z"/>
<path d="M3587 669 c-37 -67 -34 -77 4 -11 17 29 30 55 28 57 -2 2 -16 -19
-32 -46z"/>
<path d="M2654 544 c3 -9 6 -18 6 -20 0 -2 7 -4 15 -4 13 0 14 4 5 20 -13 24
-35 27 -26 4z"/>
</g>
</svg>
