<?xml version="1.0" standalone="no"?>
<!DOCTYPE svg PUBLIC "-//W3C//DTD SVG 20010904//EN"
 "http://www.w3.org/TR/2001/REC-SVG-20010904/DTD/svg10.dtd">
<svg version="1.0" xmlns="http://www.w3.org/2000/svg"
 width="256.000000pt" height="256.000000pt" viewBox="0 0 256.000000 256.000000"
 preserveAspectRatio="xMidYMid meet">
<metadata>
Created by potrace 1.11, written by Peter Selinger 2001-2013
</metadata>
<g transform="translate(0.000000,256.000000) scale(0.100000,-0.100000)"
fill="#000000" stroke="none">
<path d="M1357 2394 c-1 -1 -24 -4 -52 -7 -27 -3 -81 -13 -120 -22 -38 -9
-116 -18 -172 -19 -93 -2 -103 0 -103 16 0 10 -6 19 -12 20 -7 0 -20 2 -28 3
-8 0 -44 -9 -80 -21 -36 -12 -78 -21 -95 -20 -32 2 -37 -2 -77 -74 -55 -99
-72 -127 -113 -189 -23 -36 -69 -115 -102 -176 -32 -60 -99 -180 -148 -266
-78 -136 -91 -155 -102 -140 -12 15 -15 14 -32 -6 -18 -21 -54 -125 -67 -190
-6 -31 38 -194 62 -231 14 -22 17 -22 33 -8 15 14 24 1 122 -172 58 -103 119
-212 134 -242 16 -30 60 -104 98 -165 38 -60 81 -130 95 -155 59 -106 69 -117
99 -115 15 0 61 -9 100 -22 76 -24 103 -22 103 6 0 14 13 16 102 14 57 0 112
-4 123 -7 112 -31 256 -49 272 -32 3 3 -1 14 -10 24 -15 16 -3 17 245 17 l260
-1 35 56 c20 30 60 77 89 103 56 50 65 70 39 84 -12 7 -3 27 46 108 33 55 91
140 128 188 73 95 154 241 192 347 13 36 38 91 56 122 33 57 33 58 17 90 -9
18 -24 44 -34 58 -9 14 -25 50 -35 80 -36 113 -126 272 -220 390 -54 67 -82
109 -129 193 -23 43 -25 50 -11 63 14 14 13 19 -5 44 -11 16 -38 43 -61 60
-22 18 -51 53 -64 79 -13 26 -29 52 -37 57 -8 7 -107 10 -260 10 l-247 -1 20
21 20 22 -36 4 c-19 2 -37 3 -38 2z"/>
<path d="M1880 2375 c7 -8 16 -15 21 -15 5 0 9 7 9 15 0 9 -9 15 -21 15 -18 0
-19 -2 -9 -15z"/>
</g>
</svg>
