<?xml version="1.0" standalone="no"?>
<!DOCTYPE svg PUBLIC "-//W3C//DTD SVG 20010904//EN"
 "http://www.w3.org/TR/2001/REC-SVG-20010904/DTD/svg10.dtd">
<svg version="1.0" xmlns="http://www.w3.org/2000/svg"
 width="210.000000pt" height="210.000000pt" viewBox="0 0 210.000000 210.000000"
 preserveAspectRatio="xMidYMid meet">
<metadata>
Created by potrace 1.11, written by Peter Selinger 2001-2013
</metadata>
<g transform="translate(0.000000,210.000000) scale(0.100000,-0.100000)"
fill="#000000" stroke="none">
<path d="M275 2015 c-100 -23 -179 -80 -225 -160 -17 -30 -29 -59 -26 -64 4
-5 0 -11 -6 -13 -9 -3 -13 -32 -13 -99 1 -150 40 -210 218 -331 177 -121 311
-282 390 -468 56 -132 82 -249 103 -470 13 -143 78 -244 194 -305 51 -27 209
-27 268 -1 23 10 42 23 42 28 0 4 6 8 13 8 27 0 114 111 102 130 -3 6 -2 10 3
10 17 0 32 61 25 103 -4 26 -3 38 4 34 7 -4 13 17 17 56 14 129 18 154 33 217
57 244 200 470 386 610 27 21 47 43 47 55 0 14 3 16 8 7 11 -16 115 50 155 98
86 102 104 247 45 370 -32 67 -116 144 -185 170 -114 43 -210 26 -355 -62 -46
-28 -96 -56 -113 -63 l-30 -13 -1 -339 c-1 -324 -2 -340 -23 -388 -35 -79 -83
-130 -162 -169 -65 -32 -76 -35 -147 -32 -42 2 -85 6 -94 11 -13 5 -18 3 -18
-10 0 -9 -4 -14 -10 -10 -5 3 -7 12 -4 19 3 8 -6 17 -23 24 -85 30 -182 187
-175 285 0 9 -3 17 -7 17 -14 0 -20 51 -6 56 18 7 18 124 -1 124 -18 0 -18 19
-1 26 11 4 13 45 13 194 l-1 190 -50 26 c-27 15 -61 35 -75 44 -45 32 -146 78
-181 84 -73 13 -86 13 -134 1z m257 -145 c3 -30 0 -35 -19 -38 -13 -2 -23 1
-23 7 0 6 4 11 10 11 5 0 9 8 8 18 -1 9 0 26 0 37 3 30 20 5 24 -35z m1215
-143 c-14 -25 -33 -47 -41 -47 -14 0 -4 33 17 54 26 28 42 24 24 -7z m-1227 9
c0 -3 -4 -8 -10 -11 -5 -3 -10 -1 -10 4 0 6 5 11 10 11 6 0 10 -2 10 -4z
m1245 -16 c3 -5 1 -10 -4 -10 -6 0 -11 5 -11 10 0 6 2 10 4 10 3 0 8 -4 11
-10z m15 -30 c0 -5 -8 -10 -17 -10 -15 0 -16 2 -3 10 19 12 20 12 20 0z m-104
-29 c-3 -5 -17 -11 -30 -13 -17 -4 -23 -1 -19 9 3 7 16 13 30 13 13 0 22 -4
19 -9z m-1199 -71 c-2 -46 -27 -57 -27 -12 0 22 15 52 26 52 1 0 1 -18 1 -40z
m1063 36 c0 -11 -19 -15 -25 -6 -3 5 1 10 9 10 9 0 16 -2 16 -4z m-1400 -46
c0 -13 -7 -20 -19 -20 -14 0 -18 5 -14 20 3 11 12 20 19 20 8 0 14 -9 14 -20z
m90 -38 c0 -10 -41 -35 -47 -28 -11 11 7 36 27 36 11 0 20 -3 20 -8z m366 -29
c-10 -10 -19 5 -10 18 6 11 8 11 12 0 2 -7 1 -15 -2 -18z m90 17 c8 0 14 -4
14 -10 0 -15 -49 -8 -55 8 -4 10 0 12 11 8 8 -3 22 -6 30 -6z m-389 -41 c-9
-6 -15 -14 -12 -20 4 -5 1 -9 -4 -9 -6 0 -11 4 -11 10 0 5 -8 7 -17 5 -10 -3
-4 1 12 9 34 17 59 21 32 5z m54 -33 c5 3 9 1 9 -4 0 -11 -36 -23 -44 -15 -3
3 1 11 7 18 7 7 14 9 15 4 2 -5 8 -7 13 -3z m19 -66 c0 -5 -5 -10 -11 -10 -5
0 -7 5 -4 10 3 6 8 10 11 10 2 0 4 -4 4 -10z m150 -69 c0 -5 -7 -12 -16 -15
-22 -9 -24 -8 -24 9 0 8 9 15 20 15 11 0 20 -4 20 -9z m93 -65 c3 -8 0 -20 -8
-26 -10 -8 -14 -8 -18 2 -10 29 15 52 26 24z m158 -339 c-13 -13 -26 -3 -16
12 3 6 11 8 17 5 6 -4 6 -10 -1 -17z m69 -11 c0 -3 -4 -8 -10 -11 -5 -3 -10
-1 -10 4 0 6 5 11 10 11 6 0 10 -2 10 -4z m87 -68 c-3 -8 -6 -5 -6 6 -1 11 2
17 5 13 3 -3 4 -12 1 -19z m73 12 c0 -5 -4 -10 -10 -10 -5 0 -10 5 -10 10 0 6
5 10 10 10 6 0 10 -4 10 -10z m45 -50 c-3 -5 -10 -10 -16 -10 -5 0 -9 5 -9 10
0 6 7 10 16 10 8 0 12 -4 9 -10z m-118 -22 c-3 -8 -6 -5 -6 6 -1 11 2 17 5 13
3 -3 4 -12 1 -19z m193 -39 c0 -5 -7 -9 -15 -9 -15 0 -20 12 -9 23 8 8 24 -1
24 -14z m-172 -21 c-6 -18 -28 -21 -28 -4 0 9 7 16 16 16 9 0 14 -5 12 -12z
m229 -61 c-4 -13 -22 -3 -22 12 0 8 -6 16 -13 19 -6 2 -9 8 -6 14 7 12 45 -31
41 -45z m-147 -12 c0 -8 -4 -15 -10 -15 -5 0 -7 7 -4 15 4 8 8 15 10 15 2 0 4
-7 4 -15z m256 -41 c-3 -9 -6 -18 -6 -20 0 -2 -7 -4 -15 -4 -13 0 -13 3 -3 20
15 24 33 27 24 4z m-81 -14 c3 -5 2 -10 -4 -10 -5 0 -13 5 -16 10 -3 6 -2 10
4 10 5 0 13 -4 16 -10z m-135 -30 c0 -5 -5 -10 -11 -10 -5 0 -7 5 -4 10 3 6 8
10 11 10 2 0 4 -4 4 -10z m226 -26 c-3 -9 -6 -18 -6 -21 0 -3 -7 0 -15 7 -13
11 -13 15 -3 21 21 13 31 10 24 -7z m-146 -10 c0 -8 -4 -12 -10 -9 -5 3 -10
10 -10 16 0 5 5 9 10 9 6 0 10 -7 10 -16z m110 -14 c0 -5 -4 -10 -10 -10 -5 0
-10 5 -10 10 0 6 5 10 10 10 6 0 10 -4 10 -10z m70 -34 c0 -3 -4 -8 -10 -11
-5 -3 -10 -1 -10 4 0 6 5 11 10 11 6 0 10 -2 10 -4z m-423 -48 c-3 -8 -6 -5
-6 6 -1 11 2 17 5 13 3 -3 4 -12 1 -19z"/>
<path d="M953 1831 c-25 -11 -43 -27 -43 -36 0 -9 -5 -13 -10 -10 -15 9 -47
-32 -64 -84 -13 -35 -15 -88 -13 -270 2 -196 4 -231 20 -263 86 -172 324 -174
403 -4 23 49 24 60 24 282 l0 230 -27 55 c-40 78 -94 112 -181 117 -51 2 -77
-2 -109 -17z"/>
</g>
</svg>
