<?xml version="1.0" standalone="no"?>
<!DOCTYPE svg PUBLIC "-//W3C//DTD SVG 20010904//EN"
 "http://www.w3.org/TR/2001/REC-SVG-20010904/DTD/svg10.dtd">
<svg version="1.0" xmlns="http://www.w3.org/2000/svg"
 width="985.000000pt" height="985.000000pt" viewBox="0 0 985.000000 985.000000"
 preserveAspectRatio="xMidYMid meet">
<metadata>
Created by potrace 1.11, written by Peter Selinger 2001-2013
</metadata>
<g transform="translate(0.000000,985.000000) scale(0.100000,-0.100000)"
fill="#000000" stroke="none">
<path d="M4777 9844 c-1 -1 -63 -5 -137 -8 -74 -4 -146 -9 -160 -10 -14 -2
-59 -7 -100 -11 -41 -4 -82 -9 -90 -10 -8 -1 -40 -6 -70 -10 -30 -4 -62 -9
-70 -10 -8 -1 -35 -6 -60 -10 -357 -58 -752 -174 -1098 -322 -440 -187 -908
-476 -1252 -772 -35 -31 -80 -69 -100 -86 -45 -39 -333 -326 -385 -385 -230
-257 -423 -526 -619 -860 -62 -105 -239 -476 -289 -605 -109 -279 -210 -613
-241 -798 -3 -15 -7 -35 -10 -45 -3 -9 -7 -33 -10 -52 -3 -19 -8 -46 -11 -60
-10 -53 -14 -76 -19 -112 l-6 -36 458 0 458 1 27 126 c30 140 28 134 51 212 9
31 18 65 20 75 6 25 84 261 100 299 7 17 35 82 61 145 152 363 371 715 651
1047 81 96 353 363 454 447 52 43 104 86 115 95 11 9 61 46 110 82 246 179
472 308 786 448 242 108 642 225 909 266 19 3 46 7 60 10 14 2 43 7 65 9 22 3
58 7 80 10 136 17 207 20 440 21 226 0 406 -7 471 -19 10 -2 46 -7 79 -10 97
-12 123 -16 255 -42 1016 -202 1922 -796 2514 -1647 304 -437 535 -972 632
-1462 2 -11 6 -33 10 -50 13 -69 -33 -63 470 -63 l456 1 -6 46 c-3 25 -8 55
-10 66 -2 11 -13 72 -25 135 -103 547 -334 1129 -648 1635 -116 185 -295 434
-405 561 -14 16 -47 54 -73 84 -129 150 -378 392 -545 531 -482 401 -1023 702
-1606 894 -140 47 -345 105 -423 121 -12 3 -51 11 -85 19 -34 8 -79 17 -101
20 -22 4 -47 8 -55 10 -8 3 -33 7 -55 10 -22 3 -51 8 -65 11 -14 2 -41 6 -60
9 -102 13 -153 19 -252 30 -107 12 -581 27 -591 19z"/>
<path d="M4827 8484 c-1 -1 -51 -4 -112 -8 -183 -10 -290 -23 -500 -62 -175
-31 -472 -124 -678 -211 -914 -385 -1631 -1139 -1962 -2063 -65 -181 -138
-451 -159 -585 -30 -198 -34 -229 -43 -325 -10 -107 -10 -489 -1 -597 13 -143
41 -338 62 -428 2 -11 10 -42 16 -70 6 -27 13 -57 15 -65 28 -131 135 -450
151 -450 3 0 33 16 67 36 34 20 78 46 97 56 19 11 117 68 218 126 159 91 183
108 179 126 -3 12 -22 75 -42 141 -36 122 -59 211 -69 275 -3 19 -8 44 -10 56
-2 12 -7 45 -11 74 -4 29 -8 60 -10 69 -23 120 -23 551 -1 681 3 14 7 47 11
74 5 41 18 114 39 223 3 13 17 67 31 120 156 572 471 1073 915 1454 268 231
609 424 965 547 175 61 466 123 655 139 175 15 529 8 640 -12 14 -2 41 -7 60
-9 177 -24 503 -112 635 -170 17 -8 64 -28 105 -46 176 -76 374 -190 544 -314
56 -41 110 -82 121 -93 12 -10 54 -47 95 -83 69 -61 192 -184 257 -257 l28
-32 215 126 c118 69 246 143 283 165 38 22 67 44 65 48 -8 24 -146 179 -267
301 -373 374 -808 650 -1314 833 -141 51 -401 123 -517 142 -14 2 -36 7 -50
10 -13 3 -40 7 -60 10 -19 2 -46 6 -60 9 -14 2 -47 7 -75 11 -27 3 -61 7 -75
10 -44 7 -446 23 -453 18z"/>
<path d="M4695 7439 c-33 -3 -82 -9 -110 -13 -71 -9 -228 -37 -235 -41 -4 -2
-17 -6 -31 -9 -52 -11 -68 -15 -178 -51 -143 -47 -296 -110 -409 -171 -758
-409 -1253 -1159 -1328 -2014 -13 -150 -8 -416 11 -531 2 -13 9 -58 15 -99 58
-391 252 -826 517 -1160 102 -129 393 -415 407 -399 10 12 186 323 186 330 0
4 3 9 8 11 4 1 14 16 22 32 l15 29 -121 121 c-111 112 -196 214 -269 326 -121
185 -246 477 -281 660 -3 14 -9 41 -14 60 -4 19 -11 57 -15 83 -3 27 -9 59
-12 70 -10 39 -11 410 -2 477 16 118 20 141 34 210 29 143 95 328 173 484 165
331 405 601 712 802 261 170 500 261 845 319 169 28 450 24 630 -10 107 -20
151 -30 237 -56 55 -17 104 -29 109 -27 5 2 60 92 123 201 l115 198 -27 11
c-112 44 -339 108 -436 124 -21 3 -46 7 -55 9 -38 7 -106 17 -135 21 -62 8
-442 10 -501 3z"/>
<path d="M6462 6868 c-11 -18 -29 -49 -40 -68 -10 -19 -54 -95 -96 -167 l-77
-133 109 -107 c180 -178 289 -328 401 -555 93 -185 157 -388 196 -613 23 -133
24 -484 2 -585 -2 -8 -7 -37 -11 -65 -26 -167 -92 -368 -181 -551 -81 -165
-143 -260 -284 -437 -37 -47 -203 -208 -267 -259 -218 -175 -453 -297 -726
-378 -53 -16 -116 -32 -140 -35 -23 -4 -45 -8 -48 -10 -3 -2 -26 -6 -50 -9
-25 -4 -56 -9 -70 -11 -53 -9 -165 -16 -263 -16 -214 0 -385 25 -599 89 l-97
29 -115 -200 c-105 -181 -114 -201 -99 -212 34 -25 328 -109 453 -130 19 -3
42 -8 50 -10 8 -2 38 -6 65 -9 28 -3 77 -9 110 -13 119 -14 487 -6 570 13 11
2 36 6 55 8 29 4 87 15 203 41 143 32 344 104 507 183 568 273 1016 758 1248
1352 42 109 101 302 116 380 3 14 9 50 15 80 11 55 14 80 31 215 9 75 6 477
-5 535 -3 19 -13 78 -21 130 -81 500 -330 986 -694 1350 -101 101 -211 200
-223 200 -3 0 -14 -15 -25 -32z"/>
<path d="M4675 6324 c-168 -35 -243 -59 -371 -120 -372 -177 -655 -518 -758
-916 -34 -132 -41 -190 -41 -363 0 -153 5 -209 32 -330 4 -16 8 -35 9 -41 5
-26 69 -193 94 -245 163 -338 470 -609 826 -727 83 -28 235 -65 241 -58 3 2 6
217 4 248 -1 15 -15 21 -119 43 -54 12 -200 78 -277 125 -218 131 -400 356
-487 600 -80 224 -85 501 -12 731 94 298 311 553 590 692 59 30 212 83 267 93
42 7 39 -5 38 159 0 120 0 115 -8 114 -5 -1 -17 -3 -28 -5z"/>
<path d="M5127 6322 c-3 -4 -4 -64 -4 -133 l0 -127 37 -6 c20 -3 72 -17 116
-31 371 -121 660 -428 759 -808 30 -117 36 -168 36 -297 -1 -309 -115 -583
-336 -806 -144 -147 -333 -256 -528 -306 l-85 -22 2 -131 1 -130 35 3 c19 2
82 17 140 33 334 95 618 303 804 587 126 193 199 401 225 635 8 74 6 262 -3
323 -25 159 -69 307 -127 430 -41 85 -142 243 -195 304 -197 227 -459 391
-730 458 -108 27 -143 33 -147 24z"/>
<path d="M8175 6211 c-16 -10 -118 -69 -225 -131 -107 -62 -206 -120 -220
-128 -14 -9 -27 -17 -30 -17 -3 0 -15 -7 -27 -16 l-22 -15 25 -74 c38 -114 90
-335 109 -456 9 -60 18 -122 21 -139 10 -54 12 -489 3 -565 -4 -41 -11 -97
-14 -125 -39 -327 -175 -736 -347 -1039 -133 -236 -282 -432 -472 -621 -138
-138 -159 -157 -271 -245 -66 -53 -263 -188 -295 -203 -8 -4 -31 -17 -50 -29
-47 -28 -286 -148 -297 -148 -4 0 -21 -7 -38 -16 -56 -29 -350 -123 -465 -148
-137 -30 -153 -33 -250 -45 -41 -6 -97 -13 -125 -17 -74 -9 -415 -12 -482 -3
-32 4 -85 10 -118 13 -50 4 -160 22 -310 51 -16 3 -55 12 -85 21 -435 121
-804 310 -1130 580 -98 81 -282 261 -327 320 l-26 34 -56 -31 c-31 -17 -161
-92 -289 -166 l-232 -135 32 -41 c38 -49 38 -49 143 -164 140 -154 375 -363
520 -463 28 -19 52 -37 55 -40 9 -10 123 -83 229 -147 193 -116 443 -229 674
-307 132 -44 189 -60 332 -95 60 -15 303 -58 360 -65 28 -3 79 -9 115 -13 85
-10 541 -10 647 0 81 7 208 23 254 32 13 3 41 7 63 11 168 25 464 110 681 196
89 35 372 171 450 216 90 52 315 201 390 259 6 5 30 24 55 43 25 19 47 37 50
40 3 3 39 34 80 69 386 332 716 785 924 1271 102 237 203 573 232 765 3 22 9
58 14 80 5 22 12 72 15 110 4 39 9 79 11 89 8 45 17 226 17 368 1 221 -17 420
-54 618 -44 236 -103 448 -186 668 -7 16 -22 14 -58 -7z"/>
<path d="M50 4207 c0 -2 4 -28 10 -58 5 -30 12 -70 15 -89 8 -50 32 -164 51
-245 9 -39 17 -77 19 -85 2 -8 8 -27 14 -42 6 -16 9 -28 7 -28 -2 0 3 -21 11
-47 8 -27 16 -57 19 -69 9 -45 105 -319 159 -455 97 -243 279 -603 376 -746
16 -23 29 -46 29 -51 0 -6 3 -12 8 -14 4 -1 34 -43 66 -93 158 -240 369 -497
593 -721 168 -169 204 -202 358 -330 344 -283 770 -547 1145 -708 36 -15 79
-34 95 -41 181 -80 603 -216 780 -251 22 -5 42 -9 45 -9 3 -1 19 -4 35 -8 17
-4 41 -9 55 -12 14 -3 48 -9 75 -15 82 -16 305 -48 380 -55 39 -3 84 -8 100
-10 54 -7 318 -18 425 -17 115 0 371 10 410 16 14 3 59 7 100 11 90 7 341 43
390 55 19 5 49 11 65 13 17 3 82 17 145 32 592 140 1126 371 1615 698 86 58
288 203 330 239 328 271 608 551 785 784 25 32 48 61 51 64 13 12 128 173 209
294 143 214 310 519 399 726 12 30 29 69 36 85 130 296 286 846 321 1137 l6
48 -455 0 c-425 0 -456 -1 -461 -17 -2 -10 -10 -45 -16 -78 -6 -33 -21 -96
-32 -140 -11 -44 -21 -87 -23 -95 -2 -8 -22 -76 -45 -150 -109 -352 -293 -736
-499 -1040 -60 -89 -169 -239 -181 -250 -3 -3 -25 -30 -50 -60 -412 -504 -978
-925 -1569 -1165 -199 -81 -476 -171 -590 -192 -14 -2 -28 -6 -32 -8 -4 -3
-24 -7 -45 -11 -22 -3 -55 -9 -74 -14 -19 -5 -51 -11 -70 -14 -19 -3 -62 -10
-95 -16 -33 -5 -87 -12 -120 -16 -33 -3 -66 -7 -73 -10 -55 -17 -566 -25 -742
-11 -134 11 -312 33 -395 50 -11 3 -38 8 -60 12 -22 4 -51 9 -64 12 -24 4
-171 39 -201 48 -8 2 -40 11 -70 19 -255 69 -675 244 -884 369 -488 290 -865
616 -1177 1017 -350 449 -590 935 -728 1475 -21 83 -45 180 -52 218 l-13 67
-458 0 c-252 0 -458 -1 -458 -3z"/>
</g>
</svg>
